<svg width="71" height="71" viewBox="0 0 71 71" fill="none" xmlns="http://www.w3.org/2000/svg">
<rect x="0.5" y="0.5" width="70" height="70" rx="4.5" fill="#101114"/>
<rect x="0.5" y="0.5" width="70" height="70" rx="4.5" stroke="#292A36"/>
<path d="M18.976 39L22.084 30.24H24.112L27.208 39H25.564L23.104 31.512H23.08L20.62 39H18.976ZM20.68 36.9V35.568H25.516V36.9H20.68ZM28.2699 39V37.824L31.6059 33.96V33.936H28.2699V32.76H33.5019V33.936L30.1659 37.8V37.824H33.5019V39H28.2699ZM37.0036 39.12C36.2756 39.12 35.7396 38.896 35.3956 38.448C35.0596 38 34.8916 37.304 34.8916 36.36V32.76H36.3676V36.084C36.3676 36.708 36.4556 37.168 36.6316 37.464C36.8076 37.76 37.0876 37.908 37.4716 37.908C37.7596 37.908 38.0236 37.832 38.2636 37.68C38.5116 37.528 38.7036 37.328 38.8396 37.08C38.9836 36.824 39.0556 36.544 39.0556 36.24V32.76H40.5316V39H39.1276L39.1156 38.16H39.0916C38.8196 38.48 38.5156 38.72 38.1796 38.88C37.8436 39.04 37.4516 39.12 37.0036 39.12ZM42.2783 39V32.76H43.6943L43.7063 33.936H43.7303C43.9383 33.664 44.1823 33.432 44.4623 33.24C44.7503 33.04 45.0663 32.892 45.4103 32.796C45.7543 32.692 46.1143 32.64 46.4903 32.64V33.912C45.9863 33.912 45.5263 34.008 45.1103 34.2C44.7023 34.392 44.3743 34.652 44.1263 34.98C43.8863 35.3 43.7663 35.66 43.7663 36.06V39H42.2783ZM50.0919 39.12C49.0279 39.12 48.2079 38.84 47.6319 38.28C47.0639 37.72 46.7799 36.92 46.7799 35.88C46.7799 34.872 47.0519 34.08 47.5959 33.504C48.1479 32.928 48.8999 32.64 49.8519 32.64C50.7719 32.64 51.4839 32.912 51.9879 33.456C52.4919 34 52.7439 34.772 52.7439 35.772C52.7439 35.884 52.7399 36.008 52.7319 36.144C52.7239 36.28 52.7159 36.38 52.7079 36.444H47.5959V35.376H51.5799L51.3639 35.7C51.3639 35.044 51.2359 34.56 50.9799 34.248C50.7319 33.928 50.3559 33.768 49.8519 33.768C49.3159 33.768 48.9079 33.936 48.6279 34.272C48.3559 34.6 48.2199 35.088 48.2199 35.736V36.156C48.2199 36.748 48.3759 37.196 48.6879 37.5C49.0079 37.796 49.4799 37.944 50.1039 37.944C50.4719 37.944 50.8399 37.896 51.2079 37.8C51.5759 37.704 51.9079 37.572 52.2039 37.404L52.4319 38.556C52.1279 38.732 51.7719 38.872 51.3639 38.976C50.9639 39.072 50.5399 39.12 50.0919 39.12ZM33.3743 53.12C33.0463 53.12 32.6583 53.104 32.2103 53.072C31.7703 53.048 31.3263 53.008 30.8783 52.952V44.288C31.3263 44.232 31.7703 44.192 32.2103 44.168C32.6583 44.136 33.0463 44.12 33.3743 44.12C34.4303 44.12 35.2903 44.28 35.9543 44.6C36.6263 44.912 37.1183 45.4 37.4303 46.064C37.7503 46.728 37.9103 47.58 37.9103 48.62C37.9103 49.66 37.7503 50.512 37.4303 51.176C37.1183 51.84 36.6263 52.332 35.9543 52.652C35.2903 52.964 34.4303 53.12 33.3743 53.12ZM33.4703 51.8C34.1743 51.8 34.7383 51.696 35.1623 51.488C35.5943 51.28 35.9063 50.944 36.0983 50.48C36.2903 50.008 36.3863 49.388 36.3863 48.62C36.3863 47.852 36.2903 47.236 36.0983 46.772C35.9063 46.3 35.5943 45.96 35.1623 45.752C34.7383 45.544 34.1743 45.44 33.4703 45.44C33.2383 45.44 32.9703 45.452 32.6663 45.476C32.3623 45.492 32.0303 45.52 31.6702 45.56L32.3783 44.804V52.436L31.6702 51.68C32.0303 51.72 32.3623 51.752 32.6663 51.776C32.9703 51.792 33.2383 51.8 33.4703 51.8ZM39.4703 53V44.24H41.0303V53H39.4703Z" fill="#76778C"/>
</svg>
