<svg width="71" height="71" viewBox="0 0 71 71" fill="none" xmlns="http://www.w3.org/2000/svg">
<rect x="0.5" y="0.5" width="70" height="70" rx="4.5" fill="#101114"/>
<rect x="0.5" y="0.5" width="70" height="70" rx="4.5" stroke="#292A36"/>
<path d="M18.976 32L22.084 23.24H24.112L27.208 32H25.564L23.104 24.512H23.08L20.62 32H18.976ZM20.68 29.9V28.568H25.516V29.9H20.68ZM28.2699 32V30.824L31.6059 26.96V26.936H28.2699V25.76H33.5019V26.936L30.1659 30.8V30.824H33.5019V32H28.2699ZM37.0036 32.12C36.2756 32.12 35.7396 31.896 35.3956 31.448C35.0596 31 34.8916 30.304 34.8916 29.36V25.76H36.3676V29.084C36.3676 29.708 36.4556 30.168 36.6316 30.464C36.8076 30.76 37.0876 30.908 37.4716 30.908C37.7596 30.908 38.0236 30.832 38.2636 30.68C38.5116 30.528 38.7036 30.328 38.8396 30.08C38.9836 29.824 39.0556 29.544 39.0556 29.24V25.76H40.5316V32H39.1276L39.1156 31.16H39.0916C38.8196 31.48 38.5156 31.72 38.1796 31.88C37.8436 32.04 37.4516 32.12 37.0036 32.12ZM42.2783 32V25.76H43.6943L43.7063 26.936H43.7303C43.9383 26.664 44.1823 26.432 44.4623 26.24C44.7503 26.04 45.0663 25.892 45.4103 25.796C45.7543 25.692 46.1143 25.64 46.4903 25.64V26.912C45.9863 26.912 45.5263 27.008 45.1103 27.2C44.7023 27.392 44.3743 27.652 44.1263 27.98C43.8863 28.3 43.7663 28.66 43.7663 29.06V32H42.2783ZM50.0919 32.12C49.0279 32.12 48.2079 31.84 47.6319 31.28C47.0639 30.72 46.7799 29.92 46.7799 28.88C46.7799 27.872 47.0519 27.08 47.5959 26.504C48.1479 25.928 48.8999 25.64 49.8519 25.64C50.7719 25.64 51.4839 25.912 51.9879 26.456C52.4919 27 52.7439 27.772 52.7439 28.772C52.7439 28.884 52.7399 29.008 52.7319 29.144C52.7239 29.28 52.7159 29.38 52.7079 29.444H47.5959V28.376H51.5799L51.3639 28.7C51.3639 28.044 51.2359 27.56 50.9799 27.248C50.7319 26.928 50.3559 26.768 49.8519 26.768C49.3159 26.768 48.9079 26.936 48.6279 27.272C48.3559 27.6 48.2199 28.088 48.2199 28.736V29.156C48.2199 29.748 48.3759 30.196 48.6879 30.5C49.0079 30.796 49.4799 30.944 50.1039 30.944C50.4719 30.944 50.8399 30.896 51.2079 30.8C51.5759 30.704 51.9079 30.572 52.2039 30.404L52.4319 31.556C52.1279 31.732 51.7719 31.872 51.3639 31.976C50.9639 32.072 50.5399 32.12 50.0919 32.12ZM26.5269 46.12C26.1589 46.12 25.7349 46.104 25.2549 46.072C24.7829 46.04 24.3429 46 23.9349 45.952V37.288C24.2389 37.248 24.5389 37.216 24.8349 37.192C25.1309 37.168 25.4189 37.152 25.6989 37.144C25.9789 37.128 26.2349 37.12 26.4669 37.12C27.6909 37.12 28.6149 37.308 29.2389 37.684C29.8629 38.06 30.1749 38.624 30.1749 39.376C30.1749 39.896 30.0269 40.328 29.7309 40.672C29.4429 41.008 29.0349 41.228 28.5069 41.332V41.356C29.1709 41.46 29.6709 41.696 30.0069 42.064C30.3429 42.424 30.5109 42.908 30.5109 43.516C30.5109 44.38 30.1789 45.032 29.5149 45.472C28.8509 45.904 27.8549 46.12 26.5269 46.12ZM24.9549 44.716C25.1869 44.748 25.4549 44.776 25.7589 44.8C26.0629 44.824 26.3429 44.836 26.5989 44.836C27.4229 44.836 28.0269 44.72 28.4109 44.488C28.7949 44.248 28.9869 43.88 28.9869 43.384C28.9869 42.904 28.8069 42.564 28.4469 42.364C28.0949 42.156 27.5149 42.052 26.7069 42.052H24.6789V40.804H26.7069C27.3789 40.804 27.8749 40.708 28.1949 40.516C28.5149 40.324 28.6749 40.028 28.6749 39.628C28.6749 39.212 28.5029 38.904 28.1589 38.704C27.8229 38.504 27.3029 38.404 26.5989 38.404C26.4789 38.404 26.3509 38.408 26.2149 38.416C26.0789 38.424 25.9109 38.436 25.7109 38.452C25.5109 38.468 25.2549 38.492 24.9429 38.524L25.4349 37.708V45.532L24.9549 44.716ZM31.9271 46V37.24H33.4151V46H31.9271ZM37.9887 46.12C37.3487 46.12 36.7887 45.988 36.3087 45.724C35.8367 45.46 35.4727 45.084 35.2167 44.596C34.9607 44.108 34.8327 43.536 34.8327 42.88C34.8327 42.216 34.9607 41.644 35.2167 41.164C35.4727 40.676 35.8367 40.3 36.3087 40.036C36.7887 39.772 37.3487 39.64 37.9887 39.64C38.6367 39.64 39.1967 39.772 39.6687 40.036C40.1407 40.3 40.5047 40.676 40.7607 41.164C41.0247 41.644 41.1567 42.216 41.1567 42.88C41.1567 43.536 41.0247 44.108 40.7607 44.596C40.5047 45.084 40.1407 45.46 39.6687 45.724C39.1967 45.988 38.6367 46.12 37.9887 46.12ZM37.9887 44.944C38.5247 44.944 38.9407 44.764 39.2367 44.404C39.5327 44.044 39.6807 43.536 39.6807 42.88C39.6807 42.216 39.5327 41.708 39.2367 41.356C38.9407 40.996 38.5247 40.816 37.9887 40.816C37.4527 40.816 37.0367 40.996 36.7407 41.356C36.4447 41.708 36.2967 42.216 36.2967 42.88C36.2967 43.536 36.4447 44.044 36.7407 44.404C37.0367 44.764 37.4527 44.944 37.9887 44.944ZM45.9517 46.12C45.5357 46.12 45.1517 46.048 44.7997 45.904C44.4477 45.752 44.1517 45.54 43.9117 45.268H43.8877L43.8757 46H42.4717V37.24H43.9477V40.492H43.9717C44.2037 40.212 44.4877 40 44.8237 39.856C45.1677 39.712 45.5437 39.64 45.9517 39.64C46.7837 39.64 47.4317 39.924 47.8957 40.492C48.3597 41.06 48.5917 41.856 48.5917 42.88C48.5917 43.904 48.3597 44.7 47.8957 45.268C47.4317 45.836 46.7837 46.12 45.9517 46.12ZM45.5677 44.92C46.0797 44.92 46.4717 44.744 46.7437 44.392C47.0157 44.04 47.1517 43.536 47.1517 42.88C47.1517 42.224 47.0157 41.72 46.7437 41.368C46.4717 41.016 46.0797 40.84 45.5677 40.84C45.2637 40.84 44.9877 40.904 44.7397 41.032C44.4917 41.16 44.2957 41.336 44.1517 41.56C44.0157 41.776 43.9477 42.028 43.9477 42.316V43.444C43.9477 43.724 44.0157 43.976 44.1517 44.2C44.2957 44.424 44.4917 44.6 44.7397 44.728C44.9877 44.856 45.2637 44.92 45.5677 44.92Z" fill="#76778C"/>
</svg>
