<svg width="260" height="81" viewBox="0 0 260 81" fill="none" xmlns="http://www.w3.org/2000/svg">
<rect x="0.5" y="0.5" width="259" height="80" rx="9.5" fill="#0B0B0C"/>
<rect x="0.5" y="0.5" width="259" height="80" rx="9.5" stroke="#202328"/>
<path d="M80.922 47.14C79.8207 47.14 78.8687 46.93 78.066 46.51C77.2727 46.09 76.6613 45.488 76.232 44.704C75.812 43.92 75.602 42.982 75.602 41.89C75.602 40.798 75.812 39.86 76.232 39.076C76.6613 38.292 77.2727 37.69 78.066 37.27C78.8687 36.85 79.8207 36.64 80.922 36.64C82.182 36.64 83.302 36.92 84.282 37.48L83.904 38.852C82.9613 38.3107 81.986 38.04 80.978 38.04C80.2033 38.04 79.5313 38.194 78.962 38.502C78.3927 38.81 77.954 39.2533 77.646 39.832C77.3473 40.4013 77.198 41.0873 77.198 41.89C77.198 42.6833 77.3473 43.3693 77.646 43.948C77.954 44.5267 78.3927 44.97 78.962 45.278C79.5313 45.586 80.2033 45.74 80.978 45.74C81.958 45.74 82.9333 45.4693 83.904 44.928L84.282 46.3C83.302 46.86 82.182 47.14 80.922 47.14ZM88.1491 47.14C87.2904 47.14 86.6604 46.8787 86.2591 46.356C85.8577 45.8333 85.6571 45.0213 85.6571 43.92V39.72H87.1691V43.64C87.1691 44.4053 87.2811 44.97 87.5051 45.334C87.7384 45.698 88.0931 45.88 88.5691 45.88C88.9331 45.88 89.2691 45.7867 89.5771 45.6C89.8851 45.404 90.1277 45.1473 90.3051 44.83C90.4917 44.5127 90.5851 44.1627 90.5851 43.78V39.72H92.0971V47H90.6551L90.6411 46.02H90.6131C90.2957 46.3933 89.9364 46.6733 89.5351 46.86C89.1337 47.0467 88.6717 47.14 88.1491 47.14ZM96.5299 47.14C96.0259 47.14 95.5313 47.0887 95.0459 46.986C94.5699 46.8833 94.1359 46.7387 93.7439 46.552L93.9819 45.306C94.4113 45.4927 94.8359 45.6373 95.2559 45.74C95.6759 45.8333 96.0959 45.88 96.5159 45.88C97.0293 45.88 97.4119 45.8053 97.6639 45.656C97.9253 45.5067 98.0559 45.2827 98.0559 44.984C98.0559 44.7973 98.0093 44.6433 97.9159 44.522C97.8226 44.4007 97.6593 44.2933 97.4259 44.2C97.2019 44.0973 96.8846 43.9993 96.4739 43.906C95.8299 43.7473 95.3026 43.5653 94.8919 43.36C94.4906 43.1547 94.1919 42.912 93.9959 42.632C93.8093 42.3427 93.7159 42.0067 93.7159 41.624C93.7159 40.9613 93.9679 40.4573 94.4719 40.112C94.9853 39.7573 95.7179 39.58 96.6699 39.58C97.1459 39.58 97.6126 39.6267 98.0699 39.72C98.5273 39.804 98.9566 39.9393 99.3579 40.126L99.1199 41.358C98.7373 41.1807 98.3453 41.05 97.9439 40.966C97.5426 40.882 97.1366 40.84 96.7259 40.84C96.2313 40.84 95.8626 40.9053 95.6199 41.036C95.3773 41.1667 95.2559 41.3673 95.2559 41.638C95.2559 41.7967 95.3026 41.9367 95.3959 42.058C95.4986 42.1793 95.6619 42.2867 95.8859 42.38C96.1099 42.4733 96.4086 42.562 96.7819 42.646C97.2766 42.758 97.7013 42.8887 98.0559 43.038C98.4106 43.1873 98.6999 43.36 98.9239 43.556C99.1479 43.7427 99.3159 43.9573 99.4279 44.2C99.5399 44.4333 99.5959 44.6993 99.5959 44.998C99.5959 45.6793 99.3253 46.2067 98.7839 46.58C98.2519 46.9533 97.5006 47.14 96.5299 47.14ZM104.498 47.14C103.621 47.14 102.982 46.9533 102.58 46.58C102.188 46.2067 101.992 45.6 101.992 44.76V40.98H100.326V39.72H101.992V37.34H103.518V39.72H106.066V40.98H103.518V44.55C103.518 45.0073 103.616 45.334 103.812 45.53C104.018 45.7167 104.349 45.81 104.806 45.81C104.993 45.81 105.17 45.796 105.338 45.768C105.516 45.7307 105.698 45.6793 105.884 45.614L106.066 46.874C105.796 46.9673 105.534 47.0327 105.282 47.07C105.04 47.1167 104.778 47.14 104.498 47.14ZM110.741 47.14C109.994 47.14 109.345 46.986 108.795 46.678C108.253 46.37 107.833 45.9313 107.535 45.362C107.245 44.7927 107.101 44.1253 107.101 43.36C107.101 42.5853 107.245 41.918 107.535 41.358C107.833 40.7887 108.253 40.35 108.795 40.042C109.345 39.734 109.989 39.58 110.727 39.58C111.483 39.58 112.131 39.734 112.673 40.042C113.214 40.35 113.634 40.7887 113.933 41.358C114.231 41.918 114.381 42.5853 114.381 43.36C114.381 44.1253 114.231 44.7927 113.933 45.362C113.634 45.9313 113.214 46.37 112.673 46.678C112.131 46.986 111.487 47.14 110.741 47.14ZM110.741 45.88C111.413 45.88 111.935 45.6607 112.309 45.222C112.682 44.774 112.869 44.1533 112.869 43.36C112.869 42.5573 112.682 41.9367 112.309 41.498C111.935 41.0593 111.413 40.84 110.741 40.84C110.069 40.84 109.546 41.0593 109.173 41.498C108.799 41.9367 108.613 42.5573 108.613 43.36C108.613 44.1533 108.799 44.774 109.173 45.222C109.546 45.6607 110.069 45.88 110.741 45.88ZM116 47V39.72H117.414L117.428 40.7H117.456C117.699 40.336 118.007 40.0607 118.38 39.874C118.753 39.678 119.173 39.58 119.64 39.58C120.125 39.58 120.541 39.678 120.886 39.874C121.241 40.07 121.493 40.3453 121.642 40.7H121.67C121.913 40.3173 122.225 40.0373 122.608 39.86C122.991 39.6733 123.448 39.58 123.98 39.58C124.783 39.58 125.357 39.8087 125.702 40.266C126.047 40.714 126.22 41.4653 126.22 42.52V47H124.736V42.73C124.736 42.0487 124.643 41.5633 124.456 41.274C124.269 40.9847 123.957 40.84 123.518 40.84C122.986 40.84 122.575 41.036 122.286 41.428C121.997 41.8107 121.852 42.3613 121.852 43.08V47H120.368V42.38C120.368 41.8853 120.261 41.5073 120.046 41.246C119.831 40.9753 119.533 40.84 119.15 40.84C118.665 40.84 118.263 41.05 117.946 41.47C117.638 41.8807 117.484 42.4173 117.484 43.08V47H116ZM131.43 47.14C130.217 47.14 129.279 46.8133 128.616 46.16C127.963 45.5067 127.636 44.5733 127.636 43.36C127.636 42.184 127.949 41.26 128.574 40.588C129.209 39.916 130.077 39.58 131.178 39.58C132.242 39.58 133.059 39.8973 133.628 40.532C134.207 41.1667 134.496 42.0673 134.496 43.234C134.496 43.3553 134.491 43.4907 134.482 43.64C134.482 43.7893 134.477 43.906 134.468 43.99H128.476V42.8H133.32L133.082 43.164C133.082 42.3707 132.923 41.7827 132.606 41.4C132.289 41.008 131.813 40.812 131.178 40.812C130.506 40.812 129.993 41.0173 129.638 41.428C129.293 41.8387 129.12 42.436 129.12 43.22V43.64C129.12 44.3773 129.316 44.9373 129.708 45.32C130.1 45.6933 130.679 45.88 131.444 45.88C131.883 45.88 132.312 45.824 132.732 45.712C133.152 45.6 133.535 45.4413 133.88 45.236L134.146 46.454C133.791 46.6687 133.381 46.8367 132.914 46.958C132.447 47.0793 131.953 47.14 131.43 47.14ZM136.098 47V39.72H137.554L137.568 41.12H137.596C137.829 40.7933 138.109 40.518 138.436 40.294C138.772 40.0607 139.145 39.8833 139.556 39.762C139.976 39.6407 140.41 39.58 140.858 39.58V40.91C140.26 40.91 139.714 41.0267 139.22 41.26C138.734 41.4933 138.347 41.806 138.058 42.198C137.768 42.59 137.624 43.024 137.624 43.5V47H136.098ZM146.357 47V36.78H147.953V47H146.357ZM150.344 47V39.72H151.786L151.8 40.7H151.828C152.154 40.3173 152.523 40.0373 152.934 39.86C153.354 39.6733 153.83 39.58 154.362 39.58C155.248 39.58 155.897 39.8413 156.308 40.364C156.718 40.8773 156.924 41.6893 156.924 42.8V47H155.412V43.08C155.412 42.324 155.29 41.764 155.048 41.4C154.805 41.0267 154.436 40.84 153.942 40.84C153.559 40.84 153.209 40.938 152.892 41.134C152.574 41.3207 152.322 41.5727 152.136 41.89C151.949 42.2073 151.856 42.5573 151.856 42.94V47H150.344ZM159.764 47V41.26H157.832V40H159.764V38.81C159.764 37.9513 159.974 37.3073 160.394 36.878C160.823 36.4393 161.458 36.22 162.298 36.22C162.559 36.22 162.811 36.2387 163.054 36.276C163.296 36.3133 163.516 36.3647 163.712 36.43L163.53 37.69C163.194 37.578 162.862 37.522 162.536 37.522C162.078 37.522 161.756 37.6293 161.57 37.844C161.383 38.0493 161.29 38.4087 161.29 38.922V40H163.67V41.26H161.29V47H159.764ZM167.725 47.14C166.978 47.14 166.33 46.986 165.779 46.678C165.238 46.37 164.818 45.9313 164.519 45.362C164.23 44.7927 164.085 44.1253 164.085 43.36C164.085 42.5853 164.23 41.918 164.519 41.358C164.818 40.7887 165.238 40.35 165.779 40.042C166.33 39.734 166.974 39.58 167.711 39.58C168.467 39.58 169.116 39.734 169.657 40.042C170.198 40.35 170.618 40.7887 170.917 41.358C171.216 41.918 171.365 42.5853 171.365 43.36C171.365 44.1253 171.216 44.7927 170.917 45.362C170.618 45.9313 170.198 46.37 169.657 46.678C169.116 46.986 168.472 47.14 167.725 47.14ZM167.725 45.88C168.397 45.88 168.92 45.6607 169.293 45.222C169.666 44.774 169.853 44.1533 169.853 43.36C169.853 42.5573 169.666 41.9367 169.293 41.498C168.92 41.0593 168.397 40.84 167.725 40.84C167.053 40.84 166.53 41.0593 166.157 41.498C165.784 41.9367 165.597 42.5573 165.597 43.36C165.597 44.1533 165.784 44.774 166.157 45.222C166.53 45.6607 167.053 45.88 167.725 45.88ZM172.984 47V39.72H174.44L174.454 41.12H174.482C174.716 40.7933 174.996 40.518 175.322 40.294C175.658 40.0607 176.032 39.8833 176.442 39.762C176.862 39.6407 177.296 39.58 177.744 39.58V40.91C177.147 40.91 176.601 41.0267 176.106 41.26C175.621 41.4933 175.234 41.806 174.944 42.198C174.655 42.59 174.51 43.024 174.51 43.5V47H172.984ZM179.082 47V39.72H180.496L180.51 40.7H180.538C180.781 40.336 181.089 40.0607 181.462 39.874C181.835 39.678 182.255 39.58 182.722 39.58C183.207 39.58 183.623 39.678 183.968 39.874C184.323 40.07 184.575 40.3453 184.724 40.7H184.752C184.995 40.3173 185.307 40.0373 185.69 39.86C186.073 39.6733 186.53 39.58 187.062 39.58C187.865 39.58 188.439 39.8087 188.784 40.266C189.129 40.714 189.302 41.4653 189.302 42.52V47H187.818V42.73C187.818 42.0487 187.725 41.5633 187.538 41.274C187.351 40.9847 187.039 40.84 186.6 40.84C186.068 40.84 185.657 41.036 185.368 41.428C185.079 41.8107 184.934 42.3613 184.934 43.08V47H183.45V42.38C183.45 41.8853 183.343 41.5073 183.128 41.246C182.913 40.9753 182.615 40.84 182.232 40.84C181.747 40.84 181.345 41.05 181.028 41.47C180.72 41.8807 180.566 42.4173 180.566 43.08V47H179.082ZM192.958 47.14C192.23 47.14 191.656 46.944 191.236 46.552C190.816 46.1507 190.606 45.6093 190.606 44.928C190.606 44.0787 190.942 43.4253 191.614 42.968C192.286 42.5013 193.243 42.268 194.484 42.268H195.534C195.534 41.7453 195.399 41.3767 195.128 41.162C194.867 40.9473 194.414 40.84 193.77 40.84C193.303 40.84 192.855 40.896 192.426 41.008C192.006 41.12 191.577 41.302 191.138 41.554L190.942 40.266C191.39 40.0327 191.857 39.86 192.342 39.748C192.837 39.636 193.373 39.58 193.952 39.58C194.699 39.58 195.296 39.6733 195.744 39.86C196.201 40.0467 196.533 40.35 196.738 40.77C196.943 41.19 197.046 41.7407 197.046 42.422V47H195.604L195.59 46.16H195.562C195.31 46.4493 194.937 46.6873 194.442 46.874C193.957 47.0513 193.462 47.14 192.958 47.14ZM193.49 45.908C193.863 45.908 194.204 45.838 194.512 45.698C194.829 45.558 195.077 45.3713 195.254 45.138C195.441 44.9047 195.534 44.6433 195.534 44.354V43.416H194.694C193.835 43.416 193.191 43.528 192.762 43.752C192.333 43.976 192.118 44.3167 192.118 44.774C192.118 45.1287 192.235 45.4087 192.468 45.614C192.711 45.81 193.051 45.908 193.49 45.908ZM202.047 47.14C201.17 47.14 200.53 46.9533 200.129 46.58C199.737 46.2067 199.541 45.6 199.541 44.76V40.98H197.875V39.72H199.541V37.34H201.067V39.72H203.615V40.98H201.067V44.55C201.067 45.0073 201.165 45.334 201.361 45.53C201.566 45.7167 201.898 45.81 202.355 45.81C202.542 45.81 202.719 45.796 202.887 45.768C203.064 45.7307 203.246 45.6793 203.433 45.614L203.615 46.874C203.344 46.9673 203.083 47.0327 202.831 47.07C202.588 47.1167 202.327 47.14 202.047 47.14ZM205.737 47V39.72H207.277V47H205.737ZM206.507 38.656C206.199 38.656 205.951 38.5673 205.765 38.39C205.587 38.2033 205.499 37.956 205.499 37.648C205.499 37.34 205.587 37.0973 205.765 36.92C205.951 36.7333 206.199 36.64 206.507 36.64C206.815 36.64 207.057 36.7333 207.235 36.92C207.421 37.0973 207.515 37.34 207.515 37.648C207.515 37.956 207.421 38.2033 207.235 38.39C207.057 38.5673 206.815 38.656 206.507 38.656ZM212.897 47.14C212.15 47.14 211.502 46.986 210.951 46.678C210.41 46.37 209.99 45.9313 209.691 45.362C209.402 44.7927 209.257 44.1253 209.257 43.36C209.257 42.5853 209.402 41.918 209.691 41.358C209.99 40.7887 210.41 40.35 210.951 40.042C211.502 39.734 212.146 39.58 212.883 39.58C213.639 39.58 214.288 39.734 214.829 40.042C215.37 40.35 215.79 40.7887 216.089 41.358C216.388 41.918 216.537 42.5853 216.537 43.36C216.537 44.1253 216.388 44.7927 216.089 45.362C215.79 45.9313 215.37 46.37 214.829 46.678C214.288 46.986 213.644 47.14 212.897 47.14ZM212.897 45.88C213.569 45.88 214.092 45.6607 214.465 45.222C214.838 44.774 215.025 44.1533 215.025 43.36C215.025 42.5573 214.838 41.9367 214.465 41.498C214.092 41.0593 213.569 40.84 212.897 40.84C212.225 40.84 211.702 41.0593 211.329 41.498C210.956 41.9367 210.769 42.5573 210.769 43.36C210.769 44.1533 210.956 44.774 211.329 45.222C211.702 45.6607 212.225 45.88 212.897 45.88ZM218.156 47V39.72H219.598L219.612 40.7H219.64C219.967 40.3173 220.335 40.0373 220.746 39.86C221.166 39.6733 221.642 39.58 222.174 39.58C223.061 39.58 223.709 39.8413 224.12 40.364C224.531 40.8773 224.736 41.6893 224.736 42.8V47H223.224V43.08C223.224 42.324 223.103 41.764 222.86 41.4C222.617 41.0267 222.249 40.84 221.754 40.84C221.371 40.84 221.021 40.938 220.704 41.134C220.387 41.3207 220.135 41.5727 219.948 41.89C219.761 42.2073 219.668 42.5573 219.668 42.94V47H218.156Z" fill="#747A8E"/>
<path fill-rule="evenodd" clip-rule="evenodd" d="M43.447 42.6155C43.7549 42.1819 44.356 42.0799 44.7897 42.3878C45.0393 42.565 45.2915 42.7626 45.5367 42.9812C47.3463 44.5663 48.5398 46.7959 48.718 49.2992C48.7181 49.3004 48.7182 49.3016 48.7182 49.3028L48.7675 49.9316C48.7675 49.9321 48.7676 49.9327 48.7676 49.9332C48.9259 51.8829 47.5517 53.5891 45.631 54.0115C43.9996 54.3704 41.6384 54.7151 38.5983 54.7151C35.5593 54.7151 33.255 54.379 31.6456 54.0191C29.7295 53.5944 28.3716 51.8853 28.529 49.9422L28.5786 49.3004C28.7762 46.4607 30.2909 43.9904 32.5001 42.3927C32.9311 42.081 33.5331 42.1778 33.8447 42.6087C34.1564 43.0397 34.0597 43.6417 33.6287 43.9533C31.8389 45.2477 30.6533 47.2161 30.4997 49.4372L30.4991 49.4449L30.4491 50.0925L30.4487 50.0967C30.3741 51.0111 31.0144 51.9071 32.0637 52.1391L32.066 52.1396C33.5399 52.4693 35.7033 52.7891 38.5983 52.7891C41.4921 52.7891 43.7145 52.4611 45.2173 52.1305C46.2792 51.897 46.9221 50.9971 46.8479 50.0882L46.8477 50.085L46.7971 49.4388C46.6578 47.4713 45.7199 45.7007 44.2649 44.4275L44.2578 44.4213C44.0707 44.2543 43.8741 44.0997 43.6748 43.9582C43.2411 43.6503 43.1391 43.0492 43.447 42.6155Z" fill="url(#paint0_linear_465_11589)"/>
<path fill-rule="evenodd" clip-rule="evenodd" d="M38.6479 31.4416C36.4891 31.4416 34.674 33.2743 34.674 35.617V37.3298C34.674 39.6725 36.4891 41.5053 38.6479 41.5053C40.8067 41.5053 42.6219 39.6725 42.6219 37.3298V35.617C42.6219 33.2743 40.8067 31.4416 38.6479 31.4416ZM32.748 35.617C32.748 32.284 35.3536 29.5156 38.6479 29.5156C41.9423 29.5156 44.5478 32.284 44.5478 35.617V37.3298C44.5478 40.6629 41.9423 43.4312 38.6479 43.4312C35.3536 43.4312 32.748 40.6629 32.748 37.3298V35.617Z" fill="url(#paint1_linear_465_11589)"/>
<path fill-rule="evenodd" clip-rule="evenodd" d="M22.7235 38.3262C23.0633 38.7353 23.0071 39.3424 22.5981 39.6822C21.4466 40.6388 20.7199 41.9429 20.6092 43.3732L20.5742 43.8686L20.5729 43.8842C20.5258 44.4263 20.93 45.0571 21.7741 45.2335C22.9887 45.4863 24.79 45.7366 27.1702 45.7366H27.3639C27.8958 45.7366 28.3269 46.1677 28.3269 46.6995C28.3269 47.2314 27.8958 47.6625 27.3639 47.6625H27.1702C24.6537 47.6625 22.7208 47.3978 21.3814 47.119C19.7624 46.7809 18.5119 45.4057 18.6535 43.7257L18.6887 43.2285C18.8429 41.2211 19.8599 39.4531 21.3674 38.2008C21.7765 37.8609 22.3836 37.9171 22.7235 38.3262Z" fill="url(#paint2_linear_465_11589)"/>
<path fill-rule="evenodd" clip-rule="evenodd" d="M27.0109 29.3263C25.4122 29.3263 24.0949 30.6427 24.0949 32.2929V33.6024C24.0949 35.2526 25.4122 36.569 27.0109 36.569C28.6097 36.569 29.927 35.2526 29.927 33.6024V32.2929C29.927 30.6427 28.6097 29.3263 27.0109 29.3263ZM22.1689 32.2929C22.1689 29.6026 24.3251 27.4004 27.0109 27.4004C29.6968 27.4004 31.8529 29.6026 31.8529 32.2929V33.6024C31.8529 36.2926 29.6968 38.4949 27.0109 38.4949C24.3251 38.4949 22.1689 36.2926 22.1689 33.6024V32.2929Z" fill="url(#paint3_linear_465_11589)"/>
<path fill-rule="evenodd" clip-rule="evenodd" d="M54.8142 38.2923C55.1727 37.8995 55.7818 37.8717 56.1746 38.2302C57.5583 39.4932 58.4718 41.2567 58.6102 43.2351L58.6105 43.2394L58.6105 43.2394L58.6422 43.7234C58.7656 45.3272 57.6691 46.7563 56.0991 47.107C54.8424 47.3971 53.0396 47.6625 50.724 47.6625H50.6358C50.104 47.6625 49.6729 47.2313 49.6729 46.6995C49.6729 46.1677 50.104 45.7365 50.6358 45.7365H50.724C52.8949 45.7365 54.5535 45.4875 55.6693 45.2297L55.6774 45.2278L55.6774 45.2278C56.3472 45.0791 56.7706 44.4863 56.7217 43.8684L56.7206 43.8552L56.7207 43.8552L56.6888 43.3673C56.5862 41.9078 55.9128 40.5988 54.8762 39.6527C54.4834 39.2942 54.4556 38.6851 54.8142 38.2923Z" fill="url(#paint4_linear_465_11589)"/>
<path fill-rule="evenodd" clip-rule="evenodd" d="M50.9885 29.3263C49.3897 29.3263 48.0724 30.6427 48.0724 32.2929V33.6024C48.0724 35.2526 49.3897 36.569 50.9885 36.569C52.5872 36.569 53.9045 35.2526 53.9045 33.6024V32.2929C53.9045 30.6427 52.5872 29.3263 50.9885 29.3263ZM46.1465 32.2929C46.1465 29.6026 48.3026 27.4004 50.9885 27.4004C53.6743 27.4004 55.8304 29.6026 55.8304 32.2929V33.6024C55.8304 36.2926 53.6743 38.4949 50.9885 38.4949C48.3026 38.4949 46.1465 36.2926 46.1465 33.6024V32.2929Z" fill="url(#paint5_linear_465_11589)"/>
<path fill-rule="evenodd" clip-rule="evenodd" d="M52.9087 20.2431C43.4985 13.7015 30.4034 14.5973 21.991 22.9067L21.3146 22.2218L21.991 22.9067C12.5709 32.2114 12.5709 47.2895 21.991 56.5942C22.3694 56.968 22.3732 57.5777 21.9994 57.9561C21.6257 58.3344 21.016 58.3382 20.6376 57.9644C10.4541 47.9058 10.4541 31.5952 20.6376 21.5365C29.7224 12.563 43.8505 11.6006 54.008 18.6617C54.4447 18.9652 54.5526 19.5653 54.249 20.002C53.9454 20.4387 53.3453 20.5466 52.9087 20.2431Z" fill="url(#paint6_linear_465_11589)"/>
<path fill-rule="evenodd" clip-rule="evenodd" d="M56.0066 21.3334C56.3835 20.9581 56.9932 20.9594 57.3685 21.3362C67.5445 31.5549 67.5445 48.1182 57.3685 58.3369C48.2836 67.4605 34.1481 68.4413 23.9864 61.2596C23.5521 60.9526 23.4488 60.3517 23.7558 59.9174C24.0627 59.4831 24.6636 59.3799 25.0979 59.6868C34.5039 66.3344 47.5915 65.426 56.0038 56.978L56.0038 56.978C65.4314 47.5107 65.4314 32.1624 56.0038 22.6952C55.6285 22.3183 55.6298 21.7086 56.0066 21.3334Z" fill="url(#paint7_linear_465_11589)"/>
<path fill-rule="evenodd" clip-rule="evenodd" d="M21.0159 52.084C21.5477 52.084 21.9789 52.5151 21.9789 53.047V57.2786C21.9789 57.8104 21.5477 58.2416 21.0159 58.2416H16.7843C16.2524 58.2416 15.8213 57.8104 15.8213 57.2786C15.8213 56.7468 16.2524 56.3156 16.7843 56.3156H20.0529V53.047C20.0529 52.5151 20.4841 52.084 21.0159 52.084Z" fill="url(#paint8_linear_465_11589)"/>
<path fill-rule="evenodd" clip-rule="evenodd" d="M55.3154 22.0157C55.3154 21.4839 55.7466 21.0527 56.2784 21.0527H61.2153C61.7472 21.0527 62.1783 21.4839 62.1783 22.0157C62.1783 22.5475 61.7472 22.9787 61.2153 22.9787H57.2414V26.9526C57.2414 27.4845 56.8102 27.9156 56.2784 27.9156C55.7466 27.9156 55.3154 27.4845 55.3154 26.9526V22.0157Z" fill="url(#paint9_linear_465_11589)"/>
<defs>
<linearGradient id="paint0_linear_465_11589" x1="38.6483" y1="42.21" x2="38.6483" y2="54.7151" gradientUnits="userSpaceOnUse">
<stop stop-color="#393039"/>
<stop offset="1" stop-color="#404D76"/>
</linearGradient>
<linearGradient id="paint1_linear_465_11589" x1="38.6479" y1="29.5156" x2="38.6479" y2="43.4312" gradientUnits="userSpaceOnUse">
<stop stop-color="#393039"/>
<stop offset="1" stop-color="#404D76"/>
</linearGradient>
<linearGradient id="paint2_linear_465_11589" x1="23.4847" y1="37.9785" x2="23.4847" y2="47.6625" gradientUnits="userSpaceOnUse">
<stop stop-color="#393039"/>
<stop offset="1" stop-color="#404D76"/>
</linearGradient>
<linearGradient id="paint3_linear_465_11589" x1="27.0109" y1="27.4004" x2="27.0109" y2="38.4949" gradientUnits="userSpaceOnUse">
<stop stop-color="#393039"/>
<stop offset="1" stop-color="#404D76"/>
</linearGradient>
<linearGradient id="paint4_linear_465_11589" x1="54.1622" y1="37.9785" x2="54.1622" y2="47.6625" gradientUnits="userSpaceOnUse">
<stop stop-color="#393039"/>
<stop offset="1" stop-color="#404D76"/>
</linearGradient>
<linearGradient id="paint5_linear_465_11589" x1="50.9885" y1="27.4004" x2="50.9885" y2="38.4949" gradientUnits="userSpaceOnUse">
<stop stop-color="#393039"/>
<stop offset="1" stop-color="#404D76"/>
</linearGradient>
<linearGradient id="paint6_linear_465_11589" x1="33.7107" y1="14" x2="33.7107" y2="58.2423" gradientUnits="userSpaceOnUse">
<stop stop-color="#393039"/>
<stop offset="1" stop-color="#404D76"/>
</linearGradient>
<linearGradient id="paint7_linear_465_11589" x1="44.2898" y1="21.0527" x2="44.2898" y2="66.0003" gradientUnits="userSpaceOnUse">
<stop stop-color="#393039"/>
<stop offset="1" stop-color="#404D76"/>
</linearGradient>
<linearGradient id="paint8_linear_465_11589" x1="18.9001" y1="52.084" x2="18.9001" y2="58.2416" gradientUnits="userSpaceOnUse">
<stop stop-color="#393039"/>
<stop offset="1" stop-color="#404D76"/>
</linearGradient>
<linearGradient id="paint9_linear_465_11589" x1="58.7469" y1="21.0527" x2="58.7469" y2="27.9156" gradientUnits="userSpaceOnUse">
<stop stop-color="#393039"/>
<stop offset="1" stop-color="#404D76"/>
</linearGradient>
</defs>
</svg>
