<svg width="100" height="97" viewBox="0 0 100 97" fill="none" xmlns="http://www.w3.org/2000/svg">
<rect x="0.5" y="0.5" width="99" height="96" rx="4.5" fill="#0D0D0D"/>
<rect x="0.5" y="0.5" width="99" height="96" rx="4.5" stroke="#292A36"/>
<path d="M65 31.625V35C65 38.1078 58.2835 40.625 50 40.625C41.7165 40.625 35 38.1078 35 35V31.625C35 28.5172 41.7165 26 50 26C58.2835 26 65 28.5172 65 31.625ZM61.3304 41.0961C62.7232 40.5758 64.0022 39.9078 65 39.0852V46.25C65 49.3578 58.2835 51.875 50 51.875C41.7165 51.875 35 49.3578 35 46.25V39.0852C35.9978 39.9148 37.2768 40.5758 38.6696 41.0961C41.6763 42.2211 45.6808 42.875 50 42.875C54.3192 42.875 58.3237 42.2211 61.3304 41.0961ZM35 50.3352C35.9978 51.1648 37.2768 51.8258 38.6696 52.3461C41.6763 53.4711 45.6808 54.125 50 54.125C54.3192 54.125 58.3237 53.4711 61.3304 52.3461C62.7232 51.8258 64.0022 51.1578 65 50.3352V56.375C65 59.4828 58.2835 62 50 62C41.7165 62 35 59.4828 35 56.375V50.3352Z" fill="url(#paint0_linear_487_4618)"/>
<path d="M37.7298 84.12C37.1538 84.12 36.5858 84.06 36.0258 83.94C35.4738 83.812 35.0098 83.648 34.6338 83.448L34.9938 82.104C35.2658 82.24 35.5618 82.36 35.8818 82.464C36.2018 82.568 36.5298 82.648 36.8658 82.704C37.2018 82.76 37.5218 82.788 37.8258 82.788C38.4018 82.788 38.8418 82.688 39.1458 82.488C39.4578 82.28 39.6138 81.984 39.6138 81.6C39.6138 81.392 39.5658 81.216 39.4698 81.072C39.3738 80.928 39.2298 80.804 39.0378 80.7C38.8538 80.588 38.6218 80.488 38.3418 80.4C38.0618 80.304 37.7418 80.208 37.3818 80.112C36.9658 80 36.5898 79.872 36.2538 79.728C35.9258 79.576 35.6418 79.4 35.4018 79.2C35.1618 78.992 34.9778 78.752 34.8498 78.48C34.7218 78.2 34.6578 77.88 34.6578 77.52C34.6578 76.744 34.9498 76.152 35.5338 75.744C36.1178 75.328 36.9458 75.12 38.0178 75.12C38.5618 75.12 39.0978 75.172 39.6258 75.276C40.1618 75.372 40.6178 75.504 40.9938 75.672L40.6218 77.016C40.2538 76.84 39.8378 76.704 39.3738 76.608C38.9098 76.504 38.4538 76.452 38.0058 76.452C37.4218 76.452 36.9778 76.544 36.6738 76.728C36.3698 76.912 36.2178 77.18 36.2178 77.532C36.2178 77.732 36.2618 77.904 36.3498 78.048C36.4378 78.192 36.5698 78.316 36.7458 78.42C36.9218 78.524 37.1378 78.62 37.3938 78.708C37.6498 78.796 37.9538 78.888 38.3058 78.984C38.7458 79.112 39.1418 79.252 39.4938 79.404C39.8538 79.548 40.1578 79.72 40.4058 79.92C40.6538 80.12 40.8418 80.36 40.9698 80.64C41.1058 80.912 41.1738 81.236 41.1738 81.612C41.1738 82.404 40.8738 83.02 40.2738 83.46C39.6738 83.9 38.8258 84.12 37.7298 84.12ZM45.1377 84.12C44.3697 84.12 43.8097 83.96 43.4577 83.64C43.1137 83.312 42.9417 82.784 42.9417 82.056V78.936H41.5497V77.76H42.9417V75.72H44.4177V77.76H46.5297V78.936H44.4177V81.852C44.4177 82.22 44.4977 82.484 44.6577 82.644C44.8177 82.796 45.0817 82.872 45.4497 82.872C45.6017 82.872 45.7537 82.86 45.9057 82.836C46.0577 82.804 46.2097 82.76 46.3617 82.704L46.5297 83.892C46.2817 83.972 46.0497 84.028 45.8337 84.06C45.6177 84.1 45.3857 84.12 45.1377 84.12ZM49.4402 84.12C48.8162 84.12 48.3242 83.952 47.9642 83.616C47.6122 83.272 47.4362 82.808 47.4362 82.224C47.4362 81.496 47.7202 80.936 48.2882 80.544C48.8562 80.152 49.6642 79.956 50.7122 79.956H51.5882C51.5882 79.54 51.4802 79.248 51.2642 79.08C51.0482 78.904 50.6802 78.816 50.1602 78.816C49.7602 78.816 49.3762 78.864 49.0082 78.96C48.6482 79.056 48.2762 79.208 47.8922 79.416L47.7122 78.216C48.1042 78.024 48.5122 77.88 48.9362 77.784C49.3682 77.688 49.8362 77.64 50.3402 77.64C50.9962 77.64 51.5202 77.72 51.9122 77.88C52.3122 78.04 52.6002 78.3 52.7762 78.66C52.9602 79.012 53.0522 79.48 53.0522 80.064V84H51.6482L51.6362 83.28H51.6122C51.3962 83.528 51.0842 83.732 50.6762 83.892C50.2682 84.044 49.8562 84.12 49.4402 84.12ZM49.9682 82.968C50.2642 82.968 50.5362 82.916 50.7842 82.812C51.0322 82.7 51.2282 82.552 51.3722 82.368C51.5162 82.184 51.5882 81.976 51.5882 81.744V80.988H50.9282C50.2402 80.988 49.7202 81.08 49.3682 81.264C49.0242 81.44 48.8522 81.712 48.8522 82.08C48.8522 82.352 48.9482 82.568 49.1402 82.728C49.3322 82.888 49.6082 82.968 49.9682 82.968ZM57.3369 84.12C56.5689 84.12 56.0089 83.96 55.6569 83.64C55.3129 83.312 55.1409 82.784 55.1409 82.056V78.936H53.7489V77.76H55.1409V75.72H56.6169V77.76H58.7289V78.936H56.6169V81.852C56.6169 82.22 56.6969 82.484 56.8569 82.644C57.0169 82.796 57.2809 82.872 57.6489 82.872C57.8009 82.872 57.9529 82.86 58.1049 82.836C58.2569 82.804 58.4089 82.76 58.5609 82.704L58.7289 83.892C58.4809 83.972 58.2489 84.028 58.0329 84.06C57.8169 84.1 57.5849 84.12 57.3369 84.12ZM62.9142 84.12C61.8502 84.12 61.0302 83.84 60.4542 83.28C59.8862 82.72 59.6022 81.92 59.6022 80.88C59.6022 79.872 59.8742 79.08 60.4182 78.504C60.9702 77.928 61.7222 77.64 62.6742 77.64C63.5942 77.64 64.3062 77.912 64.8102 78.456C65.3142 79 65.5662 79.772 65.5662 80.772C65.5662 80.884 65.5622 81.008 65.5542 81.144C65.5462 81.28 65.5382 81.38 65.5302 81.444H60.4182V80.376H64.4022L64.1862 80.7C64.1862 80.044 64.0582 79.56 63.8022 79.248C63.5542 78.928 63.1782 78.768 62.6742 78.768C62.1382 78.768 61.7302 78.936 61.4502 79.272C61.1782 79.6 61.0422 80.088 61.0422 80.736V81.156C61.0422 81.748 61.1982 82.196 61.5102 82.5C61.8302 82.796 62.3022 82.944 62.9262 82.944C63.2942 82.944 63.6622 82.896 64.0302 82.8C64.3982 82.704 64.7302 82.572 65.0262 82.404L65.2542 83.556C64.9502 83.732 64.5942 83.872 64.1862 83.976C63.7862 84.072 63.3622 84.12 62.9142 84.12Z" fill="#76778C"/>
<defs>
<linearGradient id="paint0_linear_487_4618" x1="50" y1="26" x2="50" y2="62" gradientUnits="userSpaceOnUse">
<stop stop-color="#6A9C60"/>
<stop offset="1" stop-color="#3EC757"/>
</linearGradient>
</defs>
</svg>
