<svg width="80" height="79" viewBox="0 0 80 79" fill="none" xmlns="http://www.w3.org/2000/svg">
<rect x="0.4" y="1.1002" width="79.2" height="76.8" rx="3.6" fill="#0D0D0D"/>
<rect x="0.4" y="1.1002" width="79.2" height="76.8" rx="3.6" stroke="#292A36" stroke-width="0.8"/>
<path d="M52 19.5996V22.2996C52 24.7859 46.6268 26.7996 40 26.7996C33.3732 26.7996 28 24.7859 28 22.2996V19.5996C28 17.1134 33.3732 15.0996 40 15.0996C46.6268 15.0996 52 17.1134 52 19.5996ZM49.0643 27.1765C50.1786 26.7602 51.2018 26.2259 52 25.5677V31.2996C52 33.7859 46.6268 35.7996 40 35.7996C33.3732 35.7996 28 33.7859 28 31.2996V25.5677C28.7982 26.2315 29.8214 26.7602 30.9357 27.1765C33.3411 28.0765 36.5446 28.5996 40 28.5996C43.4554 28.5996 46.6589 28.0765 49.0643 27.1765ZM28 34.5677C28.7982 35.2315 29.8214 35.7602 30.9357 36.1765C33.3411 37.0765 36.5446 37.5996 40 37.5996C43.4554 37.5996 46.6589 37.0765 49.0643 36.1765C50.1786 35.7602 51.2018 35.2259 52 34.5677V39.3996C52 41.8859 46.6268 43.8996 40 43.8996C33.3732 43.8996 28 41.8859 28 39.3996V34.5677Z" fill="url(#paint0_linear_1630_1501)"/>
<path d="M20.6342 63.9964C20.3718 63.9964 20.0614 63.9836 19.703 63.958C19.351 63.9388 18.9958 63.9068 18.6374 63.862V56.9308C18.9958 56.886 19.351 56.854 19.703 56.8348C20.0614 56.8092 20.3718 56.7964 20.6342 56.7964C21.479 56.7964 22.167 56.9244 22.6982 57.1804C23.2358 57.43 23.6294 57.8204 23.879 58.3516C24.135 58.8828 24.263 59.5644 24.263 60.3964C24.263 61.2284 24.135 61.91 23.879 62.4412C23.6294 62.9724 23.2358 63.366 22.6982 63.622C22.167 63.8716 21.479 63.9964 20.6342 63.9964ZM20.711 62.9404C21.2742 62.9404 21.7254 62.8572 22.0646 62.6908C22.4102 62.5244 22.6598 62.2556 22.8134 61.8844C22.967 61.5068 23.0438 61.0108 23.0438 60.3964C23.0438 59.782 22.967 59.2892 22.8134 58.918C22.6598 58.5404 22.4102 58.2684 22.0646 58.102C21.7254 57.9356 21.2742 57.8524 20.711 57.8524C20.5254 57.8524 20.311 57.862 20.0678 57.8812C19.8246 57.894 19.559 57.9164 19.271 57.9484L19.8374 57.3436V63.4492L19.271 62.8444C19.559 62.8764 19.8246 62.902 20.0678 62.9212C20.311 62.934 20.5254 62.9404 20.711 62.9404ZM26.501 63.9964C26.0018 63.9964 25.6082 63.862 25.3202 63.5932C25.0386 63.318 24.8978 62.9468 24.8978 62.4796C24.8978 61.8972 25.125 61.4492 25.5794 61.1356C26.0338 60.822 26.6802 60.6652 27.5186 60.6652H28.2194C28.2194 60.3324 28.133 60.0988 27.9602 59.9644C27.7874 59.8236 27.493 59.7532 27.077 59.7532C26.757 59.7532 26.4498 59.7916 26.1554 59.8684C25.8674 59.9452 25.5698 60.0668 25.2626 60.2332L25.1186 59.2732C25.4322 59.1196 25.7586 59.0044 26.0978 58.9276C26.4434 58.8508 26.8178 58.8124 27.221 58.8124C27.7458 58.8124 28.165 58.8764 28.4786 59.0044C28.7986 59.1324 29.029 59.3404 29.1698 59.6284C29.317 59.91 29.3906 60.2844 29.3906 60.7516V63.9004H28.2674L28.2578 63.3244H28.2386C28.0658 63.5228 27.8162 63.686 27.4898 63.814C27.1634 63.9356 26.8338 63.9964 26.501 63.9964ZM26.9234 63.0748C27.1602 63.0748 27.3778 63.0332 27.5762 62.95C27.7746 62.8604 27.9314 62.742 28.0466 62.5948C28.1618 62.4476 28.2194 62.2812 28.2194 62.0956V61.4908H27.6914C27.141 61.4908 26.725 61.5644 26.4434 61.7116C26.1682 61.8524 26.0306 62.07 26.0306 62.3644C26.0306 62.582 26.1074 62.7548 26.261 62.8828C26.4146 63.0108 26.6354 63.0748 26.9234 63.0748ZM32.8184 63.9964C32.204 63.9964 31.756 63.8684 31.4744 63.6124C31.1992 63.35 31.0616 62.9276 31.0616 62.3452V59.8492H29.948V58.9084H31.0616V57.2764H32.2424V58.9084H33.932V59.8492H32.2424V62.182C32.2424 62.4764 32.3064 62.6876 32.4344 62.8156C32.5624 62.9372 32.7736 62.998 33.068 62.998C33.1896 62.998 33.3112 62.9884 33.4328 62.9692C33.5544 62.9436 33.676 62.9084 33.7976 62.8636L33.932 63.814C33.7336 63.878 33.548 63.9228 33.3752 63.9484C33.2024 63.9804 33.0168 63.9964 32.8184 63.9964ZM36.2603 63.9964C35.7611 63.9964 35.3675 63.862 35.0795 63.5932C34.7979 63.318 34.6571 62.9468 34.6571 62.4796C34.6571 61.8972 34.8843 61.4492 35.3387 61.1356C35.7931 60.822 36.4395 60.6652 37.2779 60.6652H37.9787C37.9787 60.3324 37.8923 60.0988 37.7195 59.9644C37.5467 59.8236 37.2523 59.7532 36.8363 59.7532C36.5163 59.7532 36.2091 59.7916 35.9147 59.8684C35.6267 59.9452 35.3291 60.0668 35.0219 60.2332L34.8779 59.2732C35.1915 59.1196 35.5179 59.0044 35.8571 58.9276C36.2027 58.8508 36.5771 58.8124 36.9803 58.8124C37.5051 58.8124 37.9243 58.8764 38.2379 59.0044C38.5579 59.1324 38.7883 59.3404 38.9291 59.6284C39.0763 59.91 39.1499 60.2844 39.1499 60.7516V63.9004H38.0267L38.0171 63.3244H37.9979C37.8251 63.5228 37.5755 63.686 37.2491 63.814C36.9227 63.9356 36.5931 63.9964 36.2603 63.9964ZM36.6827 63.0748C36.9195 63.0748 37.1371 63.0332 37.3355 62.95C37.5339 62.8604 37.6907 62.742 37.8059 62.5948C37.9211 62.4476 37.9787 62.2812 37.9787 62.0956V61.4908H37.4507C36.9003 61.4908 36.4843 61.5644 36.2027 61.7116C35.9275 61.8524 35.7899 62.07 35.7899 62.3644C35.7899 62.582 35.8667 62.7548 36.0203 62.8828C36.1739 63.0108 36.3947 63.0748 36.6827 63.0748ZM43.1977 63.9964C42.8649 63.9964 42.5577 63.9388 42.2761 63.8236C41.9945 63.702 41.7577 63.5324 41.5657 63.3148H41.5465L41.5369 63.9004H40.4137V56.8924H41.5945V59.494H41.6137C41.7993 59.27 42.0265 59.1004 42.2953 58.9852C42.5705 58.87 42.8713 58.8124 43.1977 58.8124C43.8633 58.8124 44.3817 59.0396 44.7529 59.494C45.1241 59.9484 45.3097 60.5852 45.3097 61.4044C45.3097 62.2236 45.1241 62.8604 44.7529 63.3148C44.3817 63.7692 43.8633 63.9964 43.1977 63.9964ZM42.8905 63.0364C43.3001 63.0364 43.6137 62.8956 43.8313 62.614C44.0489 62.3324 44.1577 61.9292 44.1577 61.4044C44.1577 60.8796 44.0489 60.4764 43.8313 60.1948C43.6137 59.9132 43.3001 59.7724 42.8905 59.7724C42.6473 59.7724 42.4265 59.8236 42.2281 59.926C42.0297 60.0284 41.8729 60.1692 41.7577 60.3484C41.6489 60.5212 41.5945 60.7228 41.5945 60.9532V61.8556C41.5945 62.0796 41.6489 62.2812 41.7577 62.4604C41.8729 62.6396 42.0297 62.7804 42.2281 62.8828C42.4265 62.9852 42.6473 63.0364 42.8905 63.0364ZM47.6041 63.9964C47.1049 63.9964 46.7113 63.862 46.4233 63.5932C46.1417 63.318 46.0009 62.9468 46.0009 62.4796C46.0009 61.8972 46.2281 61.4492 46.6825 61.1356C47.1369 60.822 47.7833 60.6652 48.6217 60.6652H49.3225C49.3225 60.3324 49.2361 60.0988 49.0633 59.9644C48.8905 59.8236 48.5961 59.7532 48.1801 59.7532C47.8601 59.7532 47.5529 59.7916 47.2585 59.8684C46.9705 59.9452 46.6729 60.0668 46.3657 60.2332L46.2217 59.2732C46.5353 59.1196 46.8617 59.0044 47.2009 58.9276C47.5465 58.8508 47.9209 58.8124 48.3241 58.8124C48.8489 58.8124 49.2681 58.8764 49.5817 59.0044C49.9017 59.1324 50.1321 59.3404 50.2729 59.6284C50.4201 59.91 50.4937 60.2844 50.4937 60.7516V63.9004H49.3705L49.3609 63.3244H49.3417C49.1689 63.5228 48.9193 63.686 48.5929 63.814C48.2665 63.9356 47.9369 63.9964 47.6041 63.9964ZM48.0265 63.0748C48.2633 63.0748 48.4809 63.0332 48.6793 62.95C48.8777 62.8604 49.0345 62.742 49.1497 62.5948C49.2649 62.4476 49.3225 62.2812 49.3225 62.0956V61.4908H48.7945C48.2441 61.4908 47.8281 61.5644 47.5465 61.7116C47.2713 61.8524 47.1337 62.07 47.1337 62.3644C47.1337 62.582 47.2105 62.7548 47.3641 62.8828C47.5177 63.0108 47.7385 63.0748 48.0265 63.0748ZM53.3798 63.9964C53.0278 63.9964 52.6822 63.9612 52.343 63.8908C52.0102 63.8204 51.7062 63.7212 51.431 63.5932L51.6038 62.662C51.9046 62.79 52.2022 62.8892 52.4966 62.9596C52.791 63.0236 53.079 63.0556 53.3606 63.0556C53.687 63.0556 53.9302 63.0108 54.0902 62.9212C54.2502 62.8252 54.3302 62.6844 54.3302 62.4988C54.3302 62.3836 54.3014 62.2876 54.2438 62.2108C54.1862 62.134 54.0838 62.0668 53.9366 62.0092C53.7958 61.9452 53.5942 61.8844 53.3318 61.8268C52.8838 61.718 52.519 61.5932 52.2374 61.4524C51.9558 61.3052 51.7478 61.1324 51.6134 60.934C51.479 60.7356 51.4118 60.502 51.4118 60.2332C51.4118 59.7724 51.5878 59.4204 51.9398 59.1772C52.2982 58.934 52.8134 58.8124 53.4854 58.8124C53.8182 58.8124 54.1414 58.8444 54.455 58.9084C54.7686 58.966 55.0694 59.0588 55.3574 59.1868L55.1942 60.1084C54.919 59.9868 54.6406 59.8972 54.359 59.8396C54.0838 59.782 53.8086 59.7532 53.5334 59.7532C53.2198 59.7532 52.9862 59.7948 52.8326 59.878C52.6854 59.9548 52.6118 60.0796 52.6118 60.2524C52.6118 60.3484 52.6406 60.4348 52.6982 60.5116C52.7622 60.5884 52.8646 60.6556 53.0054 60.7132C53.1462 60.7708 53.335 60.8284 53.5718 60.886C53.911 60.9628 54.2022 61.0524 54.4454 61.1548C54.695 61.2572 54.8966 61.3756 55.0502 61.51C55.2102 61.6444 55.3286 61.7948 55.4054 61.9612C55.4822 62.1212 55.5206 62.3036 55.5206 62.5084C55.5206 62.982 55.3318 63.35 54.9542 63.6124C54.583 63.8684 54.0582 63.9964 53.3798 63.9964ZM58.8802 63.9964C58.029 63.9964 57.373 63.7724 56.9122 63.3244C56.4578 62.8764 56.2306 62.2364 56.2306 61.4044C56.2306 60.598 56.4482 59.9644 56.8834 59.5036C57.325 59.0428 57.9266 58.8124 58.6882 58.8124C59.4242 58.8124 59.9938 59.03 60.397 59.4652C60.8002 59.9004 61.0018 60.518 61.0018 61.318C61.0018 61.4076 60.9986 61.5068 60.9922 61.6156C60.9858 61.7244 60.9794 61.8044 60.973 61.8556H56.8834V61.0012H60.0706L59.8978 61.2604C59.8978 60.7356 59.7954 60.3484 59.5906 60.0988C59.3922 59.8428 59.0914 59.7148 58.6882 59.7148C58.2594 59.7148 57.933 59.8492 57.709 60.118C57.4914 60.3804 57.3826 60.7708 57.3826 61.2892V61.6252C57.3826 62.0988 57.5074 62.4572 57.757 62.7004C58.013 62.9372 58.3906 63.0556 58.8898 63.0556C59.1842 63.0556 59.4786 63.0172 59.773 62.9404C60.0674 62.8636 60.333 62.758 60.5698 62.6236L60.7522 63.5452C60.509 63.686 60.2242 63.798 59.8978 63.8812C59.5778 63.958 59.2386 63.9964 58.8802 63.9964Z" fill="#76778C"/>
<defs>
<linearGradient id="paint0_linear_1630_1501" x1="40" y1="15.0996" x2="40" y2="43.8996" gradientUnits="userSpaceOnUse">
<stop stop-color="#7ED3D1"/>
<stop offset="1" stop-color="#3E9CC7"/>
</linearGradient>
</defs>
</svg>
