<svg width="11" height="104" viewBox="0 0 11 104" fill="none" xmlns="http://www.w3.org/2000/svg">
<path d="M8.1 101.922C8.1 102.176 8.08667 102.462 8.06 102.782C8.04 103.096 8.00667 103.422 7.96 103.762L0.740001 103.762C0.693334 103.422 0.66 103.096 0.64 102.782C0.613334 102.462 0.600001 102.176 0.600001 101.922C0.600001 101.062 0.736667 100.349 1.01 99.7824C1.28333 99.2157 1.69667 98.7924 2.25 98.5124C2.80333 98.2324 3.50333 98.0924 4.35 98.0924C5.19667 98.0924 5.89667 98.2324 6.45 98.5124C7.00333 98.7924 7.41667 99.2157 7.69 99.7824C7.96333 100.349 8.1 101.062 8.1 101.922ZM7.37 101.882C7.37 101.196 7.26333 100.636 7.05 100.202C6.83667 99.7624 6.50667 99.4357 6.06 99.2224C5.61333 99.009 5.04333 98.9024 4.35 98.9024C3.65667 98.9024 3.08667 99.009 2.64 99.2224C2.19333 99.4357 1.86333 99.7624 1.65 100.202C1.43667 100.636 1.33 101.196 1.33 101.882C1.33 102.096 1.34 102.326 1.36 102.572C1.38 102.819 1.41 103.086 1.45 103.372L1.03 102.962L7.67 102.962L7.25 103.372C7.28333 103.086 7.31333 102.819 7.34 102.572C7.36 102.326 7.37 102.096 7.37 101.882ZM8.1 94.5821C8.1 95.4154 7.86667 96.0587 7.4 96.5121C6.93333 96.9654 6.26667 97.1921 5.4 97.1921C4.56 97.1921 3.9 96.9754 3.42 96.5421C2.94 96.1021 2.7 95.4954 2.7 94.7221C2.7 93.9821 2.92667 93.4154 3.38 93.0221C3.82667 92.6287 4.47 92.4321 5.31 92.4321C5.37667 92.4321 5.44667 92.4321 5.52 92.4321C5.59333 92.4321 5.65667 92.4354 5.71 92.4421L5.71 96.7621L5.07 96.7621L5.07 93.0221L5.28 93.1721C4.63333 93.1721 4.15 93.3021 3.83 93.5621C3.51 93.8221 3.35 94.2087 3.35 94.7221C3.35 95.2687 3.52333 95.6887 3.87 95.9821C4.21 96.2754 4.69667 96.4221 5.33 96.4221L5.53 96.4221C6.15667 96.4221 6.63 96.2654 6.95 95.9521C7.27 95.6387 7.43 95.1787 7.43 94.5721C7.43 94.2521 7.39 93.9421 7.31 93.6421C7.22333 93.3421 7.1 93.0721 6.94 92.8321L7.57 92.6621C7.73667 92.9154 7.86667 93.2087 7.96 93.5421C8.05333 93.8687 8.1 94.2154 8.1 94.5821ZM8.1 88.8275C8.1 89.3942 7.99333 89.8809 7.78 90.2875C7.56 90.6942 7.25 91.0075 6.85 91.2275C6.44333 91.4409 5.96 91.5475 5.4 91.5475C4.84 91.5475 4.36 91.4409 3.96 91.2275C3.55333 91.0075 3.24333 90.6942 3.03 90.2875C2.81 89.8809 2.7 89.3942 2.7 88.8275C2.7 88.5475 2.73 88.2809 2.79 88.0275C2.84333 87.7742 2.93333 87.5275 3.06 87.2875L3.7 87.4375C3.58667 87.6642 3.50333 87.8875 3.45 88.1075C3.39667 88.3275 3.37 88.5509 3.37 88.7775C3.37 89.3975 3.55 89.8809 3.91 90.2275C4.26333 90.5742 4.76 90.7475 5.4 90.7475C6.03333 90.7475 6.53 90.5742 6.89 90.2275C7.25 89.8809 7.43 89.3975 7.43 88.7775C7.43 88.5509 7.40333 88.3275 7.35 88.1075C7.29667 87.8875 7.21333 87.6642 7.1 87.4375L7.74 87.2875C7.86 87.5275 7.95 87.7742 8.01 88.0275C8.07 88.2809 8.1 88.5475 8.1 88.8275ZM8 85.7664L2.8 85.7664L2.8 85.0064L3.89 84.9964L3.89 84.9764C3.64333 84.8231 3.43333 84.6264 3.26 84.3864C3.08 84.1464 2.94333 83.8731 2.85 83.5664C2.75 83.2598 2.7 82.9364 2.7 82.5964L3.4 82.5964C3.4 83.0364 3.49 83.4364 3.67 83.7964C3.85 84.1564 4.09 84.4431 4.39 84.6564C4.69 84.8631 5.02667 84.9664 5.4 84.9664L8 84.9664L8 85.7664ZM9.64 81.8096C9.56667 81.4496 9.45667 81.1496 9.31 80.9096C9.16334 80.6629 8.95667 80.4562 8.69 80.2896C8.43 80.1162 8.09334 79.9662 7.68 79.8396L8.27 79.7996L2.8 82.1696L2.8 81.3196L7.15 79.5496L7.15 79.5296L2.8 77.9196L2.8 77.0696L7.99 79.1496C8.47 79.3429 8.86667 79.5562 9.18 79.7896C9.49334 80.0162 9.73667 80.2796 9.91 80.5796C10.09 80.8729 10.22 81.2262 10.3 81.6396L9.64 81.8096ZM2.7 73.518C2.7 72.8247 2.94 72.2847 3.42 71.898C3.89334 71.5113 4.55334 71.318 5.4 71.318C6.24667 71.318 6.91 71.5113 7.39 71.898C7.86334 72.2847 8.1 72.8247 8.1 73.518C8.1 73.898 8.03 74.248 7.89 74.568C7.74334 74.8813 7.54667 75.128 7.3 75.308L7.3 75.328L10.1 75.328L10.1 76.118L2.8 76.118L2.8 75.358L3.5 75.358L3.5 75.338C3.24667 75.1513 3.05 74.898 2.91 74.578C2.77 74.2513 2.7 73.898 2.7 73.518ZM3.37 73.688C3.37 74.0013 3.43667 74.2813 3.57 74.528C3.69667 74.7747 3.87334 74.9713 4.1 75.118C4.32 75.258 4.58 75.328 4.88 75.328L5.92 75.328C6.21334 75.328 6.47334 75.258 6.7 75.118C6.92667 74.9713 7.10667 74.7747 7.24 74.528C7.36667 74.2813 7.43 74.0013 7.43 73.688C7.43 73.1747 7.25667 72.7813 6.91 72.508C6.55667 72.228 6.05334 72.088 5.4 72.088C4.74667 72.088 4.24667 72.228 3.9 72.508C3.54667 72.7813 3.37 73.1747 3.37 73.688ZM8.1 67.9175C8.1 68.5175 7.97 68.9541 7.71 69.2275C7.45 69.4941 7.02334 69.6275 6.43 69.6275L3.47 69.6275L3.47 70.8875L2.8 70.8875L2.8 69.6275L1.1 69.6275L1.1 68.8275L2.8 68.8275L2.8 66.8975L3.47 66.8975L3.47 68.8275L6.33 68.8275C6.71667 68.8275 6.99334 68.7475 7.16 68.5875C7.32 68.4275 7.4 68.1575 7.4 67.7775C7.4 67.6308 7.39 67.4975 7.37 67.3775C7.34334 67.2575 7.30667 67.1308 7.26 66.9975L7.92 66.8875C7.98 67.0608 8.02334 67.2308 8.05 67.3975C8.08334 67.5575 8.1 67.7308 8.1 67.9175ZM8 65.2814L2.8 65.2814L2.8 64.4814L8 64.4814L8 65.2814ZM1.81 64.8814C1.81 65.0547 1.75667 65.198 1.65 65.3114C1.53667 65.418 1.39 65.4714 1.21 65.4714C1.03667 65.4714 0.896669 65.418 0.790002 65.3114C0.676669 65.198 0.620002 65.0547 0.620002 64.8814C0.620002 64.7014 0.676669 64.558 0.790002 64.4514C0.896669 64.338 1.03667 64.2814 1.21 64.2814C1.39 64.2814 1.53667 64.338 1.65 64.4514C1.75667 64.558 1.81 64.7014 1.81 64.8814ZM8.1 60.3945C8.1 60.9078 7.99 61.3578 7.77 61.7445C7.55 62.1245 7.23667 62.4178 6.83 62.6245C6.42334 62.8245 5.94667 62.9245 5.4 62.9245C4.84667 62.9245 4.37 62.8245 3.97 62.6245C3.56334 62.4178 3.25 62.1245 3.03 61.7445C2.81 61.3578 2.7 60.9078 2.7 60.3945C2.7 59.8745 2.81 59.4278 3.03 59.0545C3.25 58.6745 3.56334 58.3812 3.97 58.1745C4.37 57.9678 4.84667 57.8645 5.4 57.8645C5.94667 57.8645 6.42334 57.9678 6.83 58.1745C7.23667 58.3812 7.55 58.6745 7.77 59.0545C7.99 59.4278 8.1 59.8745 8.1 60.3945ZM7.43 60.3945C7.43 59.8478 7.25 59.4212 6.89 59.1145C6.53 58.8012 6.03334 58.6445 5.4 58.6445C4.76 58.6445 4.26334 58.8012 3.91 59.1145C3.55 59.4212 3.37 59.8478 3.37 60.3945C3.37 60.9412 3.55 61.3712 3.91 61.6845C4.26334 61.9912 4.76 62.1445 5.4 62.1445C6.03334 62.1445 6.53 61.9912 6.89 61.6845C7.25 61.3712 7.43 60.9412 7.43 60.3945ZM8 56.5965L2.8 56.5965L2.8 55.8265L3.57 55.8265L3.57 55.8065C3.28334 55.5999 3.06667 55.3399 2.92 55.0265C2.77334 54.7065 2.7 54.3465 2.7 53.9465C2.7 53.3132 2.89 52.8465 3.27 52.5465C3.64334 52.2465 4.22 52.0965 5 52.0965L8 52.0965L8 52.8865L5.14 52.8865C4.54 52.8865 4.09667 52.9899 3.81 53.1965C3.51667 53.4032 3.37 53.7199 3.37 54.1465C3.37 54.4665 3.44334 54.7532 3.59 55.0065C3.73 55.2532 3.92667 55.4499 4.18 55.5965C4.42667 55.7365 4.71334 55.8065 5.04 55.8065L8 55.8065L8 56.5965ZM8 48.3898L0.700003 45.5998L0.700003 44.5098L8 41.7198L8 42.5998L1.39 45.0498L1.39 45.0698L8 47.5098L8 48.3898ZM5.99 47.0998L5.26 47.0998L5.26 42.9998L5.99 42.9998L5.99 47.0998ZM8 40.6276L0.700003 40.6276L0.700003 39.8276L8 39.8276L8 40.6276ZM10.2 36.2314C10.2 36.6314 10.1533 36.9914 10.06 37.3114C9.96667 37.6314 9.82334 37.9214 9.63 38.1814L8.99 37.9814C9.17667 37.7214 9.31334 37.458 9.4 37.1914C9.48667 36.9247 9.53 36.6247 9.53 36.2914C9.53 35.6514 9.36667 35.188 9.04 34.9014C8.72 34.608 8.20667 34.4614 7.5 34.4614L7.04 34.4614L7.04 34.4814C7.27334 34.6614 7.46 34.908 7.6 35.2214C7.73334 35.5347 7.8 35.8814 7.8 36.2614C7.8 36.9547 7.57667 37.498 7.13 37.8914C6.67667 38.2847 6.05 38.4814 5.25 38.4814C4.45 38.4814 3.82667 38.2847 3.38 37.8914C2.92667 37.498 2.7 36.9547 2.7 36.2614C2.7 35.8814 2.77 35.5314 2.91 35.2114C3.04334 34.8914 3.22667 34.6414 3.46 34.4614L3.46 34.4414L2.8 34.4314L2.8 33.6814L7.5 33.6814C8.41334 33.6814 9.09 33.8914 9.53 34.3114C9.97667 34.7247 10.2 35.3647 10.2 36.2314ZM7.13 36.0914C7.13 35.778 7.07334 35.5014 6.96 35.2614C6.84 35.0147 6.68 34.8214 6.48 34.6814C6.27334 34.5347 6.03667 34.4614 5.77 34.4614L4.73 34.4614C4.47 34.4614 4.23667 34.5347 4.03 34.6814C3.82334 34.8214 3.66334 35.0147 3.55 35.2614C3.43 35.5014 3.37 35.778 3.37 36.0914C3.37 36.598 3.53334 36.9947 3.86 37.2814C4.18667 37.5614 4.65 37.7014 5.25 37.7014C5.85 37.7014 6.31334 37.5614 6.64 37.2814C6.96667 36.9947 7.13 36.598 7.13 36.0914ZM8.1 29.8671C8.1 30.3805 7.99 30.8305 7.77 31.2171C7.55 31.5971 7.23667 31.8905 6.83 32.0971C6.42334 32.2971 5.94667 32.3971 5.4 32.3971C4.84667 32.3971 4.37 32.2971 3.97 32.0971C3.56334 31.8905 3.25 31.5971 3.03 31.2171C2.81 30.8305 2.7 30.3805 2.7 29.8671C2.7 29.3471 2.81 28.9005 3.03 28.5271C3.25 28.1471 3.56334 27.8538 3.97 27.6471C4.37 27.4405 4.84667 27.3371 5.4 27.3371C5.94667 27.3371 6.42334 27.4405 6.83 27.6471C7.23667 27.8538 7.55 28.1471 7.77 28.5271C7.99 28.9005 8.1 29.3471 8.1 29.8671ZM7.43 29.8671C7.43 29.3205 7.25 28.8938 6.89 28.5871C6.53 28.2738 6.03334 28.1171 5.4 28.1171C4.76 28.1171 4.26334 28.2738 3.91 28.5871C3.55 28.8938 3.37 29.3205 3.37 29.8671C3.37 30.4138 3.55 30.8438 3.91 31.1571C4.26334 31.4638 4.76 31.6171 5.4 31.6171C6.03334 31.6171 6.53 31.4638 6.89 31.1571C7.25 30.8438 7.43 30.4138 7.43 29.8671ZM8 26.0692L2.8 26.0692L2.8 25.3092L3.89 25.2992L3.89 25.2792C3.64334 25.1258 3.43334 24.9292 3.26 24.6892C3.08 24.4492 2.94334 24.1758 2.85 23.8692C2.75 23.5625 2.7 23.2392 2.7 22.8992L3.4 22.8992C3.4 23.3392 3.49 23.7392 3.67 24.0992C3.85 24.4592 4.09 24.7458 4.39 24.9592C4.69 25.1658 5.02667 25.2692 5.4 25.2692L8 25.2692L8 26.0692ZM8 21.6876L2.8 21.6876L2.8 20.8876L8 20.8876L8 21.6876ZM1.81 21.2876C1.81 21.461 1.75667 21.6043 1.65 21.7176C1.53667 21.8243 1.39 21.8776 1.21 21.8776C1.03667 21.8776 0.896671 21.8243 0.790004 21.7176C0.676671 21.6043 0.620004 21.461 0.620004 21.2876C0.620004 21.1076 0.676671 20.9643 0.790004 20.8576C0.896671 20.7443 1.03667 20.6876 1.21 20.6876C1.39 20.6876 1.53667 20.7443 1.65 20.8576C1.75667 20.9643 1.81 21.1076 1.81 21.2876ZM8.1 16.5307C8.1 17.1307 7.97 17.5674 7.71 17.8407C7.45 18.1074 7.02334 18.2407 6.43 18.2407L3.47 18.2407L3.47 19.5007L2.8 19.5007L2.8 18.2407L1.1 18.2407L1.1 17.4407L2.8 17.4407L2.8 15.5107L3.47 15.5107L3.47 17.4407L6.33 17.4407C6.71667 17.4407 6.99334 17.3607 7.16 17.2007C7.32 17.0407 7.4 16.7707 7.4 16.3907C7.4 16.2441 7.39 16.1107 7.37 15.9907C7.34334 15.8707 7.30667 15.7441 7.26 15.6107L7.92 15.5007C7.98 15.6741 8.02334 15.8441 8.05 16.0107C8.08334 16.1707 8.1 16.3441 8.1 16.5307ZM8 14.1746L0.700004 14.1746L0.700005 13.3846L3.5 13.3846L3.5 13.3646C3.24 13.1646 3.04334 12.908 2.91 12.5946C2.77 12.2813 2.7 11.9213 2.7 11.5146C2.7 10.8746 2.87 10.408 3.21 10.1146C3.55 9.81465 4.08 9.66798 4.8 9.67465L8 9.67465L8 10.4546L4.94 10.4546C4.4 10.448 4.00334 10.548 3.75 10.7546C3.49667 10.9613 3.37 11.2813 3.37 11.7146C3.37 12.0413 3.43667 12.3313 3.57 12.5846C3.69667 12.8313 3.87334 13.0246 4.1 13.1646C4.32 13.3046 4.58 13.378 4.88 13.3846L8 13.3846L8 14.1746ZM8 8.15902L2.8 8.15902L2.8 7.41902L3.57 7.40902L3.57 7.38902C3.29 7.22236 3.07667 7.00236 2.93 6.72902C2.77667 6.44902 2.7 6.12902 2.7 5.76902C2.7 5.40902 2.77667 5.10236 2.93 4.84902C3.07667 4.58902 3.29 4.40902 3.57 4.30902L3.57 4.28902C3.27667 4.12902 3.06 3.90902 2.92 3.62902C2.77334 3.34236 2.7 2.99902 2.7 2.59902C2.7 2.02569 2.86334 1.61569 3.19 1.36902C3.51667 1.11569 4.06667 0.989023 4.84001 0.989023L8.00001 0.989023L8.00001 1.76902L4.94 1.76902C4.37334 1.76902 3.97 1.84902 3.73001 2.00902C3.49 2.16902 3.37 2.43902 3.37 2.81902C3.37 3.26569 3.52334 3.60569 3.83 3.83902C4.13 4.07236 4.57334 4.18902 5.16001 4.18902L8.00001 4.18902L8.00001 4.95902L4.60001 4.95902C4.21334 4.95902 3.91334 5.05236 3.7 5.23902C3.48 5.42569 3.37 5.68236 3.37 6.00902C3.37 6.41569 3.53667 6.74902 3.87 7.00902C4.19667 7.26236 4.62667 7.38902 5.16 7.38902L8 7.38902L8 8.15902Z" fill="#696C90"/>
</svg>
