<svg width="138" height="21" viewBox="0 0 138 21" fill="none" xmlns="http://www.w3.org/2000/svg">
<rect width="137" height="20" transform="translate(0.5 0.5)" fill="#0E0E0D"/>
<path d="M19.5776 12.6C19.3243 12.6 19.0376 12.5867 18.7176 12.56C18.4043 12.54 18.0776 12.5067 17.7376 12.46L17.7376 5.24C18.0776 5.19333 18.4043 5.16 18.7176 5.14C19.0376 5.11333 19.3243 5.1 19.5776 5.1C20.4376 5.1 21.151 5.23667 21.7176 5.51C22.2843 5.78333 22.7076 6.19667 22.9876 6.75C23.2676 7.30333 23.4076 8.00333 23.4076 8.85C23.4076 9.69667 23.2676 10.3967 22.9876 10.95C22.7076 11.5033 22.2843 11.9167 21.7176 12.19C21.151 12.4633 20.4376 12.6 19.5776 12.6ZM19.6176 11.87C20.3043 11.87 20.8643 11.7633 21.2976 11.55C21.7376 11.3367 22.0643 11.0067 22.2776 10.56C22.491 10.1133 22.5976 9.54333 22.5976 8.85C22.5976 8.15667 22.491 7.58667 22.2776 7.14C22.0643 6.69333 21.7376 6.36333 21.2976 6.15C20.8643 5.93667 20.3043 5.83 19.6176 5.83C19.4043 5.83 19.1743 5.84 18.9276 5.86C18.681 5.88 18.4143 5.91 18.1276 5.95L18.5376 5.53L18.5376 12.17L18.1276 11.75C18.4143 11.7833 18.681 11.8133 18.9276 11.84C19.1743 11.86 19.4043 11.87 19.6176 11.87ZM26.9179 12.6C26.0846 12.6 25.4413 12.3667 24.9879 11.9C24.5346 11.4333 24.3079 10.7667 24.3079 9.9C24.3079 9.06 24.5246 8.4 24.9579 7.92C25.3979 7.44 26.0046 7.2 26.7779 7.2C27.5179 7.2 28.0846 7.42667 28.4779 7.88C28.8713 8.32667 29.0679 8.97 29.0679 9.81C29.0679 9.87667 29.0679 9.94667 29.0679 10.02C29.0679 10.0933 29.0646 10.1567 29.0579 10.21L24.7379 10.21V9.57L28.4779 9.57L28.3279 9.78C28.3279 9.13333 28.1979 8.65 27.9379 8.33C27.6779 8.01 27.2913 7.85 26.7779 7.85C26.2313 7.85 25.8113 8.02333 25.5179 8.37C25.2246 8.71 25.0779 9.19667 25.0779 9.83V10.03C25.0779 10.6567 25.2346 11.13 25.5479 11.45C25.8613 11.77 26.3213 11.93 26.9279 11.93C27.2479 11.93 27.5579 11.89 27.8579 11.81C28.1579 11.7233 28.4279 11.6 28.6679 11.44L28.8379 12.07C28.5846 12.2367 28.2913 12.3667 27.9579 12.46C27.6313 12.5533 27.2846 12.6 26.9179 12.6ZM32.6725 12.6C32.1058 12.6 31.6191 12.4933 31.2125 12.28C30.8058 12.06 30.4925 11.75 30.2725 11.35C30.0591 10.9433 29.9525 10.46 29.9525 9.9C29.9525 9.34 30.0591 8.86 30.2725 8.46C30.4925 8.05333 30.8058 7.74333 31.2125 7.53C31.6191 7.31 32.1058 7.2 32.6725 7.2C32.9525 7.2 33.2191 7.23 33.4725 7.29C33.7258 7.34333 33.9725 7.43333 34.2125 7.56L34.0625 8.2C33.8358 8.08667 33.6125 8.00333 33.3925 7.95C33.1725 7.89667 32.9491 7.87 32.7225 7.87C32.1025 7.87 31.6191 8.05 31.2725 8.41C30.9258 8.76333 30.7525 9.26 30.7525 9.9C30.7525 10.5333 30.9258 11.03 31.2725 11.39C31.6191 11.75 32.1025 11.93 32.7225 11.93C32.9491 11.93 33.1725 11.9033 33.3925 11.85C33.6125 11.7967 33.8358 11.7133 34.0625 11.6L34.2125 12.24C33.9725 12.36 33.7258 12.45 33.4725 12.51C33.2191 12.57 32.9525 12.6 32.6725 12.6ZM35.7336 12.5V7.3L36.4936 7.3L36.5036 8.39H36.5236C36.6769 8.14333 36.8736 7.93333 37.1136 7.76C37.3536 7.58 37.6269 7.44333 37.9336 7.35C38.2402 7.25 38.5636 7.2 38.9036 7.2V7.9C38.4636 7.9 38.0636 7.99 37.7036 8.17C37.3436 8.35 37.0569 8.59 36.8436 8.89C36.6369 9.19 36.5336 9.52667 36.5336 9.9V12.5H35.7336ZM39.6904 14.14C40.0504 14.0667 40.3504 13.9567 40.5904 13.81C40.8371 13.6633 41.0438 13.4567 41.2104 13.19C41.3838 12.93 41.5338 12.5933 41.6604 12.18L41.7004 12.77L39.3304 7.3H40.1804L41.9504 11.65H41.9704L43.5804 7.3H44.4304L42.3504 12.49C42.1571 12.97 41.9438 13.3667 41.7104 13.68C41.4838 13.9933 41.2204 14.2367 40.9204 14.41C40.6271 14.59 40.2738 14.72 39.8604 14.8L39.6904 14.14ZM47.982 7.2C48.6753 7.2 49.2153 7.44 49.602 7.92C49.9887 8.39333 50.182 9.05333 50.182 9.9C50.182 10.7467 49.9887 11.41 49.602 11.89C49.2153 12.3633 48.6753 12.6 47.982 12.6C47.602 12.6 47.252 12.53 46.932 12.39C46.6187 12.2433 46.372 12.0467 46.192 11.8H46.172V14.6H45.382V7.3H46.142V8H46.162C46.3487 7.74667 46.602 7.55 46.922 7.41C47.2487 7.27 47.602 7.2 47.982 7.2ZM47.812 7.87C47.4987 7.87 47.2187 7.93667 46.972 8.07C46.7253 8.19667 46.5287 8.37333 46.382 8.6C46.242 8.82 46.172 9.08 46.172 9.38V10.42C46.172 10.7133 46.242 10.9733 46.382 11.2C46.5287 11.4267 46.7253 11.6067 46.972 11.74C47.2187 11.8667 47.4987 11.93 47.812 11.93C48.3253 11.93 48.7187 11.7567 48.992 11.41C49.272 11.0567 49.412 10.5533 49.412 9.9C49.412 9.24667 49.272 8.74667 48.992 8.4C48.7187 8.04667 48.3253 7.87 47.812 7.87ZM53.5825 12.6C52.9825 12.6 52.5459 12.47 52.2725 12.21C52.0059 11.95 51.8725 11.5233 51.8725 10.93V7.97H50.6125V7.3H51.8725V5.6H52.6725V7.3L54.6025 7.3V7.97L52.6725 7.97V10.83C52.6725 11.2167 52.7525 11.4933 52.9125 11.66C53.0725 11.82 53.3425 11.9 53.7225 11.9C53.8692 11.9 54.0025 11.89 54.1225 11.87C54.2425 11.8433 54.3692 11.8067 54.5025 11.76L54.6125 12.42C54.4392 12.48 54.2692 12.5233 54.1025 12.55C53.9425 12.5833 53.7692 12.6 53.5825 12.6ZM56.2186 12.5V7.3H57.0186V12.5H56.2186ZM56.6186 6.31C56.4453 6.31 56.302 6.25667 56.1886 6.15C56.082 6.03667 56.0286 5.89 56.0286 5.71C56.0286 5.53667 56.082 5.39667 56.1886 5.29C56.302 5.17667 56.4453 5.12 56.6186 5.12C56.7986 5.12 56.942 5.17667 57.0486 5.29C57.162 5.39667 57.2186 5.53667 57.2186 5.71C57.2186 5.89 57.162 6.03667 57.0486 6.15C56.942 6.25667 56.7986 6.31 56.6186 6.31ZM61.1055 12.6C60.5922 12.6 60.1422 12.49 59.7555 12.27C59.3755 12.05 59.0822 11.7367 58.8755 11.33C58.6755 10.9233 58.5755 10.4467 58.5755 9.9C58.5755 9.34667 58.6755 8.87 58.8755 8.47C59.0822 8.06333 59.3755 7.75 59.7555 7.53C60.1422 7.31 60.5922 7.2 61.1055 7.2C61.6255 7.2 62.0722 7.31 62.4455 7.53C62.8255 7.75 63.1188 8.06333 63.3255 8.47C63.5322 8.87 63.6355 9.34667 63.6355 9.9C63.6355 10.4467 63.5322 10.9233 63.3255 11.33C63.1188 11.7367 62.8255 12.05 62.4455 12.27C62.0722 12.49 61.6255 12.6 61.1055 12.6ZM61.1055 11.93C61.6522 11.93 62.0788 11.75 62.3855 11.39C62.6988 11.03 62.8555 10.5333 62.8555 9.9C62.8555 9.26 62.6988 8.76333 62.3855 8.41C62.0788 8.05 61.6522 7.87 61.1055 7.87C60.5588 7.87 60.1288 8.05 59.8155 8.41C59.5088 8.76333 59.3555 9.26 59.3555 9.9C59.3555 10.5333 59.5088 11.03 59.8155 11.39C60.1288 11.75 60.5588 11.93 61.1055 11.93ZM64.9035 12.5V7.3H65.6735V8.07H65.6935C65.9001 7.78333 66.1601 7.56667 66.4735 7.42C66.7935 7.27333 67.1535 7.2 67.5535 7.2C68.1868 7.2 68.6535 7.39 68.9535 7.77C69.2535 8.14333 69.4035 8.72 69.4035 9.5V12.5H68.6135V9.64C68.6135 9.04 68.5101 8.59667 68.3035 8.31C68.0968 8.01667 67.7801 7.87 67.3535 7.87C67.0335 7.87 66.7468 7.94333 66.4935 8.09C66.2468 8.23 66.0501 8.42667 65.9035 8.68C65.7635 8.92667 65.6935 9.21333 65.6935 9.54V12.5H64.9035ZM73.1102 12.5L75.9002 5.2H76.9902L79.7802 12.5H78.9002L76.4502 5.89H76.4302L73.9902 12.5H73.1102ZM74.4002 10.49V9.76H78.5002V10.49H74.4002ZM80.8724 12.5V5.2H81.6724V12.5H80.8724ZM85.2686 14.7C84.8686 14.7 84.5086 14.6533 84.1886 14.56C83.8686 14.4667 83.5786 14.3233 83.3186 14.13L83.5186 13.49C83.7786 13.6767 84.042 13.8133 84.3086 13.9C84.5753 13.9867 84.8753 14.03 85.2086 14.03C85.8486 14.03 86.312 13.8667 86.5986 13.54C86.892 13.22 87.0386 12.7067 87.0386 12V11.54H87.0186C86.8386 11.7733 86.592 11.96 86.2786 12.1C85.9653 12.2333 85.6186 12.3 85.2386 12.3C84.5453 12.3 84.002 12.0767 83.6086 11.63C83.2153 11.1767 83.0186 10.55 83.0186 9.75C83.0186 8.95 83.2153 8.32667 83.6086 7.88C84.002 7.42667 84.5453 7.2 85.2386 7.2C85.6186 7.2 85.9686 7.27 86.2886 7.41C86.6086 7.54333 86.8586 7.72667 87.0386 7.96H87.0586L87.0686 7.3H87.8186V12C87.8186 12.9133 87.6086 13.59 87.1886 14.03C86.7753 14.4767 86.1353 14.7 85.2686 14.7ZM85.4086 11.63C85.722 11.63 85.9986 11.5733 86.2386 11.46C86.4853 11.34 86.6786 11.18 86.8186 10.98C86.9653 10.7733 87.0386 10.5367 87.0386 10.27V9.23C87.0386 8.97 86.9653 8.73667 86.8186 8.53C86.6786 8.32333 86.4853 8.16333 86.2386 8.05C85.9986 7.93 85.722 7.87 85.4086 7.87C84.902 7.87 84.5053 8.03333 84.2186 8.36C83.9386 8.68667 83.7986 9.15 83.7986 9.75C83.7986 10.35 83.9386 10.8133 84.2186 11.14C84.5053 11.4667 84.902 11.63 85.4086 11.63ZM91.6329 12.6C91.1195 12.6 90.6695 12.49 90.2829 12.27C89.9029 12.05 89.6095 11.7367 89.4029 11.33C89.2029 10.9233 89.1029 10.4467 89.1029 9.9C89.1029 9.34667 89.2029 8.87 89.4029 8.47C89.6095 8.06333 89.9029 7.75 90.2829 7.53C90.6695 7.31 91.1195 7.2 91.6329 7.2C92.1529 7.2 92.5995 7.31 92.9729 7.53C93.3529 7.75 93.6462 8.06333 93.8529 8.47C94.0595 8.87 94.1629 9.34667 94.1629 9.9C94.1629 10.4467 94.0595 10.9233 93.8529 11.33C93.6462 11.7367 93.3529 12.05 92.9729 12.27C92.5995 12.49 92.1529 12.6 91.6329 12.6ZM91.6329 11.93C92.1795 11.93 92.6062 11.75 92.9129 11.39C93.2262 11.03 93.3829 10.5333 93.3829 9.9C93.3829 9.26 93.2262 8.76333 92.9129 8.41C92.6062 8.05 92.1795 7.87 91.6329 7.87C91.0862 7.87 90.6562 8.05 90.3429 8.41C90.0362 8.76333 89.8829 9.26 89.8829 9.9C89.8829 10.5333 90.0362 11.03 90.3429 11.39C90.6562 11.75 91.0862 11.93 91.6329 11.93ZM95.4308 12.5V7.3H96.1908L96.2008 8.39H96.2208C96.3742 8.14333 96.5708 7.93333 96.8108 7.76C97.0508 7.58 97.3242 7.44333 97.6308 7.35C97.9375 7.25 98.2608 7.2 98.6008 7.2V7.9C98.1608 7.9 97.7608 7.99 97.4008 8.17C97.0408 8.35 96.7542 8.59 96.5408 8.89C96.3342 9.19 96.2308 9.52667 96.2308 9.9V12.5H95.4308ZM99.8124 12.5V7.3H100.612V12.5H99.8124ZM100.212 6.31C100.039 6.31 99.8957 6.25667 99.7824 6.15C99.6757 6.03667 99.6224 5.89 99.6224 5.71C99.6224 5.53667 99.6757 5.39667 99.7824 5.29C99.8957 5.17667 100.039 5.12 100.212 5.12C100.392 5.12 100.536 5.17667 100.642 5.29C100.756 5.39667 100.812 5.53667 100.812 5.71C100.812 5.89 100.756 6.03667 100.642 6.15C100.536 6.25667 100.392 6.31 100.212 6.31ZM104.969 12.6C104.369 12.6 103.933 12.47 103.659 12.21C103.393 11.95 103.259 11.5233 103.259 10.93V7.97L101.999 7.97V7.3L103.259 7.3V5.6H104.059V7.3H105.989V7.97H104.059V10.83C104.059 11.2167 104.139 11.4933 104.299 11.66C104.459 11.82 104.729 11.9 105.109 11.9C105.256 11.9 105.389 11.89 105.509 11.87C105.629 11.8433 105.756 11.8067 105.889 11.76L105.999 12.42C105.826 12.48 105.656 12.5233 105.489 12.55C105.329 12.5833 105.156 12.6 104.969 12.6ZM107.325 12.5V5.2H108.115V8H108.135C108.335 7.74 108.592 7.54333 108.905 7.41C109.219 7.27 109.579 7.2 109.985 7.2C110.625 7.2 111.092 7.37 111.385 7.71C111.685 8.05 111.832 8.58 111.825 9.3V12.5H111.045V9.44C111.052 8.9 110.952 8.50333 110.745 8.25C110.539 7.99667 110.219 7.87 109.785 7.87C109.459 7.87 109.169 7.93667 108.915 8.07C108.669 8.19667 108.475 8.37333 108.335 8.6C108.195 8.82 108.122 9.08 108.115 9.38V12.5H107.325ZM113.341 12.5V7.3L114.081 7.3L114.091 8.07H114.111C114.278 7.79 114.498 7.57667 114.771 7.43C115.051 7.27667 115.371 7.2 115.731 7.2C116.091 7.2 116.398 7.27667 116.651 7.43C116.911 7.57667 117.091 7.79 117.191 8.07H117.211C117.371 7.77667 117.591 7.56 117.871 7.42C118.158 7.27333 118.501 7.2 118.901 7.2C119.474 7.2 119.884 7.36333 120.131 7.69C120.384 8.01667 120.511 8.56667 120.511 9.34V12.5H119.731V9.44C119.731 8.87333 119.651 8.47 119.491 8.23C119.331 7.99 119.061 7.87 118.681 7.87C118.234 7.87 117.894 8.02333 117.661 8.33C117.428 8.63 117.311 9.07333 117.311 9.66V12.5H116.541V9.1C116.541 8.71333 116.448 8.41333 116.261 8.2C116.074 7.98 115.818 7.87 115.491 7.87C115.084 7.87 114.751 8.03667 114.491 8.37C114.238 8.69667 114.111 9.12667 114.111 9.66V12.5H113.341Z" fill="#696C90"/>
</svg>
