<svg width="260" height="81" viewBox="0 0 260 81" fill="none" xmlns="http://www.w3.org/2000/svg">
<rect x="0.5" y="0.5" width="259" height="80" rx="9.5" fill="#0B0B0C"/>
<rect x="0.5" y="0.5" width="259" height="80" rx="9.5" stroke="#202328"/>
<path d="M78.878 47.14C78.5233 47.14 78.122 47.1213 77.674 47.084C77.2353 47.056 76.778 47.0093 76.302 46.944V36.836C76.778 36.7707 77.2353 36.724 77.674 36.696C78.122 36.6587 78.5233 36.64 78.878 36.64C80.082 36.64 81.0807 36.8313 81.874 37.214C82.6673 37.5967 83.26 38.1753 83.652 38.95C84.044 39.7247 84.24 40.7047 84.24 41.89C84.24 43.0753 84.044 44.0553 83.652 44.83C83.26 45.6047 82.6673 46.1833 81.874 46.566C81.0807 46.9487 80.082 47.14 78.878 47.14ZM78.934 46.118C79.8953 46.118 80.6793 45.9687 81.286 45.67C81.902 45.3713 82.3593 44.9093 82.658 44.284C82.9567 43.6587 83.106 42.8607 83.106 41.89C83.106 40.9193 82.9567 40.1213 82.658 39.496C82.3593 38.8707 81.902 38.4087 81.286 38.11C80.6793 37.8113 79.8953 37.662 78.934 37.662C78.6353 37.662 78.3133 37.676 77.968 37.704C77.6227 37.732 77.2493 37.774 76.848 37.83L77.422 37.242V46.538L76.848 45.95C77.2493 45.9967 77.6227 46.0387 77.968 46.076C78.3133 46.104 78.6353 46.118 78.934 46.118ZM89.1544 47.14C87.9878 47.14 87.0871 46.8133 86.4524 46.16C85.8178 45.5067 85.5004 44.5733 85.5004 43.36C85.5004 42.184 85.8038 41.26 86.4104 40.588C87.0264 39.916 87.8758 39.58 88.9584 39.58C89.9944 39.58 90.7878 39.8973 91.3384 40.532C91.8891 41.1573 92.1644 42.058 92.1644 43.234C92.1644 43.3273 92.1644 43.4253 92.1644 43.528C92.1644 43.6307 92.1598 43.7193 92.1504 43.794H86.1024V42.898H91.3384L91.1284 43.192C91.1284 42.2867 90.9464 41.61 90.5824 41.162C90.2184 40.714 89.6771 40.49 88.9584 40.49C88.1931 40.49 87.6051 40.7327 87.1944 41.218C86.7838 41.694 86.5784 42.3753 86.5784 43.262V43.542C86.5784 44.4193 86.7978 45.082 87.2364 45.53C87.6751 45.978 88.3191 46.202 89.1684 46.202C89.6164 46.202 90.0504 46.146 90.4704 46.034C90.8904 45.9127 91.2684 45.74 91.6044 45.516L91.8424 46.398C91.4878 46.6313 91.0771 46.8133 90.6104 46.944C90.1531 47.0747 89.6678 47.14 89.1544 47.14ZM93.9084 47V39.72H94.9444L94.9584 40.798H94.9864C95.2198 40.406 95.5278 40.1073 95.9104 39.902C96.3024 39.6873 96.7504 39.58 97.2544 39.58C97.7584 39.58 98.1878 39.6873 98.5424 39.902C98.9064 40.1073 99.1584 40.406 99.2984 40.798H99.3264C99.5504 40.3873 99.8584 40.084 100.25 39.888C100.652 39.6827 101.132 39.58 101.692 39.58C102.495 39.58 103.069 39.8087 103.414 40.266C103.769 40.7233 103.946 41.4933 103.946 42.576V47H102.854V42.716C102.854 41.9227 102.742 41.358 102.518 41.022C102.294 40.686 101.916 40.518 101.384 40.518C100.759 40.518 100.283 40.7327 99.9564 41.162C99.6298 41.582 99.4664 42.2027 99.4664 43.024V47H98.3884V42.24C98.3884 41.6987 98.2578 41.2787 97.9964 40.98C97.7351 40.672 97.3758 40.518 96.9184 40.518C96.3491 40.518 95.8824 40.7513 95.5184 41.218C95.1638 41.6753 94.9864 42.2773 94.9864 43.024V47H93.9084ZM109.044 47.14C108.326 47.14 107.696 46.986 107.154 46.678C106.622 46.37 106.212 45.9313 105.922 45.362C105.642 44.7927 105.502 44.1253 105.502 43.36C105.502 42.5853 105.642 41.918 105.922 41.358C106.212 40.7887 106.622 40.35 107.154 40.042C107.696 39.734 108.326 39.58 109.044 39.58C109.772 39.58 110.398 39.734 110.92 40.042C111.452 40.35 111.863 40.7887 112.152 41.358C112.442 41.918 112.586 42.5853 112.586 43.36C112.586 44.1253 112.442 44.7927 112.152 45.362C111.863 45.9313 111.452 46.37 110.92 46.678C110.398 46.986 109.772 47.14 109.044 47.14ZM109.044 46.202C109.81 46.202 110.407 45.95 110.836 45.446C111.275 44.942 111.494 44.2467 111.494 43.36C111.494 42.464 111.275 41.7687 110.836 41.274C110.407 40.77 109.81 40.518 109.044 40.518C108.279 40.518 107.677 40.77 107.238 41.274C106.809 41.7687 106.594 42.464 106.594 43.36C106.594 44.2467 106.809 44.942 107.238 45.446C107.677 45.95 108.279 46.202 109.044 46.202ZM116.992 50.08C116.432 50.08 115.928 50.0147 115.48 49.884C115.032 49.7533 114.626 49.5527 114.262 49.282L114.542 48.386C114.906 48.6473 115.275 48.8387 115.648 48.96C116.021 49.0813 116.441 49.142 116.908 49.142C117.804 49.142 118.453 48.9133 118.854 48.456C119.265 48.008 119.47 47.2893 119.47 46.3V45.656H119.442C119.19 45.9827 118.845 46.244 118.406 46.44C117.967 46.6267 117.482 46.72 116.95 46.72C115.979 46.72 115.219 46.4073 114.668 45.782C114.117 45.1473 113.842 44.27 113.842 43.15C113.842 42.03 114.117 41.1573 114.668 40.532C115.219 39.8973 115.979 39.58 116.95 39.58C117.482 39.58 117.972 39.678 118.42 39.874C118.868 40.0607 119.218 40.3173 119.47 40.644H119.498L119.512 39.72H120.562V46.3C120.562 47.5787 120.268 48.526 119.68 49.142C119.101 49.7673 118.205 50.08 116.992 50.08ZM117.188 45.782C117.627 45.782 118.014 45.7027 118.35 45.544C118.695 45.376 118.966 45.152 119.162 44.872C119.367 44.5827 119.47 44.2513 119.47 43.878V42.422C119.47 42.058 119.367 41.7313 119.162 41.442C118.966 41.1527 118.695 40.9287 118.35 40.77C118.014 40.602 117.627 40.518 117.188 40.518C116.479 40.518 115.923 40.7467 115.522 41.204C115.13 41.6613 114.934 42.31 114.934 43.15C114.934 43.99 115.13 44.6387 115.522 45.096C115.923 45.5533 116.479 45.782 117.188 45.782ZM122.934 47V39.72H123.998L124.012 41.246H124.04C124.254 40.9007 124.53 40.6067 124.866 40.364C125.202 40.112 125.584 39.9207 126.014 39.79C126.443 39.65 126.896 39.58 127.372 39.58V40.56C126.756 40.56 126.196 40.686 125.692 40.938C125.188 41.19 124.786 41.526 124.488 41.946C124.198 42.366 124.054 42.8373 124.054 43.36V47H122.934ZM130.343 47.14C129.605 47.14 129.022 46.944 128.593 46.552C128.163 46.1507 127.949 45.614 127.949 44.942C127.949 44.102 128.289 43.458 128.971 43.01C129.652 42.5527 130.627 42.324 131.897 42.324H133.059C133.059 41.6613 132.905 41.1947 132.597 40.924C132.298 40.6533 131.789 40.518 131.071 40.518C130.576 40.518 130.114 40.5787 129.685 40.7C129.265 40.812 128.84 40.994 128.411 41.246L128.229 40.308C128.667 40.056 129.129 39.874 129.615 39.762C130.1 39.6407 130.627 39.58 131.197 39.58C131.906 39.58 132.475 39.678 132.905 39.874C133.343 40.0607 133.661 40.364 133.857 40.784C134.062 41.1947 134.165 41.7407 134.165 42.422V47H133.101V46.006H133.059C132.816 46.342 132.438 46.6173 131.925 46.832C131.421 47.0373 130.893 47.14 130.343 47.14ZM130.693 46.23C131.131 46.23 131.528 46.146 131.883 45.978C132.247 45.81 132.531 45.586 132.737 45.306C132.951 45.0167 133.059 44.6993 133.059 44.354V43.178H132.037C131.047 43.178 130.301 43.3227 129.797 43.612C129.293 43.892 129.041 44.3027 129.041 44.844C129.041 45.2733 129.185 45.614 129.475 45.866C129.764 46.1087 130.17 46.23 130.693 46.23ZM139.931 39.58C140.902 39.58 141.658 39.916 142.199 40.588C142.741 41.2507 143.011 42.1747 143.011 43.36C143.011 44.5453 142.741 45.474 142.199 46.146C141.658 46.8087 140.902 47.14 139.931 47.14C139.399 47.14 138.909 47.042 138.461 46.846C138.023 46.6407 137.677 46.3653 137.425 46.02H137.397V49.94H136.291V39.72H137.355V40.7H137.383C137.645 40.3453 137.999 40.07 138.447 39.874C138.905 39.678 139.399 39.58 139.931 39.58ZM139.693 40.518C139.255 40.518 138.863 40.6113 138.517 40.798C138.172 40.9753 137.897 41.2227 137.691 41.54C137.495 41.848 137.397 42.212 137.397 42.632V44.088C137.397 44.4987 137.495 44.8627 137.691 45.18C137.897 45.4973 138.172 45.7493 138.517 45.936C138.863 46.1133 139.255 46.202 139.693 46.202C140.412 46.202 140.963 45.9593 141.345 45.474C141.737 44.9793 141.933 44.2747 141.933 43.36C141.933 42.4453 141.737 41.7453 141.345 41.26C140.963 40.7653 140.412 40.518 139.693 40.518ZM144.795 47V36.78H145.901V40.7H145.929C146.209 40.336 146.568 40.0607 147.007 39.874C147.446 39.678 147.95 39.58 148.519 39.58C149.415 39.58 150.068 39.818 150.479 40.294C150.899 40.77 151.104 41.512 151.095 42.52V47H150.003V42.716C150.012 41.96 149.872 41.4047 149.583 41.05C149.294 40.6953 148.846 40.518 148.239 40.518C147.782 40.518 147.376 40.6113 147.021 40.798C146.676 40.9753 146.405 41.2227 146.209 41.54C146.013 41.848 145.91 42.212 145.901 42.632V47H144.795ZM153.609 47V39.72H154.729V47H153.609ZM154.169 38.334C153.926 38.334 153.726 38.2593 153.567 38.11C153.418 37.9513 153.343 37.746 153.343 37.494C153.343 37.2513 153.418 37.0553 153.567 36.906C153.726 36.7473 153.926 36.668 154.169 36.668C154.421 36.668 154.622 36.7473 154.771 36.906C154.93 37.0553 155.009 37.2513 155.009 37.494C155.009 37.746 154.93 37.9513 154.771 38.11C154.622 38.2593 154.421 38.334 154.169 38.334ZM160.717 47.14C159.923 47.14 159.242 46.9907 158.673 46.692C158.103 46.384 157.665 45.95 157.357 45.39C157.058 44.8207 156.909 44.144 156.909 43.36C156.909 42.576 157.058 41.904 157.357 41.344C157.665 40.7747 158.103 40.3407 158.673 40.042C159.242 39.734 159.923 39.58 160.717 39.58C161.109 39.58 161.482 39.622 161.837 39.706C162.191 39.7807 162.537 39.9067 162.873 40.084L162.663 40.98C162.345 40.8213 162.033 40.7047 161.725 40.63C161.417 40.5553 161.104 40.518 160.787 40.518C159.919 40.518 159.242 40.77 158.757 41.274C158.271 41.7687 158.029 42.464 158.029 43.36C158.029 44.2467 158.271 44.942 158.757 45.446C159.242 45.95 159.919 46.202 160.787 46.202C161.104 46.202 161.417 46.1647 161.725 46.09C162.033 46.0153 162.345 45.8987 162.663 45.74L162.873 46.636C162.537 46.804 162.191 46.93 161.837 47.014C161.482 47.098 161.109 47.14 160.717 47.14ZM169.288 47V36.78H170.45V47H169.288ZM173.069 47V39.72H174.147V40.798H174.175C174.464 40.3967 174.828 40.0933 175.267 39.888C175.715 39.6827 176.219 39.58 176.779 39.58C177.665 39.58 178.319 39.846 178.739 40.378C179.159 40.9007 179.369 41.708 179.369 42.8V47H178.263V42.996C178.263 42.156 178.118 41.5353 177.829 41.134C177.539 40.7233 177.096 40.518 176.499 40.518C176.051 40.518 175.649 40.6207 175.295 40.826C174.949 41.022 174.674 41.2973 174.469 41.652C174.273 41.9973 174.175 42.3987 174.175 42.856V47H173.069ZM182.367 47V40.938H180.309V40H182.367V38.642C182.367 37.83 182.563 37.2233 182.955 36.822C183.347 36.4207 183.94 36.22 184.733 36.22C184.966 36.22 185.195 36.2387 185.419 36.276C185.643 36.3133 185.853 36.3647 186.049 36.43L185.895 37.354C185.559 37.242 185.223 37.186 184.887 37.186C184.383 37.186 184.019 37.3027 183.795 37.536C183.58 37.7693 183.473 38.166 183.473 38.726V40H186.021V40.938H183.473V47H182.367ZM189.996 47.14C189.277 47.14 188.647 46.986 188.106 46.678C187.574 46.37 187.163 45.9313 186.874 45.362C186.594 44.7927 186.454 44.1253 186.454 43.36C186.454 42.5853 186.594 41.918 186.874 41.358C187.163 40.7887 187.574 40.35 188.106 40.042C188.647 39.734 189.277 39.58 189.996 39.58C190.724 39.58 191.349 39.734 191.872 40.042C192.404 40.35 192.814 40.7887 193.104 41.358C193.393 41.918 193.538 42.5853 193.538 43.36C193.538 44.1253 193.393 44.7927 193.104 45.362C192.814 45.9313 192.404 46.37 191.872 46.678C191.349 46.986 190.724 47.14 189.996 47.14ZM189.996 46.202C190.761 46.202 191.358 45.95 191.788 45.446C192.226 44.942 192.446 44.2467 192.446 43.36C192.446 42.464 192.226 41.7687 191.788 41.274C191.358 40.77 190.761 40.518 189.996 40.518C189.23 40.518 188.628 40.77 188.19 41.274C187.76 41.7687 187.546 42.464 187.546 43.36C187.546 44.2467 187.76 44.942 188.19 45.446C188.628 45.95 189.23 46.202 189.996 46.202ZM195.313 47V39.72H196.377L196.391 41.246H196.419C196.633 40.9007 196.909 40.6067 197.245 40.364C197.581 40.112 197.963 39.9207 198.393 39.79C198.822 39.65 199.275 39.58 199.751 39.58V40.56C199.135 40.56 198.575 40.686 198.071 40.938C197.567 41.19 197.165 41.526 196.867 41.946C196.577 42.366 196.433 42.8373 196.433 43.36V47H195.313ZM201.192 47V39.72H202.228L202.242 40.798H202.27C202.503 40.406 202.811 40.1073 203.194 39.902C203.586 39.6873 204.034 39.58 204.538 39.58C205.042 39.58 205.471 39.6873 205.826 39.902C206.19 40.1073 206.442 40.406 206.582 40.798H206.61C206.834 40.3873 207.142 40.084 207.534 39.888C207.935 39.6827 208.416 39.58 208.976 39.58C209.778 39.58 210.352 39.8087 210.698 40.266C211.052 40.7233 211.23 41.4933 211.23 42.576V47H210.138V42.716C210.138 41.9227 210.026 41.358 209.802 41.022C209.578 40.686 209.2 40.518 208.668 40.518C208.042 40.518 207.566 40.7327 207.24 41.162C206.913 41.582 206.75 42.2027 206.75 43.024V47H205.672V42.24C205.672 41.6987 205.541 41.2787 205.28 40.98C205.018 40.672 204.659 40.518 204.202 40.518C203.632 40.518 203.166 40.7513 202.802 41.218C202.447 41.6753 202.27 42.2773 202.27 43.024V47H201.192ZM215.054 47.14C214.316 47.14 213.733 46.944 213.304 46.552C212.874 46.1507 212.66 45.614 212.66 44.942C212.66 44.102 213 43.458 213.682 43.01C214.363 42.5527 215.338 42.324 216.608 42.324H217.77C217.77 41.6613 217.616 41.1947 217.308 40.924C217.009 40.6533 216.5 40.518 215.782 40.518C215.287 40.518 214.825 40.5787 214.396 40.7C213.976 40.812 213.551 40.994 213.122 41.246L212.94 40.308C213.378 40.056 213.84 39.874 214.326 39.762C214.811 39.6407 215.338 39.58 215.908 39.58C216.617 39.58 217.186 39.678 217.616 39.874C218.054 40.0607 218.372 40.364 218.568 40.784C218.773 41.1947 218.876 41.7407 218.876 42.422V47H217.812V46.006H217.77C217.527 46.342 217.149 46.6173 216.636 46.832C216.132 47.0373 215.604 47.14 215.054 47.14ZM215.404 46.23C215.842 46.23 216.239 46.146 216.594 45.978C216.958 45.81 217.242 45.586 217.448 45.306C217.662 45.0167 217.77 44.6993 217.77 44.354V43.178H216.748C215.758 43.178 215.012 43.3227 214.508 43.612C214.004 43.892 213.752 44.3027 213.752 44.844C213.752 45.2733 213.896 45.614 214.186 45.866C214.475 46.1087 214.881 46.23 215.404 46.23ZM223.993 47.14C223.153 47.14 222.541 46.958 222.159 46.594C221.785 46.23 221.599 45.6327 221.599 44.802V40.658H219.835V39.72H221.599V37.34H222.719V39.72H225.421V40.658H222.719V44.662C222.719 45.2033 222.831 45.5907 223.055 45.824C223.279 46.048 223.657 46.16 224.189 46.16C224.394 46.16 224.581 46.146 224.749 46.118C224.917 46.0807 225.094 46.0293 225.281 45.964L225.435 46.888C225.192 46.972 224.954 47.0327 224.721 47.07C224.497 47.1167 224.254 47.14 223.993 47.14ZM227.683 47V39.72H228.803V47H227.683ZM228.243 38.334C228.001 38.334 227.8 38.2593 227.641 38.11C227.492 37.9513 227.417 37.746 227.417 37.494C227.417 37.2513 227.492 37.0553 227.641 36.906C227.8 36.7473 228.001 36.668 228.243 36.668C228.495 36.668 228.696 36.7473 228.845 36.906C229.004 37.0553 229.083 37.2513 229.083 37.494C229.083 37.746 229.004 37.9513 228.845 38.11C228.696 38.2593 228.495 38.334 228.243 38.334ZM234.525 47.14C233.806 47.14 233.176 46.986 232.635 46.678C232.103 46.37 231.692 45.9313 231.403 45.362C231.123 44.7927 230.983 44.1253 230.983 43.36C230.983 42.5853 231.123 41.918 231.403 41.358C231.692 40.7887 232.103 40.35 232.635 40.042C233.176 39.734 233.806 39.58 234.525 39.58C235.253 39.58 235.878 39.734 236.401 40.042C236.933 40.35 237.344 40.7887 237.633 41.358C237.922 41.918 238.067 42.5853 238.067 43.36C238.067 44.1253 237.922 44.7927 237.633 45.362C237.344 45.9313 236.933 46.37 236.401 46.678C235.878 46.986 235.253 47.14 234.525 47.14ZM234.525 46.202C235.29 46.202 235.888 45.95 236.317 45.446C236.756 44.942 236.975 44.2467 236.975 43.36C236.975 42.464 236.756 41.7687 236.317 41.274C235.888 40.77 235.29 40.518 234.525 40.518C233.76 40.518 233.158 40.77 232.719 41.274C232.29 41.7687 232.075 42.464 232.075 43.36C232.075 44.2467 232.29 44.942 232.719 45.446C233.158 45.95 233.76 46.202 234.525 46.202ZM239.842 47V39.72H240.92V40.798H240.948C241.237 40.3967 241.601 40.0933 242.04 39.888C242.488 39.6827 242.992 39.58 243.552 39.58C244.439 39.58 245.092 39.846 245.512 40.378C245.932 40.9007 246.142 41.708 246.142 42.8V47H245.036V42.996C245.036 42.156 244.891 41.5353 244.602 41.134C244.313 40.7233 243.869 40.518 243.272 40.518C242.824 40.518 242.423 40.6207 242.068 40.826C241.723 41.022 241.447 41.2973 241.242 41.652C241.046 41.9973 240.948 42.3987 240.948 42.856V47H239.842Z" fill="#747A8E"/>
<g clip-path="url(#clip0_465_11595)">
<path d="M34.5 15C20.4391 15 9 26.4393 9 40.5C9 54.5607 20.4391 66 34.5 66C48.5609 66 60 54.5607 60 40.5C60 26.4393 48.5609 15 34.5 15ZM57.4514 33.8262C56.2121 33.4198 54.853 33.8686 53.8302 34.2081C53.5959 34.2858 53.2983 34.3846 53.1026 34.4314C52.3054 33.5423 51.0463 33.165 50.0805 33.112C49.3101 33.0685 48.5844 33.3829 48.0879 33.9712C47.5859 34.5653 47.3968 35.3404 47.5689 36.0981C47.6468 36.4425 47.7973 36.7714 47.9299 37.0615C48.0164 37.2493 48.1541 37.5508 48.177 37.697C48.1431 37.7181 48.0809 37.751 47.9742 37.787C47.6636 37.8934 46.8882 37.7163 46.4952 37.4488C46.1999 37.2482 45.5084 36.779 44.652 37.0699C43.9095 37.3221 43.3521 38.0066 43.1602 38.9007C42.8785 40.2115 43.6081 40.9897 44.252 41.6764C44.3528 41.7836 44.4566 41.8943 44.5605 42.0111C45.2738 42.8109 46.2115 43.1492 47.0386 43.4476C47.1604 43.4917 47.2823 43.5353 47.4032 43.5809C47.3616 43.6536 47.3175 43.7254 47.2904 43.7698C47.1912 43.9311 47.0936 44.0969 46.9956 44.2634C46.8221 44.5575 46.6428 44.8615 46.4605 45.1294C46.2294 45.4705 45.9718 45.7996 45.6999 46.1481C45.0737 46.9493 44.4263 47.7779 44.0517 48.8182C43.7304 49.7079 43.6573 50.6068 43.5864 51.4758C43.5342 52.116 43.4848 52.7207 43.3409 53.2932C43.2067 53.8295 42.8678 54.2812 42.4395 54.8151C41.7308 55.6964 40.7589 56.4526 39.9018 57.0762C39.298 57.5153 38.4633 57.9189 37.9116 57.3455C37.2821 56.6909 36.8291 55.7301 36.5645 54.4899C36.4603 53.9997 36.4424 53.4685 36.4237 52.9061C36.398 52.1354 36.3711 51.3383 36.1171 50.5554C36.0194 50.2537 35.8808 49.9834 35.7587 49.7447C35.5537 49.3439 35.4292 49.0849 35.4553 48.8194C35.5919 47.4318 35.2483 46.3548 34.4343 45.6183C33.0098 44.329 30.6593 44.6772 30.2616 44.7475C29.3251 44.8111 28.5487 44.4479 27.5738 43.9891L27.3293 43.8746C25.7637 43.144 25.162 41.8262 25.3792 39.6019C25.5947 37.3976 27.3795 35.3195 29.5301 34.7685C31.5406 34.2535 33.4854 34.7571 35.8186 35.4685C36.3388 35.6275 37.5144 35.7454 39.6303 35.8506L39.7536 35.8568C40.9334 35.9178 41.838 35.6674 42.4496 35.1121C43.0877 34.5336 43.1497 33.8557 43.1543 33.7461C43.2399 32.5446 42.9285 31.5589 42.2289 30.8162C40.9164 29.4222 38.5947 29.2852 36.9602 29.3041C36.5336 29.3089 36.0846 29.3422 35.6505 29.3746C34.6715 29.4473 33.6595 29.5226 32.859 29.2818C32.7373 29.2451 32.6777 29.2159 32.6509 29.1997C32.6256 28.9334 32.7628 28.7827 33.4192 28.3558C33.7458 28.1433 34.0834 27.9235 34.3524 27.6129C35.0949 26.7551 35.1726 25.4263 35.1979 24.9898L35.1999 24.9621C35.2007 24.9562 35.2014 24.9498 35.2022 24.9438C35.3023 24.1443 37.503 23.879 38.987 24.0001C39.0189 24.0027 39.0515 24.0031 39.0834 24.0031C39.9753 24.0031 40.4616 23.5935 40.713 23.2469C41.4364 22.2502 41.0025 20.7182 40.8752 20.3303C40.5058 18.7575 41.3067 17.8466 41.5107 17.645C49.1754 20.0008 55.2052 26.1152 57.4514 33.8268V33.8262ZM20.5131 21.1304C20.624 21.6111 20.7053 22.3269 20.7422 22.6558C20.7728 22.9295 20.8001 23.1656 20.8278 23.3258C20.9422 23.9939 21.0372 24.6952 20.832 25.2789C20.6021 25.9331 20.0784 26.4105 19.0807 26.8746C18.9157 26.9517 18.7512 27.026 18.588 27.0999C17.4891 27.5976 16.353 28.1122 15.416 29.2087C14.6732 30.0773 13.5129 30.9686 12.8461 30.9371C12.7766 30.9345 12.7027 30.9192 12.6248 30.8734C14.3506 26.9669 17.0915 23.608 20.5131 21.1304ZM10.8615 36.9288C11.8931 36.9949 14.0763 37.2968 14.161 38.6656C14.0645 39.888 14.0797 41.0642 14.2058 42.1627C14.3988 43.8331 15.6065 44.8591 16.6719 45.7642C17.6411 46.5875 18.478 47.2985 18.5571 48.3496C18.5992 48.9048 18.3864 49.4866 18.1615 50.1023C18.0125 50.5095 17.8587 50.9305 17.7626 51.3801L17.7439 51.4674C17.5909 52.1828 17.4327 52.9225 17.5835 53.7564C17.7469 54.6573 17.6457 55.4316 17.3194 55.7775C17.1247 55.9835 16.7926 56.063 16.343 56.0251C12.7632 51.8447 10.5938 46.4226 10.5938 40.5004C10.5938 39.2868 10.6862 38.0946 10.8615 36.9292V36.9288ZM25.5352 62.6555C27.4849 61.712 32.0765 60.2207 36.1924 64.3397C35.6326 64.3792 35.0696 64.4062 34.5 64.4062C31.3304 64.4062 28.3055 63.7807 25.5352 62.6555ZM38.1545 64.1269C32.0325 56.8302 24.3285 61.46 23.735 61.8351C21.4757 60.6904 19.4189 59.2025 17.6409 57.4322C18.0131 57.2832 18.2872 57.0734 18.4774 56.872C19.4552 55.8373 19.2743 54.1493 19.1514 53.4719C19.0564 52.948 19.1705 52.4165 19.302 51.8009L19.3211 51.7128C19.3934 51.3726 19.5219 51.0213 19.658 50.6496C19.9188 49.9366 20.214 49.1284 20.1459 48.2299C20.0174 46.5152 18.7884 45.4709 17.7035 44.5495C16.7408 43.7319 15.9097 43.0257 15.7892 41.9802C15.6728 40.9702 15.6607 39.8814 15.7533 38.7445C15.7561 38.7146 15.7565 38.6843 15.7557 38.6542C15.6959 36.7876 13.9892 35.5745 11.1579 35.3516C11.3839 34.327 11.6711 33.3253 12.0241 32.3543C12.2602 32.4587 12.5154 32.5197 12.7875 32.5297C12.8156 32.5309 12.8431 32.5312 12.8712 32.5312C14.5829 32.5312 16.2964 30.6311 16.6273 30.2444C17.3339 29.4177 18.2198 29.0164 19.2456 28.5519C19.4138 28.4758 19.5833 28.3989 19.7534 28.3196C20.6254 27.9138 21.8416 27.2117 22.3355 25.8078C22.6674 24.8639 22.5421 23.8927 22.3985 23.0566C22.3747 22.9183 22.3526 22.7145 22.3261 22.4785C22.2223 21.5551 22.1142 20.7698 21.8863 20.2054C24.5737 18.529 27.6136 17.3673 30.8706 16.8691C30.9011 17.0101 30.9159 17.2554 30.9133 17.6118L30.9129 17.7528C30.9174 18.5029 30.8945 19.0155 30.5435 19.2973C30.2738 19.5135 29.8941 19.6536 29.4926 19.8018C29.2739 19.8825 29.0565 19.9633 28.848 20.056C27.8993 20.4783 26.8199 20.9955 26.0177 21.7926C25.3648 22.4406 25.1776 23.0825 25.4612 23.6999C25.5955 23.9921 25.8842 24.1643 26.1858 24.1643C26.2972 24.1643 26.4103 24.1408 26.5181 24.0913C26.8835 23.9236 27.0614 23.5144 26.9492 23.1401C26.9773 23.0992 27.0325 23.0309 27.1407 22.9235C27.7515 22.3167 28.6768 21.8768 29.4958 21.5121C29.6733 21.4332 29.8584 21.3656 30.0445 21.2969C30.5246 21.1196 31.0691 20.919 31.541 20.5403C32.5196 19.7548 32.5122 18.5917 32.5068 17.7416L32.5072 17.6233C32.5092 17.3707 32.5082 17.0292 32.4532 16.6874C33.1286 16.6298 33.8101 16.5938 34.5002 16.5938C36.3388 16.5938 38.1268 16.8093 39.8472 17.2042C39.3898 17.9295 38.9402 19.1194 39.334 20.7379C39.3394 20.76 39.3464 20.7837 39.3536 20.8054C39.5279 21.3238 39.599 22.0695 39.4233 22.3107C39.3759 22.3757 39.2629 22.4087 39.0878 22.4089C38.4298 22.3577 33.951 22.1057 33.621 24.7458L33.6242 24.7462C33.6161 24.793 33.6103 24.843 33.6071 24.8964C33.5479 25.9086 33.3246 26.3648 33.1479 26.5692C33.0262 26.7099 32.7841 26.8673 32.5502 27.0197C31.9078 27.4376 30.937 28.0693 31.0655 29.3597C31.1366 30.0753 31.5856 30.5622 32.3996 30.8076C33.4832 31.1335 34.698 31.0435 35.7688 30.9638C36.1971 30.9319 36.602 30.9016 36.9781 30.8977C39.0601 30.873 40.406 31.2047 41.069 31.9087C41.4557 32.3195 41.6181 32.8833 41.5655 33.6218C41.5549 33.6963 41.4185 34.3477 39.8359 34.2651L39.7094 34.2589C37.2191 34.135 36.4946 34.0087 36.2838 33.9443C34.2577 33.3267 31.7356 32.5579 29.1344 33.2247C26.3213 33.9455 24.0751 36.5622 23.793 39.4469C23.5081 42.3665 24.4444 44.2871 26.6548 45.3189L26.8948 45.4315C28.0015 45.952 29.047 46.4437 30.4274 46.3333C30.4569 46.3309 30.4889 46.3266 30.518 46.3208C31.0495 46.217 32.5971 46.1016 33.3674 46.8027C33.79 47.1874 33.9541 47.796 33.8691 48.6634C33.7956 49.4081 34.0974 49.9976 34.3398 50.4713C34.444 50.6745 34.5422 50.8661 34.6006 51.0468C34.7859 51.6168 34.8076 52.269 34.8305 52.9597C34.8508 53.5666 34.8717 54.1941 35.0056 54.8224C35.3329 56.3576 35.9242 57.5784 36.7627 58.4506C37.2596 58.9672 37.8752 59.2248 38.5529 59.2248C39.2685 59.2248 40.0528 58.9379 40.8393 58.3655C41.7814 57.6806 42.8556 56.8415 43.6818 55.8139C44.0934 55.3012 44.6572 54.5985 44.8869 53.6819C45.0628 52.9819 45.12 52.2826 45.1747 51.606C45.2401 50.8058 45.3016 50.0499 45.5511 49.3597C45.8393 48.5588 46.3818 47.8649 46.9558 47.1302C47.2325 46.7764 47.5183 46.4104 47.7795 46.0255C47.9901 45.7157 48.1821 45.3896 48.3686 45.0739C48.462 44.9155 48.5551 44.7577 48.6487 44.6045C48.9013 44.1935 49.2472 43.6301 49.0386 43.0072C48.9513 42.7462 48.7292 42.3888 48.1658 42.1673C47.9724 42.0912 47.7759 42.0202 47.5799 41.9493C46.8368 41.6812 46.1951 41.4497 45.7503 40.9512C45.6371 40.8241 45.5242 40.7036 45.4148 40.5871C44.7747 39.9043 44.6225 39.6826 44.7183 39.2364C44.7723 38.9851 44.9215 38.6624 45.165 38.5797C45.2202 38.5618 45.3108 38.572 45.5993 38.7678C46.2149 39.1864 47.5179 39.627 48.4887 39.2965C49.074 39.0971 49.4657 38.7746 49.6542 38.3379C49.951 37.6478 49.6339 36.9555 49.3794 36.3991C49.2737 36.1686 49.1647 35.9303 49.1231 35.7468C49.0627 35.4813 49.1292 35.2093 49.3055 35.0008C49.4063 34.8814 49.6251 34.6812 49.9934 34.7045C50.6977 34.743 51.5946 35.0394 52.0113 35.614C52.5253 36.322 53.4031 36.0301 54.3322 35.7217C55.2092 35.4307 56.4105 35.0322 57.1605 35.4257C57.5554 35.6325 57.8431 36.0602 58.0403 36.733C58.0628 36.8097 58.0987 36.878 58.1401 36.9416C58.3142 38.1032 58.4062 39.2915 58.4062 40.501C58.4062 52.4406 49.608 62.3635 38.1545 64.1279V64.1269Z" fill="url(#paint0_linear_465_11595)"/>
</g>
<defs>
<linearGradient id="paint0_linear_465_11595" x1="34.5" y1="15" x2="34.5" y2="66" gradientUnits="userSpaceOnUse">
<stop stop-color="#393039"/>
<stop offset="1" stop-color="#404D76"/>
</linearGradient>
<clipPath id="clip0_465_11595">
<rect width="51" height="51" fill="white" transform="translate(9 15)"/>
</clipPath>
</defs>
</svg>
