<svg width="171" height="111" viewBox="0 0 171 111" fill="none" xmlns="http://www.w3.org/2000/svg">
<g clip-path="url(#clip0_487_10288)">
<rect width="171" height="111" rx="4" fill="#101114"/>
<rect x="1" y="1" width="170" height="27" fill="#1A1C23"/>
<path d="M12.89 18.1C12.6167 18.1 12.2933 18.0867 11.92 18.06C11.5533 18.04 11.1833 18.0067 10.81 17.96V10.74C11.1833 10.6933 11.5533 10.66 11.92 10.64C12.2933 10.6133 12.6167 10.6 12.89 10.6C13.77 10.6 14.4867 10.7333 15.04 11C15.6 11.26 16.01 11.6667 16.27 12.22C16.5367 12.7733 16.67 13.4833 16.67 14.35C16.67 15.2167 16.5367 15.9267 16.27 16.48C16.01 17.0333 15.6 17.4433 15.04 17.71C14.4867 17.97 13.77 18.1 12.89 18.1ZM12.97 17C13.5567 17 14.0267 16.9133 14.38 16.74C14.74 16.5667 15 16.2867 15.16 15.9C15.32 15.5067 15.4 14.99 15.4 14.35C15.4 13.71 15.32 13.1967 15.16 12.81C15 12.4167 14.74 12.1333 14.38 11.96C14.0267 11.7867 13.5567 11.7 12.97 11.7C12.7767 11.7 12.5533 11.71 12.3 11.73C12.0467 11.7433 11.77 11.7667 11.47 11.8L12.06 11.17V17.53L11.47 16.9C11.77 16.9333 12.0467 16.96 12.3 16.98C12.5533 16.9933 12.7767 17 12.97 17ZM20.0801 18.1C19.5467 18.1 19.0801 17.99 18.6801 17.77C18.2867 17.55 17.9834 17.2367 17.7701 16.83C17.5567 16.4233 17.4501 15.9467 17.4501 15.4C17.4501 14.8467 17.5567 14.37 17.7701 13.97C17.9834 13.5633 18.2867 13.25 18.6801 13.03C19.0801 12.81 19.5467 12.7 20.0801 12.7C20.6201 12.7 21.0867 12.81 21.4801 13.03C21.8734 13.25 22.1767 13.5633 22.3901 13.97C22.6101 14.37 22.7201 14.8467 22.7201 15.4C22.7201 15.9467 22.6101 16.4233 22.3901 16.83C22.1767 17.2367 21.8734 17.55 21.4801 17.77C21.0867 17.99 20.6201 18.1 20.0801 18.1ZM20.0801 17.12C20.5267 17.12 20.8734 16.97 21.1201 16.67C21.3667 16.37 21.4901 15.9467 21.4901 15.4C21.4901 14.8467 21.3667 14.4233 21.1201 14.13C20.8734 13.83 20.5267 13.68 20.0801 13.68C19.6334 13.68 19.2867 13.83 19.0401 14.13C18.7934 14.4233 18.6701 14.8467 18.6701 15.4C18.6701 15.9467 18.7934 16.37 19.0401 16.67C19.2867 16.97 19.6334 17.12 20.0801 17.12ZM26.3548 18.1C25.7548 18.1 25.2414 17.9933 24.8148 17.78C24.3948 17.5667 24.0714 17.26 23.8448 16.86C23.6181 16.4533 23.5048 15.9667 23.5048 15.4C23.5048 14.8333 23.6181 14.35 23.8448 13.95C24.0714 13.5433 24.3948 13.2333 24.8148 13.02C25.2414 12.8067 25.7548 12.7 26.3548 12.7C26.6548 12.7 26.9348 12.73 27.1948 12.79C27.4614 12.8433 27.7214 12.9367 27.9748 13.07L27.7648 14.03C27.5314 13.91 27.3048 13.8233 27.0848 13.77C26.8714 13.71 26.6548 13.68 26.4348 13.68C25.9014 13.68 25.4881 13.83 25.1948 14.13C24.9014 14.43 24.7548 14.8533 24.7548 15.4C24.7548 15.9467 24.9014 16.37 25.1948 16.67C25.4881 16.97 25.9014 17.12 26.4348 17.12C26.6548 17.12 26.8714 17.0933 27.0848 17.04C27.3048 16.98 27.5314 16.89 27.7648 16.77L27.9748 17.73C27.7214 17.8567 27.4614 17.95 27.1948 18.01C26.9348 18.07 26.6548 18.1 26.3548 18.1ZM32.2181 18V10.7H33.5181V18H32.2181ZM35.1343 18V12.8H36.3043L36.3143 13.5H36.3343C36.5676 13.2267 36.8276 13.0267 37.1143 12.9C37.4076 12.7667 37.741 12.7 38.1143 12.7C38.7476 12.7 39.2076 12.8833 39.4943 13.25C39.7876 13.6167 39.9343 14.2 39.9343 15V18H38.7143V15.23C38.7143 14.7167 38.6343 14.3367 38.4743 14.09C38.3143 13.8367 38.0676 13.71 37.7343 13.71C37.481 13.71 37.2476 13.7733 37.0343 13.9C36.8276 14.0267 36.6643 14.1967 36.5443 14.41C36.4243 14.6167 36.3643 14.8467 36.3643 15.1V18H35.1343ZM41.9016 18V13.98H40.5716V13H41.9016V12.21C41.9016 11.5767 42.0582 11.1 42.3716 10.78C42.6916 10.46 43.1582 10.3 43.7716 10.3C43.9582 10.3 44.1416 10.3133 44.3216 10.34C44.5016 10.3667 44.6682 10.4033 44.8216 10.45L44.6816 11.44C44.4416 11.36 44.2049 11.32 43.9716 11.32C43.6649 11.32 43.4482 11.3933 43.3216 11.54C43.2016 11.68 43.1416 11.9233 43.1416 12.27V13H44.7816V13.98H43.1416V18H41.9016ZM47.7168 18.1C47.1835 18.1 46.7168 17.99 46.3168 17.77C45.9235 17.55 45.6201 17.2367 45.4068 16.83C45.1935 16.4233 45.0868 15.9467 45.0868 15.4C45.0868 14.8467 45.1935 14.37 45.4068 13.97C45.6201 13.5633 45.9235 13.25 46.3168 13.03C46.7168 12.81 47.1835 12.7 47.7168 12.7C48.2568 12.7 48.7235 12.81 49.1168 13.03C49.5101 13.25 49.8135 13.5633 50.0268 13.97C50.2468 14.37 50.3568 14.8467 50.3568 15.4C50.3568 15.9467 50.2468 16.4233 50.0268 16.83C49.8135 17.2367 49.5101 17.55 49.1168 17.77C48.7235 17.99 48.2568 18.1 47.7168 18.1ZM47.7168 17.12C48.1635 17.12 48.5101 16.97 48.7568 16.67C49.0035 16.37 49.1268 15.9467 49.1268 15.4C49.1268 14.8467 49.0035 14.4233 48.7568 14.13C48.5101 13.83 48.1635 13.68 47.7168 13.68C47.2701 13.68 46.9235 13.83 46.6768 14.13C46.4301 14.4233 46.3068 14.8467 46.3068 15.4C46.3068 15.9467 46.4301 16.37 46.6768 16.67C46.9235 16.97 47.2701 17.12 47.7168 17.12ZM51.4527 18V12.8H52.6327L52.6427 13.78H52.6627C52.836 13.5533 53.0393 13.36 53.2727 13.2C53.5127 13.0333 53.776 12.91 54.0627 12.83C54.3493 12.7433 54.6493 12.7 54.9627 12.7V13.76C54.5427 13.76 54.1593 13.84 53.8127 14C53.4727 14.16 53.1993 14.3767 52.9927 14.65C52.7927 14.9167 52.6927 15.2167 52.6927 15.55V18H51.4527ZM55.8863 18V12.8H57.0363L57.0463 13.5H57.0663C57.2396 13.2333 57.4563 13.0333 57.7163 12.9C57.9829 12.7667 58.2796 12.7 58.6063 12.7C58.9396 12.7 59.2296 12.77 59.4763 12.91C59.7229 13.0433 59.8996 13.24 60.0063 13.5H60.0263C60.2063 13.22 60.4296 13.0167 60.6963 12.89C60.9696 12.7633 61.2929 12.7 61.6663 12.7C62.2329 12.7 62.6396 12.86 62.8863 13.18C63.1329 13.5 63.2563 14.0367 63.2563 14.79V18H62.0563V14.96C62.0563 14.5133 61.9929 14.1933 61.8663 14C61.7463 13.8067 61.5463 13.71 61.2663 13.71C60.9196 13.71 60.6496 13.84 60.4563 14.1C60.2629 14.36 60.1663 14.72 60.1663 15.18V18H58.9763V14.75C58.9763 14.4167 58.9063 14.16 58.7663 13.98C58.6263 13.8 58.4296 13.71 58.1763 13.71C57.8629 13.71 57.6029 13.8467 57.3963 14.12C57.1896 14.3933 57.0863 14.7467 57.0863 15.18V18H55.8863ZM65.8177 18.1C65.2977 18.1 64.8877 17.96 64.5877 17.68C64.2943 17.3933 64.1477 17.0067 64.1477 16.52C64.1477 15.9133 64.3843 15.4467 64.8577 15.12C65.331 14.7933 66.0043 14.63 66.8777 14.63H67.6077C67.6077 14.2833 67.5177 14.04 67.3377 13.9C67.1577 13.7533 66.851 13.68 66.4177 13.68C66.0843 13.68 65.7643 13.72 65.4577 13.8C65.1577 13.88 64.8477 14.0067 64.5277 14.18L64.3777 13.18C64.7043 13.02 65.0443 12.9 65.3977 12.82C65.7577 12.74 66.1477 12.7 66.5677 12.7C67.1143 12.7 67.551 12.7667 67.8777 12.9C68.211 13.0333 68.451 13.25 68.5977 13.55C68.751 13.8433 68.8277 14.2333 68.8277 14.72V18H67.6577L67.6477 17.4H67.6277C67.4477 17.6067 67.1877 17.7767 66.8477 17.91C66.5077 18.0367 66.1643 18.1 65.8177 18.1ZM66.2577 17.14C66.5043 17.14 66.731 17.0967 66.9377 17.01C67.1443 16.9167 67.3077 16.7933 67.4277 16.64C67.5477 16.4867 67.6077 16.3133 67.6077 16.12V15.49H67.0577C66.4843 15.49 66.051 15.5667 65.7577 15.72C65.471 15.8667 65.3277 16.0933 65.3277 16.4C65.3277 16.6267 65.4077 16.8067 65.5677 16.94C65.7277 17.0733 65.9577 17.14 66.2577 17.14ZM72.3983 18.1C71.7583 18.1 71.2916 17.9667 70.9983 17.7C70.7116 17.4267 70.5683 16.9867 70.5683 16.38V13.78H69.4083V12.8H70.5683V11.1H71.7983V12.8H73.5583V13.78H71.7983V16.21C71.7983 16.5167 71.8649 16.7367 71.9983 16.87C72.1316 16.9967 72.3516 17.06 72.6583 17.06C72.7849 17.06 72.9116 17.05 73.0383 17.03C73.1649 17.0033 73.2916 16.9667 73.4183 16.92L73.5583 17.91C73.3516 17.9767 73.1583 18.0233 72.9783 18.05C72.7983 18.0833 72.6049 18.1 72.3983 18.1ZM75.0227 18V12.85H76.2627V18H75.0227ZM75.6427 12.11C75.4027 12.11 75.2127 12.0433 75.0727 11.91C74.9327 11.77 74.8627 11.5833 74.8627 11.35C74.8627 11.1167 74.9327 10.93 75.0727 10.79C75.2127 10.65 75.4027 10.58 75.6427 10.58C75.8827 10.58 76.0727 10.65 76.2127 10.79C76.3527 10.93 76.4227 11.1167 76.4227 11.35C76.4227 11.5833 76.3527 11.77 76.2127 11.91C76.0727 12.0433 75.8827 12.11 75.6427 12.11ZM80.2363 18.1C79.703 18.1 79.2363 17.99 78.8363 17.77C78.443 17.55 78.1397 17.2367 77.9263 16.83C77.713 16.4233 77.6063 15.9467 77.6063 15.4C77.6063 14.8467 77.713 14.37 77.9263 13.97C78.1397 13.5633 78.443 13.25 78.8363 13.03C79.2363 12.81 79.703 12.7 80.2363 12.7C80.7763 12.7 81.243 12.81 81.6363 13.03C82.0297 13.25 82.333 13.5633 82.5463 13.97C82.7663 14.37 82.8763 14.8467 82.8763 15.4C82.8763 15.9467 82.7663 16.4233 82.5463 16.83C82.333 17.2367 82.0297 17.55 81.6363 17.77C81.243 17.99 80.7763 18.1 80.2363 18.1ZM80.2363 17.12C80.683 17.12 81.0297 16.97 81.2763 16.67C81.523 16.37 81.6463 15.9467 81.6463 15.4C81.6463 14.8467 81.523 14.4233 81.2763 14.13C81.0297 13.83 80.683 13.68 80.2363 13.68C79.7897 13.68 79.443 13.83 79.1963 14.13C78.9497 14.4233 78.8263 14.8467 78.8263 15.4C78.8263 15.9467 78.9497 16.37 79.1963 16.67C79.443 16.97 79.7897 17.12 80.2363 17.12ZM83.9722 18V12.8H85.1422L85.1522 13.5H85.1722C85.4055 13.2267 85.6655 13.0267 85.9522 12.9C86.2455 12.7667 86.5789 12.7 86.9522 12.7C87.5855 12.7 88.0455 12.8833 88.3322 13.25C88.6255 13.6167 88.7722 14.2 88.7722 15V18H87.5522V15.23C87.5522 14.7167 87.4722 14.3367 87.3122 14.09C87.1522 13.8367 86.9055 13.71 86.5722 13.71C86.3189 13.71 86.0855 13.7733 85.8722 13.9C85.6655 14.0267 85.5022 14.1967 85.3822 14.41C85.2622 14.6167 85.2022 14.8467 85.2022 15.1V18H83.9722ZM94.8387 18V11.81H92.4287V10.7H98.5487V11.81H96.1287V18H94.8387ZM100.363 18.1C99.8299 18.1 99.3633 17.99 98.9633 17.77C98.5699 17.55 98.2666 17.2367 98.0533 16.83C97.8399 16.4233 97.7333 15.9467 97.7333 15.4C97.7333 14.8467 97.8399 14.37 98.0533 13.97C98.2666 13.5633 98.5699 13.25 98.9633 13.03C99.3633 12.81 99.8299 12.7 100.363 12.7C100.903 12.7 101.37 12.81 101.763 13.03C102.157 13.25 102.46 13.5633 102.673 13.97C102.893 14.37 103.003 14.8467 103.003 15.4C103.003 15.9467 102.893 16.4233 102.673 16.83C102.46 17.2367 102.157 17.55 101.763 17.77C101.37 17.99 100.903 18.1 100.363 18.1ZM100.363 17.12C100.81 17.12 101.157 16.97 101.403 16.67C101.65 16.37 101.773 15.9467 101.773 15.4C101.773 14.8467 101.65 14.4233 101.403 14.13C101.157 13.83 100.81 13.68 100.363 13.68C99.9166 13.68 99.5699 13.83 99.3233 14.13C99.0766 14.4233 98.9533 14.8467 98.9533 15.4C98.9533 15.9467 99.0766 16.37 99.3233 16.67C99.5699 16.97 99.9166 17.12 100.363 17.12ZM106.418 18.1C105.885 18.1 105.418 17.99 105.018 17.77C104.625 17.55 104.321 17.2367 104.108 16.83C103.895 16.4233 103.788 15.9467 103.788 15.4C103.788 14.8467 103.895 14.37 104.108 13.97C104.321 13.5633 104.625 13.25 105.018 13.03C105.418 12.81 105.885 12.7 106.418 12.7C106.958 12.7 107.425 12.81 107.818 13.03C108.211 13.25 108.515 13.5633 108.728 13.97C108.948 14.37 109.058 14.8467 109.058 15.4C109.058 15.9467 108.948 16.4233 108.728 16.83C108.515 17.2367 108.211 17.55 107.818 17.77C107.425 17.99 106.958 18.1 106.418 18.1ZM106.418 17.12C106.865 17.12 107.211 16.97 107.458 16.67C107.705 16.37 107.828 15.9467 107.828 15.4C107.828 14.8467 107.705 14.4233 107.458 14.13C107.211 13.83 106.865 13.68 106.418 13.68C105.971 13.68 105.625 13.83 105.378 14.13C105.131 14.4233 105.008 14.8467 105.008 15.4C105.008 15.9467 105.131 16.37 105.378 16.67C105.625 16.97 105.971 17.12 106.418 17.12ZM110.234 18V10.7H111.474V18H110.234Z" fill="#9A9CBC"/>
<path d="M12.77 46.1C12.5167 46.1 12.23 46.0867 11.91 46.06C11.5967 46.04 11.27 46.0067 10.93 45.96V38.74C11.27 38.6933 11.5967 38.66 11.91 38.64C12.23 38.6133 12.5167 38.6 12.77 38.6C13.63 38.6 14.3433 38.7367 14.91 39.01C15.4767 39.2833 15.9 39.6967 16.18 40.25C16.46 40.8033 16.6 41.5033 16.6 42.35C16.6 43.1967 16.46 43.8967 16.18 44.45C15.9 45.0033 15.4767 45.4167 14.91 45.69C14.3433 45.9633 13.63 46.1 12.77 46.1ZM12.81 45.37C13.4967 45.37 14.0567 45.2633 14.49 45.05C14.93 44.8367 15.2567 44.5067 15.47 44.06C15.6833 43.6133 15.79 43.0433 15.79 42.35C15.79 41.6567 15.6833 41.0867 15.47 40.64C15.2567 40.1933 14.93 39.8633 14.49 39.65C14.0567 39.4367 13.4967 39.33 12.81 39.33C12.5967 39.33 12.3667 39.34 12.12 39.36C11.8733 39.38 11.6067 39.41 11.32 39.45L11.73 39.03V45.67L11.32 45.25C11.6067 45.2833 11.8733 45.3133 12.12 45.34C12.3667 45.36 12.5967 45.37 12.81 45.37ZM20.0303 46.1C19.517 46.1 19.067 45.99 18.6803 45.77C18.3003 45.55 18.007 45.2367 17.8003 44.83C17.6003 44.4233 17.5003 43.9467 17.5003 43.4C17.5003 42.8467 17.6003 42.37 17.8003 41.97C18.007 41.5633 18.3003 41.25 18.6803 41.03C19.067 40.81 19.517 40.7 20.0303 40.7C20.5503 40.7 20.997 40.81 21.3703 41.03C21.7503 41.25 22.0436 41.5633 22.2503 41.97C22.457 42.37 22.5603 42.8467 22.5603 43.4C22.5603 43.9467 22.457 44.4233 22.2503 44.83C22.0436 45.2367 21.7503 45.55 21.3703 45.77C20.997 45.99 20.5503 46.1 20.0303 46.1ZM20.0303 45.43C20.577 45.43 21.0036 45.25 21.3103 44.89C21.6236 44.53 21.7803 44.0333 21.7803 43.4C21.7803 42.76 21.6236 42.2633 21.3103 41.91C21.0036 41.55 20.577 41.37 20.0303 41.37C19.4836 41.37 19.0536 41.55 18.7403 41.91C18.4336 42.2633 18.2803 42.76 18.2803 43.4C18.2803 44.0333 18.4336 44.53 18.7403 44.89C19.0536 45.25 19.4836 45.43 20.0303 45.43ZM26.1871 46.1C25.6204 46.1 25.1338 45.9933 24.7271 45.78C24.3204 45.56 24.0071 45.25 23.7871 44.85C23.5738 44.4433 23.4671 43.96 23.4671 43.4C23.4671 42.84 23.5738 42.36 23.7871 41.96C24.0071 41.5533 24.3204 41.2433 24.7271 41.03C25.1338 40.81 25.6204 40.7 26.1871 40.7C26.4671 40.7 26.7338 40.73 26.9871 40.79C27.2404 40.8433 27.4871 40.9333 27.7271 41.06L27.5771 41.7C27.3504 41.5867 27.1271 41.5033 26.9071 41.45C26.6871 41.3967 26.4638 41.37 26.2371 41.37C25.6171 41.37 25.1338 41.55 24.7871 41.91C24.4404 42.2633 24.2671 42.76 24.2671 43.4C24.2671 44.0333 24.4404 44.53 24.7871 44.89C25.1338 45.25 25.6171 45.43 26.2371 45.43C26.4638 45.43 26.6871 45.4033 26.9071 45.35C27.1271 45.2967 27.3504 45.2133 27.5771 45.1L27.7271 45.74C27.4871 45.86 27.2404 45.95 26.9871 46.01C26.7338 46.07 26.4671 46.1 26.1871 46.1ZM32.3093 46V38.7H33.1393V46H32.3093ZM35.0099 46V40.8H35.7799V41.57H35.7999C36.0066 41.2833 36.2666 41.0667 36.5799 40.92C36.8999 40.7733 37.2599 40.7 37.6599 40.7C38.2933 40.7 38.7599 40.89 39.0599 41.27C39.3599 41.6433 39.5099 42.22 39.5099 43V46H38.7199V43.14C38.7199 42.54 38.6166 42.0967 38.4099 41.81C38.2033 41.5167 37.8866 41.37 37.4599 41.37C37.1399 41.37 36.8533 41.4433 36.5999 41.59C36.3533 41.73 36.1566 41.9267 36.0099 42.18C35.8699 42.4267 35.7999 42.7133 35.7999 43.04V46H35.0099ZM41.6516 46V41.67H40.1816V41H41.6516V40.03C41.6516 39.45 41.7916 39.0167 42.0716 38.73C42.3516 38.4433 42.775 38.3 43.3416 38.3C43.5083 38.3 43.6716 38.3133 43.8316 38.34C43.9916 38.3667 44.1416 38.4033 44.2816 38.45L44.1716 39.11C43.9316 39.03 43.6916 38.99 43.4516 38.99C43.0916 38.99 42.8316 39.0733 42.6716 39.24C42.5183 39.4067 42.4416 39.69 42.4416 40.09V41H44.2616V41.67H42.4416V46H41.6516ZM47.1006 46.1C46.5873 46.1 46.1373 45.99 45.7506 45.77C45.3706 45.55 45.0773 45.2367 44.8706 44.83C44.6706 44.4233 44.5706 43.9467 44.5706 43.4C44.5706 42.8467 44.6706 42.37 44.8706 41.97C45.0773 41.5633 45.3706 41.25 45.7506 41.03C46.1373 40.81 46.5873 40.7 47.1006 40.7C47.6206 40.7 48.0673 40.81 48.4406 41.03C48.8206 41.25 49.114 41.5633 49.3206 41.97C49.5273 42.37 49.6306 42.8467 49.6306 43.4C49.6306 43.9467 49.5273 44.4233 49.3206 44.83C49.114 45.2367 48.8206 45.55 48.4406 45.77C48.0673 45.99 47.6206 46.1 47.1006 46.1ZM47.1006 45.43C47.6473 45.43 48.074 45.25 48.3806 44.89C48.694 44.53 48.8506 44.0333 48.8506 43.4C48.8506 42.76 48.694 42.2633 48.3806 41.91C48.074 41.55 47.6473 41.37 47.1006 41.37C46.554 41.37 46.124 41.55 45.8106 41.91C45.504 42.2633 45.3506 42.76 45.3506 43.4C45.3506 44.0333 45.504 44.53 45.8106 44.89C46.124 45.25 46.554 45.43 47.1006 45.43ZM50.8986 46V40.8H51.6586L51.6686 41.89H51.6886C51.8419 41.6433 52.0386 41.4333 52.2786 41.26C52.5186 41.08 52.7919 40.9433 53.0986 40.85C53.4053 40.75 53.7286 40.7 54.0686 40.7V41.4C53.6286 41.4 53.2286 41.49 52.8686 41.67C52.5086 41.85 52.2219 42.09 52.0086 42.39C51.8019 42.69 51.6986 43.0267 51.6986 43.4V46H50.8986ZM55.0978 46V40.8H55.8378L55.8478 41.57H55.8678C56.0345 41.29 56.2545 41.0767 56.5278 40.93C56.8078 40.7767 57.1278 40.7 57.4878 40.7C57.8478 40.7 58.1545 40.7767 58.4078 40.93C58.6678 41.0767 58.8478 41.29 58.9478 41.57H58.9678C59.1278 41.2767 59.3478 41.06 59.6278 40.92C59.9145 40.7733 60.2578 40.7 60.6578 40.7C61.2311 40.7 61.6411 40.8633 61.8878 41.19C62.1411 41.5167 62.2678 42.0667 62.2678 42.84V46H61.4878V42.94C61.4878 42.3733 61.4078 41.97 61.2478 41.73C61.0878 41.49 60.8178 41.37 60.4378 41.37C59.9911 41.37 59.6511 41.5233 59.4178 41.83C59.1845 42.13 59.0678 42.5733 59.0678 43.16V46H58.2978V42.6C58.2978 42.2133 58.2045 41.9133 58.0178 41.7C57.8311 41.48 57.5745 41.37 57.2478 41.37C56.8411 41.37 56.5078 41.5367 56.2478 41.87C55.9945 42.1967 55.8678 42.6267 55.8678 43.16V46H55.0978ZM64.9992 46.1C64.4726 46.1 64.0559 45.96 63.7492 45.68C63.4426 45.3933 63.2892 45.01 63.2892 44.53C63.2892 43.93 63.5326 43.47 64.0192 43.15C64.5059 42.8233 65.2026 42.66 66.1092 42.66H66.9392C66.9392 42.1867 66.8292 41.8533 66.6092 41.66C66.3959 41.4667 66.0326 41.37 65.5192 41.37C65.1659 41.37 64.8359 41.4133 64.5292 41.5C64.2292 41.58 63.9259 41.71 63.6192 41.89L63.4892 41.22C63.8026 41.04 64.1326 40.91 64.4792 40.83C64.8259 40.7433 65.2026 40.7 65.6092 40.7C66.1159 40.7 66.5226 40.77 66.8292 40.91C67.1426 41.0433 67.3692 41.26 67.5092 41.56C67.6559 41.8533 67.7292 42.2433 67.7292 42.73V46H66.9692V45.29H66.9392C66.7659 45.53 66.4959 45.7267 66.1292 45.88C65.7692 46.0267 65.3926 46.1 64.9992 46.1ZM65.2492 45.45C65.5626 45.45 65.8459 45.39 66.0992 45.27C66.3592 45.15 66.5626 44.99 66.7092 44.79C66.8626 44.5833 66.9392 44.3567 66.9392 44.11V43.27H66.2092C65.5026 43.27 64.9692 43.3733 64.6092 43.58C64.2492 43.78 64.0692 44.0733 64.0692 44.46C64.0692 44.7667 64.1726 45.01 64.3792 45.19C64.5859 45.3633 64.8759 45.45 65.2492 45.45ZM71.3843 46.1C70.7843 46.1 70.3476 45.97 70.0743 45.71C69.8076 45.45 69.6743 45.0233 69.6743 44.43V41.47H68.4143V40.8H69.6743V39.1H70.4743V40.8H72.4043V41.47H70.4743V44.33C70.4743 44.7167 70.5543 44.9933 70.7143 45.16C70.8743 45.32 71.1443 45.4 71.5243 45.4C71.671 45.4 71.8043 45.39 71.9243 45.37C72.0443 45.3433 72.171 45.3067 72.3043 45.26L72.4143 45.92C72.241 45.98 72.071 46.0233 71.9043 46.05C71.7443 46.0833 71.571 46.1 71.3843 46.1ZM74.0204 46V40.8H74.8204V46H74.0204ZM74.4204 39.81C74.2471 39.81 74.1037 39.7567 73.9904 39.65C73.8837 39.5367 73.8304 39.39 73.8304 39.21C73.8304 39.0367 73.8837 38.8967 73.9904 38.79C74.1037 38.6767 74.2471 38.62 74.4204 38.62C74.6004 38.62 74.7437 38.6767 74.8504 38.79C74.9637 38.8967 75.0204 39.0367 75.0204 39.21C75.0204 39.39 74.9637 39.5367 74.8504 39.65C74.7437 39.7567 74.6004 39.81 74.4204 39.81ZM78.9073 46.1C78.3939 46.1 77.9439 45.99 77.5573 45.77C77.1773 45.55 76.8839 45.2367 76.6773 44.83C76.4773 44.4233 76.3773 43.9467 76.3773 43.4C76.3773 42.8467 76.4773 42.37 76.6773 41.97C76.8839 41.5633 77.1773 41.25 77.5573 41.03C77.9439 40.81 78.3939 40.7 78.9073 40.7C79.4273 40.7 79.8739 40.81 80.2473 41.03C80.6273 41.25 80.9206 41.5633 81.1273 41.97C81.3339 42.37 81.4373 42.8467 81.4373 43.4C81.4373 43.9467 81.3339 44.4233 81.1273 44.83C80.9206 45.2367 80.6273 45.55 80.2473 45.77C79.8739 45.99 79.4273 46.1 78.9073 46.1ZM78.9073 45.43C79.4539 45.43 79.8806 45.25 80.1873 44.89C80.5006 44.53 80.6573 44.0333 80.6573 43.4C80.6573 42.76 80.5006 42.2633 80.1873 41.91C79.8806 41.55 79.4539 41.37 78.9073 41.37C78.3606 41.37 77.9306 41.55 77.6173 41.91C77.3106 42.2633 77.1573 42.76 77.1573 43.4C77.1573 44.0333 77.3106 44.53 77.6173 44.89C77.9306 45.25 78.3606 45.43 78.9073 45.43ZM82.7052 46V40.8H83.4752V41.57H83.4952C83.7019 41.2833 83.9619 41.0667 84.2752 40.92C84.5952 40.7733 84.9552 40.7 85.3552 40.7C85.9886 40.7 86.4552 40.89 86.7552 41.27C87.0552 41.6433 87.2052 42.22 87.2052 43V46H86.4152V43.14C86.4152 42.54 86.3119 42.0967 86.1052 41.81C85.8986 41.5167 85.5819 41.37 85.1552 41.37C84.8352 41.37 84.5486 41.4433 84.2952 41.59C84.0486 41.73 83.8519 41.9267 83.7052 42.18C83.5652 42.4267 83.4952 42.7133 83.4952 43.04V46H82.7052ZM10.93 61V53.7H15.57V54.42H11.73V56.8H15.37V57.51H11.73V60.28H15.57V61H10.93ZM16.5023 61L18.3323 58.38L16.5323 55.8H17.4423L18.8523 57.94H18.8723L20.2923 55.8H21.2023L19.4023 58.38L21.2323 61H20.3223L18.8723 58.82H18.8523L17.4123 61H16.5023ZM24.812 61.1C24.212 61.1 23.7754 60.97 23.502 60.71C23.2354 60.45 23.102 60.0233 23.102 59.43V56.47H21.842V55.8H23.102V54.1H23.902V55.8H25.832V56.47H23.902V59.33C23.902 59.7167 23.982 59.9933 24.142 60.16C24.302 60.32 24.572 60.4 24.952 60.4C25.0987 60.4 25.232 60.39 25.352 60.37C25.472 60.3433 25.5987 60.3067 25.732 60.26L25.842 60.92C25.6687 60.98 25.4987 61.0233 25.332 61.05C25.172 61.0833 24.9987 61.1 24.812 61.1ZM27.1681 61V55.8H27.9281L27.9381 56.89H27.9581C28.1115 56.6433 28.3081 56.4333 28.5481 56.26C28.7881 56.08 29.0615 55.9433 29.3681 55.85C29.6748 55.75 29.9981 55.7 30.3381 55.7V56.4C29.8981 56.4 29.4981 56.49 29.1381 56.67C28.7781 56.85 28.4915 57.09 28.2781 57.39C28.0715 57.69 27.9681 58.0267 27.9681 58.4V61H27.1681ZM32.4602 61.1C31.9335 61.1 31.5168 60.96 31.2102 60.68C30.9035 60.3933 30.7502 60.01 30.7502 59.53C30.7502 58.93 30.9935 58.47 31.4802 58.15C31.9668 57.8233 32.6635 57.66 33.5702 57.66H34.4002C34.4002 57.1867 34.2902 56.8533 34.0702 56.66C33.8568 56.4667 33.4935 56.37 32.9802 56.37C32.6268 56.37 32.2968 56.4133 31.9902 56.5C31.6902 56.58 31.3868 56.71 31.0802 56.89L30.9502 56.22C31.2635 56.04 31.5935 55.91 31.9402 55.83C32.2868 55.7433 32.6635 55.7 33.0702 55.7C33.5768 55.7 33.9835 55.77 34.2902 55.91C34.6035 56.0433 34.8302 56.26 34.9702 56.56C35.1168 56.8533 35.1902 57.2433 35.1902 57.73V61H34.4302V60.29H34.4002C34.2268 60.53 33.9568 60.7267 33.5902 60.88C33.2302 61.0267 32.8535 61.1 32.4602 61.1ZM32.7102 60.45C33.0235 60.45 33.3068 60.39 33.5602 60.27C33.8202 60.15 34.0235 59.99 34.1702 59.79C34.3235 59.5833 34.4002 59.3567 34.4002 59.11V58.27H33.6702C32.9635 58.27 32.4302 58.3733 32.0702 58.58C31.7102 58.78 31.5302 59.0733 31.5302 59.46C31.5302 59.7667 31.6335 60.01 31.8402 60.19C32.0468 60.3633 32.3368 60.45 32.7102 60.45ZM39.0191 61.1C38.4525 61.1 37.9658 60.9933 37.5591 60.78C37.1525 60.56 36.8391 60.25 36.6191 59.85C36.4058 59.4433 36.2991 58.96 36.2991 58.4C36.2991 57.84 36.4058 57.36 36.6191 56.96C36.8391 56.5533 37.1525 56.2433 37.5591 56.03C37.9658 55.81 38.4525 55.7 39.0191 55.7C39.2991 55.7 39.5658 55.73 39.8191 55.79C40.0725 55.8433 40.3191 55.9333 40.5591 56.06L40.4091 56.7C40.1825 56.5867 39.9591 56.5033 39.7391 56.45C39.5191 56.3967 39.2958 56.37 39.0691 56.37C38.4491 56.37 37.9658 56.55 37.6191 56.91C37.2725 57.2633 37.0991 57.76 37.0991 58.4C37.0991 59.0333 37.2725 59.53 37.6191 59.89C37.9658 60.25 38.4491 60.43 39.0691 60.43C39.2958 60.43 39.5191 60.4033 39.7391 60.35C39.9591 60.2967 40.1825 60.2133 40.4091 60.1L40.5591 60.74C40.3191 60.86 40.0725 60.95 39.8191 61.01C39.5658 61.07 39.2991 61.1 39.0191 61.1ZM44.3433 61.1C43.7433 61.1 43.3066 60.97 43.0333 60.71C42.7666 60.45 42.6333 60.0233 42.6333 59.43V56.47H41.3733V55.8H42.6333V54.1H43.4333V55.8H45.3633V56.47H43.4333V59.33C43.4333 59.7167 43.5133 59.9933 43.6733 60.16C43.8333 60.32 44.1033 60.4 44.4833 60.4C44.6299 60.4 44.7633 60.39 44.8833 60.37C45.0033 60.3433 45.1299 60.3067 45.2633 60.26L45.3733 60.92C45.1999 60.98 45.0299 61.0233 44.8633 61.05C44.7033 61.0833 44.5299 61.1 44.3433 61.1ZM48.6534 61.1C48.14 61.1 47.69 60.99 47.3034 60.77C46.9234 60.55 46.63 60.2367 46.4234 59.83C46.2234 59.4233 46.1234 58.9467 46.1234 58.4C46.1234 57.8467 46.2234 57.37 46.4234 56.97C46.63 56.5633 46.9234 56.25 47.3034 56.03C47.69 55.81 48.14 55.7 48.6534 55.7C49.1734 55.7 49.62 55.81 49.9934 56.03C50.3734 56.25 50.6667 56.5633 50.8734 56.97C51.08 57.37 51.1834 57.8467 51.1834 58.4C51.1834 58.9467 51.08 59.4233 50.8734 59.83C50.6667 60.2367 50.3734 60.55 49.9934 60.77C49.62 60.99 49.1734 61.1 48.6534 61.1ZM48.6534 60.43C49.2 60.43 49.6267 60.25 49.9334 59.89C50.2467 59.53 50.4034 59.0333 50.4034 58.4C50.4034 57.76 50.2467 57.2633 49.9334 56.91C49.6267 56.55 49.2 56.37 48.6534 56.37C48.1067 56.37 47.6767 56.55 47.3634 56.91C47.0567 57.2633 46.9034 57.76 46.9034 58.4C46.9034 59.0333 47.0567 59.53 47.3634 59.89C47.6767 60.25 48.1067 60.43 48.6534 60.43ZM52.4513 61V55.8H53.2113L53.2213 56.89H53.2413C53.3947 56.6433 53.5913 56.4333 53.8313 56.26C54.0713 56.08 54.3447 55.9433 54.6513 55.85C54.958 55.75 55.2813 55.7 55.6213 55.7V56.4C55.1813 56.4 54.7813 56.49 54.4213 56.67C54.0613 56.85 53.7747 57.09 53.5613 57.39C53.3547 57.69 53.2513 58.0267 53.2513 58.4V61H52.4513Z" fill="#9A9CBC"/>
<rect x="10.5" y="81.5" width="56" height="19" rx="5.5" fill="#1E2027"/>
<rect x="10.5" y="81.5" width="56" height="19" rx="5.5" stroke="#292A36"/>
<path d="M19.244 94.5V88.66H19.9V93.916H23.22V94.5H19.244ZM24.9994 94.58C24.578 94.58 24.2447 94.468 23.9994 94.244C23.754 94.0147 23.6314 93.708 23.6314 93.324C23.6314 92.844 23.826 92.476 24.2154 92.22C24.6047 91.9587 25.162 91.828 25.8874 91.828H26.5514C26.5514 91.4493 26.4634 91.1827 26.2874 91.028C26.1167 90.8733 25.826 90.796 25.4154 90.796C25.1327 90.796 24.8687 90.8307 24.6234 90.9C24.3834 90.964 24.1407 91.068 23.8954 91.212L23.7914 90.676C24.042 90.532 24.306 90.428 24.5834 90.364C24.8607 90.2947 25.162 90.26 25.4874 90.26C25.8927 90.26 26.218 90.316 26.4634 90.428C26.714 90.5347 26.8954 90.708 27.0074 90.948C27.1247 91.1827 27.1834 91.4947 27.1834 91.884V94.5H26.5754V93.932H26.5514C26.4127 94.124 26.1967 94.2813 25.9034 94.404C25.6154 94.5213 25.314 94.58 24.9994 94.58ZM25.1994 94.06C25.45 94.06 25.6767 94.012 25.8794 93.916C26.0874 93.82 26.25 93.692 26.3674 93.532C26.49 93.3667 26.5514 93.1853 26.5514 92.988V92.316H25.9674C25.402 92.316 24.9754 92.3987 24.6874 92.564C24.3994 92.724 24.2554 92.9587 24.2554 93.268C24.2554 93.5133 24.338 93.708 24.5034 93.852C24.6687 93.9907 24.9007 94.06 25.1994 94.06ZM28.3986 94.5V90.34H29.0146V90.956H29.0306C29.1959 90.7267 29.4039 90.5533 29.6546 90.436C29.9106 90.3187 30.1986 90.26 30.5186 90.26C31.0252 90.26 31.3986 90.412 31.6386 90.716C31.8786 91.0147 31.9986 91.476 31.9986 92.1V94.5H31.3666V92.212C31.3666 91.732 31.2839 91.3773 31.1186 91.148C30.9532 90.9133 30.6999 90.796 30.3586 90.796C30.1026 90.796 29.8732 90.8547 29.6706 90.972C29.4732 91.084 29.3159 91.2413 29.1986 91.444C29.0866 91.6413 29.0306 91.8707 29.0306 92.132V94.5H28.3986ZM34.6751 96.26C34.3551 96.26 34.0671 96.2227 33.8111 96.148C33.5551 96.0733 33.3231 95.9587 33.1151 95.804L33.2751 95.292C33.4831 95.4413 33.6937 95.5507 33.9071 95.62C34.1204 95.6893 34.3604 95.724 34.6271 95.724C35.1391 95.724 35.5097 95.5933 35.7391 95.332C35.9737 95.076 36.0911 94.6653 36.0911 94.1V93.732H36.0751C35.9311 93.9187 35.7337 94.068 35.4831 94.18C35.2324 94.2867 34.9551 94.34 34.6511 94.34C34.0964 94.34 33.6617 94.1613 33.3471 93.804C33.0324 93.4413 32.8751 92.94 32.8751 92.3C32.8751 91.66 33.0324 91.1613 33.3471 90.804C33.6617 90.4413 34.0964 90.26 34.6511 90.26C34.9551 90.26 35.2351 90.316 35.4911 90.428C35.7471 90.5347 35.9471 90.6813 36.0911 90.868H36.1071L36.1151 90.34H36.7151V94.1C36.7151 94.8307 36.5471 95.372 36.2111 95.724C35.8804 96.0813 35.3684 96.26 34.6751 96.26ZM34.7871 93.804C35.0377 93.804 35.2591 93.7587 35.4511 93.668C35.6484 93.572 35.8031 93.444 35.9151 93.284C36.0324 93.1187 36.0911 92.9293 36.0911 92.716V91.884C36.0911 91.676 36.0324 91.4893 35.9151 91.324C35.8031 91.1587 35.6484 91.0307 35.4511 90.94C35.2591 90.844 35.0377 90.796 34.7871 90.796C34.3817 90.796 34.0644 90.9267 33.8351 91.188C33.6111 91.4493 33.4991 91.82 33.4991 92.3C33.4991 92.78 33.6111 93.1507 33.8351 93.412C34.0644 93.6733 34.3817 93.804 34.7871 93.804ZM39.9184 94.58C39.4651 94.58 39.0758 94.4947 38.7504 94.324C38.4251 94.148 38.1744 93.9 37.9984 93.58C37.8278 93.2547 37.7424 92.868 37.7424 92.42C37.7424 91.972 37.8278 91.588 37.9984 91.268C38.1744 90.9427 38.4251 90.6947 38.7504 90.524C39.0758 90.348 39.4651 90.26 39.9184 90.26C40.1424 90.26 40.3558 90.284 40.5584 90.332C40.7611 90.3747 40.9584 90.4467 41.1504 90.548L41.0304 91.06C40.8491 90.9693 40.6704 90.9027 40.4944 90.86C40.3184 90.8173 40.1398 90.796 39.9584 90.796C39.4624 90.796 39.0758 90.94 38.7984 91.228C38.5211 91.5107 38.3824 91.908 38.3824 92.42C38.3824 92.9267 38.5211 93.324 38.7984 93.612C39.0758 93.9 39.4624 94.044 39.9584 94.044C40.1398 94.044 40.3184 94.0227 40.4944 93.98C40.6704 93.9373 40.8491 93.8707 41.0304 93.78L41.1504 94.292C40.9584 94.388 40.7611 94.46 40.5584 94.508C40.3558 94.556 40.1424 94.58 39.9184 94.58ZM42.3673 94.5V88.66H42.9993V90.9H43.0153C43.1753 90.692 43.3806 90.5347 43.6313 90.428C43.882 90.316 44.17 90.26 44.4953 90.26C45.0073 90.26 45.3806 90.396 45.6153 90.668C45.8553 90.94 45.9726 91.364 45.9673 91.94V94.5H45.3433V92.052C45.3486 91.62 45.2686 91.3027 45.1033 91.1C44.938 90.8973 44.682 90.796 44.3353 90.796C44.074 90.796 43.842 90.8493 43.6393 90.956C43.442 91.0573 43.2873 91.1987 43.1753 91.38C43.0633 91.556 43.0046 91.764 42.9993 92.004V94.5H42.3673ZM48.1478 94.58C47.7265 94.58 47.3931 94.468 47.1478 94.244C46.9025 94.0147 46.7798 93.708 46.7798 93.324C46.7798 92.844 46.9745 92.476 47.3638 92.22C47.7531 91.9587 48.3105 91.828 49.0358 91.828H49.6998C49.6998 91.4493 49.6118 91.1827 49.4358 91.028C49.2651 90.8733 48.9745 90.796 48.5638 90.796C48.2811 90.796 48.0171 90.8307 47.7718 90.9C47.5318 90.964 47.2891 91.068 47.0438 91.212L46.9398 90.676C47.1905 90.532 47.4545 90.428 47.7318 90.364C48.0091 90.2947 48.3105 90.26 48.6358 90.26C49.0411 90.26 49.3665 90.316 49.6118 90.428C49.8625 90.5347 50.0438 90.708 50.1558 90.948C50.2731 91.1827 50.3318 91.4947 50.3318 91.884V94.5H49.7238V93.932H49.6998C49.5611 94.124 49.3451 94.2813 49.0518 94.404C48.7638 94.5213 48.4625 94.58 48.1478 94.58ZM48.3478 94.06C48.5985 94.06 48.8251 94.012 49.0278 93.916C49.2358 93.82 49.3985 93.692 49.5158 93.532C49.6385 93.3667 49.6998 93.1853 49.6998 92.988V92.316H49.1158C48.5505 92.316 48.1238 92.3987 47.8358 92.564C47.5478 92.724 47.4038 92.9587 47.4038 93.268C47.4038 93.5133 47.4865 93.708 47.6518 93.852C47.8171 93.9907 48.0491 94.06 48.3478 94.06ZM51.771 94.5V90.34H52.411V94.5H51.771ZM52.091 89.548C51.9523 89.548 51.8377 89.5053 51.747 89.42C51.6617 89.3293 51.619 89.212 51.619 89.068C51.619 88.9293 51.6617 88.8173 51.747 88.732C51.8377 88.6413 51.9523 88.596 52.091 88.596C52.235 88.596 52.3497 88.6413 52.435 88.732C52.5257 88.8173 52.571 88.9293 52.571 89.068C52.571 89.212 52.5257 89.3293 52.435 89.42C52.3497 89.5053 52.235 89.548 52.091 89.548ZM53.9845 94.5V90.34H54.6005V90.956H54.6165C54.7818 90.7267 54.9898 90.5533 55.2405 90.436C55.4965 90.3187 55.7845 90.26 56.1045 90.26C56.6112 90.26 56.9845 90.412 57.2245 90.716C57.4645 91.0147 57.5845 91.476 57.5845 92.1V94.5H56.9525V92.212C56.9525 91.732 56.8698 91.3773 56.7045 91.148C56.5392 90.9133 56.2858 90.796 55.9445 90.796C55.6885 90.796 55.4592 90.8547 55.2565 90.972C55.0592 91.084 54.9018 91.2413 54.7845 91.444C54.6725 91.6413 54.6165 91.8707 54.6165 92.132V94.5H53.9845Z" fill="#9A9CBC"/>
</g>
<rect x="0.5" y="0.5" width="170" height="110" rx="3.5" stroke="#292A36"/>
<defs>
<clipPath id="clip0_487_10288">
<rect width="171" height="111" rx="4" fill="white"/>
</clipPath>
</defs>
</svg>
