<svg width="260" height="81" viewBox="0 0 260 81" fill="none" xmlns="http://www.w3.org/2000/svg">
<rect x="0.5" y="0.5" width="259" height="80" rx="9.5" fill="#0B0B0C"/>
<rect x="0.5" y="0.5" width="259" height="80" rx="9.5" stroke="#202328"/>
<path d="M78.99 47.14C78.6167 47.14 78.1827 47.1213 77.688 47.084C77.1933 47.056 76.694 47.0093 76.19 46.944V36.836C76.694 36.7707 77.1933 36.724 77.688 36.696C78.1827 36.6587 78.6167 36.64 78.99 36.64C80.2127 36.64 81.216 36.8267 82 37.2C82.784 37.5733 83.3627 38.1473 83.736 38.922C84.1187 39.6967 84.31 40.686 84.31 41.89C84.31 43.094 84.1187 44.0833 83.736 44.858C83.3627 45.6327 82.784 46.2067 82 46.58C81.216 46.9533 80.2127 47.14 78.99 47.14ZM79.088 45.74C79.956 45.74 80.656 45.6093 81.188 45.348C81.7293 45.0867 82.1213 44.676 82.364 44.116C82.616 43.5467 82.742 42.8047 82.742 41.89C82.742 40.9753 82.616 40.238 82.364 39.678C82.1213 39.1087 81.7293 38.6933 81.188 38.432C80.656 38.1707 79.956 38.04 79.088 38.04C78.7987 38.04 78.472 38.054 78.108 38.082C77.7533 38.11 77.38 38.1473 76.988 38.194L77.73 37.368V46.412L76.988 45.586C77.38 45.6327 77.7533 45.67 78.108 45.698C78.472 45.726 78.7987 45.74 79.088 45.74ZM89.0981 47.14C88.3514 47.14 87.7028 46.986 87.1521 46.678C86.6108 46.37 86.1908 45.9313 85.8921 45.362C85.6028 44.7927 85.4581 44.1253 85.4581 43.36C85.4581 42.5853 85.6028 41.918 85.8921 41.358C86.1908 40.7887 86.6108 40.35 87.1521 40.042C87.7028 39.734 88.3468 39.58 89.0841 39.58C89.8401 39.58 90.4888 39.734 91.0301 40.042C91.5714 40.35 91.9914 40.7887 92.2901 41.358C92.5888 41.918 92.7381 42.5853 92.7381 43.36C92.7381 44.1253 92.5888 44.7927 92.2901 45.362C91.9914 45.9313 91.5714 46.37 91.0301 46.678C90.4888 46.986 89.8448 47.14 89.0981 47.14ZM89.0981 45.88C89.7701 45.88 90.2928 45.6607 90.6661 45.222C91.0394 44.774 91.2261 44.1533 91.2261 43.36C91.2261 42.5573 91.0394 41.9367 90.6661 41.498C90.2928 41.0593 89.7701 40.84 89.0981 40.84C88.4261 40.84 87.9034 41.0593 87.5301 41.498C87.1568 41.9367 86.9701 42.5573 86.9701 43.36C86.9701 44.1533 87.1568 44.774 87.5301 45.222C87.9034 45.6607 88.4261 45.88 89.0981 45.88ZM97.8277 47.14C97.0063 47.14 96.3017 46.9907 95.7137 46.692C95.1257 46.3933 94.673 45.964 94.3557 45.404C94.0477 44.8347 93.8937 44.1533 93.8937 43.36C93.8937 42.5667 94.0477 41.89 94.3557 41.33C94.673 40.7607 95.1257 40.3267 95.7137 40.028C96.3017 39.7293 97.0063 39.58 97.8277 39.58C98.2383 39.58 98.6257 39.622 98.9897 39.706C99.3537 39.7807 99.7083 39.9113 100.054 40.098L99.7877 41.316C99.4703 41.148 99.1577 41.0267 98.8497 40.952C98.5417 40.8773 98.2337 40.84 97.9257 40.84C97.1323 40.84 96.5163 41.0593 96.0777 41.498C95.6483 41.9367 95.4337 42.5573 95.4337 43.36C95.4337 44.1533 95.6483 44.774 96.0777 45.222C96.5163 45.6607 97.1323 45.88 97.9257 45.88C98.2337 45.88 98.5417 45.8427 98.8497 45.768C99.1577 45.6933 99.4703 45.572 99.7877 45.404L100.054 46.622C99.7083 46.7993 99.3537 46.93 98.9897 47.014C98.6257 47.098 98.2383 47.14 97.8277 47.14ZM104.282 47.14C103.423 47.14 102.793 46.8787 102.392 46.356C101.991 45.8333 101.79 45.0213 101.79 43.92V39.72H103.302V43.64C103.302 44.4053 103.414 44.97 103.638 45.334C103.871 45.698 104.226 45.88 104.702 45.88C105.066 45.88 105.402 45.7867 105.71 45.6C106.018 45.404 106.261 45.1473 106.438 44.83C106.625 44.5127 106.718 44.1627 106.718 43.78V39.72H108.23V47H106.788L106.774 46.02H106.746C106.429 46.3933 106.069 46.6733 105.668 46.86C105.267 47.0467 104.805 47.14 104.282 47.14ZM110.381 47V39.72H111.795L111.809 40.7H111.837C112.079 40.336 112.387 40.0607 112.761 39.874C113.134 39.678 113.554 39.58 114.021 39.58C114.506 39.58 114.921 39.678 115.267 39.874C115.621 40.07 115.873 40.3453 116.023 40.7H116.051C116.293 40.3173 116.606 40.0373 116.989 39.86C117.371 39.6733 117.829 39.58 118.361 39.58C119.163 39.58 119.737 39.8087 120.083 40.266C120.428 40.714 120.601 41.4653 120.601 42.52V47H119.117V42.73C119.117 42.0487 119.023 41.5633 118.837 41.274C118.65 40.9847 118.337 40.84 117.899 40.84C117.367 40.84 116.956 41.036 116.667 41.428C116.377 41.8107 116.233 42.3613 116.233 43.08V47H114.749V42.38C114.749 41.8853 114.641 41.5073 114.427 41.246C114.212 40.9753 113.913 40.84 113.531 40.84C113.045 40.84 112.644 41.05 112.327 41.47C112.019 41.8807 111.865 42.4173 111.865 43.08V47H110.381ZM125.811 47.14C124.597 47.14 123.659 46.8133 122.997 46.16C122.343 45.5067 122.017 44.5733 122.017 43.36C122.017 42.184 122.329 41.26 122.955 40.588C123.589 39.916 124.457 39.58 125.559 39.58C126.623 39.58 127.439 39.8973 128.009 40.532C128.587 41.1667 128.877 42.0673 128.877 43.234C128.877 43.3553 128.872 43.4907 128.863 43.64C128.863 43.7893 128.858 43.906 128.849 43.99H122.857V42.8H127.701L127.463 43.164C127.463 42.3707 127.304 41.7827 126.987 41.4C126.669 41.008 126.193 40.812 125.559 40.812C124.887 40.812 124.373 41.0173 124.019 41.428C123.673 41.8387 123.501 42.436 123.501 43.22V43.64C123.501 44.3773 123.697 44.9373 124.089 45.32C124.481 45.6933 125.059 45.88 125.825 45.88C126.263 45.88 126.693 45.824 127.113 45.712C127.533 45.6 127.915 45.4413 128.261 45.236L128.527 46.454C128.172 46.6687 127.761 46.8367 127.295 46.958C126.828 47.0793 126.333 47.14 125.811 47.14ZM130.478 47V39.72H131.92L131.934 40.7H131.962C132.289 40.3173 132.658 40.0373 133.068 39.86C133.488 39.6733 133.964 39.58 134.496 39.58C135.383 39.58 136.032 39.8413 136.442 40.364C136.853 40.8773 137.058 41.6893 137.058 42.8V47H135.546V43.08C135.546 42.324 135.425 41.764 135.182 41.4C134.94 41.0267 134.571 40.84 134.076 40.84C133.694 40.84 133.344 40.938 133.026 41.134C132.709 41.3207 132.457 41.5727 132.27 41.89C132.084 42.2073 131.99 42.5573 131.99 42.94V47H130.478ZM142.069 47.14C141.191 47.14 140.552 46.9533 140.151 46.58C139.759 46.2067 139.563 45.6 139.563 44.76V40.98H137.897V39.72H139.563V37.34H141.089V39.72H143.637V40.98H141.089V44.55C141.089 45.0073 141.187 45.334 141.383 45.53C141.588 45.7167 141.919 45.81 142.377 45.81C142.563 45.81 142.741 45.796 142.909 45.768C143.086 45.7307 143.268 45.6793 143.455 45.614L143.637 46.874C143.366 46.9673 143.105 47.0327 142.853 47.07C142.61 47.1167 142.349 47.14 142.069 47.14ZM147.622 47.14C147.118 47.14 146.623 47.0887 146.138 46.986C145.662 46.8833 145.228 46.7387 144.836 46.552L145.074 45.306C145.503 45.4927 145.928 45.6373 146.348 45.74C146.768 45.8333 147.188 45.88 147.608 45.88C148.121 45.88 148.504 45.8053 148.756 45.656C149.017 45.5067 149.148 45.2827 149.148 44.984C149.148 44.7973 149.101 44.6433 149.008 44.522C148.914 44.4007 148.751 44.2933 148.518 44.2C148.294 44.0973 147.976 43.9993 147.566 43.906C146.922 43.7473 146.394 43.5653 145.984 43.36C145.582 43.1547 145.284 42.912 145.088 42.632C144.901 42.3427 144.808 42.0067 144.808 41.624C144.808 40.9613 145.06 40.4573 145.564 40.112C146.077 39.7573 146.81 39.58 147.762 39.58C148.238 39.58 148.704 39.6267 149.162 39.72C149.619 39.804 150.048 39.9393 150.45 40.126L150.212 41.358C149.829 41.1807 149.437 41.05 149.036 40.966C148.634 40.882 148.228 40.84 147.818 40.84C147.323 40.84 146.954 40.9053 146.712 41.036C146.469 41.1667 146.348 41.3673 146.348 41.638C146.348 41.7967 146.394 41.9367 146.488 42.058C146.59 42.1793 146.754 42.2867 146.978 42.38C147.202 42.4733 147.5 42.562 147.874 42.646C148.368 42.758 148.793 42.8887 149.148 43.038C149.502 43.1873 149.792 43.36 150.016 43.556C150.24 43.7427 150.408 43.9573 150.52 44.2C150.632 44.4333 150.688 44.6993 150.688 44.998C150.688 45.6793 150.417 46.2067 149.876 46.58C149.344 46.9533 148.592 47.14 147.622 47.14Z" fill="#747A8E"/>
<path d="M48.4311 18.7725H30.6921C30.4923 18.7725 30.3033 18.8481 30.1629 18.9939L19.5681 29.5833C19.4277 29.7237 19.3467 29.9127 19.3467 30.1125V57.0099C19.3467 59.3373 21.2421 61.2327 23.5641 61.2327H48.4203C50.7477 61.2327 52.6377 59.3373 52.6377 57.0099V22.9899C52.6485 20.6625 50.7585 18.7725 48.4311 18.7725ZM51.1527 22.9899V57.0099C51.1527 58.5111 49.9323 59.7315 48.4311 59.7315H23.5695C22.0683 59.7315 20.8479 58.5111 20.8479 57.0099V30.8577H28.7535C30.2331 30.8577 31.4373 29.6535 31.4373 28.1739V20.2683H48.4311C49.9323 20.2683 51.1527 21.4887 51.1527 22.9899ZM29.9415 28.1739C29.9415 28.8273 29.4069 29.3619 28.7535 29.3619H21.9063L29.9415 21.3267V28.1739Z" fill="url(#paint0_linear_465_11590)"/>
<path d="M45.4609 35.5771H26.3395C25.9291 35.5771 25.5889 35.9119 25.5889 36.3277C25.5889 36.7435 25.9237 37.0783 26.3395 37.0783H45.4609C45.8713 37.0783 46.2061 36.7435 46.2061 36.3277C46.2061 35.9119 45.8713 35.5771 45.4609 35.5771Z" fill="url(#paint1_linear_465_11590)"/>
<path d="M45.4609 40.0049H26.3395C25.9291 40.0049 25.5889 40.3397 25.5889 40.7501C25.5889 41.1605 25.9237 41.5007 26.3395 41.5007H45.4609C45.8713 41.5007 46.2061 41.1659 46.2061 40.7501C46.2061 40.3397 45.8713 40.0049 45.4609 40.0049Z" fill="url(#paint2_linear_465_11590)"/>
<path d="M45.4609 44.4336H26.3395C25.9291 44.4336 25.5889 44.7684 25.5889 45.1842C25.5889 45.5946 25.9237 45.9294 26.3395 45.9294H45.4609C45.8713 45.9294 46.2061 45.5946 46.2061 45.1842C46.2061 44.7684 45.8713 44.4336 45.4609 44.4336Z" fill="url(#paint3_linear_465_11590)"/>
<path d="M45.4609 48.8613H26.3395C25.9291 48.8613 25.5889 49.1961 25.5889 49.6119C25.5889 50.0223 25.9237 50.3571 26.3395 50.3571H45.4609C45.8713 50.3571 46.2061 50.0223 46.2061 49.6119C46.2061 49.1961 45.8713 48.8613 45.4609 48.8613Z" fill="url(#paint4_linear_465_11590)"/>
<path d="M45.4609 53.2891H26.3395C25.9291 53.2891 25.5889 53.6239 25.5889 54.0343C25.5889 54.4447 25.9237 54.7849 26.3395 54.7849H45.4609C45.8713 54.7849 46.2061 54.4501 46.2061 54.0343C46.2061 53.6293 45.8713 53.2891 45.4609 53.2891Z" fill="url(#paint5_linear_465_11590)"/>
<path d="M45.9636 25.1123H36.0006C35.5902 25.1123 35.25 25.4471 35.25 25.8629C35.25 26.2787 35.5902 26.6081 36.0006 26.6081H45.9636C46.374 26.6081 46.7088 26.2733 46.7088 25.8575C46.7088 25.4417 46.374 25.1123 45.9636 25.1123Z" fill="url(#paint6_linear_465_11590)"/>
<defs>
<linearGradient id="paint0_linear_465_11590" x1="35.9922" y1="18.7725" x2="35.9922" y2="61.2327" gradientUnits="userSpaceOnUse">
<stop stop-color="#393039"/>
<stop offset="1" stop-color="#404D76"/>
</linearGradient>
<linearGradient id="paint1_linear_465_11590" x1="35.8975" y1="35.5771" x2="35.8975" y2="37.0783" gradientUnits="userSpaceOnUse">
<stop stop-color="#393039"/>
<stop offset="1" stop-color="#404D76"/>
</linearGradient>
<linearGradient id="paint2_linear_465_11590" x1="35.8975" y1="40.0049" x2="35.8975" y2="41.5007" gradientUnits="userSpaceOnUse">
<stop stop-color="#393039"/>
<stop offset="1" stop-color="#404D76"/>
</linearGradient>
<linearGradient id="paint3_linear_465_11590" x1="35.8975" y1="44.4336" x2="35.8975" y2="45.9294" gradientUnits="userSpaceOnUse">
<stop stop-color="#393039"/>
<stop offset="1" stop-color="#404D76"/>
</linearGradient>
<linearGradient id="paint4_linear_465_11590" x1="35.8975" y1="48.8613" x2="35.8975" y2="50.3571" gradientUnits="userSpaceOnUse">
<stop stop-color="#393039"/>
<stop offset="1" stop-color="#404D76"/>
</linearGradient>
<linearGradient id="paint5_linear_465_11590" x1="35.8975" y1="53.2891" x2="35.8975" y2="54.7849" gradientUnits="userSpaceOnUse">
<stop stop-color="#393039"/>
<stop offset="1" stop-color="#404D76"/>
</linearGradient>
<linearGradient id="paint6_linear_465_11590" x1="40.9794" y1="25.1123" x2="40.9794" y2="26.6081" gradientUnits="userSpaceOnUse">
<stop stop-color="#393039"/>
<stop offset="1" stop-color="#404D76"/>
</linearGradient>
</defs>
</svg>
