<svg width="11" height="103" viewBox="0 0 11 103" fill="none" xmlns="http://www.w3.org/2000/svg">
<path d="M3 0.437812L10.3 0.437812L10.3 5.07781L9.58 5.07781L9.58 1.23781L7.2 1.23781L7.2 4.87781L6.49 4.87781L6.49 1.23781L3.72 1.23781L3.72 5.07781L3 5.07781L3 0.437812ZM3 6.64664L8.2 6.64664L8.2 7.41664L7.43 7.41664L7.43 7.43664C7.71667 7.64331 7.93333 7.90331 8.08 8.21664C8.22667 8.53664 8.3 8.89664 8.3 9.29664C8.3 9.92997 8.11 10.3966 7.73 10.6966C7.35667 10.9966 6.78 11.1466 6 11.1466L3 11.1466L3 10.3566L5.86 10.3566C6.46 10.3566 6.90333 10.2533 7.19 10.0466C7.48333 9.83997 7.63 9.52331 7.63 9.09664C7.63 8.77664 7.55667 8.48997 7.41 8.23664C7.27 7.98997 7.07333 7.79331 6.82 7.64664C6.57333 7.50664 6.28667 7.43664 5.96 7.43664L3 7.43664L3 6.64664ZM2.9 14.9723C2.9 14.4056 3.00667 13.9189 3.22 13.5123C3.44 13.1056 3.75 12.7923 4.15 12.5723C4.55667 12.3589 5.04 12.2523 5.6 12.2523C6.16 12.2523 6.64 12.3589 7.04 12.5723C7.44667 12.7923 7.75667 13.1056 7.97 13.5123C8.19 13.9189 8.3 14.4056 8.3 14.9723C8.3 15.2523 8.27 15.5189 8.21 15.7723C8.15667 16.0256 8.06667 16.2723 7.94 16.5123L7.3 16.3623C7.41333 16.1356 7.49667 15.9123 7.55 15.6923C7.60333 15.4723 7.63 15.2489 7.63 15.0223C7.63 14.4023 7.45 13.9189 7.09 13.5723C6.73667 13.2256 6.24 13.0523 5.6 13.0523C4.96667 13.0523 4.47 13.2256 4.11 13.5723C3.75 13.9189 3.57 14.4023 3.57 15.0223C3.57 15.2489 3.59667 15.4723 3.65 15.6923C3.70333 15.9123 3.78667 16.1356 3.9 16.3623L3.26 16.5123C3.14 16.2723 3.05 16.0256 2.99 15.7723C2.93 15.5189 2.9 15.2523 2.9 14.9723ZM3 18.0334L8.2 18.0334L8.2 18.7934L7.11 18.8034L7.11 18.8234C7.35667 18.9767 7.56667 19.1734 7.74 19.4134C7.92 19.6534 8.05667 19.9267 8.15 20.2334C8.25 20.54 8.3 20.8634 8.3 21.2034L7.6 21.2034C7.6 20.7634 7.51 20.3634 7.33 20.0034C7.15 19.6434 6.91 19.3567 6.61 19.1434C6.31 18.9367 5.97333 18.8334 5.6 18.8334L3 18.8334L3 18.0334ZM1.36 21.9902C1.43333 22.3502 1.54333 22.6502 1.69 22.8902C1.83666 23.1369 2.04333 23.3436 2.31 23.5102C2.57 23.6836 2.90666 23.8336 3.32 23.9602L2.73 24.0002L8.2 21.6302L8.2 22.4802L3.85 24.2502L3.85 24.2702L8.2 25.8802L8.2 26.7302L3.01 24.6502C2.53 24.4569 2.13333 24.2436 1.82 24.0102C1.50666 23.7836 1.26333 23.5202 1.09 23.2202C0.909998 22.9269 0.779998 22.5736 0.699998 22.1602L1.36 21.9902ZM8.3 30.2818C8.3 30.9751 8.06 31.5151 7.58 31.9018C7.10666 32.2885 6.44666 32.4818 5.6 32.4818C4.75333 32.4818 4.09 32.2885 3.61 31.9018C3.13666 31.5151 2.9 30.9751 2.9 30.2818C2.9 29.9018 2.97 29.5518 3.11 29.2318C3.25666 28.9185 3.45333 28.6718 3.7 28.4918L3.7 28.4718L0.899998 28.4718L0.899998 27.6818L8.2 27.6818L8.2 28.4418L7.5 28.4418L7.5 28.4618C7.75333 28.6485 7.95 28.9018 8.09 29.2218C8.23 29.5485 8.3 29.9018 8.3 30.2818ZM7.63 30.1118C7.63 29.7985 7.56333 29.5185 7.43 29.2718C7.30333 29.0251 7.12666 28.8285 6.9 28.6818C6.68 28.5418 6.42 28.4718 6.12 28.4718L5.08 28.4718C4.78666 28.4718 4.52666 28.5418 4.3 28.6818C4.07333 28.8285 3.89333 29.0251 3.76 29.2718C3.63333 29.5185 3.57 29.7985 3.57 30.1118C3.57 30.6251 3.74333 31.0185 4.09 31.2918C4.44333 31.5718 4.94666 31.7118 5.6 31.7118C6.25333 31.7118 6.75333 31.5718 7.1 31.2918C7.45333 31.0185 7.63 30.6251 7.63 30.1118ZM2.9 35.8823C2.9 35.2823 3.03 34.8457 3.29 34.5723C3.55 34.3057 3.97666 34.1723 4.57 34.1723L7.53 34.1723L7.53 32.9123L8.2 32.9123L8.2 34.1723L9.9 34.1723L9.9 34.9723L8.2 34.9723L8.2 36.9023L7.53 36.9023L7.53 34.9723L4.67 34.9723C4.28333 34.9723 4.00666 35.0523 3.84 35.2123C3.68 35.3723 3.6 35.6423 3.6 36.0223C3.6 36.169 3.61 36.3023 3.63 36.4223C3.65666 36.5423 3.69333 36.669 3.74 36.8023L3.08 36.9123C3.02 36.739 2.97666 36.569 2.95 36.4023C2.91666 36.2423 2.9 36.069 2.9 35.8823ZM3 38.5184L8.2 38.5184L8.2 39.3184L3 39.3184L3 38.5184ZM9.19 38.9184C9.19 38.7451 9.24333 38.6018 9.35 38.4884C9.46333 38.3818 9.61 38.3284 9.79 38.3284C9.96333 38.3284 10.1033 38.3818 10.21 38.4884C10.3233 38.6018 10.38 38.7451 10.38 38.9184C10.38 39.0984 10.3233 39.2418 10.21 39.3484C10.1033 39.4618 9.96333 39.5184 9.79 39.5184C9.61 39.5184 9.46333 39.4618 9.35 39.3484C9.24333 39.2418 9.19 39.0984 9.19 38.9184ZM2.9 43.4053C2.9 42.892 3.01 42.442 3.23 42.0553C3.45 41.6753 3.76333 41.382 4.17 41.1753C4.57666 40.9753 5.05333 40.8753 5.6 40.8753C6.15333 40.8753 6.63 40.9753 7.03 41.1753C7.43666 41.382 7.75 41.6753 7.97 42.0553C8.19 42.442 8.3 42.892 8.3 43.4053C8.3 43.9253 8.19 44.372 7.97 44.7453C7.75 45.1253 7.43666 45.4186 7.03 45.6253C6.63 45.832 6.15333 45.9353 5.6 45.9353C5.05333 45.9353 4.57666 45.832 4.17 45.6253C3.76333 45.4186 3.45 45.1253 3.23 44.7453C3.01 44.372 2.9 43.9253 2.9 43.4053ZM3.57 43.4053C3.57 43.952 3.75 44.3786 4.11 44.6853C4.47 44.9986 4.96666 45.1553 5.6 45.1553C6.24 45.1553 6.73666 44.9986 7.09 44.6853C7.45 44.3786 7.63 43.952 7.63 43.4053C7.63 42.8586 7.45 42.4286 7.09 42.1153C6.73666 41.8086 6.24 41.6553 5.6 41.6553C4.96666 41.6553 4.47 41.8086 4.11 42.1153C3.75 42.4286 3.57 42.8586 3.57 43.4053ZM3 47.2033L8.2 47.2033L8.2 47.9733L7.43 47.9733L7.43 47.9933C7.71666 48.1999 7.93333 48.4599 8.08 48.7733C8.22666 49.0933 8.3 49.4533 8.3 49.8533C8.3 50.4866 8.11 50.9533 7.73 51.2533C7.35666 51.5533 6.78 51.7033 6 51.7033L3 51.7033L3 50.9133L5.86 50.9133C6.46 50.9133 6.90333 50.8099 7.19 50.6033C7.48333 50.3966 7.63 50.0799 7.63 49.6533C7.63 49.3333 7.55666 49.0466 7.41 48.7933C7.27 48.5466 7.07333 48.3499 6.82 48.2033C6.57333 48.0633 6.28666 47.9933 5.96 47.9933L3 47.9933L3 47.2033ZM3 55.41L10.3 58.2L10.3 59.29L3 62.08L3 61.2L9.61 58.75L9.61 58.73L3 56.29L3 55.41ZM5.01 56.7L5.74 56.7L5.74 60.8L5.01 60.8L5.01 56.7ZM3 63.1722L10.3 63.1722L10.3 63.9722L3 63.9722L3 63.1722ZM0.799996 67.5684C0.799996 67.1684 0.846663 66.8084 0.939996 66.4884C1.03333 66.1684 1.17666 65.8784 1.37 65.6184L2.01 65.8184C1.82333 66.0784 1.68666 66.3418 1.6 66.6084C1.51333 66.8751 1.47 67.1751 1.47 67.5084C1.47 68.1484 1.63333 68.6118 1.96 68.8984C2.28 69.1918 2.79333 69.3384 3.5 69.3384L3.96 69.3384L3.96 69.3184C3.72666 69.1384 3.54 68.8918 3.4 68.5784C3.26666 68.2651 3.2 67.9184 3.2 67.5384C3.2 66.8451 3.42333 66.3018 3.87 65.9084C4.32333 65.5151 4.95 65.3184 5.75 65.3184C6.55 65.3184 7.17333 65.5151 7.62 65.9084C8.07333 66.3018 8.3 66.8451 8.3 67.5384C8.3 67.9184 8.23 68.2684 8.09 68.5884C7.95666 68.9084 7.77333 69.1584 7.54 69.3384L7.54 69.3584L8.2 69.3684L8.2 70.1184L3.5 70.1184C2.58666 70.1184 1.91 69.9084 1.47 69.4884C1.02333 69.0751 0.799996 68.4351 0.799996 67.5684ZM3.87 67.7084C3.87 68.0218 3.92666 68.2984 4.04 68.5384C4.16 68.7851 4.32 68.9784 4.52 69.1184C4.72666 69.2651 4.96333 69.3384 5.23 69.3384L6.27 69.3384C6.53 69.3384 6.76333 69.2651 6.97 69.1184C7.17666 68.9784 7.33666 68.7851 7.45 68.5384C7.57 68.2984 7.63 68.0218 7.63 67.7084C7.63 67.2018 7.46666 66.8051 7.14 66.5184C6.81333 66.2384 6.35 66.0984 5.75 66.0984C5.15 66.0984 4.68666 66.2384 4.36 66.5184C4.03333 66.8051 3.87 67.2018 3.87 67.7084ZM2.9 73.9327C2.9 73.4193 3.01 72.9693 3.23 72.5827C3.45 72.2027 3.76333 71.9093 4.17 71.7027C4.57666 71.5027 5.05333 71.4027 5.6 71.4027C6.15333 71.4027 6.63 71.5027 7.03 71.7027C7.43666 71.9093 7.75 72.2027 7.97 72.5827C8.19 72.9693 8.3 73.4193 8.3 73.9327C8.3 74.4527 8.19 74.8993 7.97 75.2727C7.75 75.6527 7.43666 75.946 7.03 76.1527C6.63 76.3593 6.15333 76.4627 5.6 76.4627C5.05333 76.4627 4.57666 76.3593 4.17 76.1527C3.76333 75.946 3.45 75.6527 3.23 75.2727C3.01 74.8993 2.9 74.4527 2.9 73.9327ZM3.57 73.9327C3.57 74.4793 3.75 74.906 4.11 75.2127C4.47 75.526 4.96666 75.6827 5.6 75.6827C6.24 75.6827 6.73666 75.526 7.09 75.2127C7.45 74.906 7.63 74.4793 7.63 73.9327C7.63 73.386 7.45 72.956 7.09 72.6427C6.73666 72.336 6.24 72.1827 5.6 72.1827C4.96666 72.1827 4.47 72.336 4.11 72.6427C3.75 72.956 3.57 73.386 3.57 73.9327ZM3 77.7306L8.2 77.7306L8.2 78.4906L7.11 78.5006L7.11 78.5206C7.35666 78.674 7.56666 78.8706 7.74 79.1106C7.92 79.3506 8.05666 79.624 8.15 79.9306C8.25 80.2373 8.3 80.5606 8.3 80.9006L7.6 80.9006C7.6 80.4606 7.51 80.0606 7.33 79.7006C7.15 79.3406 6.91 79.054 6.61 78.8406C6.31 78.634 5.97333 78.5306 5.6 78.5306L3 78.5306L3 77.7306ZM3 82.1122L8.2 82.1122L8.2 82.9122L3 82.9122L3 82.1122ZM9.19 82.5122C9.19 82.3389 9.24333 82.1955 9.35 82.0822C9.46333 81.9755 9.61 81.9222 9.79 81.9222C9.96333 81.9222 10.1033 81.9755 10.21 82.0822C10.3233 82.1955 10.38 82.3389 10.38 82.5122C10.38 82.6922 10.3233 82.8355 10.21 82.9422C10.1033 83.0555 9.96333 83.1122 9.79 83.1122C9.61 83.1122 9.46333 83.0555 9.35 82.9422C9.24333 82.8355 9.19 82.6922 9.19 82.5122ZM2.9 87.2691C2.9 86.6691 3.03 86.2324 3.29 85.9591C3.55 85.6924 3.97666 85.5591 4.57 85.5591L7.53 85.5591L7.53 84.2991L8.2 84.2991L8.2 85.5591L9.9 85.5591L9.9 86.3591L8.2 86.3591L8.2 88.2891L7.53 88.2891L7.53 86.3591L4.67 86.3591C4.28333 86.3591 4.00666 86.4391 3.84 86.5991C3.68 86.7591 3.6 87.0291 3.6 87.4091C3.6 87.5557 3.61 87.6891 3.63 87.8091C3.65666 87.9291 3.69333 88.0557 3.74 88.1891L3.08 88.2991C3.02 88.1257 2.97666 87.9557 2.95 87.7891C2.91666 87.6291 2.9 87.4557 2.9 87.2691ZM3 89.6252L10.3 89.6252L10.3 90.4152L7.5 90.4152L7.5 90.4352C7.76 90.6352 7.95666 90.8918 8.09 91.2052C8.23 91.5185 8.3 91.8785 8.3 92.2852C8.3 92.9252 8.13 93.3918 7.79 93.6852C7.45 93.9852 6.92 94.1318 6.2 94.1252L3 94.1252L3 93.3452L6.06 93.3452C6.6 93.3518 6.99666 93.2518 7.25 93.0452C7.50333 92.8385 7.63 92.5185 7.63 92.0852C7.63 91.7585 7.56333 91.4685 7.43 91.2152C7.30333 90.9685 7.12666 90.7752 6.9 90.6352C6.68 90.4952 6.42 90.4218 6.12 90.4152L3 90.4152L3 89.6252ZM3 95.6408L8.2 95.6408L8.2 96.3808L7.43 96.3908L7.43 96.4108C7.71 96.5774 7.92333 96.7974 8.07 97.0708C8.22333 97.3508 8.3 97.6708 8.3 98.0308C8.3 98.3908 8.22333 98.6974 8.07 98.9508C7.92333 99.2108 7.71 99.3908 7.43 99.4908L7.43 99.5108C7.72333 99.6708 7.94 99.8908 8.08 100.171C8.22666 100.457 8.3 100.801 8.3 101.201C8.3 101.774 8.13666 102.184 7.81 102.431C7.48333 102.684 6.93333 102.811 6.15999 102.811L2.99999 102.811L2.99999 102.031L6.06 102.031C6.62666 102.031 7.03 101.951 7.26999 101.791C7.51 101.631 7.63 101.361 7.63 100.981C7.63 100.534 7.47666 100.194 7.17 99.9608C6.87 99.7274 6.42666 99.6108 5.83999 99.6108L2.99999 99.6108L2.99999 98.8408L6.39999 98.8408C6.78666 98.8408 7.08666 98.7474 7.3 98.5608C7.52 98.3741 7.63 98.1174 7.63 97.7908C7.63 97.3841 7.46333 97.0508 7.13 96.7908C6.80333 96.5374 6.37333 96.4108 5.84 96.4108L3 96.4108L3 95.6408Z" fill="#696C90"/>
</svg>
