<svg width="260" height="81" viewBox="0 0 260 81" fill="none" xmlns="http://www.w3.org/2000/svg">
<rect x="0.5" y="0.5" width="259" height="80" rx="9.5" fill="#0B0B0C"/>
<rect x="0.5" y="0.5" width="259" height="80" rx="9.5" stroke="#202328"/>
<path d="M76.302 47V36.78H83.12V37.802H77.422V41.456H82.84V42.464H77.422V47H76.302ZM85.2086 47V39.72H86.3286V47H85.2086ZM85.7686 38.334C85.526 38.334 85.3253 38.2593 85.1666 38.11C85.0173 37.9513 84.9426 37.746 84.9426 37.494C84.9426 37.2513 85.0173 37.0553 85.1666 36.906C85.3253 36.7473 85.526 36.668 85.7686 36.668C86.0206 36.668 86.2213 36.7473 86.3706 36.906C86.5293 37.0553 86.6086 37.2513 86.6086 37.494C86.6086 37.746 86.5293 37.9513 86.3706 38.11C86.2213 38.2593 86.0206 38.334 85.7686 38.334ZM89.0823 47V39.72H90.1603V40.798H90.1883C90.4776 40.3967 90.8416 40.0933 91.2803 39.888C91.7283 39.6827 92.2323 39.58 92.7923 39.58C93.6789 39.58 94.3323 39.846 94.7523 40.378C95.1723 40.9007 95.3823 41.708 95.3823 42.8V47H94.2763V42.996C94.2763 42.156 94.1316 41.5353 93.8423 41.134C93.5529 40.7233 93.1096 40.518 92.5123 40.518C92.0643 40.518 91.6629 40.6207 91.3083 40.826C90.9629 41.022 90.6876 41.2973 90.4823 41.652C90.2863 41.9973 90.1883 42.3987 90.1883 42.856V47H89.0823ZM99.1981 47.14C98.4608 47.14 97.8775 46.944 97.4481 46.552C97.0188 46.1507 96.8041 45.614 96.8041 44.942C96.8041 44.102 97.1448 43.458 97.8261 43.01C98.5075 42.5527 99.4828 42.324 100.752 42.324H101.914C101.914 41.6613 101.76 41.1947 101.452 40.924C101.153 40.6533 100.645 40.518 99.9261 40.518C99.4315 40.518 98.9695 40.5787 98.5401 40.7C98.1201 40.812 97.6955 40.994 97.2661 41.246L97.0841 40.308C97.5228 40.056 97.9848 39.874 98.4701 39.762C98.9555 39.6407 99.4828 39.58 100.052 39.58C100.761 39.58 101.331 39.678 101.76 39.874C102.199 40.0607 102.516 40.364 102.712 40.784C102.917 41.1947 103.02 41.7407 103.02 42.422V47H101.956V46.006H101.914C101.671 46.342 101.293 46.6173 100.78 46.832C100.276 47.0373 99.7488 47.14 99.1981 47.14ZM99.5481 46.23C99.9868 46.23 100.383 46.146 100.738 45.978C101.102 45.81 101.387 45.586 101.592 45.306C101.807 45.0167 101.914 44.6993 101.914 44.354V43.178H100.892C99.9028 43.178 99.1561 43.3227 98.6521 43.612C98.1481 43.892 97.8961 44.3027 97.8961 44.844C97.8961 45.2733 98.0408 45.614 98.3301 45.866C98.6195 46.1087 99.0255 46.23 99.5481 46.23ZM105.147 47V39.72H106.225V40.798H106.253C106.542 40.3967 106.906 40.0933 107.345 39.888C107.793 39.6827 108.297 39.58 108.857 39.58C109.743 39.58 110.397 39.846 110.817 40.378C111.237 40.9007 111.447 41.708 111.447 42.8V47H110.341V42.996C110.341 42.156 110.196 41.5353 109.907 41.134C109.617 40.7233 109.174 40.518 108.577 40.518C108.129 40.518 107.727 40.6207 107.373 40.826C107.027 41.022 106.752 41.2973 106.547 41.652C106.351 41.9973 106.253 42.3987 106.253 42.856V47H105.147ZM116.803 47.14C116.009 47.14 115.328 46.9907 114.759 46.692C114.189 46.384 113.751 45.95 113.443 45.39C113.144 44.8207 112.995 44.144 112.995 43.36C112.995 42.576 113.144 41.904 113.443 41.344C113.751 40.7747 114.189 40.3407 114.759 40.042C115.328 39.734 116.009 39.58 116.803 39.58C117.195 39.58 117.568 39.622 117.923 39.706C118.277 39.7807 118.623 39.9067 118.959 40.084L118.749 40.98C118.431 40.8213 118.119 40.7047 117.811 40.63C117.503 40.5553 117.19 40.518 116.873 40.518C116.005 40.518 115.328 40.77 114.843 41.274C114.357 41.7687 114.115 42.464 114.115 43.36C114.115 44.2467 114.357 44.942 114.843 45.446C115.328 45.95 116.005 46.202 116.873 46.202C117.19 46.202 117.503 46.1647 117.811 46.09C118.119 46.0153 118.431 45.8987 118.749 45.74L118.959 46.636C118.623 46.804 118.277 46.93 117.923 47.014C117.568 47.098 117.195 47.14 116.803 47.14ZM121.48 47V39.72H122.6V47H121.48ZM122.04 38.334C121.797 38.334 121.597 38.2593 121.438 38.11C121.289 37.9513 121.214 37.746 121.214 37.494C121.214 37.2513 121.289 37.0553 121.438 36.906C121.597 36.7473 121.797 36.668 122.04 36.668C122.292 36.668 122.493 36.7473 122.642 36.906C122.801 37.0553 122.88 37.2513 122.88 37.494C122.88 37.746 122.801 37.9513 122.642 38.11C122.493 38.2593 122.292 38.334 122.04 38.334ZM127.048 47.14C126.31 47.14 125.727 46.944 125.298 46.552C124.868 46.1507 124.654 45.614 124.654 44.942C124.654 44.102 124.994 43.458 125.676 43.01C126.357 42.5527 127.332 42.324 128.602 42.324H129.764C129.764 41.6613 129.61 41.1947 129.302 40.924C129.003 40.6533 128.494 40.518 127.776 40.518C127.281 40.518 126.819 40.5787 126.39 40.7C125.97 40.812 125.545 40.994 125.116 41.246L124.934 40.308C125.372 40.056 125.834 39.874 126.32 39.762C126.805 39.6407 127.332 39.58 127.902 39.58C128.611 39.58 129.18 39.678 129.61 39.874C130.048 40.0607 130.366 40.364 130.562 40.784C130.767 41.1947 130.87 41.7407 130.87 42.422V47H129.806V46.006H129.764C129.521 46.342 129.143 46.6173 128.63 46.832C128.126 47.0373 127.598 47.14 127.048 47.14ZM127.398 46.23C127.836 46.23 128.233 46.146 128.588 45.978C128.952 45.81 129.236 45.586 129.442 45.306C129.656 45.0167 129.764 44.6993 129.764 44.354V43.178H128.742C127.752 43.178 127.006 43.3227 126.502 43.612C125.998 43.892 125.746 44.3027 125.746 44.844C125.746 45.2733 125.89 45.614 126.18 45.866C126.469 46.1087 126.875 46.23 127.398 46.23ZM133.122 47V36.78H134.242V47H133.122ZM141.001 47V36.78H142.163V47H141.001ZM144.781 47V39.72H145.859V40.798H145.887C146.177 40.3967 146.541 40.0933 146.979 39.888C147.427 39.6827 147.931 39.58 148.491 39.58C149.378 39.58 150.031 39.846 150.451 40.378C150.871 40.9007 151.081 41.708 151.081 42.8V47H149.975V42.996C149.975 42.156 149.831 41.5353 149.541 41.134C149.252 40.7233 148.809 40.518 148.211 40.518C147.763 40.518 147.362 40.6207 147.007 40.826C146.662 41.022 146.387 41.2973 146.181 41.652C145.985 41.9973 145.887 42.3987 145.887 42.856V47H144.781ZM154.08 47V40.938H152.022V40H154.08V38.642C154.08 37.83 154.276 37.2233 154.668 36.822C155.06 36.4207 155.653 36.22 156.446 36.22C156.679 36.22 156.908 36.2387 157.132 36.276C157.356 36.3133 157.566 36.3647 157.762 36.43L157.608 37.354C157.272 37.242 156.936 37.186 156.6 37.186C156.096 37.186 155.732 37.3027 155.508 37.536C155.293 37.7693 155.186 38.166 155.186 38.726V40H157.734V40.938H155.186V47H154.08ZM161.708 47.14C160.99 47.14 160.36 46.986 159.818 46.678C159.286 46.37 158.876 45.9313 158.586 45.362C158.306 44.7927 158.166 44.1253 158.166 43.36C158.166 42.5853 158.306 41.918 158.586 41.358C158.876 40.7887 159.286 40.35 159.818 40.042C160.36 39.734 160.99 39.58 161.708 39.58C162.436 39.58 163.062 39.734 163.584 40.042C164.116 40.35 164.527 40.7887 164.816 41.358C165.106 41.918 165.25 42.5853 165.25 43.36C165.25 44.1253 165.106 44.7927 164.816 45.362C164.527 45.9313 164.116 46.37 163.584 46.678C163.062 46.986 162.436 47.14 161.708 47.14ZM161.708 46.202C162.474 46.202 163.071 45.95 163.5 45.446C163.939 44.942 164.158 44.2467 164.158 43.36C164.158 42.464 163.939 41.7687 163.5 41.274C163.071 40.77 162.474 40.518 161.708 40.518C160.943 40.518 160.341 40.77 159.902 41.274C159.473 41.7687 159.258 42.464 159.258 43.36C159.258 44.2467 159.473 44.942 159.902 45.446C160.341 45.95 160.943 46.202 161.708 46.202ZM167.026 47V39.72H168.09L168.104 41.246H168.132C168.346 40.9007 168.622 40.6067 168.958 40.364C169.294 40.112 169.676 39.9207 170.106 39.79C170.535 39.65 170.988 39.58 171.464 39.58V40.56C170.848 40.56 170.288 40.686 169.784 40.938C169.28 41.19 168.878 41.526 168.58 41.946C168.29 42.366 168.146 42.8373 168.146 43.36V47H167.026ZM172.905 47V39.72H173.941L173.955 40.798H173.983C174.216 40.406 174.524 40.1073 174.907 39.902C175.299 39.6873 175.747 39.58 176.251 39.58C176.755 39.58 177.184 39.6873 177.539 39.902C177.903 40.1073 178.155 40.406 178.295 40.798H178.323C178.547 40.3873 178.855 40.084 179.247 39.888C179.648 39.6827 180.129 39.58 180.689 39.58C181.491 39.58 182.065 39.8087 182.411 40.266C182.765 40.7233 182.943 41.4933 182.943 42.576V47H181.851V42.716C181.851 41.9227 181.739 41.358 181.515 41.022C181.291 40.686 180.913 40.518 180.381 40.518C179.755 40.518 179.279 40.7327 178.953 41.162C178.626 41.582 178.463 42.2027 178.463 43.024V47H177.385V42.24C177.385 41.6987 177.254 41.2787 176.993 40.98C176.731 40.672 176.372 40.518 175.915 40.518C175.345 40.518 174.879 40.7513 174.515 41.218C174.16 41.6753 173.983 42.2773 173.983 43.024V47H172.905ZM186.766 47.14C186.029 47.14 185.446 46.944 185.016 46.552C184.587 46.1507 184.372 45.614 184.372 44.942C184.372 44.102 184.713 43.458 185.394 43.01C186.076 42.5527 187.051 42.324 188.32 42.324H189.482C189.482 41.6613 189.328 41.1947 189.02 40.924C188.722 40.6533 188.213 40.518 187.494 40.518C187 40.518 186.538 40.5787 186.108 40.7C185.688 40.812 185.264 40.994 184.834 41.246L184.652 40.308C185.091 40.056 185.553 39.874 186.038 39.762C186.524 39.6407 187.051 39.58 187.62 39.58C188.33 39.58 188.899 39.678 189.328 39.874C189.767 40.0607 190.084 40.364 190.28 40.784C190.486 41.1947 190.588 41.7407 190.588 42.422V47H189.524V46.006H189.482C189.24 46.342 188.862 46.6173 188.348 46.832C187.844 47.0373 187.317 47.14 186.766 47.14ZM187.116 46.23C187.555 46.23 187.952 46.146 188.306 45.978C188.67 45.81 188.955 45.586 189.16 45.306C189.375 45.0167 189.482 44.6993 189.482 44.354V43.178H188.46C187.471 43.178 186.724 43.3227 186.22 43.612C185.716 43.892 185.464 44.3027 185.464 44.844C185.464 45.2733 185.609 45.614 185.898 45.866C186.188 46.1087 186.594 46.23 187.116 46.23ZM195.706 47.14C194.866 47.14 194.254 46.958 193.872 46.594C193.498 46.23 193.312 45.6327 193.312 44.802V40.658H191.548V39.72H193.312V37.34H194.432V39.72H197.134V40.658H194.432V44.662C194.432 45.2033 194.544 45.5907 194.768 45.824C194.992 46.048 195.37 46.16 195.902 46.16C196.107 46.16 196.294 46.146 196.462 46.118C196.63 46.0807 196.807 46.0293 196.994 45.964L197.148 46.888C196.905 46.972 196.667 47.0327 196.434 47.07C196.21 47.1167 195.967 47.14 195.706 47.14ZM199.396 47V39.72H200.516V47H199.396ZM199.956 38.334C199.713 38.334 199.513 38.2593 199.354 38.11C199.205 37.9513 199.13 37.746 199.13 37.494C199.13 37.2513 199.205 37.0553 199.354 36.906C199.513 36.7473 199.713 36.668 199.956 36.668C200.208 36.668 200.409 36.7473 200.558 36.906C200.717 37.0553 200.796 37.2513 200.796 37.494C200.796 37.746 200.717 37.9513 200.558 38.11C200.409 38.2593 200.208 38.334 199.956 38.334ZM206.238 47.14C205.519 47.14 204.889 46.986 204.348 46.678C203.816 46.37 203.405 45.9313 203.116 45.362C202.836 44.7927 202.696 44.1253 202.696 43.36C202.696 42.5853 202.836 41.918 203.116 41.358C203.405 40.7887 203.816 40.35 204.348 40.042C204.889 39.734 205.519 39.58 206.238 39.58C206.966 39.58 207.591 39.734 208.114 40.042C208.646 40.35 209.056 40.7887 209.346 41.358C209.635 41.918 209.78 42.5853 209.78 43.36C209.78 44.1253 209.635 44.7927 209.346 45.362C209.056 45.9313 208.646 46.37 208.114 46.678C207.591 46.986 206.966 47.14 206.238 47.14ZM206.238 46.202C207.003 46.202 207.6 45.95 208.03 45.446C208.468 44.942 208.688 44.2467 208.688 43.36C208.688 42.464 208.468 41.7687 208.03 41.274C207.6 40.77 207.003 40.518 206.238 40.518C205.472 40.518 204.87 40.77 204.432 41.274C204.002 41.7687 203.788 42.464 203.788 43.36C203.788 44.2467 204.002 44.942 204.432 45.446C204.87 45.95 205.472 46.202 206.238 46.202ZM211.555 47V39.72H212.633V40.798H212.661C212.95 40.3967 213.314 40.0933 213.753 39.888C214.201 39.6827 214.705 39.58 215.265 39.58C216.152 39.58 216.805 39.846 217.225 40.378C217.645 40.9007 217.855 41.708 217.855 42.8V47H216.749V42.996C216.749 42.156 216.604 41.5353 216.315 41.134C216.026 40.7233 215.582 40.518 214.985 40.518C214.537 40.518 214.136 40.6207 213.781 40.826C213.436 41.022 213.16 41.2973 212.955 41.652C212.759 41.9973 212.661 42.3987 212.661 42.856V47H211.555Z" fill="#747A8E"/>
<g clip-path="url(#clip0_465_11600)">
<mask id="mask0_465_11600" style="mask-type:luminance" maskUnits="userSpaceOnUse" x="12" y="17" width="48" height="48">
<path d="M60 17H12V65H60V17Z" fill="white"/>
</mask>
<g mask="url(#mask0_465_11600)">
<path d="M33.75 30.875C33.75 30.875 33.75 28.25 30 28.25C27 28.25 26.25 29.5625 26.25 30.875C26.25 34.8125 33.75 32.1875 33.75 36.125C33.75 37.4375 33 38.75 30 38.75C26.25 38.75 26.25 36.125 26.25 36.125" stroke="url(#paint0_linear_465_11600)" stroke-linecap="round" stroke-linejoin="round"/>
<path d="M30 28.25V26" stroke="#3F4A71" stroke-linecap="round" stroke-linejoin="round"/>
<path d="M30 41V38.75" stroke="#9B859E" stroke-linecap="round" stroke-linejoin="round"/>
<path d="M42 20.75H21V61.25H51V30.5" stroke="url(#paint1_linear_465_11600)" stroke-linecap="round" stroke-linejoin="round"/>
<path d="M51 29.75H42V20.75L51 29.75Z" stroke="url(#paint2_linear_465_11600)" stroke-linecap="round" stroke-linejoin="round"/>
<path d="M25.5 46.25H46.5" stroke="#57597C" stroke-linecap="round" stroke-linejoin="round"/>
<path d="M25.5 50.75H46.5" stroke="#57597C" stroke-linecap="round" stroke-linejoin="round"/>
<path d="M25.5 55.25H46.5" stroke="#57597C" stroke-linecap="round" stroke-linejoin="round"/>
</g>
</g>
<defs>
<linearGradient id="paint0_linear_465_11600" x1="30" y1="28.25" x2="30" y2="38.75" gradientUnits="userSpaceOnUse">
<stop stop-color="#3F4A71"/>
<stop offset="1" stop-color="#9C869F"/>
</linearGradient>
<linearGradient id="paint1_linear_465_11600" x1="36" y1="20.75" x2="36" y2="61.25" gradientUnits="userSpaceOnUse">
<stop stop-color="#3F4A71"/>
<stop offset="1" stop-color="#9C869F"/>
</linearGradient>
<linearGradient id="paint2_linear_465_11600" x1="46.5" y1="20.75" x2="46.5" y2="29.75" gradientUnits="userSpaceOnUse">
<stop stop-color="#3F4A71"/>
<stop offset="1" stop-color="#9C869F"/>
</linearGradient>
<clipPath id="clip0_465_11600">
<rect width="48" height="48" fill="white" transform="translate(12 17)"/>
</clipPath>
</defs>
</svg>
