<svg xmlns="http://www.w3.org/2000/svg" width="101.163" height="29.5" viewBox="0 0 101.163 29.5">
  <g id="Group_173451" data-name="Group 173451" transform="translate(-69 -48.463)">
    <g id="Group_1" data-name="Group 1" transform="translate(99.962 53.672)">
      <path id="Path_1" data-name="Path 1" d="M193.85,65.359a3.014,3.014,0,1,0-2.723-3,2.886,2.886,0,0,0,2.723,3m-2.406,2.388a2.645,2.645,0,0,0,2.344,1.5,2.769,2.769,0,0,0,2.661-2.874v-.107l-.043-.021a4.3,4.3,0,0,1-3.062,1.332c-2.533,0-4.583-2.346-4.583-5.219s2.049-5.219,4.583-5.219a4.241,4.241,0,0,1,3.062,1.352l.043-.021V57.414h2.365v8.961a4.944,4.944,0,0,1-4.919,5.114,5.085,5.085,0,0,1-4.434-2.557l1.985-1.184Z" transform="translate(-188.76 -52.977)" fill="#00aecf"/>
      <path id="Path_2" data-name="Path 2" d="M263.3,60.986l.021-.043a2.8,2.8,0,0,0-5.088,0l.021.043H263.3Zm-.274,3.4,1.647,1.627a5.24,5.24,0,0,1-8.974-3.656,5.08,5.08,0,1,1,10.156,0,2.331,2.331,0,0,1-.043.592h-7.75a2.8,2.8,0,0,0,2.766,2.388,3.1,3.1,0,0,0,2.2-.951" transform="translate(-244.72 -52.977)" fill="#00aecf"/>
      <path id="Path_3" data-name="Path 3" d="M326.055,62.351V67.3H323.69V57.406h2.365v1.2l.043.021a3.83,3.83,0,0,1,3-1.5c4.222,0,4.329,3.846,4.329,5.029v5.136H331.06V62.349c0-1.183-.021-3-2.47-3a2.793,2.793,0,0,0-2.534,3" transform="translate(-301.558 -52.969)" fill="#00aecf"/>
      <path id="Path_4" data-name="Path 4" d="M394.943,59.351a3,3,0,1,0,2.724,2.98,2.866,2.866,0,0,0-2.724-2.98m.507,8.219a4.2,4.2,0,0,1-3.082-1.352l-.043.021v4.965H389.96v-13.8h2.365v1.035l.043.021a4.354,4.354,0,0,1,3.082-1.332c2.534,0,4.583,2.324,4.583,5.219s-2.049,5.219-4.583,5.219" transform="translate(-356.958 -52.969)" fill="#00aecf"/>
      <path id="Path_5" data-name="Path 5" d="M461.33,65.33a3,3,0,1,0-2.724-2.98,2.85,2.85,0,0,0,2.724,2.98m-.507-8.2a4.233,4.233,0,0,1,3.061,1.353l.043-.021V57.406h2.365v9.889h-2.365V66.279l-.043-.043a4.3,4.3,0,0,1-3.061,1.332c-2.534,0-4.583-2.324-4.583-5.219s2.049-5.219,4.583-5.219" transform="translate(-412.366 -52.969)" fill="#00aecf"/>
      <path id="Path_6" data-name="Path 6" d="M532.024,66.015a5.219,5.219,0,1,1,0-7.312l-1.668,1.563a2.772,2.772,0,0,0-2.068-.909,2.993,2.993,0,0,0,0,5.98,2.885,2.885,0,0,0,2.111-.93l1.626,1.606Z" transform="translate(-468.218 -52.977)" fill="#00aecf"/>
      <path id="Path_7" data-name="Path 7" d="M586.346,38.48v7.606H583.98V38.48h-1.64V36.2h1.64V31.76h2.365V36.2h1.639V38.48Z" transform="translate(-517.783 -31.76)" fill="#00aecf"/>
    </g>
    <g id="Group_2" data-name="Group 2" transform="translate(69 48.463)">
      <path id="Path_8" data-name="Path 8" d="M64.7,104.671,75.311,97.3V89.92L64.7,97.239Z" transform="translate(-54.088 -75.171)" fill="#073262"/>
      <path id="Path_9" data-name="Path 9" d="M21.222,7.373l-5.352,3.712L10.612,7.432,5.347,11.091,0,7.375,10.612,0Z" fill="#ff555f"/>
      <path id="Path_10" data-name="Path 10" d="M5.347,55.994V48.677L0,44.96V59.709l10.612,7.376V59.653Z" transform="translate(0 -37.585)" fill="#00aecf"/>
      <path id="Path_11" data-name="Path 11" d="M64.7,89.89v7.324h0l5.282-3.643Z" transform="translate(-54.088 -75.146)" fill="#00aecf"/>
      <path id="Path_12" data-name="Path 12" d="M75.311,71.244h0L69.957,67.58,64.7,71.239l5.282,3.681,5.329-3.676Z" transform="translate(-54.088 -56.495)" fill="#ff555f"/>
    </g>
  </g>
</svg>
