<svg width="260" height="81" viewBox="0 0 260 81" fill="none" xmlns="http://www.w3.org/2000/svg">
<rect x="0.5" y="0.5" width="259" height="80" rx="9.5" fill="#0B0B0C"/>
<rect x="0.5" y="0.5" width="259" height="80" rx="9.5" stroke="#202328"/>
<path d="M76.302 47V36.78H77.422V41.26H77.45L82.826 36.78H84.282L78.542 41.61L84.422 47H82.966L77.45 41.974H77.422V47H76.302ZM88.9474 47V43.052L84.9154 36.78H86.2034L89.5214 42.03H89.5494L92.8534 36.78H94.1554L90.1094 43.052V47H88.9474ZM99.3654 47.14C98.292 47.14 97.3587 46.93 96.5654 46.51C95.772 46.0807 95.1607 45.474 94.7314 44.69C94.3114 43.906 94.1014 42.9727 94.1014 41.89C94.1014 40.8073 94.3114 39.874 94.7314 39.09C95.1607 38.306 95.772 37.704 96.5654 37.284C97.3587 36.8547 98.292 36.64 99.3654 36.64C100.616 36.64 101.722 36.9293 102.683 37.508L102.389 38.502C101.456 37.942 100.462 37.662 99.4074 37.662C98.558 37.662 97.8207 37.8347 97.1954 38.18C96.5794 38.5253 96.1034 39.0153 95.7674 39.65C95.4314 40.2753 95.2634 41.022 95.2634 41.89C95.2634 42.7487 95.4314 43.4953 95.7674 44.13C96.1034 44.7647 96.5794 45.2547 97.1954 45.6C97.8207 45.9453 98.558 46.118 99.4074 46.118C100.443 46.118 101.437 45.838 102.389 45.278L102.683 46.272C101.722 46.8507 100.616 47.14 99.3654 47.14ZM108.926 47V36.78H110.088V47H108.926ZM112.707 47V39.72H113.785V40.798H113.813C114.103 40.3967 114.467 40.0933 114.905 39.888C115.353 39.6827 115.857 39.58 116.417 39.58C117.304 39.58 117.957 39.846 118.377 40.378C118.797 40.9007 119.007 41.708 119.007 42.8V47H117.901V42.996C117.901 42.156 117.757 41.5353 117.467 41.134C117.178 40.7233 116.735 40.518 116.137 40.518C115.689 40.518 115.288 40.6207 114.933 40.826C114.588 41.022 114.313 41.2973 114.107 41.652C113.911 41.9973 113.813 42.3987 113.813 42.856V47H112.707ZM121.521 47V39.72H122.641V47H121.521ZM122.081 38.334C121.838 38.334 121.638 38.2593 121.479 38.11C121.33 37.9513 121.255 37.746 121.255 37.494C121.255 37.2513 121.33 37.0553 121.479 36.906C121.638 36.7473 121.838 36.668 122.081 36.668C122.333 36.668 122.534 36.7473 122.683 36.906C122.842 37.0553 122.921 37.2513 122.921 37.494C122.921 37.746 122.842 37.9513 122.683 38.11C122.534 38.2593 122.333 38.334 122.081 38.334ZM128.741 47.14C127.901 47.14 127.289 46.958 126.907 46.594C126.533 46.23 126.347 45.6327 126.347 44.802V40.658H124.583V39.72H126.347V37.34H127.467V39.72H130.169V40.658H127.467V44.662C127.467 45.2033 127.579 45.5907 127.803 45.824C128.027 46.048 128.405 46.16 128.937 46.16C129.142 46.16 129.329 46.146 129.497 46.118C129.665 46.0807 129.842 46.0293 130.029 45.964L130.183 46.888C129.94 46.972 129.702 47.0327 129.469 47.07C129.245 47.1167 129.002 47.14 128.741 47.14ZM132.431 47V39.72H133.551V47H132.431ZM132.991 38.334C132.749 38.334 132.548 38.2593 132.389 38.11C132.24 37.9513 132.165 37.746 132.165 37.494C132.165 37.2513 132.24 37.0553 132.389 36.906C132.548 36.7473 132.749 36.668 132.991 36.668C133.243 36.668 133.444 36.7473 133.593 36.906C133.752 37.0553 133.831 37.2513 133.831 37.494C133.831 37.746 133.752 37.9513 133.593 38.11C133.444 38.2593 133.243 38.334 132.991 38.334ZM137.999 47.14C137.262 47.14 136.678 46.944 136.249 46.552C135.82 46.1507 135.605 45.614 135.605 44.942C135.605 44.102 135.946 43.458 136.627 43.01C137.308 42.5527 138.284 42.324 139.553 42.324H140.715C140.715 41.6613 140.561 41.1947 140.253 40.924C139.954 40.6533 139.446 40.518 138.727 40.518C138.232 40.518 137.77 40.5787 137.341 40.7C136.921 40.812 136.496 40.994 136.067 41.246L135.885 40.308C136.324 40.056 136.786 39.874 137.271 39.762C137.756 39.6407 138.284 39.58 138.853 39.58C139.562 39.58 140.132 39.678 140.561 39.874C141 40.0607 141.317 40.364 141.513 40.784C141.718 41.1947 141.821 41.7407 141.821 42.422V47H140.757V46.006H140.715C140.472 46.342 140.094 46.6173 139.581 46.832C139.077 47.0373 138.55 47.14 137.999 47.14ZM138.349 46.23C138.788 46.23 139.184 46.146 139.539 45.978C139.903 45.81 140.188 45.586 140.393 45.306C140.608 45.0167 140.715 44.6993 140.715 44.354V43.178H139.693C138.704 43.178 137.957 43.3227 137.453 43.612C136.949 43.892 136.697 44.3027 136.697 44.844C136.697 45.2733 136.842 45.614 137.131 45.866C137.42 46.1087 137.826 46.23 138.349 46.23ZM146.938 47.14C146.098 47.14 145.487 46.958 145.104 46.594C144.731 46.23 144.544 45.6327 144.544 44.802V40.658H142.78V39.72H144.544V37.34H145.664V39.72H148.366V40.658H145.664V44.662C145.664 45.2033 145.776 45.5907 146 45.824C146.224 46.048 146.602 46.16 147.134 46.16C147.339 46.16 147.526 46.146 147.694 46.118C147.862 46.0807 148.039 46.0293 148.226 45.964L148.38 46.888C148.137 46.972 147.899 47.0327 147.666 47.07C147.442 47.1167 147.199 47.14 146.938 47.14ZM150.629 47V39.72H151.749V47H150.629ZM151.189 38.334C150.946 38.334 150.745 38.2593 150.587 38.11C150.437 37.9513 150.363 37.746 150.363 37.494C150.363 37.2513 150.437 37.0553 150.587 36.906C150.745 36.7473 150.946 36.668 151.189 36.668C151.441 36.668 151.641 36.7473 151.791 36.906C151.949 37.0553 152.029 37.2513 152.029 37.494C152.029 37.746 151.949 37.9513 151.791 38.11C151.641 38.2593 151.441 38.334 151.189 38.334ZM157.47 47.14C156.752 47.14 156.122 46.986 155.58 46.678C155.048 46.37 154.638 45.9313 154.348 45.362C154.068 44.7927 153.928 44.1253 153.928 43.36C153.928 42.5853 154.068 41.918 154.348 41.358C154.638 40.7887 155.048 40.35 155.58 40.042C156.122 39.734 156.752 39.58 157.47 39.58C158.198 39.58 158.824 39.734 159.346 40.042C159.878 40.35 160.289 40.7887 160.578 41.358C160.868 41.918 161.012 42.5853 161.012 43.36C161.012 44.1253 160.868 44.7927 160.578 45.362C160.289 45.9313 159.878 46.37 159.346 46.678C158.824 46.986 158.198 47.14 157.47 47.14ZM157.47 46.202C158.236 46.202 158.833 45.95 159.262 45.446C159.701 44.942 159.92 44.2467 159.92 43.36C159.92 42.464 159.701 41.7687 159.262 41.274C158.833 40.77 158.236 40.518 157.47 40.518C156.705 40.518 156.103 40.77 155.664 41.274C155.235 41.7687 155.02 42.464 155.02 43.36C155.02 44.2467 155.235 44.942 155.664 45.446C156.103 45.95 156.705 46.202 157.47 46.202ZM162.787 47V39.72H163.865V40.798H163.893C164.183 40.3967 164.547 40.0933 164.985 39.888C165.433 39.6827 165.937 39.58 166.497 39.58C167.384 39.58 168.037 39.846 168.457 40.378C168.877 40.9007 169.087 41.708 169.087 42.8V47H167.981V42.996C167.981 42.156 167.837 41.5353 167.547 41.134C167.258 40.7233 166.815 40.518 166.217 40.518C165.769 40.518 165.368 40.6207 165.013 40.826C164.668 41.022 164.393 41.2973 164.187 41.652C163.991 41.9973 163.893 42.3987 163.893 42.856V47H162.787ZM175.355 36.836C175.709 36.7893 176.05 36.752 176.377 36.724C176.713 36.696 177.03 36.6773 177.329 36.668C177.627 36.6493 177.898 36.64 178.141 36.64C179.653 36.64 180.763 36.92 181.473 37.48C182.191 38.0307 182.551 38.894 182.551 40.07C182.551 41.2273 182.201 42.0907 181.501 42.66C180.81 43.22 179.737 43.5 178.281 43.5C177.954 43.5 177.613 43.486 177.259 43.458C176.904 43.4207 176.456 43.3693 175.915 43.304L175.957 42.282C176.489 42.3567 176.918 42.408 177.245 42.436C177.571 42.464 177.879 42.478 178.169 42.478C179.317 42.478 180.143 42.2913 180.647 41.918C181.151 41.5353 181.403 40.9193 181.403 40.07C181.403 39.2207 181.151 38.6093 180.647 38.236C180.143 37.8533 179.317 37.662 178.169 37.662C177.842 37.662 177.483 37.676 177.091 37.704C176.708 37.732 176.311 37.7833 175.901 37.858L176.475 37.242V47H175.355V36.836ZM183.883 47V39.72H184.947L184.961 41.246H184.989C185.204 40.9007 185.479 40.6067 185.815 40.364C186.151 40.112 186.534 39.9207 186.963 39.79C187.392 39.65 187.845 39.58 188.321 39.58V40.56C187.705 40.56 187.145 40.686 186.641 40.938C186.137 41.19 185.736 41.526 185.437 41.946C185.148 42.366 185.003 42.8373 185.003 43.36V47H183.883ZM192.169 47.14C191.451 47.14 190.821 46.986 190.279 46.678C189.747 46.37 189.337 45.9313 189.047 45.362C188.767 44.7927 188.627 44.1253 188.627 43.36C188.627 42.5853 188.767 41.918 189.047 41.358C189.337 40.7887 189.747 40.35 190.279 40.042C190.821 39.734 191.451 39.58 192.169 39.58C192.897 39.58 193.523 39.734 194.045 40.042C194.577 40.35 194.988 40.7887 195.277 41.358C195.567 41.918 195.711 42.5853 195.711 43.36C195.711 44.1253 195.567 44.7927 195.277 45.362C194.988 45.9313 194.577 46.37 194.045 46.678C193.523 46.986 192.897 47.14 192.169 47.14ZM192.169 46.202C192.935 46.202 193.532 45.95 193.961 45.446C194.4 44.942 194.619 44.2467 194.619 43.36C194.619 42.464 194.4 41.7687 193.961 41.274C193.532 40.77 192.935 40.518 192.169 40.518C191.404 40.518 190.802 40.77 190.363 41.274C189.934 41.7687 189.719 42.464 189.719 43.36C189.719 44.2467 189.934 44.942 190.363 45.446C190.802 45.95 191.404 46.202 192.169 46.202ZM200.789 47.14C199.996 47.14 199.314 46.9907 198.745 46.692C198.176 46.384 197.737 45.95 197.429 45.39C197.13 44.8207 196.981 44.144 196.981 43.36C196.981 42.576 197.13 41.904 197.429 41.344C197.737 40.7747 198.176 40.3407 198.745 40.042C199.314 39.734 199.996 39.58 200.789 39.58C201.181 39.58 201.554 39.622 201.909 39.706C202.264 39.7807 202.609 39.9067 202.945 40.084L202.735 40.98C202.418 40.8213 202.105 40.7047 201.797 40.63C201.489 40.5553 201.176 40.518 200.859 40.518C199.991 40.518 199.314 40.77 198.829 41.274C198.344 41.7687 198.101 42.464 198.101 43.36C198.101 44.2467 198.344 44.942 198.829 45.446C199.314 45.95 199.991 46.202 200.859 46.202C201.176 46.202 201.489 46.1647 201.797 46.09C202.105 46.0153 202.418 45.8987 202.735 45.74L202.945 46.636C202.609 46.804 202.264 46.93 201.909 47.014C201.554 47.098 201.181 47.14 200.789 47.14ZM208.018 47.14C206.851 47.14 205.95 46.8133 205.316 46.16C204.681 45.5067 204.364 44.5733 204.364 43.36C204.364 42.184 204.667 41.26 205.274 40.588C205.89 39.916 206.739 39.58 207.822 39.58C208.858 39.58 209.651 39.8973 210.202 40.532C210.752 41.1573 211.028 42.058 211.028 43.234C211.028 43.3273 211.028 43.4253 211.028 43.528C211.028 43.6307 211.023 43.7193 211.014 43.794H204.966V42.898H210.202L209.992 43.192C209.992 42.2867 209.81 41.61 209.446 41.162C209.082 40.714 208.54 40.49 207.822 40.49C207.056 40.49 206.468 40.7327 206.058 41.218C205.647 41.694 205.442 42.3753 205.442 43.262V43.542C205.442 44.4193 205.661 45.082 206.1 45.53C206.538 45.978 207.182 46.202 208.032 46.202C208.48 46.202 208.914 46.146 209.334 46.034C209.754 45.9127 210.132 45.74 210.468 45.516L210.706 46.398C210.351 46.6313 209.94 46.8133 209.474 46.944C209.016 47.0747 208.531 47.14 208.018 47.14ZM214.914 47.14C214.419 47.14 213.938 47.0887 213.472 46.986C213.005 46.8833 212.585 46.7387 212.212 46.552L212.422 45.628C212.814 45.8147 213.215 45.9593 213.626 46.062C214.046 46.1553 214.47 46.202 214.9 46.202C215.497 46.202 215.95 46.104 216.258 45.908C216.566 45.712 216.72 45.4227 216.72 45.04C216.72 44.7787 216.65 44.5687 216.51 44.41C216.37 44.2513 216.164 44.1207 215.894 44.018C215.623 43.9153 215.278 43.8173 214.858 43.724C214.298 43.584 213.817 43.4253 213.416 43.248C213.024 43.0707 212.72 42.8467 212.506 42.576C212.3 42.296 212.198 41.9553 212.198 41.554C212.198 40.9193 212.44 40.434 212.926 40.098C213.42 39.7527 214.111 39.58 214.998 39.58C215.464 39.58 215.926 39.6267 216.384 39.72C216.841 39.8133 217.247 39.9487 217.602 40.126L217.406 41.036C217.06 40.868 216.682 40.742 216.272 40.658C215.861 40.5647 215.45 40.518 215.04 40.518C214.47 40.518 214.041 40.6067 213.752 40.784C213.462 40.9613 213.318 41.2227 213.318 41.568C213.318 41.792 213.383 41.9787 213.514 42.128C213.654 42.2773 213.854 42.4033 214.116 42.506C214.386 42.6087 214.713 42.702 215.096 42.786C215.525 42.8887 215.908 43.0053 216.244 43.136C216.589 43.2573 216.878 43.4067 217.112 43.584C217.345 43.7613 217.522 43.9713 217.644 44.214C217.774 44.4473 217.84 44.7273 217.84 45.054C217.84 45.7167 217.583 46.23 217.07 46.594C216.556 46.958 215.838 47.14 214.914 47.14ZM221.627 47.14C221.132 47.14 220.651 47.0887 220.185 46.986C219.718 46.8833 219.298 46.7387 218.925 46.552L219.135 45.628C219.527 45.8147 219.928 45.9593 220.339 46.062C220.759 46.1553 221.183 46.202 221.613 46.202C222.21 46.202 222.663 46.104 222.971 45.908C223.279 45.712 223.433 45.4227 223.433 45.04C223.433 44.7787 223.363 44.5687 223.223 44.41C223.083 44.2513 222.877 44.1207 222.607 44.018C222.336 43.9153 221.991 43.8173 221.571 43.724C221.011 43.584 220.53 43.4253 220.129 43.248C219.737 43.0707 219.433 42.8467 219.219 42.576C219.013 42.296 218.911 41.9553 218.911 41.554C218.911 40.9193 219.153 40.434 219.639 40.098C220.133 39.7527 220.824 39.58 221.711 39.58C222.177 39.58 222.639 39.6267 223.097 39.72C223.554 39.8133 223.96 39.9487 224.315 40.126L224.119 41.036C223.773 40.868 223.395 40.742 222.985 40.658C222.574 40.5647 222.163 40.518 221.753 40.518C221.183 40.518 220.754 40.6067 220.465 40.784C220.175 40.9613 220.031 41.2227 220.031 41.568C220.031 41.792 220.096 41.9787 220.227 42.128C220.367 42.2773 220.567 42.4033 220.829 42.506C221.099 42.6087 221.426 42.702 221.809 42.786C222.238 42.8887 222.621 43.0053 222.957 43.136C223.302 43.2573 223.591 43.4067 223.825 43.584C224.058 43.7613 224.235 43.9713 224.357 44.214C224.487 44.4473 224.553 44.7273 224.553 45.054C224.553 45.7167 224.296 46.23 223.783 46.594C223.269 46.958 222.551 47.14 221.627 47.14Z" fill="#747A8E"/>
<g clip-path="url(#clip0_465_11595)">
<path d="M34.5 15C20.4391 15 9 26.4393 9 40.5C9 54.5607 20.4391 66 34.5 66C48.5609 66 60 54.5607 60 40.5C60 26.4393 48.5609 15 34.5 15ZM57.4514 33.8262C56.2121 33.4198 54.853 33.8686 53.8302 34.2081C53.5959 34.2858 53.2983 34.3846 53.1026 34.4314C52.3054 33.5423 51.0463 33.165 50.0805 33.112C49.3101 33.0685 48.5844 33.3829 48.0879 33.9712C47.5859 34.5653 47.3968 35.3404 47.5689 36.0981C47.6468 36.4425 47.7973 36.7714 47.9299 37.0615C48.0164 37.2493 48.1541 37.5508 48.177 37.697C48.1431 37.7181 48.0809 37.751 47.9742 37.787C47.6636 37.8934 46.8882 37.7163 46.4952 37.4488C46.1999 37.2482 45.5084 36.779 44.652 37.0699C43.9095 37.3221 43.3521 38.0066 43.1602 38.9007C42.8785 40.2115 43.6081 40.9897 44.252 41.6764C44.3528 41.7836 44.4566 41.8943 44.5605 42.0111C45.2738 42.8109 46.2115 43.1492 47.0386 43.4476C47.1604 43.4917 47.2823 43.5353 47.4032 43.5809C47.3616 43.6536 47.3175 43.7254 47.2904 43.7698C47.1912 43.9311 47.0936 44.0969 46.9956 44.2634C46.8221 44.5575 46.6428 44.8615 46.4605 45.1294C46.2294 45.4705 45.9718 45.7996 45.6999 46.1481C45.0737 46.9493 44.4263 47.7779 44.0517 48.8182C43.7304 49.7079 43.6573 50.6068 43.5864 51.4758C43.5342 52.116 43.4848 52.7207 43.3409 53.2932C43.2067 53.8295 42.8678 54.2812 42.4395 54.8151C41.7308 55.6964 40.7589 56.4526 39.9018 57.0762C39.298 57.5153 38.4633 57.9189 37.9116 57.3455C37.2821 56.6909 36.8291 55.7301 36.5645 54.4899C36.4603 53.9997 36.4424 53.4685 36.4237 52.9061C36.398 52.1354 36.3711 51.3383 36.1171 50.5554C36.0194 50.2537 35.8808 49.9834 35.7587 49.7447C35.5537 49.3439 35.4292 49.0849 35.4553 48.8194C35.5919 47.4318 35.2483 46.3548 34.4343 45.6183C33.0098 44.329 30.6593 44.6772 30.2616 44.7475C29.3251 44.8111 28.5487 44.4479 27.5738 43.9891L27.3293 43.8746C25.7637 43.144 25.162 41.8262 25.3792 39.6019C25.5947 37.3976 27.3795 35.3195 29.5301 34.7685C31.5406 34.2535 33.4854 34.7571 35.8186 35.4685C36.3388 35.6275 37.5144 35.7454 39.6303 35.8506L39.7536 35.8568C40.9334 35.9178 41.838 35.6674 42.4496 35.1121C43.0877 34.5336 43.1497 33.8557 43.1543 33.7461C43.2399 32.5446 42.9285 31.5589 42.2289 30.8162C40.9164 29.4222 38.5947 29.2852 36.9602 29.3041C36.5336 29.3089 36.0846 29.3422 35.6505 29.3746C34.6715 29.4473 33.6595 29.5226 32.859 29.2818C32.7373 29.2451 32.6777 29.2159 32.6509 29.1997C32.6256 28.9334 32.7628 28.7827 33.4192 28.3558C33.7458 28.1433 34.0834 27.9235 34.3524 27.6129C35.0949 26.7551 35.1726 25.4263 35.1979 24.9898L35.1999 24.9621C35.2007 24.9562 35.2014 24.9498 35.2022 24.9438C35.3023 24.1443 37.503 23.879 38.987 24.0001C39.0189 24.0027 39.0515 24.0031 39.0834 24.0031C39.9753 24.0031 40.4616 23.5935 40.713 23.2469C41.4364 22.2502 41.0025 20.7182 40.8752 20.3303C40.5058 18.7575 41.3067 17.8466 41.5107 17.645C49.1754 20.0008 55.2052 26.1152 57.4514 33.8268V33.8262ZM20.5131 21.1304C20.624 21.6111 20.7053 22.3269 20.7422 22.6558C20.7728 22.9295 20.8001 23.1656 20.8278 23.3258C20.9422 23.9939 21.0372 24.6952 20.832 25.2789C20.6021 25.9331 20.0784 26.4105 19.0807 26.8746C18.9157 26.9517 18.7512 27.026 18.588 27.0999C17.4891 27.5976 16.353 28.1122 15.416 29.2087C14.6732 30.0773 13.5129 30.9686 12.8461 30.9371C12.7766 30.9345 12.7027 30.9192 12.6248 30.8734C14.3506 26.9669 17.0915 23.608 20.5131 21.1304ZM10.8615 36.9288C11.8931 36.9949 14.0763 37.2968 14.161 38.6656C14.0645 39.888 14.0797 41.0642 14.2058 42.1627C14.3988 43.8331 15.6065 44.8591 16.6719 45.7642C17.6411 46.5875 18.478 47.2985 18.5571 48.3496C18.5992 48.9048 18.3864 49.4866 18.1615 50.1023C18.0125 50.5095 17.8587 50.9305 17.7626 51.3801L17.7439 51.4674C17.5909 52.1828 17.4327 52.9225 17.5835 53.7564C17.7469 54.6573 17.6457 55.4316 17.3194 55.7775C17.1247 55.9835 16.7926 56.063 16.343 56.0251C12.7632 51.8447 10.5938 46.4226 10.5938 40.5004C10.5938 39.2868 10.6862 38.0946 10.8615 36.9292V36.9288ZM25.5352 62.6555C27.4849 61.712 32.0765 60.2207 36.1924 64.3397C35.6326 64.3792 35.0696 64.4062 34.5 64.4062C31.3304 64.4062 28.3055 63.7807 25.5352 62.6555ZM38.1545 64.1269C32.0325 56.8302 24.3285 61.46 23.735 61.8351C21.4757 60.6904 19.4189 59.2025 17.6409 57.4322C18.0131 57.2832 18.2872 57.0734 18.4774 56.872C19.4552 55.8373 19.2743 54.1493 19.1514 53.4719C19.0564 52.948 19.1705 52.4165 19.302 51.8009L19.3211 51.7128C19.3934 51.3726 19.5219 51.0213 19.658 50.6496C19.9188 49.9366 20.214 49.1284 20.1459 48.2299C20.0174 46.5152 18.7884 45.4709 17.7035 44.5495C16.7408 43.7319 15.9097 43.0257 15.7892 41.9802C15.6728 40.9702 15.6607 39.8814 15.7533 38.7445C15.7561 38.7146 15.7565 38.6843 15.7557 38.6542C15.6959 36.7876 13.9892 35.5745 11.1579 35.3516C11.3839 34.327 11.6711 33.3253 12.0241 32.3543C12.2602 32.4587 12.5154 32.5197 12.7875 32.5297C12.8156 32.5309 12.8431 32.5312 12.8712 32.5312C14.5829 32.5312 16.2964 30.6311 16.6273 30.2444C17.3339 29.4177 18.2198 29.0164 19.2456 28.5519C19.4138 28.4758 19.5833 28.3989 19.7534 28.3196C20.6254 27.9138 21.8416 27.2117 22.3355 25.8078C22.6674 24.8639 22.5421 23.8927 22.3985 23.0566C22.3747 22.9183 22.3526 22.7145 22.3261 22.4785C22.2223 21.5551 22.1142 20.7698 21.8863 20.2054C24.5737 18.529 27.6136 17.3673 30.8706 16.8691C30.9011 17.0101 30.9159 17.2554 30.9133 17.6118L30.9129 17.7528C30.9174 18.5029 30.8945 19.0155 30.5435 19.2973C30.2738 19.5135 29.8941 19.6536 29.4926 19.8018C29.2739 19.8825 29.0565 19.9633 28.848 20.056C27.8993 20.4783 26.8199 20.9955 26.0177 21.7926C25.3648 22.4406 25.1776 23.0825 25.4612 23.6999C25.5955 23.9921 25.8842 24.1643 26.1858 24.1643C26.2972 24.1643 26.4103 24.1408 26.5181 24.0913C26.8835 23.9236 27.0614 23.5144 26.9492 23.1401C26.9773 23.0992 27.0325 23.0309 27.1407 22.9235C27.7515 22.3167 28.6768 21.8768 29.4958 21.5121C29.6733 21.4332 29.8584 21.3656 30.0445 21.2969C30.5246 21.1196 31.0691 20.919 31.541 20.5403C32.5196 19.7548 32.5122 18.5917 32.5068 17.7416L32.5072 17.6233C32.5092 17.3707 32.5082 17.0292 32.4532 16.6874C33.1286 16.6298 33.8101 16.5938 34.5002 16.5938C36.3388 16.5938 38.1268 16.8093 39.8472 17.2042C39.3898 17.9295 38.9402 19.1194 39.334 20.7379C39.3394 20.76 39.3464 20.7837 39.3536 20.8054C39.5279 21.3238 39.599 22.0695 39.4233 22.3107C39.3759 22.3757 39.2629 22.4087 39.0878 22.4089C38.4298 22.3577 33.951 22.1057 33.621 24.7458L33.6242 24.7462C33.6161 24.793 33.6103 24.843 33.6071 24.8964C33.5479 25.9086 33.3246 26.3648 33.1479 26.5692C33.0262 26.7099 32.7841 26.8673 32.5502 27.0197C31.9078 27.4376 30.937 28.0693 31.0655 29.3597C31.1366 30.0753 31.5856 30.5622 32.3996 30.8076C33.4832 31.1335 34.698 31.0435 35.7688 30.9638C36.1971 30.9319 36.602 30.9016 36.9781 30.8977C39.0601 30.873 40.406 31.2047 41.069 31.9087C41.4557 32.3195 41.6181 32.8833 41.5655 33.6218C41.5549 33.6963 41.4185 34.3477 39.8359 34.2651L39.7094 34.2589C37.2191 34.135 36.4946 34.0087 36.2838 33.9443C34.2577 33.3267 31.7356 32.5579 29.1344 33.2247C26.3213 33.9455 24.0751 36.5622 23.793 39.4469C23.5081 42.3665 24.4444 44.2871 26.6548 45.3189L26.8948 45.4315C28.0015 45.952 29.047 46.4437 30.4274 46.3333C30.4569 46.3309 30.4889 46.3266 30.518 46.3208C31.0495 46.217 32.5971 46.1016 33.3674 46.8027C33.79 47.1874 33.9541 47.796 33.8691 48.6634C33.7956 49.4081 34.0974 49.9976 34.3398 50.4713C34.444 50.6745 34.5422 50.8661 34.6006 51.0468C34.7859 51.6168 34.8076 52.269 34.8305 52.9597C34.8508 53.5666 34.8717 54.1941 35.0056 54.8224C35.3329 56.3576 35.9242 57.5784 36.7627 58.4506C37.2596 58.9672 37.8752 59.2248 38.5529 59.2248C39.2685 59.2248 40.0528 58.9379 40.8393 58.3655C41.7814 57.6806 42.8556 56.8415 43.6818 55.8139C44.0934 55.3012 44.6572 54.5985 44.8869 53.6819C45.0628 52.9819 45.12 52.2826 45.1747 51.606C45.2401 50.8058 45.3016 50.0499 45.5511 49.3597C45.8393 48.5588 46.3818 47.8649 46.9558 47.1302C47.2325 46.7764 47.5183 46.4104 47.7795 46.0255C47.9901 45.7157 48.1821 45.3896 48.3686 45.0739C48.462 44.9155 48.5551 44.7577 48.6487 44.6045C48.9013 44.1935 49.2472 43.6301 49.0386 43.0072C48.9513 42.7462 48.7292 42.3888 48.1658 42.1673C47.9724 42.0912 47.7759 42.0202 47.5799 41.9493C46.8368 41.6812 46.1951 41.4497 45.7503 40.9512C45.6371 40.8241 45.5242 40.7036 45.4148 40.5871C44.7747 39.9043 44.6225 39.6826 44.7183 39.2364C44.7723 38.9851 44.9215 38.6624 45.165 38.5797C45.2202 38.5618 45.3108 38.572 45.5993 38.7678C46.2149 39.1864 47.5179 39.627 48.4887 39.2965C49.074 39.0971 49.4657 38.7746 49.6542 38.3379C49.951 37.6478 49.6339 36.9555 49.3794 36.3991C49.2737 36.1686 49.1647 35.9303 49.1231 35.7468C49.0627 35.4813 49.1292 35.2093 49.3055 35.0008C49.4063 34.8814 49.6251 34.6812 49.9934 34.7045C50.6977 34.743 51.5946 35.0394 52.0113 35.614C52.5253 36.322 53.4031 36.0301 54.3322 35.7217C55.2092 35.4307 56.4105 35.0322 57.1605 35.4257C57.5554 35.6325 57.8431 36.0602 58.0403 36.733C58.0628 36.8097 58.0987 36.878 58.1401 36.9416C58.3142 38.1032 58.4062 39.2915 58.4062 40.501C58.4062 52.4406 49.608 62.3635 38.1545 64.1279V64.1269Z" fill="url(#paint0_linear_465_11595)"/>
</g>
<defs>
<linearGradient id="paint0_linear_465_11595" x1="34.5" y1="15" x2="34.5" y2="66" gradientUnits="userSpaceOnUse">
<stop stop-color="#393039"/>
<stop offset="1" stop-color="#404D76"/>
</linearGradient>
<clipPath id="clip0_465_11595">
<rect width="51" height="51" fill="white" transform="translate(9 15)"/>
</clipPath>
</defs>
</svg>
