<svg width="71" height="71" viewBox="0 0 71 71" fill="none" xmlns="http://www.w3.org/2000/svg">
<rect x="0.5" y="0.5" width="70" height="70" rx="4.5" fill="#101114"/>
<rect x="0.5" y="0.5" width="70" height="70" rx="4.5" stroke="#292A36"/>
<path d="M27.4103 33.12C26.4903 33.12 25.6903 32.936 25.0103 32.568C24.3383 32.2 23.8183 31.68 23.4503 31.008C23.0823 30.336 22.8983 29.54 22.8983 28.62C22.8983 27.7 23.0823 26.904 23.4503 26.232C23.8183 25.56 24.3383 25.04 25.0103 24.672C25.6903 24.304 26.4903 24.12 27.4103 24.12C28.3383 24.12 29.1383 24.304 29.8103 24.672C30.4823 25.04 31.0023 25.56 31.3703 26.232C31.7383 26.904 31.9223 27.7 31.9223 28.62C31.9223 29.54 31.7383 30.336 31.3703 31.008C31.0023 31.68 30.4823 32.2 29.8103 32.568C29.1383 32.936 28.3383 33.12 27.4103 33.12ZM27.4103 31.788C28.0263 31.788 28.5543 31.66 28.9943 31.404C29.4423 31.148 29.7863 30.784 30.0263 30.312C30.2663 29.84 30.3863 29.276 30.3863 28.62C30.3863 27.964 30.2663 27.4 30.0263 26.928C29.7863 26.456 29.4423 26.092 28.9943 25.836C28.5543 25.58 28.0263 25.452 27.4103 25.452C26.7863 25.452 26.2503 25.58 25.8023 25.836C25.3623 26.092 25.0223 26.456 24.7823 26.928C24.5503 27.4 24.4343 27.964 24.4343 28.62C24.4343 29.276 24.5503 29.84 24.7823 30.312C25.0223 30.784 25.3623 31.148 25.8023 31.404C26.2503 31.66 26.7863 31.788 27.4103 31.788ZM37.5955 33.12C36.6435 33.12 35.8235 32.94 35.1355 32.58C34.4475 32.22 33.9195 31.704 33.5515 31.032C33.1915 30.36 33.0115 29.556 33.0115 28.62C33.0115 27.676 33.1915 26.872 33.5515 26.208C33.9195 25.536 34.4475 25.02 35.1355 24.66C35.8235 24.3 36.6435 24.12 37.5955 24.12C38.6835 24.12 39.6475 24.356 40.4875 24.828L40.1395 26.148C39.3235 25.684 38.4915 25.452 37.6435 25.452C37.0115 25.452 36.4635 25.58 35.9995 25.836C35.5355 26.084 35.1795 26.444 34.9315 26.916C34.6835 27.388 34.5595 27.956 34.5595 28.62C34.5595 29.276 34.6835 29.844 34.9315 30.324C35.1795 30.796 35.5355 31.16 35.9995 31.416C36.4635 31.664 37.0115 31.788 37.6435 31.788C38.4675 31.788 39.2995 31.556 40.1395 31.092L40.4875 32.412C39.6475 32.884 38.6835 33.12 37.5955 33.12ZM42.2454 24.288C42.5334 24.256 42.8374 24.228 43.1574 24.204C43.4774 24.18 43.7934 24.16 44.1054 24.144C44.4174 24.128 44.6974 24.12 44.9454 24.12C46.2414 24.12 47.1894 24.34 47.7894 24.78C48.3974 25.22 48.7014 25.916 48.7014 26.868C48.7014 27.82 48.3974 28.516 47.7894 28.956C47.1894 29.396 46.2414 29.616 44.9454 29.616C44.6414 29.616 44.2974 29.604 43.9134 29.58C43.5374 29.556 43.1734 29.528 42.8214 29.496L43.0374 28.212C43.4534 28.26 43.8214 28.3 44.1414 28.332C44.4694 28.356 44.7614 28.368 45.0174 28.368C45.7774 28.368 46.3254 28.252 46.6614 28.02C47.0054 27.78 47.1774 27.408 47.1774 26.904C47.1774 26.384 47.0054 26.012 46.6614 25.788C46.3254 25.556 45.7774 25.44 45.0174 25.44C44.7614 25.44 44.4694 25.452 44.1414 25.476C43.8214 25.5 43.4534 25.54 43.0374 25.596L43.7454 24.804V33H42.2454V24.288ZM47.3094 33L43.0734 28.896H44.8974L49.2054 33H47.3094ZM27.1521 47V39.572H24.2601V38.24H31.6041V39.572H28.7001V47H27.1521ZM33.7816 47.12C33.1416 47.12 32.5816 46.988 32.1016 46.724C31.6296 46.46 31.2656 46.084 31.0096 45.596C30.7536 45.108 30.6256 44.536 30.6256 43.88C30.6256 43.216 30.7536 42.644 31.0096 42.164C31.2656 41.676 31.6296 41.3 32.1016 41.036C32.5816 40.772 33.1416 40.64 33.7816 40.64C34.4296 40.64 34.9896 40.772 35.4616 41.036C35.9336 41.3 36.2976 41.676 36.5536 42.164C36.8176 42.644 36.9496 43.216 36.9496 43.88C36.9496 44.536 36.8176 45.108 36.5536 45.596C36.2976 46.084 35.9336 46.46 35.4616 46.724C34.9896 46.988 34.4296 47.12 33.7816 47.12ZM33.7816 45.944C34.3176 45.944 34.7336 45.764 35.0296 45.404C35.3256 45.044 35.4736 44.536 35.4736 43.88C35.4736 43.216 35.3256 42.708 35.0296 42.356C34.7336 41.996 34.3176 41.816 33.7816 41.816C33.2456 41.816 32.8296 41.996 32.5336 42.356C32.2376 42.708 32.0896 43.216 32.0896 43.88C32.0896 44.536 32.2376 45.044 32.5336 45.404C32.8296 45.764 33.2456 45.944 33.7816 45.944ZM41.0473 47.12C40.4073 47.12 39.8473 46.988 39.3673 46.724C38.8953 46.46 38.5313 46.084 38.2753 45.596C38.0193 45.108 37.8913 44.536 37.8913 43.88C37.8913 43.216 38.0193 42.644 38.2753 42.164C38.5313 41.676 38.8953 41.3 39.3673 41.036C39.8473 40.772 40.4073 40.64 41.0473 40.64C41.6953 40.64 42.2553 40.772 42.7273 41.036C43.1993 41.3 43.5633 41.676 43.8193 42.164C44.0833 42.644 44.2153 43.216 44.2153 43.88C44.2153 44.536 44.0833 45.108 43.8193 45.596C43.5633 46.084 43.1993 46.46 42.7273 46.724C42.2553 46.988 41.6953 47.12 41.0473 47.12ZM41.0473 45.944C41.5833 45.944 41.9993 45.764 42.2953 45.404C42.5913 45.044 42.7393 44.536 42.7393 43.88C42.7393 43.216 42.5913 42.708 42.2953 42.356C41.9993 41.996 41.5833 41.816 41.0473 41.816C40.5113 41.816 40.0953 41.996 39.7993 42.356C39.5033 42.708 39.3553 43.216 39.3553 43.88C39.3553 44.536 39.5033 45.044 39.7993 45.404C40.0953 45.764 40.5113 45.944 41.0473 45.944ZM45.6263 47V38.24H47.1143V47H45.6263Z" fill="#76778C"/>
</svg>
