<svg width="81" height="71" viewBox="0 0 81 71" fill="none" xmlns="http://www.w3.org/2000/svg">
<rect x="0.5" y="0.5" width="80" height="70" rx="4.5" fill="#101114"/>
<rect x="0.5" y="0.5" width="80" height="70" rx="4.5" stroke="#292A36"/>
<path d="M12.4896 25.288C12.7936 25.248 13.1016 25.216 13.4136 25.192C13.7336 25.168 14.0336 25.152 14.3136 25.144C14.6016 25.128 14.8536 25.12 15.0696 25.12C16.3896 25.12 17.3656 25.372 17.9976 25.876C18.6296 26.38 18.9456 27.152 18.9456 28.192C18.9456 29.216 18.6416 29.984 18.0336 30.496C17.4256 31.008 16.5096 31.264 15.2856 31.264C15.0136 31.264 14.7176 31.252 14.3976 31.228C14.0776 31.196 13.6896 31.152 13.2336 31.096L13.2576 29.788C13.6976 29.844 14.0576 29.888 14.3376 29.92C14.6256 29.944 14.8816 29.956 15.1056 29.956C15.9216 29.956 16.5096 29.816 16.8696 29.536C17.2376 29.256 17.4216 28.808 17.4216 28.192C17.4216 27.568 17.2376 27.12 16.8696 26.848C16.5096 26.576 15.9216 26.44 15.1056 26.44C14.8496 26.44 14.5616 26.452 14.2416 26.476C13.9296 26.5 13.6096 26.54 13.2816 26.596L13.9896 25.804V34H12.4896V25.288ZM22.4184 34.12C21.7784 34.12 21.2184 33.988 20.7384 33.724C20.2664 33.46 19.9024 33.084 19.6464 32.596C19.3904 32.108 19.2624 31.536 19.2624 30.88C19.2624 30.216 19.3904 29.644 19.6464 29.164C19.9024 28.676 20.2664 28.3 20.7384 28.036C21.2184 27.772 21.7784 27.64 22.4184 27.64C23.0664 27.64 23.6264 27.772 24.0984 28.036C24.5704 28.3 24.9344 28.676 25.1904 29.164C25.4544 29.644 25.5864 30.216 25.5864 30.88C25.5864 31.536 25.4544 32.108 25.1904 32.596C24.9344 33.084 24.5704 33.46 24.0984 33.724C23.6264 33.988 23.0664 34.12 22.4184 34.12ZM22.4184 32.944C22.9544 32.944 23.3704 32.764 23.6664 32.404C23.9624 32.044 24.1104 31.536 24.1104 30.88C24.1104 30.216 23.9624 29.708 23.6664 29.356C23.3704 28.996 22.9544 28.816 22.4184 28.816C21.8824 28.816 21.4664 28.996 21.1704 29.356C20.8744 29.708 20.7264 30.216 20.7264 30.88C20.7264 31.536 20.8744 32.044 21.1704 32.404C21.4664 32.764 21.8824 32.944 22.4184 32.944ZM28.9294 34.12C28.4894 34.12 28.0574 34.076 27.6334 33.988C27.2174 33.9 26.8374 33.776 26.4934 33.616L26.7094 32.452C27.0854 32.612 27.4574 32.736 27.8254 32.824C28.1934 32.904 28.5534 32.944 28.9054 32.944C29.3134 32.944 29.6174 32.888 29.8174 32.776C30.0174 32.656 30.1174 32.48 30.1174 32.248C30.1174 32.104 30.0814 31.984 30.0094 31.888C29.9374 31.792 29.8094 31.708 29.6254 31.636C29.4494 31.556 29.1974 31.48 28.8694 31.408C28.3094 31.272 27.8534 31.116 27.5014 30.94C27.1494 30.756 26.8894 30.54 26.7214 30.292C26.5534 30.044 26.4694 29.752 26.4694 29.416C26.4694 28.84 26.6894 28.4 27.1294 28.096C27.5774 27.792 28.2214 27.64 29.0614 27.64C29.4774 27.64 29.8814 27.68 30.2734 27.76C30.6654 27.832 31.0414 27.948 31.4014 28.108L31.1974 29.26C30.8534 29.108 30.5054 28.996 30.1534 28.924C29.8094 28.852 29.4654 28.816 29.1214 28.816C28.7294 28.816 28.4374 28.868 28.2454 28.972C28.0614 29.068 27.9694 29.224 27.9694 29.44C27.9694 29.56 28.0054 29.668 28.0774 29.764C28.1574 29.86 28.2854 29.944 28.4614 30.016C28.6374 30.088 28.8734 30.16 29.1694 30.232C29.5934 30.328 29.9574 30.44 30.2614 30.568C30.5734 30.696 30.8254 30.844 31.0174 31.012C31.2174 31.18 31.3654 31.368 31.4614 31.576C31.5574 31.776 31.6054 32.004 31.6054 32.26C31.6054 32.852 31.3694 33.312 30.8974 33.64C30.4334 33.96 29.7774 34.12 28.9294 34.12ZM35.794 34.12C35.026 34.12 34.466 33.96 34.114 33.64C33.77 33.312 33.598 32.784 33.598 32.056V28.936H32.206V27.76H33.598V25.72H35.074V27.76H37.186V28.936H35.074V31.852C35.074 32.22 35.154 32.484 35.314 32.644C35.474 32.796 35.738 32.872 36.106 32.872C36.258 32.872 36.41 32.86 36.562 32.836C36.714 32.804 36.866 32.76 37.018 32.704L37.186 33.892C36.938 33.972 36.706 34.028 36.49 34.06C36.274 34.1 36.042 34.12 35.794 34.12ZM40.8552 36.64C40.3592 36.64 39.9072 36.584 39.4992 36.472C39.0912 36.36 38.7352 36.192 38.4312 35.968L38.7072 34.816C39.0272 35.04 39.3472 35.204 39.6672 35.308C39.9952 35.412 40.3512 35.464 40.7352 35.464C41.4152 35.464 41.9152 35.288 42.2352 34.936C42.5552 34.592 42.7152 34.052 42.7152 33.316V32.956H42.6912C42.4512 33.22 42.1592 33.42 41.8152 33.556C41.4792 33.692 41.1072 33.76 40.6992 33.76C39.8672 33.76 39.2192 33.492 38.7552 32.956C38.2912 32.42 38.0592 31.668 38.0592 30.7C38.0592 29.732 38.2912 28.98 38.7552 28.444C39.2192 27.908 39.8672 27.64 40.6992 27.64C41.1152 27.64 41.4992 27.712 41.8512 27.856C42.2112 27.992 42.5072 28.188 42.7392 28.444H42.7632L42.7752 27.76H44.1672V33.316C44.1672 34.42 43.8912 35.248 43.3392 35.8C42.7872 36.36 41.9592 36.64 40.8552 36.64ZM41.0832 32.56C41.4032 32.56 41.6832 32.504 41.9232 32.392C42.1632 32.28 42.3552 32.128 42.4992 31.936C42.6432 31.744 42.7152 31.52 42.7152 31.264V30.136C42.7152 29.888 42.6432 29.668 42.4992 29.476C42.3552 29.276 42.1632 29.12 41.9232 29.008C41.6832 28.896 41.4032 28.84 41.0832 28.84C40.5872 28.84 40.1992 29.004 39.9192 29.332C39.6392 29.652 39.4992 30.108 39.4992 30.7C39.4992 31.3 39.6392 31.76 39.9192 32.08C40.1992 32.4 40.5872 32.56 41.0832 32.56ZM45.9326 34V27.76H47.3486L47.3606 28.936H47.3846C47.5926 28.664 47.8366 28.432 48.1166 28.24C48.4046 28.04 48.7206 27.892 49.0646 27.796C49.4086 27.692 49.7686 27.64 50.1446 27.64V28.912C49.6406 28.912 49.1806 29.008 48.7646 29.2C48.3566 29.392 48.0286 29.652 47.7806 29.98C47.5406 30.3 47.4206 30.66 47.4206 31.06V34H45.9326ZM53.7462 34.12C52.6822 34.12 51.8622 33.84 51.2862 33.28C50.7182 32.72 50.4342 31.92 50.4342 30.88C50.4342 29.872 50.7062 29.08 51.2502 28.504C51.8022 27.928 52.5542 27.64 53.5062 27.64C54.4262 27.64 55.1382 27.912 55.6422 28.456C56.1462 29 56.3982 29.772 56.3982 30.772C56.3982 30.884 56.3942 31.008 56.3862 31.144C56.3782 31.28 56.3702 31.38 56.3622 31.444H51.2502V30.376H55.2342L55.0182 30.7C55.0182 30.044 54.8902 29.56 54.6342 29.248C54.3862 28.928 54.0102 28.768 53.5062 28.768C52.9702 28.768 52.5622 28.936 52.2822 29.272C52.0102 29.6 51.8742 30.088 51.8742 30.736V31.156C51.8742 31.748 52.0302 32.196 52.3422 32.5C52.6622 32.796 53.1342 32.944 53.7582 32.944C54.1262 32.944 54.4942 32.896 54.8622 32.8C55.2302 32.704 55.5622 32.572 55.8582 32.404L56.0862 33.556C55.7822 33.732 55.4262 33.872 55.0182 33.976C54.6182 34.072 54.1942 34.12 53.7462 34.12ZM59.7263 34.12C59.2863 34.12 58.8543 34.076 58.4303 33.988C58.0143 33.9 57.6343 33.776 57.2903 33.616L57.5063 32.452C57.8823 32.612 58.2543 32.736 58.6223 32.824C58.9903 32.904 59.3503 32.944 59.7023 32.944C60.1103 32.944 60.4143 32.888 60.6143 32.776C60.8143 32.656 60.9143 32.48 60.9143 32.248C60.9143 32.104 60.8783 31.984 60.8063 31.888C60.7343 31.792 60.6063 31.708 60.4223 31.636C60.2463 31.556 59.9943 31.48 59.6663 31.408C59.1063 31.272 58.6503 31.116 58.2983 30.94C57.9463 30.756 57.6863 30.54 57.5183 30.292C57.3503 30.044 57.2663 29.752 57.2663 29.416C57.2663 28.84 57.4863 28.4 57.9263 28.096C58.3743 27.792 59.0183 27.64 59.8583 27.64C60.2743 27.64 60.6783 27.68 61.0703 27.76C61.4623 27.832 61.8383 27.948 62.1983 28.108L61.9943 29.26C61.6503 29.108 61.3023 28.996 60.9503 28.924C60.6063 28.852 60.2623 28.816 59.9183 28.816C59.5263 28.816 59.2343 28.868 59.0423 28.972C58.8583 29.068 58.7663 29.224 58.7663 29.44C58.7663 29.56 58.8023 29.668 58.8743 29.764C58.9543 29.86 59.0823 29.944 59.2583 30.016C59.4343 30.088 59.6703 30.16 59.9663 30.232C60.3903 30.328 60.7543 30.44 61.0583 30.568C61.3703 30.696 61.6223 30.844 61.8143 31.012C62.0143 31.18 62.1623 31.368 62.2583 31.576C62.3543 31.776 62.4023 32.004 62.4023 32.26C62.4023 32.852 62.1663 33.312 61.6943 33.64C61.2303 33.96 60.5743 34.12 59.7263 34.12ZM65.656 34.12C65.216 34.12 64.784 34.076 64.36 33.988C63.944 33.9 63.564 33.776 63.22 33.616L63.436 32.452C63.812 32.612 64.184 32.736 64.552 32.824C64.92 32.904 65.28 32.944 65.632 32.944C66.04 32.944 66.344 32.888 66.544 32.776C66.744 32.656 66.844 32.48 66.844 32.248C66.844 32.104 66.808 31.984 66.736 31.888C66.664 31.792 66.536 31.708 66.352 31.636C66.176 31.556 65.924 31.48 65.596 31.408C65.036 31.272 64.58 31.116 64.228 30.94C63.876 30.756 63.616 30.54 63.448 30.292C63.28 30.044 63.196 29.752 63.196 29.416C63.196 28.84 63.416 28.4 63.856 28.096C64.304 27.792 64.948 27.64 65.788 27.64C66.204 27.64 66.608 27.68 67 27.76C67.392 27.832 67.768 27.948 68.128 28.108L67.924 29.26C67.58 29.108 67.232 28.996 66.88 28.924C66.536 28.852 66.192 28.816 65.848 28.816C65.456 28.816 65.164 28.868 64.972 28.972C64.788 29.068 64.696 29.224 64.696 29.44C64.696 29.56 64.732 29.668 64.804 29.764C64.884 29.86 65.012 29.944 65.188 30.016C65.364 30.088 65.6 30.16 65.896 30.232C66.32 30.328 66.684 30.44 66.988 30.568C67.3 30.696 67.552 30.844 67.744 31.012C67.944 31.18 68.092 31.368 68.188 31.576C68.284 31.776 68.332 32.004 68.332 32.26C68.332 32.852 68.096 33.312 67.624 33.64C67.16 33.96 66.504 34.12 65.656 34.12ZM31.1282 48.12C30.5522 48.12 29.9842 48.06 29.4242 47.94C28.8722 47.812 28.4082 47.648 28.0322 47.448L28.3922 46.104C28.6642 46.24 28.9602 46.36 29.2802 46.464C29.6002 46.568 29.9282 46.648 30.2642 46.704C30.6002 46.76 30.9202 46.788 31.2242 46.788C31.8002 46.788 32.2402 46.688 32.5442 46.488C32.8562 46.28 33.0122 45.984 33.0122 45.6C33.0122 45.392 32.9642 45.216 32.8682 45.072C32.7722 44.928 32.6282 44.804 32.4362 44.7C32.2522 44.588 32.0202 44.488 31.7402 44.4C31.4602 44.304 31.1402 44.208 30.7802 44.112C30.3642 44 29.9882 43.872 29.6522 43.728C29.3242 43.576 29.0402 43.4 28.8002 43.2C28.5602 42.992 28.3762 42.752 28.2482 42.48C28.1202 42.2 28.0562 41.88 28.0562 41.52C28.0562 40.744 28.3482 40.152 28.9322 39.744C29.5162 39.328 30.3442 39.12 31.4162 39.12C31.9602 39.12 32.4962 39.172 33.0242 39.276C33.5602 39.372 34.0162 39.504 34.3922 39.672L34.0202 41.016C33.6522 40.84 33.2362 40.704 32.7722 40.608C32.3082 40.504 31.8522 40.452 31.4042 40.452C30.8202 40.452 30.3762 40.544 30.0722 40.728C29.7682 40.912 29.6162 41.18 29.6162 41.532C29.6162 41.732 29.6602 41.904 29.7482 42.048C29.8362 42.192 29.9682 42.316 30.1442 42.42C30.3202 42.524 30.5362 42.62 30.7922 42.708C31.0482 42.796 31.3522 42.888 31.7042 42.984C32.1442 43.112 32.5402 43.252 32.8922 43.404C33.2522 43.548 33.5562 43.72 33.8042 43.92C34.0522 44.12 34.2402 44.36 34.3682 44.64C34.5042 44.912 34.5722 45.236 34.5722 45.612C34.5722 46.404 34.2722 47.02 33.6722 47.46C33.0722 47.9 32.2242 48.12 31.1282 48.12ZM43.448 49.632C43.168 49.256 42.868 48.956 42.548 48.732C42.228 48.516 41.868 48.36 41.468 48.264C41.068 48.168 40.608 48.12 40.088 48.12C39.416 48.12 38.804 48.012 38.252 47.796C37.7 47.58 37.224 47.272 36.824 46.872C36.424 46.472 36.116 45.996 35.9 45.444C35.684 44.892 35.576 44.284 35.576 43.62C35.576 42.956 35.684 42.348 35.9 41.796C36.116 41.244 36.424 40.768 36.824 40.368C37.224 39.968 37.7 39.66 38.252 39.444C38.804 39.228 39.416 39.12 40.088 39.12C40.752 39.12 41.36 39.228 41.912 39.444C42.472 39.66 42.952 39.968 43.352 40.368C43.752 40.768 44.06 41.244 44.276 41.796C44.492 42.348 44.6 42.956 44.6 43.62C44.6 44.204 44.512 44.744 44.336 45.24C44.16 45.728 43.9 46.16 43.556 46.536C43.22 46.904 42.804 47.208 42.308 47.448V47.472C42.788 47.568 43.232 47.736 43.64 47.976C44.048 48.208 44.384 48.48 44.648 48.792L43.448 49.632ZM40.088 46.788C40.68 46.788 41.196 46.656 41.636 46.392C42.084 46.12 42.432 45.748 42.68 45.276C42.936 44.796 43.064 44.244 43.064 43.62C43.064 42.988 42.936 42.436 42.68 41.964C42.432 41.492 42.084 41.124 41.636 40.86C41.196 40.588 40.68 40.452 40.088 40.452C39.504 40.452 38.984 40.588 38.528 40.86C38.08 41.124 37.732 41.492 37.484 41.964C37.236 42.436 37.112 42.988 37.112 43.62C37.112 44.244 37.236 44.796 37.484 45.276C37.732 45.748 38.08 46.12 38.528 46.392C38.984 46.656 39.504 46.788 40.088 46.788ZM45.97 48V39.24H47.506V46.668H52.162V48H45.97Z" fill="#76778C"/>
</svg>
