<svg width="11" height="58" viewBox="0 0 11 58" fill="none" xmlns="http://www.w3.org/2000/svg">
<path fill-rule="evenodd" clip-rule="evenodd" d="M5.5 57.0902C2.46243 57.0902 -1.24418e-08 54.6278 8.98905e-08 51.5902L7.68385e-07 31.4502C8.70718e-07 28.4126 2.46243 25.9502 5.5 25.9502C8.53757 25.9502 11 28.4126 11 31.4502L11 51.5902C11 54.6278 8.53757 57.0902 5.5 57.0902Z" fill="#CA453D"/>
<path fill-rule="evenodd" clip-rule="evenodd" d="M5.5 25.9499C2.46243 25.9499 5.12095e-07 23.4875 6.14427e-07 20.4499L7.68385e-07 15.8799C8.70718e-07 12.8423 2.46243 10.3799 5.5 10.3799C8.53757 10.3799 11 12.8423 11 15.8799L11 20.4499C11 23.4874 8.53757 25.9499 5.5 25.9499Z" fill="#CA453D"/>
<path fill-rule="evenodd" clip-rule="evenodd" d="M5.19 10.38C2.32364 10.38 -2.7141e-07 8.05636 -1.74845e-07 5.19C-7.8281e-08 2.32364 2.32364 -4.92084e-07 5.19 -3.29517e-07L5.81 -2.94354e-07C8.67636 -1.31787e-07 11 2.32364 11 5.19C11 8.05636 8.67636 10.38 5.81 10.38L5.19 10.38Z" fill="#CA453D"/>
</svg>
