<svg width="191" height="131" viewBox="0 0 191 131" fill="none" xmlns="http://www.w3.org/2000/svg">
<g opacity="0.8">
<rect x="10.5" y="10.5" width="170" height="110" rx="3.5" fill="#101114"/>
<rect x="10.5" y="10.5" width="170" height="110" rx="3.5" stroke="#292A36"/>
<rect x="11" y="11" width="170" height="27" fill="#1A1C23"/>
<path d="M22.7 28V21.81H20.29V20.7H26.41V21.81H23.99V28H22.7ZM30.1692 28V22.1H30.1492L27.5892 23.61L27.2292 22.52L30.1692 20.7H31.4392V28H30.1692ZM34.965 24.25C34.725 24.25 34.535 24.18 34.395 24.04C34.255 23.9 34.185 23.71 34.185 23.47C34.185 23.2367 34.255 23.05 34.395 22.91C34.535 22.77 34.725 22.7 34.965 22.7C35.205 22.7 35.395 22.77 35.535 22.91C35.675 23.05 35.745 23.2367 35.745 23.47C35.745 23.71 35.675 23.9 35.535 24.04C35.395 24.18 35.205 24.25 34.965 24.25ZM34.965 28.1C34.725 28.1 34.535 28.03 34.395 27.89C34.255 27.75 34.185 27.5633 34.185 27.33C34.185 27.09 34.255 26.9 34.395 26.76C34.535 26.62 34.725 26.55 34.965 26.55C35.205 26.55 35.395 26.62 35.535 26.76C35.675 26.9 35.745 27.09 35.745 27.33C35.745 27.5633 35.675 27.75 35.535 27.89C35.395 28.03 35.205 28.1 34.965 28.1ZM42.4701 28.1C42.1967 28.1 41.8734 28.0867 41.5001 28.06C41.1334 28.04 40.7634 28.0067 40.3901 27.96V20.74C40.7634 20.6933 41.1334 20.66 41.5001 20.64C41.8734 20.6133 42.1967 20.6 42.4701 20.6C43.3501 20.6 44.0667 20.7333 44.6201 21C45.1801 21.26 45.5901 21.6667 45.8501 22.22C46.1167 22.7733 46.2501 23.4833 46.2501 24.35C46.2501 25.2167 46.1167 25.9267 45.8501 26.48C45.5901 27.0333 45.1801 27.4433 44.6201 27.71C44.0667 27.97 43.3501 28.1 42.4701 28.1ZM42.5501 27C43.1367 27 43.6067 26.9133 43.9601 26.74C44.3201 26.5667 44.5801 26.2867 44.7401 25.9C44.9001 25.5067 44.9801 24.99 44.9801 24.35C44.9801 23.71 44.9001 23.1967 44.7401 22.81C44.5801 22.4167 44.3201 22.1333 43.9601 21.96C43.6067 21.7867 43.1367 21.7 42.5501 21.7C42.3567 21.7 42.1334 21.71 41.8801 21.73C41.6267 21.7433 41.3501 21.7667 41.0501 21.8L41.6401 21.17V27.53L41.0501 26.9C41.3501 26.9333 41.6267 26.96 41.8801 26.98C42.1334 26.9933 42.3567 27 42.5501 27ZM49.6602 28.1C49.1268 28.1 48.6602 27.99 48.2602 27.77C47.8668 27.55 47.5635 27.2367 47.3502 26.83C47.1368 26.4233 47.0302 25.9467 47.0302 25.4C47.0302 24.8467 47.1368 24.37 47.3502 23.97C47.5635 23.5633 47.8668 23.25 48.2602 23.03C48.6602 22.81 49.1268 22.7 49.6602 22.7C50.2002 22.7 50.6668 22.81 51.0602 23.03C51.4535 23.25 51.7568 23.5633 51.9702 23.97C52.1902 24.37 52.3002 24.8467 52.3002 25.4C52.3002 25.9467 52.1902 26.4233 51.9702 26.83C51.7568 27.2367 51.4535 27.55 51.0602 27.77C50.6668 27.99 50.2002 28.1 49.6602 28.1ZM49.6602 27.12C50.1068 27.12 50.4535 26.97 50.7002 26.67C50.9468 26.37 51.0702 25.9467 51.0702 25.4C51.0702 24.8467 50.9468 24.4233 50.7002 24.13C50.4535 23.83 50.1068 23.68 49.6602 23.68C49.2135 23.68 48.8668 23.83 48.6202 24.13C48.3735 24.4233 48.2502 24.8467 48.2502 25.4C48.2502 25.9467 48.3735 26.37 48.6202 26.67C48.8668 26.97 49.2135 27.12 49.6602 27.12ZM55.9348 28.1C55.3348 28.1 54.8215 27.9933 54.3948 27.78C53.9748 27.5667 53.6515 27.26 53.4248 26.86C53.1982 26.4533 53.0848 25.9667 53.0848 25.4C53.0848 24.8333 53.1982 24.35 53.4248 23.95C53.6515 23.5433 53.9748 23.2333 54.3948 23.02C54.8215 22.8067 55.3348 22.7 55.9348 22.7C56.2348 22.7 56.5148 22.73 56.7748 22.79C57.0415 22.8433 57.3015 22.9367 57.5548 23.07L57.3448 24.03C57.1115 23.91 56.8848 23.8233 56.6648 23.77C56.4515 23.71 56.2348 23.68 56.0148 23.68C55.4815 23.68 55.0682 23.83 54.7748 24.13C54.4815 24.43 54.3348 24.8533 54.3348 25.4C54.3348 25.9467 54.4815 26.37 54.7748 26.67C55.0682 26.97 55.4815 27.12 56.0148 27.12C56.2348 27.12 56.4515 27.0933 56.6648 27.04C56.8848 26.98 57.1115 26.89 57.3448 26.77L57.5548 27.73C57.3015 27.8567 57.0415 27.95 56.7748 28.01C56.5148 28.07 56.2348 28.1 55.9348 28.1ZM61.7982 28V20.7H63.0982V28H61.7982ZM64.7144 28V22.8H65.8844L65.8944 23.5H65.9144C66.1477 23.2267 66.4077 23.0267 66.6944 22.9C66.9877 22.7667 67.321 22.7 67.6944 22.7C68.3277 22.7 68.7877 22.8833 69.0744 23.25C69.3677 23.6167 69.5144 24.2 69.5144 25V28H68.2944V25.23C68.2944 24.7167 68.2144 24.3367 68.0544 24.09C67.8944 23.8367 67.6477 23.71 67.3144 23.71C67.061 23.71 66.8277 23.7733 66.6144 23.9C66.4077 24.0267 66.2444 24.1967 66.1244 24.41C66.0044 24.6167 65.9444 24.8467 65.9444 25.1V28H64.7144ZM71.4816 28V23.98H70.1516V23H71.4816V22.21C71.4816 21.5767 71.6383 21.1 71.9516 20.78C72.2716 20.46 72.7383 20.3 73.3516 20.3C73.5383 20.3 73.7216 20.3133 73.9016 20.34C74.0816 20.3667 74.2483 20.4033 74.4016 20.45L74.2616 21.44C74.0216 21.36 73.785 21.32 73.5516 21.32C73.245 21.32 73.0283 21.3933 72.9016 21.54C72.7816 21.68 72.7216 21.9233 72.7216 22.27V23H74.3616V23.98H72.7216V28H71.4816ZM77.2969 28.1C76.7635 28.1 76.2969 27.99 75.8969 27.77C75.5035 27.55 75.2002 27.2367 74.9869 26.83C74.7735 26.4233 74.6669 25.9467 74.6669 25.4C74.6669 24.8467 74.7735 24.37 74.9869 23.97C75.2002 23.5633 75.5035 23.25 75.8969 23.03C76.2969 22.81 76.7635 22.7 77.2969 22.7C77.8369 22.7 78.3035 22.81 78.6969 23.03C79.0902 23.25 79.3935 23.5633 79.6069 23.97C79.8269 24.37 79.9369 24.8467 79.9369 25.4C79.9369 25.9467 79.8269 26.4233 79.6069 26.83C79.3935 27.2367 79.0902 27.55 78.6969 27.77C78.3035 27.99 77.8369 28.1 77.2969 28.1ZM77.2969 27.12C77.7435 27.12 78.0902 26.97 78.3369 26.67C78.5835 26.37 78.7069 25.9467 78.7069 25.4C78.7069 24.8467 78.5835 24.4233 78.3369 24.13C78.0902 23.83 77.7435 23.68 77.2969 23.68C76.8502 23.68 76.5035 23.83 76.2569 24.13C76.0102 24.4233 75.8869 24.8467 75.8869 25.4C75.8869 25.9467 76.0102 26.37 76.2569 26.67C76.5035 26.97 76.8502 27.12 77.2969 27.12Z" fill="#9A9CBC"/>
<path d="M22.77 56.1C22.5167 56.1 22.23 56.0867 21.91 56.06C21.5967 56.04 21.27 56.0067 20.93 55.96V48.74C21.27 48.6933 21.5967 48.66 21.91 48.64C22.23 48.6133 22.5167 48.6 22.77 48.6C23.63 48.6 24.3433 48.7367 24.91 49.01C25.4767 49.2833 25.9 49.6967 26.18 50.25C26.46 50.8033 26.6 51.5033 26.6 52.35C26.6 53.1967 26.46 53.8967 26.18 54.45C25.9 55.0033 25.4767 55.4167 24.91 55.69C24.3433 55.9633 23.63 56.1 22.77 56.1ZM22.81 55.37C23.4967 55.37 24.0567 55.2633 24.49 55.05C24.93 54.8367 25.2567 54.5067 25.47 54.06C25.6833 53.6133 25.79 53.0433 25.79 52.35C25.79 51.6567 25.6833 51.0867 25.47 50.64C25.2567 50.1933 24.93 49.8633 24.49 49.65C24.0567 49.4367 23.4967 49.33 22.81 49.33C22.5967 49.33 22.3667 49.34 22.12 49.36C21.8733 49.38 21.6067 49.41 21.32 49.45L21.73 49.03V55.67L21.32 55.25C21.6067 55.2833 21.8733 55.3133 22.12 55.34C22.3667 55.36 22.5967 55.37 22.81 55.37ZM30.0303 56.1C29.517 56.1 29.067 55.99 28.6803 55.77C28.3003 55.55 28.007 55.2367 27.8003 54.83C27.6003 54.4233 27.5003 53.9467 27.5003 53.4C27.5003 52.8467 27.6003 52.37 27.8003 51.97C28.007 51.5633 28.3003 51.25 28.6803 51.03C29.067 50.81 29.517 50.7 30.0303 50.7C30.5503 50.7 30.997 50.81 31.3703 51.03C31.7503 51.25 32.0436 51.5633 32.2503 51.97C32.457 52.37 32.5603 52.8467 32.5603 53.4C32.5603 53.9467 32.457 54.4233 32.2503 54.83C32.0436 55.2367 31.7503 55.55 31.3703 55.77C30.997 55.99 30.5503 56.1 30.0303 56.1ZM30.0303 55.43C30.577 55.43 31.0036 55.25 31.3103 54.89C31.6236 54.53 31.7803 54.0333 31.7803 53.4C31.7803 52.76 31.6236 52.2633 31.3103 51.91C31.0036 51.55 30.577 51.37 30.0303 51.37C29.4836 51.37 29.0536 51.55 28.7403 51.91C28.4336 52.2633 28.2803 52.76 28.2803 53.4C28.2803 54.0333 28.4336 54.53 28.7403 54.89C29.0536 55.25 29.4836 55.43 30.0303 55.43ZM36.1871 56.1C35.6204 56.1 35.1338 55.9933 34.7271 55.78C34.3204 55.56 34.0071 55.25 33.7871 54.85C33.5738 54.4433 33.4671 53.96 33.4671 53.4C33.4671 52.84 33.5738 52.36 33.7871 51.96C34.0071 51.5533 34.3204 51.2433 34.7271 51.03C35.1338 50.81 35.6204 50.7 36.1871 50.7C36.4671 50.7 36.7338 50.73 36.9871 50.79C37.2404 50.8433 37.4871 50.9333 37.7271 51.06L37.5771 51.7C37.3504 51.5867 37.1271 51.5033 36.9071 51.45C36.6871 51.3967 36.4638 51.37 36.2371 51.37C35.6171 51.37 35.1338 51.55 34.7871 51.91C34.4404 52.2633 34.2671 52.76 34.2671 53.4C34.2671 54.0333 34.4404 54.53 34.7871 54.89C35.1338 55.25 35.6171 55.43 36.2371 55.43C36.4638 55.43 36.6871 55.4033 36.9071 55.35C37.1271 55.2967 37.3504 55.2133 37.5771 55.1L37.7271 55.74C37.4871 55.86 37.2404 55.95 36.9871 56.01C36.7338 56.07 36.4671 56.1 36.1871 56.1ZM42.3093 56V48.7H43.1393V56H42.3093ZM45.0099 56V50.8H45.7799V51.57H45.7999C46.0066 51.2833 46.2666 51.0667 46.5799 50.92C46.8999 50.7733 47.2599 50.7 47.6599 50.7C48.2933 50.7 48.7599 50.89 49.0599 51.27C49.3599 51.6433 49.5099 52.22 49.5099 53V56H48.7199V53.14C48.7199 52.54 48.6166 52.0967 48.4099 51.81C48.2033 51.5167 47.8866 51.37 47.4599 51.37C47.1399 51.37 46.8533 51.4433 46.5999 51.59C46.3533 51.73 46.1566 51.9267 46.0099 52.18C45.8699 52.4267 45.7999 52.7133 45.7999 53.04V56H45.0099ZM51.6516 56V51.67H50.1816V51H51.6516V50.03C51.6516 49.45 51.7916 49.0167 52.0716 48.73C52.3516 48.4433 52.775 48.3 53.3416 48.3C53.5083 48.3 53.6716 48.3133 53.8316 48.34C53.9916 48.3667 54.1416 48.4033 54.2816 48.45L54.1716 49.11C53.9316 49.03 53.6916 48.99 53.4516 48.99C53.0916 48.99 52.8316 49.0733 52.6716 49.24C52.5183 49.4067 52.4416 49.69 52.4416 50.09V51H54.2616V51.67H52.4416V56H51.6516ZM57.1006 56.1C56.5873 56.1 56.1373 55.99 55.7506 55.77C55.3706 55.55 55.0773 55.2367 54.8706 54.83C54.6706 54.4233 54.5706 53.9467 54.5706 53.4C54.5706 52.8467 54.6706 52.37 54.8706 51.97C55.0773 51.5633 55.3706 51.25 55.7506 51.03C56.1373 50.81 56.5873 50.7 57.1006 50.7C57.6206 50.7 58.0673 50.81 58.4406 51.03C58.8206 51.25 59.114 51.5633 59.3206 51.97C59.5273 52.37 59.6306 52.8467 59.6306 53.4C59.6306 53.9467 59.5273 54.4233 59.3206 54.83C59.114 55.2367 58.8206 55.55 58.4406 55.77C58.0673 55.99 57.6206 56.1 57.1006 56.1ZM57.1006 55.43C57.6473 55.43 58.074 55.25 58.3806 54.89C58.694 54.53 58.8506 54.0333 58.8506 53.4C58.8506 52.76 58.694 52.2633 58.3806 51.91C58.074 51.55 57.6473 51.37 57.1006 51.37C56.554 51.37 56.124 51.55 55.8106 51.91C55.504 52.2633 55.3506 52.76 55.3506 53.4C55.3506 54.0333 55.504 54.53 55.8106 54.89C56.124 55.25 56.554 55.43 57.1006 55.43ZM60.8986 56V50.8H61.6586L61.6686 51.89H61.6886C61.8419 51.6433 62.0386 51.4333 62.2786 51.26C62.5186 51.08 62.7919 50.9433 63.0986 50.85C63.4053 50.75 63.7286 50.7 64.0686 50.7V51.4C63.6286 51.4 63.2286 51.49 62.8686 51.67C62.5086 51.85 62.2219 52.09 62.0086 52.39C61.8019 52.69 61.6986 53.0267 61.6986 53.4V56H60.8986ZM65.0978 56V50.8H65.8378L65.8478 51.57H65.8678C66.0345 51.29 66.2545 51.0767 66.5278 50.93C66.8078 50.7767 67.1278 50.7 67.4878 50.7C67.8478 50.7 68.1545 50.7767 68.4078 50.93C68.6678 51.0767 68.8478 51.29 68.9478 51.57H68.9678C69.1278 51.2767 69.3478 51.06 69.6278 50.92C69.9145 50.7733 70.2578 50.7 70.6578 50.7C71.2311 50.7 71.6411 50.8633 71.8878 51.19C72.1411 51.5167 72.2678 52.0667 72.2678 52.84V56H71.4878V52.94C71.4878 52.3733 71.4078 51.97 71.2478 51.73C71.0878 51.49 70.8178 51.37 70.4378 51.37C69.9911 51.37 69.6511 51.5233 69.4178 51.83C69.1845 52.13 69.0678 52.5733 69.0678 53.16V56H68.2978V52.6C68.2978 52.2133 68.2045 51.9133 68.0178 51.7C67.8311 51.48 67.5745 51.37 67.2478 51.37C66.8411 51.37 66.5078 51.5367 66.2478 51.87C65.9945 52.1967 65.8678 52.6267 65.8678 53.16V56H65.0978ZM74.9992 56.1C74.4726 56.1 74.0559 55.96 73.7492 55.68C73.4426 55.3933 73.2892 55.01 73.2892 54.53C73.2892 53.93 73.5326 53.47 74.0192 53.15C74.5059 52.8233 75.2026 52.66 76.1092 52.66H76.9392C76.9392 52.1867 76.8292 51.8533 76.6092 51.66C76.3959 51.4667 76.0326 51.37 75.5192 51.37C75.1659 51.37 74.8359 51.4133 74.5292 51.5C74.2292 51.58 73.9259 51.71 73.6192 51.89L73.4892 51.22C73.8026 51.04 74.1326 50.91 74.4792 50.83C74.8259 50.7433 75.2026 50.7 75.6092 50.7C76.1159 50.7 76.5226 50.77 76.8292 50.91C77.1426 51.0433 77.3692 51.26 77.5092 51.56C77.6559 51.8533 77.7292 52.2433 77.7292 52.73V56H76.9692V55.29H76.9392C76.7659 55.53 76.4959 55.7267 76.1292 55.88C75.7692 56.0267 75.3926 56.1 74.9992 56.1ZM75.2492 55.45C75.5626 55.45 75.8459 55.39 76.0992 55.27C76.3592 55.15 76.5626 54.99 76.7092 54.79C76.8626 54.5833 76.9392 54.3567 76.9392 54.11V53.27H76.2092C75.5026 53.27 74.9692 53.3733 74.6092 53.58C74.2492 53.78 74.0692 54.0733 74.0692 54.46C74.0692 54.7667 74.1726 55.01 74.3792 55.19C74.5859 55.3633 74.8759 55.45 75.2492 55.45ZM81.3843 56.1C80.7843 56.1 80.3476 55.97 80.0743 55.71C79.8076 55.45 79.6743 55.0233 79.6743 54.43V51.47H78.4143V50.8H79.6743V49.1H80.4743V50.8H82.4043V51.47H80.4743V54.33C80.4743 54.7167 80.5543 54.9933 80.7143 55.16C80.8743 55.32 81.1443 55.4 81.5243 55.4C81.671 55.4 81.8043 55.39 81.9243 55.37C82.0443 55.3433 82.171 55.3067 82.3043 55.26L82.4143 55.92C82.241 55.98 82.071 56.0233 81.9043 56.05C81.7443 56.0833 81.571 56.1 81.3843 56.1ZM84.0204 56V50.8H84.8204V56H84.0204ZM84.4204 49.81C84.2471 49.81 84.1037 49.7567 83.9904 49.65C83.8837 49.5367 83.8304 49.39 83.8304 49.21C83.8304 49.0367 83.8837 48.8967 83.9904 48.79C84.1037 48.6767 84.2471 48.62 84.4204 48.62C84.6004 48.62 84.7437 48.6767 84.8504 48.79C84.9637 48.8967 85.0204 49.0367 85.0204 49.21C85.0204 49.39 84.9637 49.5367 84.8504 49.65C84.7437 49.7567 84.6004 49.81 84.4204 49.81ZM88.9073 56.1C88.3939 56.1 87.9439 55.99 87.5573 55.77C87.1773 55.55 86.8839 55.2367 86.6773 54.83C86.4773 54.4233 86.3773 53.9467 86.3773 53.4C86.3773 52.8467 86.4773 52.37 86.6773 51.97C86.8839 51.5633 87.1773 51.25 87.5573 51.03C87.9439 50.81 88.3939 50.7 88.9073 50.7C89.4273 50.7 89.8739 50.81 90.2473 51.03C90.6273 51.25 90.9206 51.5633 91.1273 51.97C91.3339 52.37 91.4373 52.8467 91.4373 53.4C91.4373 53.9467 91.3339 54.4233 91.1273 54.83C90.9206 55.2367 90.6273 55.55 90.2473 55.77C89.8739 55.99 89.4273 56.1 88.9073 56.1ZM88.9073 55.43C89.4539 55.43 89.8806 55.25 90.1873 54.89C90.5006 54.53 90.6573 54.0333 90.6573 53.4C90.6573 52.76 90.5006 52.2633 90.1873 51.91C89.8806 51.55 89.4539 51.37 88.9073 51.37C88.3606 51.37 87.9306 51.55 87.6173 51.91C87.3106 52.2633 87.1573 52.76 87.1573 53.4C87.1573 54.0333 87.3106 54.53 87.6173 54.89C87.9306 55.25 88.3606 55.43 88.9073 55.43ZM92.7052 56V50.8H93.4752V51.57H93.4952C93.7019 51.2833 93.9619 51.0667 94.2752 50.92C94.5952 50.7733 94.9552 50.7 95.3552 50.7C95.9886 50.7 96.4552 50.89 96.7552 51.27C97.0552 51.6433 97.2052 52.22 97.2052 53V56H96.4152V53.14C96.4152 52.54 96.3119 52.0967 96.1052 51.81C95.8986 51.5167 95.5819 51.37 95.1552 51.37C94.8352 51.37 94.5486 51.4433 94.2952 51.59C94.0486 51.73 93.8519 51.9267 93.7052 52.18C93.5652 52.4267 93.4952 52.7133 93.4952 53.04V56H92.7052ZM20.93 71V63.7H25.57V64.42H21.73V66.8H25.37V67.51H21.73V70.28H25.57V71H20.93ZM26.5023 71L28.3323 68.38L26.5323 65.8H27.4423L28.8523 67.94H28.8723L30.2923 65.8H31.2023L29.4023 68.38L31.2323 71H30.3223L28.8723 68.82H28.8523L27.4123 71H26.5023ZM34.812 71.1C34.212 71.1 33.7754 70.97 33.502 70.71C33.2354 70.45 33.102 70.0233 33.102 69.43V66.47H31.842V65.8H33.102V64.1H33.902V65.8H35.832V66.47H33.902V69.33C33.902 69.7167 33.982 69.9933 34.142 70.16C34.302 70.32 34.572 70.4 34.952 70.4C35.0987 70.4 35.232 70.39 35.352 70.37C35.472 70.3433 35.5987 70.3067 35.732 70.26L35.842 70.92C35.6687 70.98 35.4987 71.0233 35.332 71.05C35.172 71.0833 34.9987 71.1 34.812 71.1ZM37.1681 71V65.8H37.9281L37.9381 66.89H37.9581C38.1115 66.6433 38.3081 66.4333 38.5481 66.26C38.7881 66.08 39.0615 65.9433 39.3681 65.85C39.6748 65.75 39.9981 65.7 40.3381 65.7V66.4C39.8981 66.4 39.4981 66.49 39.1381 66.67C38.7781 66.85 38.4915 67.09 38.2781 67.39C38.0715 67.69 37.9681 68.0267 37.9681 68.4V71H37.1681ZM42.4602 71.1C41.9335 71.1 41.5168 70.96 41.2102 70.68C40.9035 70.3933 40.7502 70.01 40.7502 69.53C40.7502 68.93 40.9935 68.47 41.4802 68.15C41.9668 67.8233 42.6635 67.66 43.5702 67.66H44.4002C44.4002 67.1867 44.2902 66.8533 44.0702 66.66C43.8568 66.4667 43.4935 66.37 42.9802 66.37C42.6268 66.37 42.2968 66.4133 41.9902 66.5C41.6902 66.58 41.3868 66.71 41.0802 66.89L40.9502 66.22C41.2635 66.04 41.5935 65.91 41.9402 65.83C42.2868 65.7433 42.6635 65.7 43.0702 65.7C43.5768 65.7 43.9835 65.77 44.2902 65.91C44.6035 66.0433 44.8302 66.26 44.9702 66.56C45.1168 66.8533 45.1902 67.2433 45.1902 67.73V71H44.4302V70.29H44.4002C44.2268 70.53 43.9568 70.7267 43.5902 70.88C43.2302 71.0267 42.8535 71.1 42.4602 71.1ZM42.7102 70.45C43.0235 70.45 43.3068 70.39 43.5602 70.27C43.8202 70.15 44.0235 69.99 44.1702 69.79C44.3235 69.5833 44.4002 69.3567 44.4002 69.11V68.27H43.6702C42.9635 68.27 42.4302 68.3733 42.0702 68.58C41.7102 68.78 41.5302 69.0733 41.5302 69.46C41.5302 69.7667 41.6335 70.01 41.8402 70.19C42.0468 70.3633 42.3368 70.45 42.7102 70.45ZM49.0191 71.1C48.4525 71.1 47.9658 70.9933 47.5591 70.78C47.1525 70.56 46.8391 70.25 46.6191 69.85C46.4058 69.4433 46.2991 68.96 46.2991 68.4C46.2991 67.84 46.4058 67.36 46.6191 66.96C46.8391 66.5533 47.1525 66.2433 47.5591 66.03C47.9658 65.81 48.4525 65.7 49.0191 65.7C49.2991 65.7 49.5658 65.73 49.8191 65.79C50.0725 65.8433 50.3191 65.9333 50.5591 66.06L50.4091 66.7C50.1825 66.5867 49.9591 66.5033 49.7391 66.45C49.5191 66.3967 49.2958 66.37 49.0691 66.37C48.4491 66.37 47.9658 66.55 47.6191 66.91C47.2725 67.2633 47.0991 67.76 47.0991 68.4C47.0991 69.0333 47.2725 69.53 47.6191 69.89C47.9658 70.25 48.4491 70.43 49.0691 70.43C49.2958 70.43 49.5191 70.4033 49.7391 70.35C49.9591 70.2967 50.1825 70.2133 50.4091 70.1L50.5591 70.74C50.3191 70.86 50.0725 70.95 49.8191 71.01C49.5658 71.07 49.2991 71.1 49.0191 71.1ZM54.3433 71.1C53.7433 71.1 53.3066 70.97 53.0333 70.71C52.7666 70.45 52.6333 70.0233 52.6333 69.43V66.47H51.3733V65.8H52.6333V64.1H53.4333V65.8H55.3633V66.47H53.4333V69.33C53.4333 69.7167 53.5133 69.9933 53.6733 70.16C53.8333 70.32 54.1033 70.4 54.4833 70.4C54.6299 70.4 54.7633 70.39 54.8833 70.37C55.0033 70.3433 55.1299 70.3067 55.2633 70.26L55.3733 70.92C55.1999 70.98 55.0299 71.0233 54.8633 71.05C54.7033 71.0833 54.5299 71.1 54.3433 71.1ZM58.6534 71.1C58.14 71.1 57.69 70.99 57.3034 70.77C56.9234 70.55 56.63 70.2367 56.4234 69.83C56.2234 69.4233 56.1234 68.9467 56.1234 68.4C56.1234 67.8467 56.2234 67.37 56.4234 66.97C56.63 66.5633 56.9234 66.25 57.3034 66.03C57.69 65.81 58.14 65.7 58.6534 65.7C59.1734 65.7 59.62 65.81 59.9934 66.03C60.3734 66.25 60.6667 66.5633 60.8734 66.97C61.08 67.37 61.1834 67.8467 61.1834 68.4C61.1834 68.9467 61.08 69.4233 60.8734 69.83C60.6667 70.2367 60.3734 70.55 59.9934 70.77C59.62 70.99 59.1734 71.1 58.6534 71.1ZM58.6534 70.43C59.2 70.43 59.6267 70.25 59.9334 69.89C60.2467 69.53 60.4034 69.0333 60.4034 68.4C60.4034 67.76 60.2467 67.2633 59.9334 66.91C59.6267 66.55 59.2 66.37 58.6534 66.37C58.1067 66.37 57.6767 66.55 57.3634 66.91C57.0567 67.2633 56.9034 67.76 56.9034 68.4C56.9034 69.0333 57.0567 69.53 57.3634 69.89C57.6767 70.25 58.1067 70.43 58.6534 70.43ZM62.4513 71V65.8H63.2113L63.2213 66.89H63.2413C63.3947 66.6433 63.5913 66.4333 63.8313 66.26C64.0713 66.08 64.3447 65.9433 64.6513 65.85C64.958 65.75 65.2813 65.7 65.6213 65.7V66.4C65.1813 66.4 64.7813 66.49 64.4213 66.67C64.0613 66.85 63.7747 67.09 63.5613 67.39C63.3547 67.69 63.2513 68.0267 63.2513 68.4V71H62.4513Z" fill="#9A9CBC"/>
<rect x="20.5" y="91.5" width="56" height="19" rx="5.5" fill="#1E2027"/>
<rect x="20.5" y="91.5" width="56" height="19" rx="5.5" stroke="#292A36"/>
<path d="M29.244 104.5V98.66H29.9V103.916H33.22V104.5H29.244ZM34.9994 104.58C34.578 104.58 34.2447 104.468 33.9994 104.244C33.754 104.015 33.6314 103.708 33.6314 103.324C33.6314 102.844 33.826 102.476 34.2154 102.22C34.6047 101.959 35.162 101.828 35.8874 101.828H36.5514C36.5514 101.449 36.4634 101.183 36.2874 101.028C36.1167 100.873 35.826 100.796 35.4154 100.796C35.1327 100.796 34.8687 100.831 34.6234 100.9C34.3834 100.964 34.1407 101.068 33.8954 101.212L33.7914 100.676C34.042 100.532 34.306 100.428 34.5834 100.364C34.8607 100.295 35.162 100.26 35.4874 100.26C35.8927 100.26 36.218 100.316 36.4634 100.428C36.714 100.535 36.8954 100.708 37.0074 100.948C37.1247 101.183 37.1834 101.495 37.1834 101.884V104.5H36.5754V103.932H36.5514C36.4127 104.124 36.1967 104.281 35.9034 104.404C35.6154 104.521 35.314 104.58 34.9994 104.58ZM35.1994 104.06C35.45 104.06 35.6767 104.012 35.8794 103.916C36.0874 103.82 36.25 103.692 36.3674 103.532C36.49 103.367 36.5514 103.185 36.5514 102.988V102.316H35.9674C35.402 102.316 34.9754 102.399 34.6874 102.564C34.3994 102.724 34.2554 102.959 34.2554 103.268C34.2554 103.513 34.338 103.708 34.5034 103.852C34.6687 103.991 34.9007 104.06 35.1994 104.06ZM38.3986 104.5V100.34H39.0146V100.956H39.0306C39.1959 100.727 39.4039 100.553 39.6546 100.436C39.9106 100.319 40.1986 100.26 40.5186 100.26C41.0252 100.26 41.3986 100.412 41.6386 100.716C41.8786 101.015 41.9986 101.476 41.9986 102.1V104.5H41.3666V102.212C41.3666 101.732 41.2839 101.377 41.1186 101.148C40.9532 100.913 40.6999 100.796 40.3586 100.796C40.1026 100.796 39.8732 100.855 39.6706 100.972C39.4732 101.084 39.3159 101.241 39.1986 101.444C39.0866 101.641 39.0306 101.871 39.0306 102.132V104.5H38.3986ZM44.6751 106.26C44.3551 106.26 44.0671 106.223 43.8111 106.148C43.5551 106.073 43.3231 105.959 43.1151 105.804L43.2751 105.292C43.4831 105.441 43.6937 105.551 43.9071 105.62C44.1204 105.689 44.3604 105.724 44.6271 105.724C45.1391 105.724 45.5097 105.593 45.7391 105.332C45.9737 105.076 46.0911 104.665 46.0911 104.1V103.732H46.0751C45.9311 103.919 45.7337 104.068 45.4831 104.18C45.2324 104.287 44.9551 104.34 44.6511 104.34C44.0964 104.34 43.6617 104.161 43.3471 103.804C43.0324 103.441 42.8751 102.94 42.8751 102.3C42.8751 101.66 43.0324 101.161 43.3471 100.804C43.6617 100.441 44.0964 100.26 44.6511 100.26C44.9551 100.26 45.2351 100.316 45.4911 100.428C45.7471 100.535 45.9471 100.681 46.0911 100.868H46.1071L46.1151 100.34H46.7151V104.1C46.7151 104.831 46.5471 105.372 46.2111 105.724C45.8804 106.081 45.3684 106.26 44.6751 106.26ZM44.7871 103.804C45.0377 103.804 45.2591 103.759 45.4511 103.668C45.6484 103.572 45.8031 103.444 45.9151 103.284C46.0324 103.119 46.0911 102.929 46.0911 102.716V101.884C46.0911 101.676 46.0324 101.489 45.9151 101.324C45.8031 101.159 45.6484 101.031 45.4511 100.94C45.2591 100.844 45.0377 100.796 44.7871 100.796C44.3817 100.796 44.0644 100.927 43.8351 101.188C43.6111 101.449 43.4991 101.82 43.4991 102.3C43.4991 102.78 43.6111 103.151 43.8351 103.412C44.0644 103.673 44.3817 103.804 44.7871 103.804ZM49.9184 104.58C49.4651 104.58 49.0758 104.495 48.7504 104.324C48.4251 104.148 48.1744 103.9 47.9984 103.58C47.8278 103.255 47.7424 102.868 47.7424 102.42C47.7424 101.972 47.8278 101.588 47.9984 101.268C48.1744 100.943 48.4251 100.695 48.7504 100.524C49.0758 100.348 49.4651 100.26 49.9184 100.26C50.1424 100.26 50.3558 100.284 50.5584 100.332C50.7611 100.375 50.9584 100.447 51.1504 100.548L51.0304 101.06C50.8491 100.969 50.6704 100.903 50.4944 100.86C50.3184 100.817 50.1398 100.796 49.9584 100.796C49.4624 100.796 49.0758 100.94 48.7984 101.228C48.5211 101.511 48.3824 101.908 48.3824 102.42C48.3824 102.927 48.5211 103.324 48.7984 103.612C49.0758 103.9 49.4624 104.044 49.9584 104.044C50.1398 104.044 50.3184 104.023 50.4944 103.98C50.6704 103.937 50.8491 103.871 51.0304 103.78L51.1504 104.292C50.9584 104.388 50.7611 104.46 50.5584 104.508C50.3558 104.556 50.1424 104.58 49.9184 104.58ZM52.3673 104.5V98.66H52.9993V100.9H53.0153C53.1753 100.692 53.3806 100.535 53.6313 100.428C53.882 100.316 54.17 100.26 54.4953 100.26C55.0073 100.26 55.3806 100.396 55.6153 100.668C55.8553 100.94 55.9726 101.364 55.9673 101.94V104.5H55.3433V102.052C55.3486 101.62 55.2686 101.303 55.1033 101.1C54.938 100.897 54.682 100.796 54.3353 100.796C54.074 100.796 53.842 100.849 53.6393 100.956C53.442 101.057 53.2873 101.199 53.1753 101.38C53.0633 101.556 53.0046 101.764 52.9993 102.004V104.5H52.3673ZM58.1478 104.58C57.7265 104.58 57.3931 104.468 57.1478 104.244C56.9025 104.015 56.7798 103.708 56.7798 103.324C56.7798 102.844 56.9745 102.476 57.3638 102.22C57.7531 101.959 58.3105 101.828 59.0358 101.828H59.6998C59.6998 101.449 59.6118 101.183 59.4358 101.028C59.2651 100.873 58.9745 100.796 58.5638 100.796C58.2811 100.796 58.0171 100.831 57.7718 100.9C57.5318 100.964 57.2891 101.068 57.0438 101.212L56.9398 100.676C57.1905 100.532 57.4545 100.428 57.7318 100.364C58.0091 100.295 58.3105 100.26 58.6358 100.26C59.0411 100.26 59.3665 100.316 59.6118 100.428C59.8625 100.535 60.0438 100.708 60.1558 100.948C60.2731 101.183 60.3318 101.495 60.3318 101.884V104.5H59.7238V103.932H59.6998C59.5611 104.124 59.3451 104.281 59.0518 104.404C58.7638 104.521 58.4625 104.58 58.1478 104.58ZM58.3478 104.06C58.5985 104.06 58.8251 104.012 59.0278 103.916C59.2358 103.82 59.3985 103.692 59.5158 103.532C59.6385 103.367 59.6998 103.185 59.6998 102.988V102.316H59.1158C58.5505 102.316 58.1238 102.399 57.8358 102.564C57.5478 102.724 57.4038 102.959 57.4038 103.268C57.4038 103.513 57.4865 103.708 57.6518 103.852C57.8171 103.991 58.0491 104.06 58.3478 104.06ZM61.771 104.5V100.34H62.411V104.5H61.771ZM62.091 99.548C61.9523 99.548 61.8377 99.5053 61.747 99.42C61.6617 99.3293 61.619 99.212 61.619 99.068C61.619 98.9293 61.6617 98.8173 61.747 98.732C61.8377 98.6413 61.9523 98.596 62.091 98.596C62.235 98.596 62.3497 98.6413 62.435 98.732C62.5257 98.8173 62.571 98.9293 62.571 99.068C62.571 99.212 62.5257 99.3293 62.435 99.42C62.3497 99.5053 62.235 99.548 62.091 99.548ZM63.9845 104.5V100.34H64.6005V100.956H64.6165C64.7818 100.727 64.9898 100.553 65.2405 100.436C65.4965 100.319 65.7845 100.26 66.1045 100.26C66.6112 100.26 66.9845 100.412 67.2245 100.716C67.4645 101.015 67.5845 101.476 67.5845 102.1V104.5H66.9525V102.212C66.9525 101.732 66.8698 101.377 66.7045 101.148C66.5392 100.913 66.2858 100.796 65.9445 100.796C65.6885 100.796 65.4592 100.855 65.2565 100.972C65.0592 101.084 64.9018 101.241 64.7845 101.444C64.6725 101.641 64.6165 101.871 64.6165 102.132V104.5H63.9845Z" fill="#9A9CBC"/>
</g>
<g opacity="0.5">
<rect x="20.5" y="20.5" width="170" height="110" rx="3.5" fill="#101114"/>
<rect x="20.5" y="20.5" width="170" height="110" rx="3.5" stroke="#292A36"/>
<rect x="21" y="21" width="170" height="27" fill="#1A1C23"/>
<path d="M32.7 38V31.81H30.29V30.7H36.41V31.81H33.99V38H32.7ZM40.1692 38V32.1H40.1492L37.5892 33.61L37.2292 32.52L40.1692 30.7H41.4392V38H40.1692ZM44.965 34.25C44.725 34.25 44.535 34.18 44.395 34.04C44.255 33.9 44.185 33.71 44.185 33.47C44.185 33.2367 44.255 33.05 44.395 32.91C44.535 32.77 44.725 32.7 44.965 32.7C45.205 32.7 45.395 32.77 45.535 32.91C45.675 33.05 45.745 33.2367 45.745 33.47C45.745 33.71 45.675 33.9 45.535 34.04C45.395 34.18 45.205 34.25 44.965 34.25ZM44.965 38.1C44.725 38.1 44.535 38.03 44.395 37.89C44.255 37.75 44.185 37.5633 44.185 37.33C44.185 37.09 44.255 36.9 44.395 36.76C44.535 36.62 44.725 36.55 44.965 36.55C45.205 36.55 45.395 36.62 45.535 36.76C45.675 36.9 45.745 37.09 45.745 37.33C45.745 37.5633 45.675 37.75 45.535 37.89C45.395 38.03 45.205 38.1 44.965 38.1ZM52.4701 38.1C52.1967 38.1 51.8734 38.0867 51.5001 38.06C51.1334 38.04 50.7634 38.0067 50.3901 37.96V30.74C50.7634 30.6933 51.1334 30.66 51.5001 30.64C51.8734 30.6133 52.1967 30.6 52.4701 30.6C53.3501 30.6 54.0667 30.7333 54.6201 31C55.1801 31.26 55.5901 31.6667 55.8501 32.22C56.1167 32.7733 56.2501 33.4833 56.2501 34.35C56.2501 35.2167 56.1167 35.9267 55.8501 36.48C55.5901 37.0333 55.1801 37.4433 54.6201 37.71C54.0667 37.97 53.3501 38.1 52.4701 38.1ZM52.5501 37C53.1367 37 53.6067 36.9133 53.9601 36.74C54.3201 36.5667 54.5801 36.2867 54.7401 35.9C54.9001 35.5067 54.9801 34.99 54.9801 34.35C54.9801 33.71 54.9001 33.1967 54.7401 32.81C54.5801 32.4167 54.3201 32.1333 53.9601 31.96C53.6067 31.7867 53.1367 31.7 52.5501 31.7C52.3567 31.7 52.1334 31.71 51.8801 31.73C51.6267 31.7433 51.3501 31.7667 51.0501 31.8L51.6401 31.17V37.53L51.0501 36.9C51.3501 36.9333 51.6267 36.96 51.8801 36.98C52.1334 36.9933 52.3567 37 52.5501 37ZM59.6602 38.1C59.1268 38.1 58.6602 37.99 58.2602 37.77C57.8668 37.55 57.5635 37.2367 57.3502 36.83C57.1368 36.4233 57.0302 35.9467 57.0302 35.4C57.0302 34.8467 57.1368 34.37 57.3502 33.97C57.5635 33.5633 57.8668 33.25 58.2602 33.03C58.6602 32.81 59.1268 32.7 59.6602 32.7C60.2002 32.7 60.6668 32.81 61.0602 33.03C61.4535 33.25 61.7568 33.5633 61.9702 33.97C62.1902 34.37 62.3002 34.8467 62.3002 35.4C62.3002 35.9467 62.1902 36.4233 61.9702 36.83C61.7568 37.2367 61.4535 37.55 61.0602 37.77C60.6668 37.99 60.2002 38.1 59.6602 38.1ZM59.6602 37.12C60.1068 37.12 60.4535 36.97 60.7002 36.67C60.9468 36.37 61.0702 35.9467 61.0702 35.4C61.0702 34.8467 60.9468 34.4233 60.7002 34.13C60.4535 33.83 60.1068 33.68 59.6602 33.68C59.2135 33.68 58.8668 33.83 58.6202 34.13C58.3735 34.4233 58.2502 34.8467 58.2502 35.4C58.2502 35.9467 58.3735 36.37 58.6202 36.67C58.8668 36.97 59.2135 37.12 59.6602 37.12ZM65.9348 38.1C65.3348 38.1 64.8215 37.9933 64.3948 37.78C63.9748 37.5667 63.6515 37.26 63.4248 36.86C63.1982 36.4533 63.0848 35.9667 63.0848 35.4C63.0848 34.8333 63.1982 34.35 63.4248 33.95C63.6515 33.5433 63.9748 33.2333 64.3948 33.02C64.8215 32.8067 65.3348 32.7 65.9348 32.7C66.2348 32.7 66.5148 32.73 66.7748 32.79C67.0415 32.8433 67.3015 32.9367 67.5548 33.07L67.3448 34.03C67.1115 33.91 66.8848 33.8233 66.6648 33.77C66.4515 33.71 66.2348 33.68 66.0148 33.68C65.4815 33.68 65.0682 33.83 64.7748 34.13C64.4815 34.43 64.3348 34.8533 64.3348 35.4C64.3348 35.9467 64.4815 36.37 64.7748 36.67C65.0682 36.97 65.4815 37.12 66.0148 37.12C66.2348 37.12 66.4515 37.0933 66.6648 37.04C66.8848 36.98 67.1115 36.89 67.3448 36.77L67.5548 37.73C67.3015 37.8567 67.0415 37.95 66.7748 38.01C66.5148 38.07 66.2348 38.1 65.9348 38.1ZM71.7982 38V30.7H73.0982V38H71.7982ZM74.7144 38V32.8H75.8844L75.8944 33.5H75.9144C76.1477 33.2267 76.4077 33.0267 76.6944 32.9C76.9877 32.7667 77.321 32.7 77.6944 32.7C78.3277 32.7 78.7877 32.8833 79.0744 33.25C79.3677 33.6167 79.5144 34.2 79.5144 35V38H78.2944V35.23C78.2944 34.7167 78.2144 34.3367 78.0544 34.09C77.8944 33.8367 77.6477 33.71 77.3144 33.71C77.061 33.71 76.8277 33.7733 76.6144 33.9C76.4077 34.0267 76.2444 34.1967 76.1244 34.41C76.0044 34.6167 75.9444 34.8467 75.9444 35.1V38H74.7144ZM81.4816 38V33.98H80.1516V33H81.4816V32.21C81.4816 31.5767 81.6383 31.1 81.9516 30.78C82.2716 30.46 82.7383 30.3 83.3516 30.3C83.5383 30.3 83.7216 30.3133 83.9016 30.34C84.0816 30.3667 84.2483 30.4033 84.4016 30.45L84.2616 31.44C84.0216 31.36 83.785 31.32 83.5516 31.32C83.245 31.32 83.0283 31.3933 82.9016 31.54C82.7816 31.68 82.7216 31.9233 82.7216 32.27V33H84.3616V33.98H82.7216V38H81.4816ZM87.2969 38.1C86.7635 38.1 86.2969 37.99 85.8969 37.77C85.5035 37.55 85.2002 37.2367 84.9869 36.83C84.7735 36.4233 84.6669 35.9467 84.6669 35.4C84.6669 34.8467 84.7735 34.37 84.9869 33.97C85.2002 33.5633 85.5035 33.25 85.8969 33.03C86.2969 32.81 86.7635 32.7 87.2969 32.7C87.8369 32.7 88.3035 32.81 88.6969 33.03C89.0902 33.25 89.3935 33.5633 89.6069 33.97C89.8269 34.37 89.9369 34.8467 89.9369 35.4C89.9369 35.9467 89.8269 36.4233 89.6069 36.83C89.3935 37.2367 89.0902 37.55 88.6969 37.77C88.3035 37.99 87.8369 38.1 87.2969 38.1ZM87.2969 37.12C87.7435 37.12 88.0902 36.97 88.3369 36.67C88.5835 36.37 88.7069 35.9467 88.7069 35.4C88.7069 34.8467 88.5835 34.4233 88.3369 34.13C88.0902 33.83 87.7435 33.68 87.2969 33.68C86.8502 33.68 86.5035 33.83 86.2569 34.13C86.0102 34.4233 85.8869 34.8467 85.8869 35.4C85.8869 35.9467 86.0102 36.37 86.2569 36.67C86.5035 36.97 86.8502 37.12 87.2969 37.12Z" fill="#9A9CBC"/>
<path d="M32.77 66.1C32.5167 66.1 32.23 66.0867 31.91 66.06C31.5967 66.04 31.27 66.0067 30.93 65.96V58.74C31.27 58.6933 31.5967 58.66 31.91 58.64C32.23 58.6133 32.5167 58.6 32.77 58.6C33.63 58.6 34.3433 58.7367 34.91 59.01C35.4767 59.2833 35.9 59.6967 36.18 60.25C36.46 60.8033 36.6 61.5033 36.6 62.35C36.6 63.1967 36.46 63.8967 36.18 64.45C35.9 65.0033 35.4767 65.4167 34.91 65.69C34.3433 65.9633 33.63 66.1 32.77 66.1ZM32.81 65.37C33.4967 65.37 34.0567 65.2633 34.49 65.05C34.93 64.8367 35.2567 64.5067 35.47 64.06C35.6833 63.6133 35.79 63.0433 35.79 62.35C35.79 61.6567 35.6833 61.0867 35.47 60.64C35.2567 60.1933 34.93 59.8633 34.49 59.65C34.0567 59.4367 33.4967 59.33 32.81 59.33C32.5967 59.33 32.3667 59.34 32.12 59.36C31.8733 59.38 31.6067 59.41 31.32 59.45L31.73 59.03V65.67L31.32 65.25C31.6067 65.2833 31.8733 65.3133 32.12 65.34C32.3667 65.36 32.5967 65.37 32.81 65.37ZM40.0303 66.1C39.517 66.1 39.067 65.99 38.6803 65.77C38.3003 65.55 38.007 65.2367 37.8003 64.83C37.6003 64.4233 37.5003 63.9467 37.5003 63.4C37.5003 62.8467 37.6003 62.37 37.8003 61.97C38.007 61.5633 38.3003 61.25 38.6803 61.03C39.067 60.81 39.517 60.7 40.0303 60.7C40.5503 60.7 40.997 60.81 41.3703 61.03C41.7503 61.25 42.0436 61.5633 42.2503 61.97C42.457 62.37 42.5603 62.8467 42.5603 63.4C42.5603 63.9467 42.457 64.4233 42.2503 64.83C42.0436 65.2367 41.7503 65.55 41.3703 65.77C40.997 65.99 40.5503 66.1 40.0303 66.1ZM40.0303 65.43C40.577 65.43 41.0036 65.25 41.3103 64.89C41.6236 64.53 41.7803 64.0333 41.7803 63.4C41.7803 62.76 41.6236 62.2633 41.3103 61.91C41.0036 61.55 40.577 61.37 40.0303 61.37C39.4836 61.37 39.0536 61.55 38.7403 61.91C38.4336 62.2633 38.2803 62.76 38.2803 63.4C38.2803 64.0333 38.4336 64.53 38.7403 64.89C39.0536 65.25 39.4836 65.43 40.0303 65.43ZM46.1871 66.1C45.6204 66.1 45.1338 65.9933 44.7271 65.78C44.3204 65.56 44.0071 65.25 43.7871 64.85C43.5738 64.4433 43.4671 63.96 43.4671 63.4C43.4671 62.84 43.5738 62.36 43.7871 61.96C44.0071 61.5533 44.3204 61.2433 44.7271 61.03C45.1338 60.81 45.6204 60.7 46.1871 60.7C46.4671 60.7 46.7338 60.73 46.9871 60.79C47.2404 60.8433 47.4871 60.9333 47.7271 61.06L47.5771 61.7C47.3504 61.5867 47.1271 61.5033 46.9071 61.45C46.6871 61.3967 46.4638 61.37 46.2371 61.37C45.6171 61.37 45.1338 61.55 44.7871 61.91C44.4404 62.2633 44.2671 62.76 44.2671 63.4C44.2671 64.0333 44.4404 64.53 44.7871 64.89C45.1338 65.25 45.6171 65.43 46.2371 65.43C46.4638 65.43 46.6871 65.4033 46.9071 65.35C47.1271 65.2967 47.3504 65.2133 47.5771 65.1L47.7271 65.74C47.4871 65.86 47.2404 65.95 46.9871 66.01C46.7338 66.07 46.4671 66.1 46.1871 66.1ZM52.3093 66V58.7H53.1393V66H52.3093ZM55.0099 66V60.8H55.7799V61.57H55.7999C56.0066 61.2833 56.2666 61.0667 56.5799 60.92C56.8999 60.7733 57.2599 60.7 57.6599 60.7C58.2933 60.7 58.7599 60.89 59.0599 61.27C59.3599 61.6433 59.5099 62.22 59.5099 63V66H58.7199V63.14C58.7199 62.54 58.6166 62.0967 58.4099 61.81C58.2033 61.5167 57.8866 61.37 57.4599 61.37C57.1399 61.37 56.8533 61.4433 56.5999 61.59C56.3533 61.73 56.1566 61.9267 56.0099 62.18C55.8699 62.4267 55.7999 62.7133 55.7999 63.04V66H55.0099ZM61.6516 66V61.67H60.1816V61H61.6516V60.03C61.6516 59.45 61.7916 59.0167 62.0716 58.73C62.3516 58.4433 62.775 58.3 63.3416 58.3C63.5083 58.3 63.6716 58.3133 63.8316 58.34C63.9916 58.3667 64.1416 58.4033 64.2816 58.45L64.1716 59.11C63.9316 59.03 63.6916 58.99 63.4516 58.99C63.0916 58.99 62.8316 59.0733 62.6716 59.24C62.5183 59.4067 62.4416 59.69 62.4416 60.09V61H64.2616V61.67H62.4416V66H61.6516ZM67.1006 66.1C66.5873 66.1 66.1373 65.99 65.7506 65.77C65.3706 65.55 65.0773 65.2367 64.8706 64.83C64.6706 64.4233 64.5706 63.9467 64.5706 63.4C64.5706 62.8467 64.6706 62.37 64.8706 61.97C65.0773 61.5633 65.3706 61.25 65.7506 61.03C66.1373 60.81 66.5873 60.7 67.1006 60.7C67.6206 60.7 68.0673 60.81 68.4406 61.03C68.8206 61.25 69.114 61.5633 69.3206 61.97C69.5273 62.37 69.6306 62.8467 69.6306 63.4C69.6306 63.9467 69.5273 64.4233 69.3206 64.83C69.114 65.2367 68.8206 65.55 68.4406 65.77C68.0673 65.99 67.6206 66.1 67.1006 66.1ZM67.1006 65.43C67.6473 65.43 68.074 65.25 68.3806 64.89C68.694 64.53 68.8506 64.0333 68.8506 63.4C68.8506 62.76 68.694 62.2633 68.3806 61.91C68.074 61.55 67.6473 61.37 67.1006 61.37C66.554 61.37 66.124 61.55 65.8106 61.91C65.504 62.2633 65.3506 62.76 65.3506 63.4C65.3506 64.0333 65.504 64.53 65.8106 64.89C66.124 65.25 66.554 65.43 67.1006 65.43ZM70.8986 66V60.8H71.6586L71.6686 61.89H71.6886C71.8419 61.6433 72.0386 61.4333 72.2786 61.26C72.5186 61.08 72.7919 60.9433 73.0986 60.85C73.4053 60.75 73.7286 60.7 74.0686 60.7V61.4C73.6286 61.4 73.2286 61.49 72.8686 61.67C72.5086 61.85 72.2219 62.09 72.0086 62.39C71.8019 62.69 71.6986 63.0267 71.6986 63.4V66H70.8986ZM75.0978 66V60.8H75.8378L75.8478 61.57H75.8678C76.0345 61.29 76.2545 61.0767 76.5278 60.93C76.8078 60.7767 77.1278 60.7 77.4878 60.7C77.8478 60.7 78.1545 60.7767 78.4078 60.93C78.6678 61.0767 78.8478 61.29 78.9478 61.57H78.9678C79.1278 61.2767 79.3478 61.06 79.6278 60.92C79.9145 60.7733 80.2578 60.7 80.6578 60.7C81.2311 60.7 81.6411 60.8633 81.8878 61.19C82.1411 61.5167 82.2678 62.0667 82.2678 62.84V66H81.4878V62.94C81.4878 62.3733 81.4078 61.97 81.2478 61.73C81.0878 61.49 80.8178 61.37 80.4378 61.37C79.9911 61.37 79.6511 61.5233 79.4178 61.83C79.1845 62.13 79.0678 62.5733 79.0678 63.16V66H78.2978V62.6C78.2978 62.2133 78.2045 61.9133 78.0178 61.7C77.8311 61.48 77.5745 61.37 77.2478 61.37C76.8411 61.37 76.5078 61.5367 76.2478 61.87C75.9945 62.1967 75.8678 62.6267 75.8678 63.16V66H75.0978ZM84.9992 66.1C84.4726 66.1 84.0559 65.96 83.7492 65.68C83.4426 65.3933 83.2892 65.01 83.2892 64.53C83.2892 63.93 83.5326 63.47 84.0192 63.15C84.5059 62.8233 85.2026 62.66 86.1092 62.66H86.9392C86.9392 62.1867 86.8292 61.8533 86.6092 61.66C86.3959 61.4667 86.0326 61.37 85.5192 61.37C85.1659 61.37 84.8359 61.4133 84.5292 61.5C84.2292 61.58 83.9259 61.71 83.6192 61.89L83.4892 61.22C83.8026 61.04 84.1326 60.91 84.4792 60.83C84.8259 60.7433 85.2026 60.7 85.6092 60.7C86.1159 60.7 86.5226 60.77 86.8292 60.91C87.1426 61.0433 87.3692 61.26 87.5092 61.56C87.6559 61.8533 87.7292 62.2433 87.7292 62.73V66H86.9692V65.29H86.9392C86.7659 65.53 86.4959 65.7267 86.1292 65.88C85.7692 66.0267 85.3926 66.1 84.9992 66.1ZM85.2492 65.45C85.5626 65.45 85.8459 65.39 86.0992 65.27C86.3592 65.15 86.5626 64.99 86.7092 64.79C86.8626 64.5833 86.9392 64.3567 86.9392 64.11V63.27H86.2092C85.5026 63.27 84.9692 63.3733 84.6092 63.58C84.2492 63.78 84.0692 64.0733 84.0692 64.46C84.0692 64.7667 84.1726 65.01 84.3792 65.19C84.5859 65.3633 84.8759 65.45 85.2492 65.45ZM91.3843 66.1C90.7843 66.1 90.3476 65.97 90.0743 65.71C89.8076 65.45 89.6743 65.0233 89.6743 64.43V61.47H88.4143V60.8H89.6743V59.1H90.4743V60.8H92.4043V61.47H90.4743V64.33C90.4743 64.7167 90.5543 64.9933 90.7143 65.16C90.8743 65.32 91.1443 65.4 91.5243 65.4C91.671 65.4 91.8043 65.39 91.9243 65.37C92.0443 65.3433 92.171 65.3067 92.3043 65.26L92.4143 65.92C92.241 65.98 92.071 66.0233 91.9043 66.05C91.7443 66.0833 91.571 66.1 91.3843 66.1ZM94.0204 66V60.8H94.8204V66H94.0204ZM94.4204 59.81C94.2471 59.81 94.1037 59.7567 93.9904 59.65C93.8837 59.5367 93.8304 59.39 93.8304 59.21C93.8304 59.0367 93.8837 58.8967 93.9904 58.79C94.1037 58.6767 94.2471 58.62 94.4204 58.62C94.6004 58.62 94.7437 58.6767 94.8504 58.79C94.9637 58.8967 95.0204 59.0367 95.0204 59.21C95.0204 59.39 94.9637 59.5367 94.8504 59.65C94.7437 59.7567 94.6004 59.81 94.4204 59.81ZM98.9073 66.1C98.3939 66.1 97.9439 65.99 97.5573 65.77C97.1773 65.55 96.8839 65.2367 96.6773 64.83C96.4773 64.4233 96.3773 63.9467 96.3773 63.4C96.3773 62.8467 96.4773 62.37 96.6773 61.97C96.8839 61.5633 97.1773 61.25 97.5573 61.03C97.9439 60.81 98.3939 60.7 98.9073 60.7C99.4273 60.7 99.8739 60.81 100.247 61.03C100.627 61.25 100.921 61.5633 101.127 61.97C101.334 62.37 101.437 62.8467 101.437 63.4C101.437 63.9467 101.334 64.4233 101.127 64.83C100.921 65.2367 100.627 65.55 100.247 65.77C99.8739 65.99 99.4273 66.1 98.9073 66.1ZM98.9073 65.43C99.4539 65.43 99.8806 65.25 100.187 64.89C100.501 64.53 100.657 64.0333 100.657 63.4C100.657 62.76 100.501 62.2633 100.187 61.91C99.8806 61.55 99.4539 61.37 98.9073 61.37C98.3606 61.37 97.9306 61.55 97.6173 61.91C97.3106 62.2633 97.1573 62.76 97.1573 63.4C97.1573 64.0333 97.3106 64.53 97.6173 64.89C97.9306 65.25 98.3606 65.43 98.9073 65.43ZM102.705 66V60.8H103.475V61.57H103.495C103.702 61.2833 103.962 61.0667 104.275 60.92C104.595 60.7733 104.955 60.7 105.355 60.7C105.989 60.7 106.455 60.89 106.755 61.27C107.055 61.6433 107.205 62.22 107.205 63V66H106.415V63.14C106.415 62.54 106.312 62.0967 106.105 61.81C105.899 61.5167 105.582 61.37 105.155 61.37C104.835 61.37 104.549 61.4433 104.295 61.59C104.049 61.73 103.852 61.9267 103.705 62.18C103.565 62.4267 103.495 62.7133 103.495 63.04V66H102.705ZM30.93 81V73.7H35.57V74.42H31.73V76.8H35.37V77.51H31.73V80.28H35.57V81H30.93ZM36.5023 81L38.3323 78.38L36.5323 75.8H37.4423L38.8523 77.94H38.8723L40.2923 75.8H41.2023L39.4023 78.38L41.2323 81H40.3223L38.8723 78.82H38.8523L37.4123 81H36.5023ZM44.812 81.1C44.212 81.1 43.7754 80.97 43.502 80.71C43.2354 80.45 43.102 80.0233 43.102 79.43V76.47H41.842V75.8H43.102V74.1H43.902V75.8H45.832V76.47H43.902V79.33C43.902 79.7167 43.982 79.9933 44.142 80.16C44.302 80.32 44.572 80.4 44.952 80.4C45.0987 80.4 45.232 80.39 45.352 80.37C45.472 80.3433 45.5987 80.3067 45.732 80.26L45.842 80.92C45.6687 80.98 45.4987 81.0233 45.332 81.05C45.172 81.0833 44.9987 81.1 44.812 81.1ZM47.1681 81V75.8H47.9281L47.9381 76.89H47.9581C48.1115 76.6433 48.3081 76.4333 48.5481 76.26C48.7881 76.08 49.0615 75.9433 49.3681 75.85C49.6748 75.75 49.9981 75.7 50.3381 75.7V76.4C49.8981 76.4 49.4981 76.49 49.1381 76.67C48.7781 76.85 48.4915 77.09 48.2781 77.39C48.0715 77.69 47.9681 78.0267 47.9681 78.4V81H47.1681ZM52.4602 81.1C51.9335 81.1 51.5168 80.96 51.2102 80.68C50.9035 80.3933 50.7502 80.01 50.7502 79.53C50.7502 78.93 50.9935 78.47 51.4802 78.15C51.9668 77.8233 52.6635 77.66 53.5702 77.66H54.4002C54.4002 77.1867 54.2902 76.8533 54.0702 76.66C53.8568 76.4667 53.4935 76.37 52.9802 76.37C52.6268 76.37 52.2968 76.4133 51.9902 76.5C51.6902 76.58 51.3868 76.71 51.0802 76.89L50.9502 76.22C51.2635 76.04 51.5935 75.91 51.9402 75.83C52.2868 75.7433 52.6635 75.7 53.0702 75.7C53.5768 75.7 53.9835 75.77 54.2902 75.91C54.6035 76.0433 54.8302 76.26 54.9702 76.56C55.1168 76.8533 55.1902 77.2433 55.1902 77.73V81H54.4302V80.29H54.4002C54.2268 80.53 53.9568 80.7267 53.5902 80.88C53.2302 81.0267 52.8535 81.1 52.4602 81.1ZM52.7102 80.45C53.0235 80.45 53.3068 80.39 53.5602 80.27C53.8202 80.15 54.0235 79.99 54.1702 79.79C54.3235 79.5833 54.4002 79.3567 54.4002 79.11V78.27H53.6702C52.9635 78.27 52.4302 78.3733 52.0702 78.58C51.7102 78.78 51.5302 79.0733 51.5302 79.46C51.5302 79.7667 51.6335 80.01 51.8402 80.19C52.0468 80.3633 52.3368 80.45 52.7102 80.45ZM59.0191 81.1C58.4525 81.1 57.9658 80.9933 57.5591 80.78C57.1525 80.56 56.8391 80.25 56.6191 79.85C56.4058 79.4433 56.2991 78.96 56.2991 78.4C56.2991 77.84 56.4058 77.36 56.6191 76.96C56.8391 76.5533 57.1525 76.2433 57.5591 76.03C57.9658 75.81 58.4525 75.7 59.0191 75.7C59.2991 75.7 59.5658 75.73 59.8191 75.79C60.0725 75.8433 60.3191 75.9333 60.5591 76.06L60.4091 76.7C60.1825 76.5867 59.9591 76.5033 59.7391 76.45C59.5191 76.3967 59.2958 76.37 59.0691 76.37C58.4491 76.37 57.9658 76.55 57.6191 76.91C57.2725 77.2633 57.0991 77.76 57.0991 78.4C57.0991 79.0333 57.2725 79.53 57.6191 79.89C57.9658 80.25 58.4491 80.43 59.0691 80.43C59.2958 80.43 59.5191 80.4033 59.7391 80.35C59.9591 80.2967 60.1825 80.2133 60.4091 80.1L60.5591 80.74C60.3191 80.86 60.0725 80.95 59.8191 81.01C59.5658 81.07 59.2991 81.1 59.0191 81.1ZM64.3433 81.1C63.7433 81.1 63.3066 80.97 63.0333 80.71C62.7666 80.45 62.6333 80.0233 62.6333 79.43V76.47H61.3733V75.8H62.6333V74.1H63.4333V75.8H65.3633V76.47H63.4333V79.33C63.4333 79.7167 63.5133 79.9933 63.6733 80.16C63.8333 80.32 64.1033 80.4 64.4833 80.4C64.6299 80.4 64.7633 80.39 64.8833 80.37C65.0033 80.3433 65.1299 80.3067 65.2633 80.26L65.3733 80.92C65.1999 80.98 65.0299 81.0233 64.8633 81.05C64.7033 81.0833 64.5299 81.1 64.3433 81.1ZM68.6534 81.1C68.14 81.1 67.69 80.99 67.3034 80.77C66.9234 80.55 66.63 80.2367 66.4234 79.83C66.2234 79.4233 66.1234 78.9467 66.1234 78.4C66.1234 77.8467 66.2234 77.37 66.4234 76.97C66.63 76.5633 66.9234 76.25 67.3034 76.03C67.69 75.81 68.14 75.7 68.6534 75.7C69.1734 75.7 69.62 75.81 69.9934 76.03C70.3734 76.25 70.6667 76.5633 70.8734 76.97C71.08 77.37 71.1834 77.8467 71.1834 78.4C71.1834 78.9467 71.08 79.4233 70.8734 79.83C70.6667 80.2367 70.3734 80.55 69.9934 80.77C69.62 80.99 69.1734 81.1 68.6534 81.1ZM68.6534 80.43C69.2 80.43 69.6267 80.25 69.9334 79.89C70.2467 79.53 70.4034 79.0333 70.4034 78.4C70.4034 77.76 70.2467 77.2633 69.9334 76.91C69.6267 76.55 69.2 76.37 68.6534 76.37C68.1067 76.37 67.6767 76.55 67.3634 76.91C67.0567 77.2633 66.9034 77.76 66.9034 78.4C66.9034 79.0333 67.0567 79.53 67.3634 79.89C67.6767 80.25 68.1067 80.43 68.6534 80.43ZM72.4513 81V75.8H73.2113L73.2213 76.89H73.2413C73.3947 76.6433 73.5913 76.4333 73.8313 76.26C74.0713 76.08 74.3447 75.9433 74.6513 75.85C74.958 75.75 75.2813 75.7 75.6213 75.7V76.4C75.1813 76.4 74.7813 76.49 74.4213 76.67C74.0613 76.85 73.7747 77.09 73.5613 77.39C73.3547 77.69 73.2513 78.0267 73.2513 78.4V81H72.4513Z" fill="#9A9CBC"/>
<rect x="30.5" y="101.5" width="56" height="19" rx="5.5" fill="#1E2027"/>
<rect x="30.5" y="101.5" width="56" height="19" rx="5.5" stroke="#292A36"/>
<path d="M39.244 114.5V108.66H39.9V113.916H43.22V114.5H39.244ZM44.9994 114.58C44.578 114.58 44.2447 114.468 43.9994 114.244C43.754 114.015 43.6314 113.708 43.6314 113.324C43.6314 112.844 43.826 112.476 44.2154 112.22C44.6047 111.959 45.162 111.828 45.8874 111.828H46.5514C46.5514 111.449 46.4634 111.183 46.2874 111.028C46.1167 110.873 45.826 110.796 45.4154 110.796C45.1327 110.796 44.8687 110.831 44.6234 110.9C44.3834 110.964 44.1407 111.068 43.8954 111.212L43.7914 110.676C44.042 110.532 44.306 110.428 44.5834 110.364C44.8607 110.295 45.162 110.26 45.4874 110.26C45.8927 110.26 46.218 110.316 46.4634 110.428C46.714 110.535 46.8954 110.708 47.0074 110.948C47.1247 111.183 47.1834 111.495 47.1834 111.884V114.5H46.5754V113.932H46.5514C46.4127 114.124 46.1967 114.281 45.9034 114.404C45.6154 114.521 45.314 114.58 44.9994 114.58ZM45.1994 114.06C45.45 114.06 45.6767 114.012 45.8794 113.916C46.0874 113.82 46.25 113.692 46.3674 113.532C46.49 113.367 46.5514 113.185 46.5514 112.988V112.316H45.9674C45.402 112.316 44.9754 112.399 44.6874 112.564C44.3994 112.724 44.2554 112.959 44.2554 113.268C44.2554 113.513 44.338 113.708 44.5034 113.852C44.6687 113.991 44.9007 114.06 45.1994 114.06ZM48.3986 114.5V110.34H49.0146V110.956H49.0306C49.1959 110.727 49.4039 110.553 49.6546 110.436C49.9106 110.319 50.1986 110.26 50.5186 110.26C51.0252 110.26 51.3986 110.412 51.6386 110.716C51.8786 111.015 51.9986 111.476 51.9986 112.1V114.5H51.3666V112.212C51.3666 111.732 51.2839 111.377 51.1186 111.148C50.9532 110.913 50.6999 110.796 50.3586 110.796C50.1026 110.796 49.8732 110.855 49.6706 110.972C49.4732 111.084 49.3159 111.241 49.1986 111.444C49.0866 111.641 49.0306 111.871 49.0306 112.132V114.5H48.3986ZM54.6751 116.26C54.3551 116.26 54.0671 116.223 53.8111 116.148C53.5551 116.073 53.3231 115.959 53.1151 115.804L53.2751 115.292C53.4831 115.441 53.6937 115.551 53.9071 115.62C54.1204 115.689 54.3604 115.724 54.6271 115.724C55.1391 115.724 55.5097 115.593 55.7391 115.332C55.9737 115.076 56.0911 114.665 56.0911 114.1V113.732H56.0751C55.9311 113.919 55.7337 114.068 55.4831 114.18C55.2324 114.287 54.9551 114.34 54.6511 114.34C54.0964 114.34 53.6617 114.161 53.3471 113.804C53.0324 113.441 52.8751 112.94 52.8751 112.3C52.8751 111.66 53.0324 111.161 53.3471 110.804C53.6617 110.441 54.0964 110.26 54.6511 110.26C54.9551 110.26 55.2351 110.316 55.4911 110.428C55.7471 110.535 55.9471 110.681 56.0911 110.868H56.1071L56.1151 110.34H56.7151V114.1C56.7151 114.831 56.5471 115.372 56.2111 115.724C55.8804 116.081 55.3684 116.26 54.6751 116.26ZM54.7871 113.804C55.0377 113.804 55.2591 113.759 55.4511 113.668C55.6484 113.572 55.8031 113.444 55.9151 113.284C56.0324 113.119 56.0911 112.929 56.0911 112.716V111.884C56.0911 111.676 56.0324 111.489 55.9151 111.324C55.8031 111.159 55.6484 111.031 55.4511 110.94C55.2591 110.844 55.0377 110.796 54.7871 110.796C54.3817 110.796 54.0644 110.927 53.8351 111.188C53.6111 111.449 53.4991 111.82 53.4991 112.3C53.4991 112.78 53.6111 113.151 53.8351 113.412C54.0644 113.673 54.3817 113.804 54.7871 113.804ZM59.9184 114.58C59.4651 114.58 59.0758 114.495 58.7504 114.324C58.4251 114.148 58.1744 113.9 57.9984 113.58C57.8278 113.255 57.7424 112.868 57.7424 112.42C57.7424 111.972 57.8278 111.588 57.9984 111.268C58.1744 110.943 58.4251 110.695 58.7504 110.524C59.0758 110.348 59.4651 110.26 59.9184 110.26C60.1424 110.26 60.3558 110.284 60.5584 110.332C60.7611 110.375 60.9584 110.447 61.1504 110.548L61.0304 111.06C60.8491 110.969 60.6704 110.903 60.4944 110.86C60.3184 110.817 60.1398 110.796 59.9584 110.796C59.4624 110.796 59.0758 110.94 58.7984 111.228C58.5211 111.511 58.3824 111.908 58.3824 112.42C58.3824 112.927 58.5211 113.324 58.7984 113.612C59.0758 113.9 59.4624 114.044 59.9584 114.044C60.1398 114.044 60.3184 114.023 60.4944 113.98C60.6704 113.937 60.8491 113.871 61.0304 113.78L61.1504 114.292C60.9584 114.388 60.7611 114.46 60.5584 114.508C60.3558 114.556 60.1424 114.58 59.9184 114.58ZM62.3673 114.5V108.66H62.9993V110.9H63.0153C63.1753 110.692 63.3806 110.535 63.6313 110.428C63.882 110.316 64.17 110.26 64.4953 110.26C65.0073 110.26 65.3806 110.396 65.6153 110.668C65.8553 110.94 65.9726 111.364 65.9673 111.94V114.5H65.3433V112.052C65.3486 111.62 65.2686 111.303 65.1033 111.1C64.938 110.897 64.682 110.796 64.3353 110.796C64.074 110.796 63.842 110.849 63.6393 110.956C63.442 111.057 63.2873 111.199 63.1753 111.38C63.0633 111.556 63.0046 111.764 62.9993 112.004V114.5H62.3673ZM68.1478 114.58C67.7265 114.58 67.3931 114.468 67.1478 114.244C66.9025 114.015 66.7798 113.708 66.7798 113.324C66.7798 112.844 66.9745 112.476 67.3638 112.22C67.7531 111.959 68.3105 111.828 69.0358 111.828H69.6998C69.6998 111.449 69.6118 111.183 69.4358 111.028C69.2651 110.873 68.9745 110.796 68.5638 110.796C68.2811 110.796 68.0171 110.831 67.7718 110.9C67.5318 110.964 67.2891 111.068 67.0438 111.212L66.9398 110.676C67.1905 110.532 67.4545 110.428 67.7318 110.364C68.0091 110.295 68.3105 110.26 68.6358 110.26C69.0411 110.26 69.3665 110.316 69.6118 110.428C69.8625 110.535 70.0438 110.708 70.1558 110.948C70.2731 111.183 70.3318 111.495 70.3318 111.884V114.5H69.7238V113.932H69.6998C69.5611 114.124 69.3451 114.281 69.0518 114.404C68.7638 114.521 68.4625 114.58 68.1478 114.58ZM68.3478 114.06C68.5985 114.06 68.8251 114.012 69.0278 113.916C69.2358 113.82 69.3985 113.692 69.5158 113.532C69.6385 113.367 69.6998 113.185 69.6998 112.988V112.316H69.1158C68.5505 112.316 68.1238 112.399 67.8358 112.564C67.5478 112.724 67.4038 112.959 67.4038 113.268C67.4038 113.513 67.4865 113.708 67.6518 113.852C67.8171 113.991 68.0491 114.06 68.3478 114.06ZM71.771 114.5V110.34H72.411V114.5H71.771ZM72.091 109.548C71.9523 109.548 71.8377 109.505 71.747 109.42C71.6617 109.329 71.619 109.212 71.619 109.068C71.619 108.929 71.6617 108.817 71.747 108.732C71.8377 108.641 71.9523 108.596 72.091 108.596C72.235 108.596 72.3497 108.641 72.435 108.732C72.5257 108.817 72.571 108.929 72.571 109.068C72.571 109.212 72.5257 109.329 72.435 109.42C72.3497 109.505 72.235 109.548 72.091 109.548ZM73.9845 114.5V110.34H74.6005V110.956H74.6165C74.7818 110.727 74.9898 110.553 75.2405 110.436C75.4965 110.319 75.7845 110.26 76.1045 110.26C76.6112 110.26 76.9845 110.412 77.2245 110.716C77.4645 111.015 77.5845 111.476 77.5845 112.1V114.5H76.9525V112.212C76.9525 111.732 76.8698 111.377 76.7045 111.148C76.5392 110.913 76.2858 110.796 75.9445 110.796C75.6885 110.796 75.4592 110.855 75.2565 110.972C75.0592 111.084 74.9018 111.241 74.7845 111.444C74.6725 111.641 74.6165 111.871 74.6165 112.132V114.5H73.9845Z" fill="#9A9CBC"/>
</g>
<rect x="0.5" y="0.5" width="170" height="110" rx="3.5" fill="#101114"/>
<rect x="0.5" y="0.5" width="170" height="110" rx="3.5" stroke="#292A36"/>
<rect x="1" y="1" width="170" height="27" fill="#1A1C23"/>
<path d="M10.81 10.74C11.05 10.7133 11.3033 10.69 11.57 10.67C11.8367 10.65 12.1 10.6333 12.36 10.62C12.62 10.6067 12.8533 10.6 13.06 10.6C14.14 10.6 14.93 10.7833 15.43 11.15C15.9367 11.5167 16.19 12.0967 16.19 12.89C16.19 13.6833 15.9367 14.2633 15.43 14.63C14.93 14.9967 14.14 15.18 13.06 15.18C12.8067 15.18 12.52 15.17 12.2 15.15C11.8867 15.13 11.5833 15.1067 11.29 15.08L11.47 14.01C11.8167 14.05 12.1233 14.0833 12.39 14.11C12.6633 14.13 12.9067 14.14 13.12 14.14C13.7533 14.14 14.21 14.0433 14.49 13.85C14.7767 13.65 14.92 13.34 14.92 12.92C14.92 12.4867 14.7767 12.1767 14.49 11.99C14.21 11.7967 13.7533 11.7 13.12 11.7C12.9067 11.7 12.6633 11.71 12.39 11.73C12.1233 11.75 11.8167 11.7833 11.47 11.83L12.06 11.17V18H10.81V10.74ZM15.03 18L11.5 14.58H13.02L16.61 18H15.03ZM19.5655 18.1C18.6789 18.1 17.9955 17.8667 17.5155 17.4C17.0422 16.9333 16.8055 16.2667 16.8055 15.4C16.8055 14.56 17.0322 13.9 17.4855 13.42C17.9455 12.94 18.5722 12.7 19.3655 12.7C20.1322 12.7 20.7255 12.9267 21.1455 13.38C21.5655 13.8333 21.7755 14.4767 21.7755 15.31C21.7755 15.4033 21.7722 15.5067 21.7655 15.62C21.7589 15.7333 21.7522 15.8167 21.7455 15.87H17.4855V14.98H20.8055L20.6255 15.25C20.6255 14.7033 20.5189 14.3 20.3055 14.04C20.0989 13.7733 19.7855 13.64 19.3655 13.64C18.9189 13.64 18.5789 13.78 18.3455 14.06C18.1189 14.3333 18.0055 14.74 18.0055 15.28V15.63C18.0055 16.1233 18.1355 16.4967 18.3955 16.75C18.6622 16.9967 19.0555 17.12 19.5755 17.12C19.8822 17.12 20.1889 17.08 20.4955 17C20.8022 16.92 21.0789 16.81 21.3255 16.67L21.5155 17.63C21.2622 17.7767 20.9655 17.8933 20.6255 17.98C20.2922 18.06 19.9389 18.1 19.5655 18.1ZM24.8777 20.2C24.4644 20.2 24.0877 20.1533 23.7477 20.06C23.4077 19.9667 23.1111 19.8267 22.8577 19.64L23.0877 18.68C23.3544 18.8667 23.6211 19.0033 23.8877 19.09C24.1611 19.1767 24.4577 19.22 24.7777 19.22C25.3444 19.22 25.7611 19.0733 26.0277 18.78C26.2944 18.4933 26.4277 18.0433 26.4277 17.43V17.13H26.4077C26.2077 17.35 25.9644 17.5167 25.6777 17.63C25.3977 17.7433 25.0877 17.8 24.7477 17.8C24.0544 17.8 23.5144 17.5767 23.1277 17.13C22.7411 16.6833 22.5477 16.0567 22.5477 15.25C22.5477 14.4433 22.7411 13.8167 23.1277 13.37C23.5144 12.9233 24.0544 12.7 24.7477 12.7C25.0944 12.7 25.4144 12.76 25.7077 12.88C26.0077 12.9933 26.2544 13.1567 26.4477 13.37H26.4677L26.4777 12.8H27.6377V17.43C27.6377 18.35 27.4077 19.04 26.9477 19.5C26.4877 19.9667 25.7977 20.2 24.8777 20.2ZM25.0677 16.8C25.3344 16.8 25.5677 16.7533 25.7677 16.66C25.9677 16.5667 26.1277 16.44 26.2477 16.28C26.3677 16.12 26.4277 15.9333 26.4277 15.72V14.78C26.4277 14.5733 26.3677 14.39 26.2477 14.23C26.1277 14.0633 25.9677 13.9333 25.7677 13.84C25.5677 13.7467 25.3344 13.7 25.0677 13.7C24.6544 13.7 24.3311 13.8367 24.0977 14.11C23.8644 14.3767 23.7477 14.7567 23.7477 15.25C23.7477 15.75 23.8644 16.1333 24.0977 16.4C24.3311 16.6667 24.6544 16.8 25.0677 16.8ZM29.3489 18V12.85H30.5889V18H29.3489ZM29.9689 12.11C29.7289 12.11 29.5389 12.0433 29.3989 11.91C29.2589 11.77 29.1889 11.5833 29.1889 11.35C29.1889 11.1167 29.2589 10.93 29.3989 10.79C29.5389 10.65 29.7289 10.58 29.9689 10.58C30.2089 10.58 30.3989 10.65 30.5389 10.79C30.6789 10.93 30.7489 11.1167 30.7489 11.35C30.7489 11.5833 30.6789 11.77 30.5389 11.91C30.3989 12.0433 30.2089 12.11 29.9689 12.11ZM34.5625 18.1C34.0292 18.1 33.5625 17.99 33.1625 17.77C32.7692 17.55 32.4658 17.2367 32.2525 16.83C32.0392 16.4233 31.9325 15.9467 31.9325 15.4C31.9325 14.8467 32.0392 14.37 32.2525 13.97C32.4658 13.5633 32.7692 13.25 33.1625 13.03C33.5625 12.81 34.0292 12.7 34.5625 12.7C35.1025 12.7 35.5692 12.81 35.9625 13.03C36.3558 13.25 36.6592 13.5633 36.8725 13.97C37.0925 14.37 37.2025 14.8467 37.2025 15.4C37.2025 15.9467 37.0925 16.4233 36.8725 16.83C36.6592 17.2367 36.3558 17.55 35.9625 17.77C35.5692 17.99 35.1025 18.1 34.5625 18.1ZM34.5625 17.12C35.0092 17.12 35.3558 16.97 35.6025 16.67C35.8492 16.37 35.9725 15.9467 35.9725 15.4C35.9725 14.8467 35.8492 14.4233 35.6025 14.13C35.3558 13.83 35.0092 13.68 34.5625 13.68C34.1158 13.68 33.7692 13.83 33.5225 14.13C33.2758 14.4233 33.1525 14.8467 33.1525 15.4C33.1525 15.9467 33.2758 16.37 33.5225 16.67C33.7692 16.97 34.1158 17.12 34.5625 17.12ZM38.2984 18V12.8H39.4684L39.4784 13.5H39.4984C39.7317 13.2267 39.9917 13.0267 40.2784 12.9C40.5717 12.7667 40.905 12.7 41.2784 12.7C41.9117 12.7 42.3717 12.8833 42.6584 13.25C42.9517 13.6167 43.0984 14.2 43.0984 15V18H41.8784V15.23C41.8784 14.7167 41.7984 14.3367 41.6384 14.09C41.4784 13.8367 41.2317 13.71 40.8984 13.71C40.645 13.71 40.4117 13.7733 40.1984 13.9C39.9917 14.0267 39.8284 14.1967 39.7084 14.41C39.5884 14.6167 39.5284 14.8467 39.5284 15.1V18H38.2984ZM49.5648 18.1C49.0848 18.1 48.6115 18.05 48.1448 17.95C47.6848 17.8433 47.2982 17.7067 46.9848 17.54L47.2848 16.42C47.5115 16.5333 47.7582 16.6333 48.0248 16.72C48.2915 16.8067 48.5648 16.8733 48.8448 16.92C49.1248 16.9667 49.3915 16.99 49.6448 16.99C50.1248 16.99 50.4915 16.9067 50.7448 16.74C51.0048 16.5667 51.1348 16.32 51.1348 16C51.1348 15.8267 51.0948 15.68 51.0148 15.56C50.9348 15.44 50.8148 15.3367 50.6548 15.25C50.5015 15.1567 50.3082 15.0733 50.0748 15C49.8415 14.92 49.5748 14.84 49.2748 14.76C48.9282 14.6667 48.6148 14.56 48.3348 14.44C48.0615 14.3133 47.8248 14.1667 47.6248 14C47.4248 13.8267 47.2715 13.6267 47.1648 13.4C47.0582 13.1667 47.0048 12.9 47.0048 12.6C47.0048 11.9533 47.2482 11.46 47.7348 11.12C48.2215 10.7733 48.9115 10.6 49.8048 10.6C50.2582 10.6 50.7048 10.6433 51.1448 10.73C51.5915 10.81 51.9715 10.92 52.2848 11.06L51.9748 12.18C51.6682 12.0333 51.3215 11.92 50.9348 11.84C50.5482 11.7533 50.1682 11.71 49.7948 11.71C49.3082 11.71 48.9382 11.7867 48.6848 11.94C48.4315 12.0933 48.3048 12.3167 48.3048 12.61C48.3048 12.7767 48.3415 12.92 48.4148 13.04C48.4882 13.16 48.5982 13.2633 48.7448 13.35C48.8915 13.4367 49.0715 13.5167 49.2848 13.59C49.4982 13.6633 49.7515 13.74 50.0448 13.82C50.4115 13.9267 50.7415 14.0433 51.0348 14.17C51.3348 14.29 51.5882 14.4333 51.7948 14.6C52.0015 14.7667 52.1582 14.9667 52.2648 15.2C52.3782 15.4267 52.4348 15.6967 52.4348 16.01C52.4348 16.67 52.1848 17.1833 51.6848 17.55C51.1848 17.9167 50.4782 18.1 49.5648 18.1ZM56.4913 12.7C57.1847 12.7 57.7247 12.9367 58.1113 13.41C58.498 13.8833 58.6913 14.5467 58.6913 15.4C58.6913 16.2533 58.498 16.9167 58.1113 17.39C57.7247 17.8633 57.1847 18.1 56.4913 18.1C56.1513 18.1 55.838 18.04 55.5513 17.92C55.2713 17.7933 55.0347 17.6167 54.8413 17.39H54.8213V20.1H53.5913V12.8H54.7613L54.7713 13.41H54.7913C54.9913 13.1767 55.238 13 55.5313 12.88C55.8247 12.76 56.1447 12.7 56.4913 12.7ZM56.1713 13.7C55.918 13.7 55.688 13.7533 55.4813 13.86C55.2747 13.9667 55.1113 14.1133 54.9913 14.3C54.878 14.48 54.8213 14.69 54.8213 14.93V15.87C54.8213 16.1033 54.878 16.3133 54.9913 16.5C55.1113 16.6867 55.2747 16.8333 55.4813 16.94C55.688 17.0467 55.918 17.1 56.1713 17.1C56.598 17.1 56.9247 16.9533 57.1513 16.66C57.378 16.3667 57.4913 15.9467 57.4913 15.4C57.4913 14.8533 57.378 14.4333 57.1513 14.14C56.9247 13.8467 56.598 13.7 56.1713 13.7ZM62.2413 18.1C61.3547 18.1 60.6713 17.8667 60.1913 17.4C59.718 16.9333 59.4813 16.2667 59.4813 15.4C59.4813 14.56 59.708 13.9 60.1613 13.42C60.6213 12.94 61.248 12.7 62.0413 12.7C62.808 12.7 63.4013 12.9267 63.8213 13.38C64.2413 13.8333 64.4513 14.4767 64.4513 15.31C64.4513 15.4033 64.448 15.5067 64.4413 15.62C64.4347 15.7333 64.428 15.8167 64.4213 15.87H60.1613V14.98H63.4813L63.3013 15.25C63.3013 14.7033 63.1947 14.3 62.9813 14.04C62.7747 13.7733 62.4613 13.64 62.0413 13.64C61.5947 13.64 61.2547 13.78 61.0213 14.06C60.7947 14.3333 60.6813 14.74 60.6813 15.28V15.63C60.6813 16.1233 60.8113 16.4967 61.0713 16.75C61.338 16.9967 61.7313 17.12 62.2513 17.12C62.558 17.12 62.8647 17.08 63.1713 17C63.478 16.92 63.7547 16.81 64.0013 16.67L64.1913 17.63C63.938 17.7767 63.6413 17.8933 63.3013 17.98C62.968 18.06 62.6147 18.1 62.2413 18.1ZM68.0735 18.1C67.4735 18.1 66.9602 17.9933 66.5335 17.78C66.1135 17.5667 65.7902 17.26 65.5635 16.86C65.3368 16.4533 65.2235 15.9667 65.2235 15.4C65.2235 14.8333 65.3368 14.35 65.5635 13.95C65.7902 13.5433 66.1135 13.2333 66.5335 13.02C66.9602 12.8067 67.4735 12.7 68.0735 12.7C68.3735 12.7 68.6535 12.73 68.9135 12.79C69.1802 12.8433 69.4402 12.9367 69.6935 13.07L69.4835 14.03C69.2502 13.91 69.0235 13.8233 68.8035 13.77C68.5902 13.71 68.3735 13.68 68.1535 13.68C67.6202 13.68 67.2068 13.83 66.9135 14.13C66.6202 14.43 66.4735 14.8533 66.4735 15.4C66.4735 15.9467 66.6202 16.37 66.9135 16.67C67.2068 16.97 67.6202 17.12 68.1535 17.12C68.3735 17.12 68.5902 17.0933 68.8035 17.04C69.0235 16.98 69.2502 16.89 69.4835 16.77L69.6935 17.73C69.4402 17.8567 69.1802 17.95 68.9135 18.01C68.6535 18.07 68.3735 18.1 68.0735 18.1ZM71.2434 18V12.85H72.4834V18H71.2434ZM71.8634 12.11C71.6234 12.11 71.4334 12.0433 71.2934 11.91C71.1534 11.77 71.0834 11.5833 71.0834 11.35C71.0834 11.1167 71.1534 10.93 71.2934 10.79C71.4334 10.65 71.6234 10.58 71.8634 10.58C72.1034 10.58 72.2934 10.65 72.4334 10.79C72.5734 10.93 72.6434 11.1167 72.6434 11.35C72.6434 11.5833 72.5734 11.77 72.4334 11.91C72.2934 12.0433 72.1034 12.11 71.8634 12.11ZM75.007 18V13.98H73.677V13H75.007V12.21C75.007 11.5767 75.1637 11.1 75.477 10.78C75.797 10.46 76.2637 10.3 76.877 10.3C77.0637 10.3 77.247 10.3133 77.427 10.34C77.607 10.3667 77.7737 10.4033 77.927 10.45L77.787 11.44C77.547 11.36 77.3104 11.32 77.077 11.32C76.7704 11.32 76.5537 11.3933 76.427 11.54C76.307 11.68 76.247 11.9233 76.247 12.27V13H77.887V13.98H76.247V18H75.007ZM79.117 18V12.85H80.357V18H79.117ZM79.737 12.11C79.497 12.11 79.307 12.0433 79.167 11.91C79.027 11.77 78.957 11.5833 78.957 11.35C78.957 11.1167 79.027 10.93 79.167 10.79C79.307 10.65 79.497 10.58 79.737 10.58C79.977 10.58 80.167 10.65 80.307 10.79C80.447 10.93 80.517 11.1167 80.517 11.35C80.517 11.5833 80.447 11.77 80.307 11.91C80.167 12.0433 79.977 12.11 79.737 12.11ZM84.5384 18.1C83.9384 18.1 83.425 17.9933 82.9984 17.78C82.5784 17.5667 82.255 17.26 82.0284 16.86C81.8017 16.4533 81.6884 15.9667 81.6884 15.4C81.6884 14.8333 81.8017 14.35 82.0284 13.95C82.255 13.5433 82.5784 13.2333 82.9984 13.02C83.425 12.8067 83.9384 12.7 84.5384 12.7C84.8384 12.7 85.1184 12.73 85.3784 12.79C85.645 12.8433 85.905 12.9367 86.1584 13.07L85.9484 14.03C85.715 13.91 85.4884 13.8233 85.2684 13.77C85.055 13.71 84.8384 13.68 84.6184 13.68C84.085 13.68 83.6717 13.83 83.3784 14.13C83.085 14.43 82.9384 14.8533 82.9384 15.4C82.9384 15.9467 83.085 16.37 83.3784 16.67C83.6717 16.97 84.085 17.12 84.6184 17.12C84.8384 17.12 85.055 17.0933 85.2684 17.04C85.4884 16.98 85.715 16.89 85.9484 16.77L86.1584 17.73C85.905 17.8567 85.645 17.95 85.3784 18.01C85.1184 18.07 84.8384 18.1 84.5384 18.1ZM92.2117 18V11.81H89.8017V10.7H95.9217V11.81H93.5017V18H92.2117ZM97.7363 18.1C97.203 18.1 96.7363 17.99 96.3363 17.77C95.943 17.55 95.6397 17.2367 95.4263 16.83C95.213 16.4233 95.1063 15.9467 95.1063 15.4C95.1063 14.8467 95.213 14.37 95.4263 13.97C95.6397 13.5633 95.943 13.25 96.3363 13.03C96.7363 12.81 97.203 12.7 97.7363 12.7C98.2763 12.7 98.743 12.81 99.1363 13.03C99.5297 13.25 99.833 13.5633 100.046 13.97C100.266 14.37 100.376 14.8467 100.376 15.4C100.376 15.9467 100.266 16.4233 100.046 16.83C99.833 17.2367 99.5297 17.55 99.1363 17.77C98.743 17.99 98.2763 18.1 97.7363 18.1ZM97.7363 17.12C98.183 17.12 98.5297 16.97 98.7763 16.67C99.023 16.37 99.1463 15.9467 99.1463 15.4C99.1463 14.8467 99.023 14.4233 98.7763 14.13C98.5297 13.83 98.183 13.68 97.7363 13.68C97.2897 13.68 96.943 13.83 96.6963 14.13C96.4497 14.4233 96.3263 14.8467 96.3263 15.4C96.3263 15.9467 96.4497 16.37 96.6963 16.67C96.943 16.97 97.2897 17.12 97.7363 17.12ZM103.791 18.1C103.258 18.1 102.791 17.99 102.391 17.77C101.998 17.55 101.694 17.2367 101.481 16.83C101.268 16.4233 101.161 15.9467 101.161 15.4C101.161 14.8467 101.268 14.37 101.481 13.97C101.694 13.5633 101.998 13.25 102.391 13.03C102.791 12.81 103.258 12.7 103.791 12.7C104.331 12.7 104.798 12.81 105.191 13.03C105.584 13.25 105.888 13.5633 106.101 13.97C106.321 14.37 106.431 14.8467 106.431 15.4C106.431 15.9467 106.321 16.4233 106.101 16.83C105.888 17.2367 105.584 17.55 105.191 17.77C104.798 17.99 104.331 18.1 103.791 18.1ZM103.791 17.12C104.238 17.12 104.584 16.97 104.831 16.67C105.078 16.37 105.201 15.9467 105.201 15.4C105.201 14.8467 105.078 14.4233 104.831 14.13C104.584 13.83 104.238 13.68 103.791 13.68C103.344 13.68 102.998 13.83 102.751 14.13C102.504 14.4233 102.381 14.8467 102.381 15.4C102.381 15.9467 102.504 16.37 102.751 16.67C102.998 16.97 103.344 17.12 103.791 17.12ZM107.607 18V10.7H108.847V18H107.607ZM112.078 18.1C111.712 18.1 111.352 18.0633 110.998 17.99C110.652 17.9167 110.335 17.8133 110.048 17.68L110.228 16.71C110.542 16.8433 110.852 16.9467 111.158 17.02C111.465 17.0867 111.765 17.12 112.058 17.12C112.398 17.12 112.652 17.0733 112.818 16.98C112.985 16.88 113.068 16.7333 113.068 16.54C113.068 16.42 113.038 16.32 112.978 16.24C112.918 16.16 112.812 16.09 112.658 16.03C112.512 15.9633 112.302 15.9 112.028 15.84C111.562 15.7267 111.182 15.5967 110.888 15.45C110.595 15.2967 110.378 15.1167 110.238 14.91C110.098 14.7033 110.028 14.46 110.028 14.18C110.028 13.7 110.212 13.3333 110.578 13.08C110.952 12.8267 111.488 12.7 112.188 12.7C112.535 12.7 112.872 12.7333 113.198 12.8C113.525 12.86 113.838 12.9567 114.138 13.09L113.968 14.05C113.682 13.9233 113.392 13.83 113.098 13.77C112.812 13.71 112.525 13.68 112.238 13.68C111.912 13.68 111.668 13.7233 111.508 13.81C111.355 13.89 111.278 14.02 111.278 14.2C111.278 14.3 111.308 14.39 111.368 14.47C111.435 14.55 111.542 14.62 111.688 14.68C111.835 14.74 112.032 14.8 112.278 14.86C112.632 14.94 112.935 15.0333 113.188 15.14C113.448 15.2467 113.658 15.37 113.818 15.51C113.985 15.65 114.108 15.8067 114.188 15.98C114.268 16.1467 114.308 16.3367 114.308 16.55C114.308 17.0433 114.112 17.4267 113.718 17.7C113.332 17.9667 112.785 18.1 112.078 18.1Z" fill="#9A9CBC"/>
<path d="M10.93 38.74C11.17 38.7133 11.41 38.69 11.65 38.67C11.89 38.65 12.1267 38.6333 12.36 38.62C12.6 38.6067 12.82 38.6 13.02 38.6C14.08 38.6 14.8533 38.7733 15.34 39.12C15.8267 39.4667 16.07 40.0167 16.07 40.77C16.07 41.53 15.8267 42.0833 15.34 42.43C14.8533 42.7767 14.08 42.95 13.02 42.95C12.76 42.95 12.4767 42.94 12.17 42.92C11.8633 42.9 11.5433 42.8733 11.21 42.84L11.35 42.11C11.7233 42.1567 12.04 42.19 12.3 42.21C12.5667 42.23 12.82 42.24 13.06 42.24C13.8333 42.24 14.39 42.1267 14.73 41.9C15.0767 41.6667 15.25 41.2967 15.25 40.79C15.25 40.2767 15.0767 39.9067 14.73 39.68C14.39 39.4467 13.8333 39.33 13.06 39.33C12.82 39.33 12.5633 39.34 12.29 39.36C12.0233 39.38 11.7 39.4167 11.32 39.47L11.73 39.03V46H10.93V38.74ZM15.36 46L11.32 42.49H12.36L16.43 46H15.36ZM19.3486 46.1C18.5153 46.1 17.8719 45.8667 17.4186 45.4C16.9653 44.9333 16.7386 44.2667 16.7386 43.4C16.7386 42.56 16.9553 41.9 17.3886 41.42C17.8286 40.94 18.4353 40.7 19.2086 40.7C19.9486 40.7 20.5153 40.9267 20.9086 41.38C21.3019 41.8267 21.4986 42.47 21.4986 43.31C21.4986 43.3767 21.4986 43.4467 21.4986 43.52C21.4986 43.5933 21.4953 43.6567 21.4886 43.71H17.1686V43.07H20.9086L20.7586 43.28C20.7586 42.6333 20.6286 42.15 20.3686 41.83C20.1086 41.51 19.7219 41.35 19.2086 41.35C18.6619 41.35 18.2419 41.5233 17.9486 41.87C17.6553 42.21 17.5086 42.6967 17.5086 43.33V43.53C17.5086 44.1567 17.6653 44.63 17.9786 44.95C18.2919 45.27 18.7519 45.43 19.3586 45.43C19.6786 45.43 19.9886 45.39 20.2886 45.31C20.5886 45.2233 20.8586 45.1 21.0986 44.94L21.2686 45.57C21.0153 45.7367 20.7219 45.8667 20.3886 45.96C20.0619 46.0533 19.7153 46.1 19.3486 46.1ZM24.6231 48.2C24.2231 48.2 23.8631 48.1533 23.5431 48.06C23.2231 47.9667 22.9331 47.8233 22.6731 47.63L22.8731 46.99C23.1331 47.1767 23.3965 47.3133 23.6631 47.4C23.9298 47.4867 24.2298 47.53 24.5631 47.53C25.2031 47.53 25.6665 47.3667 25.9531 47.04C26.2465 46.72 26.3931 46.2067 26.3931 45.5V45.04H26.3731C26.1931 45.2733 25.9465 45.46 25.6331 45.6C25.3198 45.7333 24.9731 45.8 24.5931 45.8C23.8998 45.8 23.3565 45.5767 22.9631 45.13C22.5698 44.6767 22.3731 44.05 22.3731 43.25C22.3731 42.45 22.5698 41.8267 22.9631 41.38C23.3565 40.9267 23.8998 40.7 24.5931 40.7C24.9731 40.7 25.3231 40.77 25.6431 40.91C25.9631 41.0433 26.2131 41.2267 26.3931 41.46H26.4131L26.4231 40.8H27.1731V45.5C27.1731 46.4133 26.9631 47.09 26.5431 47.53C26.1298 47.9767 25.4898 48.2 24.6231 48.2ZM24.7631 45.13C25.0765 45.13 25.3531 45.0733 25.5931 44.96C25.8398 44.84 26.0331 44.68 26.1731 44.48C26.3198 44.2733 26.3931 44.0367 26.3931 43.77V42.73C26.3931 42.47 26.3198 42.2367 26.1731 42.03C26.0331 41.8233 25.8398 41.6633 25.5931 41.55C25.3531 41.43 25.0765 41.37 24.7631 41.37C24.2565 41.37 23.8598 41.5333 23.5731 41.86C23.2931 42.1867 23.1531 42.65 23.1531 43.25C23.1531 43.85 23.2931 44.3133 23.5731 44.64C23.8598 44.9667 24.2565 45.13 24.7631 45.13ZM29.1473 46V40.8H29.9473V46H29.1473ZM29.5473 39.81C29.374 39.81 29.2307 39.7567 29.1173 39.65C29.0107 39.5367 28.9573 39.39 28.9573 39.21C28.9573 39.0367 29.0107 38.8967 29.1173 38.79C29.2307 38.6767 29.374 38.62 29.5473 38.62C29.7273 38.62 29.8707 38.6767 29.9773 38.79C30.0907 38.8967 30.1473 39.0367 30.1473 39.21C30.1473 39.39 30.0907 39.5367 29.9773 39.65C29.8707 39.7567 29.7273 39.81 29.5473 39.81ZM34.0342 46.1C33.5209 46.1 33.0709 45.99 32.6842 45.77C32.3042 45.55 32.0109 45.2367 31.8042 44.83C31.6042 44.4233 31.5042 43.9467 31.5042 43.4C31.5042 42.8467 31.6042 42.37 31.8042 41.97C32.0109 41.5633 32.3042 41.25 32.6842 41.03C33.0709 40.81 33.5209 40.7 34.0342 40.7C34.5542 40.7 35.0009 40.81 35.3742 41.03C35.7542 41.25 36.0476 41.5633 36.2542 41.97C36.4609 42.37 36.5642 42.8467 36.5642 43.4C36.5642 43.9467 36.4609 44.4233 36.2542 44.83C36.0476 45.2367 35.7542 45.55 35.3742 45.77C35.0009 45.99 34.5542 46.1 34.0342 46.1ZM34.0342 45.43C34.5809 45.43 35.0076 45.25 35.3142 44.89C35.6276 44.53 35.7842 44.0333 35.7842 43.4C35.7842 42.76 35.6276 42.2633 35.3142 41.91C35.0076 41.55 34.5809 41.37 34.0342 41.37C33.4876 41.37 33.0576 41.55 32.7442 41.91C32.4376 42.2633 32.2842 42.76 32.2842 43.4C32.2842 44.0333 32.4376 44.53 32.7442 44.89C33.0576 45.25 33.4876 45.43 34.0342 45.43ZM37.8322 46V40.8H38.6022V41.57H38.6222C38.8289 41.2833 39.0889 41.0667 39.4022 40.92C39.7222 40.7733 40.0822 40.7 40.4822 40.7C41.1155 40.7 41.5822 40.89 41.8822 41.27C42.1822 41.6433 42.3322 42.22 42.3322 43V46H41.5422V43.14C41.5422 42.54 41.4389 42.0967 41.2322 41.81C41.0255 41.5167 40.7089 41.37 40.2822 41.37C39.9622 41.37 39.6755 41.4433 39.4222 41.59C39.1755 41.73 38.9789 41.9267 38.8322 42.18C38.6922 42.4267 38.6222 42.7133 38.6222 43.04V46H37.8322ZM48.9489 46.1C48.5089 46.1 48.0656 46.0533 47.6189 45.96C47.1789 45.8667 46.8056 45.74 46.4989 45.58L46.7189 44.86C46.9256 44.96 47.1556 45.05 47.4089 45.13C47.6689 45.2033 47.9356 45.2633 48.2089 45.31C48.4822 45.35 48.7456 45.37 48.9989 45.37C49.5856 45.37 50.0356 45.2567 50.3489 45.03C50.6689 44.8033 50.8289 44.4833 50.8289 44.07C50.8289 43.8367 50.7789 43.6433 50.6789 43.49C50.5856 43.33 50.4489 43.2 50.2689 43.1C50.0889 42.9933 49.8722 42.9 49.6189 42.82C49.3722 42.74 49.1022 42.66 48.8089 42.58C48.4889 42.4933 48.1922 42.3967 47.9189 42.29C47.6456 42.1767 47.4022 42.0433 47.1889 41.89C46.9822 41.73 46.8189 41.54 46.6989 41.32C46.5856 41.0933 46.5289 40.8233 46.5289 40.51C46.5289 39.8967 46.7589 39.4267 47.2189 39.1C47.6789 38.7667 48.3256 38.6 49.1589 38.6C49.5856 38.6 50.0089 38.6433 50.4289 38.73C50.8556 38.81 51.2122 38.92 51.4989 39.06L51.2789 39.78C50.9989 39.6467 50.6689 39.54 50.2889 39.46C49.9089 39.3733 49.5289 39.33 49.1489 39.33C48.5689 39.33 48.1256 39.4333 47.8189 39.64C47.5122 39.8467 47.3589 40.14 47.3589 40.52C47.3589 40.74 47.4056 40.9233 47.4989 41.07C47.5922 41.2167 47.7222 41.34 47.8889 41.44C48.0622 41.54 48.2622 41.63 48.4889 41.71C48.7222 41.7833 48.9822 41.86 49.2689 41.94C49.6022 42.0333 49.9122 42.1367 50.1989 42.25C50.4922 42.3567 50.7456 42.49 50.9589 42.65C51.1789 42.81 51.3522 43.0067 51.4789 43.24C51.6056 43.4667 51.6689 43.7467 51.6689 44.08C51.6689 44.7133 51.4289 45.21 50.9489 45.57C50.4756 45.9233 49.8089 46.1 48.9489 46.1ZM55.6275 40.7C56.3208 40.7 56.8608 40.94 57.2475 41.42C57.6342 41.8933 57.8275 42.5533 57.8275 43.4C57.8275 44.2467 57.6342 44.91 57.2475 45.39C56.8608 45.8633 56.3208 46.1 55.6275 46.1C55.2475 46.1 54.8975 46.03 54.5775 45.89C54.2642 45.7433 54.0175 45.5467 53.8375 45.3H53.8175V48.1H53.0275V40.8H53.7875V41.5H53.8075C53.9942 41.2467 54.2475 41.05 54.5675 40.91C54.8942 40.77 55.2475 40.7 55.6275 40.7ZM55.4575 41.37C55.1442 41.37 54.8642 41.4367 54.6175 41.57C54.3708 41.6967 54.1742 41.8733 54.0275 42.1C53.8875 42.32 53.8175 42.58 53.8175 42.88V43.92C53.8175 44.2133 53.8875 44.4733 54.0275 44.7C54.1742 44.9267 54.3708 45.1067 54.6175 45.24C54.8642 45.3667 55.1442 45.43 55.4575 45.43C55.9708 45.43 56.3642 45.2567 56.6375 44.91C56.9175 44.5567 57.0575 44.0533 57.0575 43.4C57.0575 42.7467 56.9175 42.2467 56.6375 41.9C56.3642 41.5467 55.9708 41.37 55.4575 41.37ZM61.3505 46.1C60.5172 46.1 59.8739 45.8667 59.4205 45.4C58.9672 44.9333 58.7405 44.2667 58.7405 43.4C58.7405 42.56 58.9572 41.9 59.3905 41.42C59.8305 40.94 60.4372 40.7 61.2105 40.7C61.9505 40.7 62.5172 40.9267 62.9105 41.38C63.3039 41.8267 63.5005 42.47 63.5005 43.31C63.5005 43.3767 63.5005 43.4467 63.5005 43.52C63.5005 43.5933 63.4972 43.6567 63.4905 43.71H59.1705V43.07H62.9105L62.7605 43.28C62.7605 42.6333 62.6305 42.15 62.3705 41.83C62.1105 41.51 61.7239 41.35 61.2105 41.35C60.6639 41.35 60.2439 41.5233 59.9505 41.87C59.6572 42.21 59.5105 42.6967 59.5105 43.33V43.53C59.5105 44.1567 59.6672 44.63 59.9805 44.95C60.2939 45.27 60.7539 45.43 61.3605 45.43C61.6805 45.43 61.9905 45.39 62.2905 45.31C62.5905 45.2233 62.8605 45.1 63.1005 44.94L63.2705 45.57C63.0172 45.7367 62.7239 45.8667 62.3905 45.96C62.0639 46.0533 61.7172 46.1 61.3505 46.1ZM67.1051 46.1C66.5384 46.1 66.0517 45.9933 65.6451 45.78C65.2384 45.56 64.9251 45.25 64.7051 44.85C64.4917 44.4433 64.3851 43.96 64.3851 43.4C64.3851 42.84 64.4917 42.36 64.7051 41.96C64.9251 41.5533 65.2384 41.2433 65.6451 41.03C66.0517 40.81 66.5384 40.7 67.1051 40.7C67.3851 40.7 67.6517 40.73 67.9051 40.79C68.1584 40.8433 68.4051 40.9333 68.6451 41.06L68.4951 41.7C68.2684 41.5867 68.0451 41.5033 67.8251 41.45C67.6051 41.3967 67.3817 41.37 67.1551 41.37C66.5351 41.37 66.0517 41.55 65.7051 41.91C65.3584 42.2633 65.1851 42.76 65.1851 43.4C65.1851 44.0333 65.3584 44.53 65.7051 44.89C66.0517 45.25 66.5351 45.43 67.1551 45.43C67.3817 45.43 67.6051 45.4033 67.8251 45.35C68.0451 45.2967 68.2684 45.2133 68.4951 45.1L68.6451 45.74C68.4051 45.86 68.1584 45.95 67.9051 46.01C67.6517 46.07 67.3851 46.1 67.1051 46.1ZM70.4462 46V40.8H71.2462V46H70.4462ZM70.8462 39.81C70.6728 39.81 70.5295 39.7567 70.4162 39.65C70.3095 39.5367 70.2562 39.39 70.2562 39.21C70.2562 39.0367 70.3095 38.8967 70.4162 38.79C70.5295 38.6767 70.6728 38.62 70.8462 38.62C71.0262 38.62 71.1695 38.6767 71.2762 38.79C71.3895 38.8967 71.4462 39.0367 71.4462 39.21C71.4462 39.39 71.3895 39.5367 71.2762 39.65C71.1695 39.7567 71.0262 39.81 70.8462 39.81ZM74.093 46V41.67H72.623V41H74.093V40.03C74.093 39.45 74.233 39.0167 74.513 38.73C74.793 38.4433 75.2164 38.3 75.783 38.3C75.9497 38.3 76.113 38.3133 76.273 38.34C76.433 38.3667 76.583 38.4033 76.723 38.45L76.613 39.11C76.373 39.03 76.133 38.99 75.893 38.99C75.533 38.99 75.273 39.0733 75.113 39.24C74.9597 39.4067 74.883 39.69 74.883 40.09V41H76.703V41.67H74.883V46H74.093ZM78.103 46V40.8H78.903V46H78.103ZM78.503 39.81C78.3297 39.81 78.1864 39.7567 78.073 39.65C77.9664 39.5367 77.913 39.39 77.913 39.21C77.913 39.0367 77.9664 38.8967 78.073 38.79C78.1864 38.6767 78.3297 38.62 78.503 38.62C78.683 38.62 78.8264 38.6767 78.933 38.79C79.0464 38.8967 79.103 39.0367 79.103 39.21C79.103 39.39 79.0464 39.5367 78.933 39.65C78.8264 39.7567 78.683 39.81 78.503 39.81ZM83.1695 46.1C82.6029 46.1 82.1162 45.9933 81.7095 45.78C81.3029 45.56 80.9895 45.25 80.7695 44.85C80.5562 44.4433 80.4495 43.96 80.4495 43.4C80.4495 42.84 80.5562 42.36 80.7695 41.96C80.9895 41.5533 81.3029 41.2433 81.7095 41.03C82.1162 40.81 82.6029 40.7 83.1695 40.7C83.4495 40.7 83.7162 40.73 83.9695 40.79C84.2229 40.8433 84.4695 40.9333 84.7095 41.06L84.5595 41.7C84.3329 41.5867 84.1095 41.5033 83.8895 41.45C83.6695 41.3967 83.4462 41.37 83.2195 41.37C82.5995 41.37 82.1162 41.55 81.7695 41.91C81.4229 42.2633 81.2495 42.76 81.2495 43.4C81.2495 44.0333 81.4229 44.53 81.7695 44.89C82.1162 45.25 82.5995 45.43 83.2195 45.43C83.4462 45.43 83.6695 45.4033 83.8895 45.35C84.1095 45.2967 84.3329 45.2133 84.5595 45.1L84.7095 45.74C84.4695 45.86 84.2229 45.95 83.9695 46.01C83.7162 46.07 83.4495 46.1 83.1695 46.1ZM14.38 61.1C13.5667 61.1 12.8667 60.95 12.28 60.65C11.7 60.35 11.2533 59.92 10.94 59.36C10.6267 58.7933 10.47 58.1233 10.47 57.35C10.47 56.57 10.6267 55.9 10.94 55.34C11.2533 54.78 11.6967 54.35 12.27 54.05C12.85 53.75 13.54 53.6 14.34 53.6C14.78 53.6 15.1967 53.65 15.59 53.75C15.9833 53.8433 16.34 53.99 16.66 54.19L16.45 54.88C16.1567 54.7 15.8267 54.5633 15.46 54.47C15.1 54.3767 14.7267 54.33 14.34 54.33C13.7133 54.33 13.1733 54.45 12.72 54.69C12.2733 54.93 11.9267 55.2767 11.68 55.73C11.44 56.1767 11.32 56.7167 11.32 57.35C11.32 57.9833 11.44 58.5267 11.68 58.98C11.9267 59.4267 12.2767 59.77 12.73 60.01C13.19 60.25 13.74 60.37 14.38 60.37C14.7333 60.37 15.0833 60.3333 15.43 60.26C15.7833 60.1867 16.09 60.0833 16.35 59.95L16.2 60.26V57.57H13.47V56.88H17V60.54C16.6533 60.7133 16.2467 60.85 15.78 60.95C15.3133 61.05 14.8467 61.1 14.38 61.1ZM20.2339 61.1C19.6272 61.1 19.1739 60.91 18.8739 60.53C18.5806 60.15 18.4339 59.5733 18.4339 58.8V55.8H19.2239V58.66C19.2239 59.26 19.3239 59.7067 19.5239 60C19.7239 60.2867 20.0272 60.43 20.4339 60.43C20.7472 60.43 21.0239 60.3567 21.2639 60.21C21.5106 60.0633 21.7006 59.8667 21.8339 59.62C21.9739 59.3667 22.0439 59.08 22.0439 58.76V55.8H22.8339V61H22.0739L22.0639 60.23C21.8639 60.51 21.6072 60.7267 21.2939 60.88C20.9806 61.0267 20.6272 61.1 20.2339 61.1ZM24.7919 61V55.8H25.5919V61H24.7919ZM25.1919 54.81C25.0185 54.81 24.8752 54.7567 24.7619 54.65C24.6552 54.5367 24.6019 54.39 24.6019 54.21C24.6019 54.0367 24.6552 53.8967 24.7619 53.79C24.8752 53.6767 25.0185 53.62 25.1919 53.62C25.3719 53.62 25.5152 53.6767 25.6219 53.79C25.7352 53.8967 25.7919 54.0367 25.7919 54.21C25.7919 54.39 25.7352 54.5367 25.6219 54.65C25.5152 54.7567 25.3719 54.81 25.1919 54.81ZM29.3587 61.1C28.6588 61.1 28.1121 60.8633 27.7188 60.39C27.3321 59.91 27.1388 59.2467 27.1388 58.4C27.1388 57.5533 27.3321 56.8933 27.7188 56.42C28.1121 55.94 28.6588 55.7 29.3587 55.7C29.7321 55.7 30.0788 55.77 30.3988 55.91C30.7188 56.05 30.9654 56.2467 31.1388 56.5H31.1588V53.7H31.9388V61H31.1988L31.1888 60.3H31.1688C30.9888 60.5467 30.7354 60.7433 30.4088 60.89C30.0821 61.03 29.7321 61.1 29.3587 61.1ZM29.5188 60.43C29.8388 60.43 30.1188 60.3667 30.3588 60.24C30.6054 60.1067 30.7988 59.9267 30.9388 59.7C31.0854 59.4733 31.1588 59.2133 31.1588 58.92V57.88C31.1588 57.5867 31.0854 57.3267 30.9388 57.1C30.7988 56.8733 30.6054 56.6967 30.3588 56.57C30.1188 56.4367 29.8388 56.37 29.5188 56.37C29.0188 56.37 28.6254 56.5467 28.3388 56.9C28.0588 57.2467 27.9188 57.7467 27.9188 58.4C27.9188 59.0533 28.0588 59.5567 28.3388 59.91C28.6254 60.2567 29.0188 60.43 29.5188 60.43ZM35.833 61.1C34.9996 61.1 34.3563 60.8667 33.903 60.4C33.4496 59.9333 33.223 59.2667 33.223 58.4C33.223 57.56 33.4396 56.9 33.873 56.42C34.313 55.94 34.9196 55.7 35.693 55.7C36.433 55.7 36.9996 55.9267 37.393 56.38C37.7863 56.8267 37.983 57.47 37.983 58.31C37.983 58.3767 37.983 58.4467 37.983 58.52C37.983 58.5933 37.9796 58.6567 37.973 58.71H33.653V58.07H37.393L37.243 58.28C37.243 57.6333 37.113 57.15 36.853 56.83C36.593 56.51 36.2063 56.35 35.693 56.35C35.1463 56.35 34.7263 56.5233 34.433 56.87C34.1396 57.21 33.993 57.6967 33.993 58.33V58.53C33.993 59.1567 34.1496 59.63 34.463 59.95C34.7763 60.27 35.2363 60.43 35.843 60.43C36.163 60.43 36.473 60.39 36.773 60.31C37.073 60.2233 37.343 60.1 37.583 59.94L37.753 60.57C37.4996 60.7367 37.2063 60.8667 36.873 60.96C36.5463 61.0533 36.1996 61.1 35.833 61.1ZM39.3187 61V53.7H40.1187V61H39.3187ZM42.1454 61V55.8H42.9454V61H42.1454ZM42.5454 54.81C42.3721 54.81 42.2287 54.7567 42.1154 54.65C42.0087 54.5367 41.9554 54.39 41.9554 54.21C41.9554 54.0367 42.0087 53.8967 42.1154 53.79C42.2287 53.6767 42.3721 53.62 42.5454 53.62C42.7254 53.62 42.8687 53.6767 42.9754 53.79C43.0887 53.8967 43.1454 54.0367 43.1454 54.21C43.1454 54.39 43.0887 54.5367 42.9754 54.65C42.8687 54.7567 42.7254 54.81 42.5454 54.81ZM44.9123 61V55.8H45.6823V56.57H45.7023C45.9089 56.2833 46.1689 56.0667 46.4823 55.92C46.8023 55.7733 47.1623 55.7 47.5623 55.7C48.1956 55.7 48.6623 55.89 48.9623 56.27C49.2623 56.6433 49.4123 57.22 49.4123 58V61H48.6223V58.14C48.6223 57.54 48.5189 57.0967 48.3123 56.81C48.1056 56.5167 47.7889 56.37 47.3623 56.37C47.0423 56.37 46.7556 56.4433 46.5023 56.59C46.2556 56.73 46.0589 56.9267 45.9123 57.18C45.7723 57.4267 45.7023 57.7133 45.7023 58.04V61H44.9123ZM53.1279 61.1C52.2946 61.1 51.6512 60.8667 51.1979 60.4C50.7446 59.9333 50.5179 59.2667 50.5179 58.4C50.5179 57.56 50.7346 56.9 51.1679 56.42C51.6079 55.94 52.2146 55.7 52.9879 55.7C53.7279 55.7 54.2946 55.9267 54.6879 56.38C55.0812 56.8267 55.2779 57.47 55.2779 58.31C55.2779 58.3767 55.2779 58.4467 55.2779 58.52C55.2779 58.5933 55.2746 58.6567 55.2679 58.71H50.9479V58.07H54.6879L54.5379 58.28C54.5379 57.6333 54.4079 57.15 54.1479 56.83C53.8879 56.51 53.5012 56.35 52.9879 56.35C52.4412 56.35 52.0212 56.5233 51.7279 56.87C51.4346 57.21 51.2879 57.6967 51.2879 58.33V58.53C51.2879 59.1567 51.4446 59.63 51.7579 59.95C52.0712 60.27 52.5312 60.43 53.1379 60.43C53.4579 60.43 53.7679 60.39 54.0679 60.31C54.3679 60.2233 54.6379 60.1 54.8779 59.94L55.0479 60.57C54.7946 60.7367 54.5012 60.8667 54.1679 60.96C53.8412 61.0533 53.4946 61.1 53.1279 61.1ZM58.0536 61.1C57.7003 61.1 57.3569 61.0633 57.0236 60.99C56.6903 60.9167 56.3903 60.8133 56.1236 60.68L56.2736 60.02C56.5536 60.1533 56.8403 60.2567 57.1336 60.33C57.4336 60.3967 57.7369 60.43 58.0436 60.43C58.4703 60.43 58.7936 60.36 59.0136 60.22C59.2336 60.08 59.3436 59.8733 59.3436 59.6C59.3436 59.4133 59.2936 59.2633 59.1936 59.15C59.0936 59.0367 58.9469 58.9433 58.7536 58.87C58.5603 58.7967 58.3136 58.7267 58.0136 58.66C57.6136 58.56 57.2703 58.4467 56.9836 58.32C56.7036 58.1933 56.4869 58.0333 56.3336 57.84C56.1869 57.64 56.1136 57.3967 56.1136 57.11C56.1136 56.6567 56.2869 56.31 56.6336 56.07C56.9869 55.8233 57.4803 55.7 58.1136 55.7C58.4469 55.7 58.7769 55.7333 59.1036 55.8C59.4303 55.8667 59.7203 55.9633 59.9736 56.09L59.8336 56.74C59.5869 56.62 59.3169 56.53 59.0236 56.47C58.7303 56.4033 58.4369 56.37 58.1436 56.37C57.7369 56.37 57.4303 56.4333 57.2236 56.56C57.0169 56.6867 56.9136 56.8733 56.9136 57.12C56.9136 57.28 56.9603 57.4133 57.0536 57.52C57.1536 57.6267 57.2969 57.7167 57.4836 57.79C57.6769 57.8633 57.9103 57.93 58.1836 57.99C58.4903 58.0633 58.7636 58.1467 59.0036 58.24C59.2503 58.3267 59.4569 58.4333 59.6236 58.56C59.7903 58.6867 59.9169 58.8367 60.0036 59.01C60.0969 59.1767 60.1436 59.3767 60.1436 59.61C60.1436 60.0833 59.9603 60.45 59.5936 60.71C59.2269 60.97 58.7136 61.1 58.0536 61.1ZM61.0202 58.47V57.73H63.9902V58.47H61.0202ZM65.6296 61V53.7H66.4596V61H65.6296ZM68.3302 61V55.8H69.1002V56.57H69.1202C69.3269 56.2833 69.5869 56.0667 69.9002 55.92C70.2202 55.7733 70.5802 55.7 70.9802 55.7C71.6136 55.7 72.0802 55.89 72.3802 56.27C72.6802 56.6433 72.8302 57.22 72.8302 58V61H72.0402V58.14C72.0402 57.54 71.9369 57.0967 71.7302 56.81C71.5236 56.5167 71.2069 56.37 70.7802 56.37C70.4602 56.37 70.1736 56.4433 69.9202 56.59C69.6736 56.73 69.4769 56.9267 69.3302 57.18C69.1902 57.4267 69.1202 57.7133 69.1202 58.04V61H68.3302ZM76.1459 61.1C75.4459 61.1 74.8992 60.8633 74.5059 60.39C74.1192 59.91 73.9259 59.2467 73.9259 58.4C73.9259 57.5533 74.1192 56.8933 74.5059 56.42C74.8992 55.94 75.4459 55.7 76.1459 55.7C76.5192 55.7 76.8659 55.77 77.1859 55.91C77.5059 56.05 77.7525 56.2467 77.9259 56.5H77.9459V53.7H78.7259V61H77.9859L77.9759 60.3H77.9559C77.7759 60.5467 77.5225 60.7433 77.1959 60.89C76.8692 61.03 76.5192 61.1 76.1459 61.1ZM76.3059 60.43C76.6259 60.43 76.9059 60.3667 77.1459 60.24C77.3925 60.1067 77.5859 59.9267 77.7259 59.7C77.8725 59.4733 77.9459 59.2133 77.9459 58.92V57.88C77.9459 57.5867 77.8725 57.3267 77.7259 57.1C77.5859 56.8733 77.3925 56.6967 77.1459 56.57C76.9059 56.4367 76.6259 56.37 76.3059 56.37C75.8059 56.37 75.4125 56.5467 75.1259 56.9C74.8459 57.2467 74.7059 57.7467 74.7059 58.4C74.7059 59.0533 74.8459 59.5567 75.1259 59.91C75.4125 60.2567 75.8059 60.43 76.3059 60.43ZM80.7001 61V55.8H81.5001V61H80.7001ZM81.1001 54.81C80.9267 54.81 80.7834 54.7567 80.6701 54.65C80.5634 54.5367 80.5101 54.39 80.5101 54.21C80.5101 54.0367 80.5634 53.8967 80.6701 53.79C80.7834 53.6767 80.9267 53.62 81.1001 53.62C81.2801 53.62 81.4234 53.6767 81.5301 53.79C81.6434 53.8967 81.7001 54.0367 81.7001 54.21C81.7001 54.39 81.6434 54.5367 81.5301 54.65C81.4234 54.7567 81.2801 54.81 81.1001 54.81ZM84.697 61L82.737 55.8H83.597L85.247 60.42H85.267L86.917 55.8H87.777L85.817 61H84.697ZM89.0106 61V55.8H89.8106V61H89.0106ZM89.4106 54.81C89.2373 54.81 89.094 54.7567 88.9806 54.65C88.874 54.5367 88.8206 54.39 88.8206 54.21C88.8206 54.0367 88.874 53.8967 88.9806 53.79C89.094 53.6767 89.2373 53.62 89.4106 53.62C89.5906 53.62 89.734 53.6767 89.8406 53.79C89.954 53.8967 90.0106 54.0367 90.0106 54.21C90.0106 54.39 89.954 54.5367 89.8406 54.65C89.734 54.7567 89.5906 54.81 89.4106 54.81ZM93.5775 61.1C92.8775 61.1 92.3308 60.8633 91.9375 60.39C91.5508 59.91 91.3575 59.2467 91.3575 58.4C91.3575 57.5533 91.5508 56.8933 91.9375 56.42C92.3308 55.94 92.8775 55.7 93.5775 55.7C93.9508 55.7 94.2975 55.77 94.6175 55.91C94.9375 56.05 95.1842 56.2467 95.3575 56.5H95.3775V53.7H96.1575V61H95.4175L95.4075 60.3H95.3875C95.2075 60.5467 94.9542 60.7433 94.6275 60.89C94.3008 61.03 93.9508 61.1 93.5775 61.1ZM93.7375 60.43C94.0575 60.43 94.3375 60.3667 94.5775 60.24C94.8242 60.1067 95.0175 59.9267 95.1575 59.7C95.3042 59.4733 95.3775 59.2133 95.3775 58.92V57.88C95.3775 57.5867 95.3042 57.3267 95.1575 57.1C95.0175 56.8733 94.8242 56.6967 94.5775 56.57C94.3375 56.4367 94.0575 56.37 93.7375 56.37C93.2375 56.37 92.8442 56.5467 92.5575 56.9C92.2775 57.2467 92.1375 57.7467 92.1375 58.4C92.1375 59.0533 92.2775 59.5567 92.5575 59.91C92.8442 60.2567 93.2375 60.43 93.7375 60.43ZM99.4917 61.1C98.8851 61.1 98.4317 60.91 98.1317 60.53C97.8384 60.15 97.6917 59.5733 97.6917 58.8V55.8H98.4817V58.66C98.4817 59.26 98.5817 59.7067 98.7817 60C98.9817 60.2867 99.2851 60.43 99.6917 60.43C100.005 60.43 100.282 60.3567 100.522 60.21C100.768 60.0633 100.958 59.8667 101.092 59.62C101.232 59.3667 101.302 59.08 101.302 58.76V55.8H102.092V61H101.332L101.322 60.23C101.122 60.51 100.865 60.7267 100.552 60.88C100.238 61.0267 99.8851 61.1 99.4917 61.1ZM104.98 61.1C104.453 61.1 104.036 60.96 103.73 60.68C103.423 60.3933 103.27 60.01 103.27 59.53C103.27 58.93 103.513 58.47 104 58.15C104.486 57.8233 105.183 57.66 106.09 57.66H106.92C106.92 57.1867 106.81 56.8533 106.59 56.66C106.376 56.4667 106.013 56.37 105.5 56.37C105.146 56.37 104.816 56.4133 104.51 56.5C104.21 56.58 103.906 56.71 103.6 56.89L103.47 56.22C103.783 56.04 104.113 55.91 104.46 55.83C104.806 55.7433 105.183 55.7 105.59 55.7C106.096 55.7 106.503 55.77 106.81 55.91C107.123 56.0433 107.35 56.26 107.49 56.56C107.636 56.8533 107.71 57.2433 107.71 57.73V61H106.95V60.29H106.92C106.746 60.53 106.476 60.7267 106.11 60.88C105.75 61.0267 105.373 61.1 104.98 61.1ZM105.23 60.45C105.543 60.45 105.826 60.39 106.08 60.27C106.34 60.15 106.543 59.99 106.69 59.79C106.843 59.5833 106.92 59.3567 106.92 59.11V58.27H106.19C105.483 58.27 104.95 58.3733 104.59 58.58C104.23 58.78 104.05 59.0733 104.05 59.46C104.05 59.7667 104.153 60.01 104.36 60.19C104.566 60.3633 104.856 60.45 105.23 60.45ZM109.319 61V53.7H110.119V61H109.319ZM113.415 61.1C113.062 61.1 112.718 61.0633 112.385 60.99C112.052 60.9167 111.752 60.8133 111.485 60.68L111.635 60.02C111.915 60.1533 112.202 60.2567 112.495 60.33C112.795 60.3967 113.098 60.43 113.405 60.43C113.832 60.43 114.155 60.36 114.375 60.22C114.595 60.08 114.705 59.8733 114.705 59.6C114.705 59.4133 114.655 59.2633 114.555 59.15C114.455 59.0367 114.308 58.9433 114.115 58.87C113.922 58.7967 113.675 58.7267 113.375 58.66C112.975 58.56 112.632 58.4467 112.345 58.32C112.065 58.1933 111.848 58.0333 111.695 57.84C111.548 57.64 111.475 57.3967 111.475 57.11C111.475 56.6567 111.648 56.31 111.995 56.07C112.348 55.8233 112.842 55.7 113.475 55.7C113.808 55.7 114.138 55.7333 114.465 55.8C114.792 55.8667 115.082 55.9633 115.335 56.09L115.195 56.74C114.948 56.62 114.678 56.53 114.385 56.47C114.092 56.4033 113.798 56.37 113.505 56.37C113.098 56.37 112.792 56.4333 112.585 56.56C112.378 56.6867 112.275 56.8733 112.275 57.12C112.275 57.28 112.322 57.4133 112.415 57.52C112.515 57.6267 112.658 57.7167 112.845 57.79C113.038 57.8633 113.272 57.93 113.545 57.99C113.852 58.0633 114.125 58.1467 114.365 58.24C114.612 58.3267 114.818 58.4333 114.985 58.56C115.152 58.6867 115.278 58.8367 115.365 59.01C115.458 59.1767 115.505 59.3767 115.505 59.61C115.505 60.0833 115.322 60.45 114.955 60.71C114.588 60.97 114.075 61.1 113.415 61.1Z" fill="#9A9CBC"/>
<rect x="10.5" y="81.5" width="56" height="19" rx="5.5" fill="#1E2027"/>
<rect x="10.5" y="81.5" width="56" height="19" rx="5.5" stroke="#292A36"/>
<path d="M19.244 94.5V88.66H19.9V93.916H23.22V94.5H19.244ZM24.9994 94.58C24.578 94.58 24.2447 94.468 23.9994 94.244C23.754 94.0147 23.6314 93.708 23.6314 93.324C23.6314 92.844 23.826 92.476 24.2154 92.22C24.6047 91.9587 25.162 91.828 25.8874 91.828H26.5514C26.5514 91.4493 26.4634 91.1827 26.2874 91.028C26.1167 90.8733 25.826 90.796 25.4154 90.796C25.1327 90.796 24.8687 90.8307 24.6234 90.9C24.3834 90.964 24.1407 91.068 23.8954 91.212L23.7914 90.676C24.042 90.532 24.306 90.428 24.5834 90.364C24.8607 90.2947 25.162 90.26 25.4874 90.26C25.8927 90.26 26.218 90.316 26.4634 90.428C26.714 90.5347 26.8954 90.708 27.0074 90.948C27.1247 91.1827 27.1834 91.4947 27.1834 91.884V94.5H26.5754V93.932H26.5514C26.4127 94.124 26.1967 94.2813 25.9034 94.404C25.6154 94.5213 25.314 94.58 24.9994 94.58ZM25.1994 94.06C25.45 94.06 25.6767 94.012 25.8794 93.916C26.0874 93.82 26.25 93.692 26.3674 93.532C26.49 93.3667 26.5514 93.1853 26.5514 92.988V92.316H25.9674C25.402 92.316 24.9754 92.3987 24.6874 92.564C24.3994 92.724 24.2554 92.9587 24.2554 93.268C24.2554 93.5133 24.338 93.708 24.5034 93.852C24.6687 93.9907 24.9007 94.06 25.1994 94.06ZM28.3986 94.5V90.34H29.0146V90.956H29.0306C29.1959 90.7267 29.4039 90.5533 29.6546 90.436C29.9106 90.3187 30.1986 90.26 30.5186 90.26C31.0252 90.26 31.3986 90.412 31.6386 90.716C31.8786 91.0147 31.9986 91.476 31.9986 92.1V94.5H31.3666V92.212C31.3666 91.732 31.2839 91.3773 31.1186 91.148C30.9532 90.9133 30.6999 90.796 30.3586 90.796C30.1026 90.796 29.8732 90.8547 29.6706 90.972C29.4732 91.084 29.3159 91.2413 29.1986 91.444C29.0866 91.6413 29.0306 91.8707 29.0306 92.132V94.5H28.3986ZM34.6751 96.26C34.3551 96.26 34.0671 96.2227 33.8111 96.148C33.5551 96.0733 33.3231 95.9587 33.1151 95.804L33.2751 95.292C33.4831 95.4413 33.6937 95.5507 33.9071 95.62C34.1204 95.6893 34.3604 95.724 34.6271 95.724C35.1391 95.724 35.5097 95.5933 35.7391 95.332C35.9737 95.076 36.0911 94.6653 36.0911 94.1V93.732H36.0751C35.9311 93.9187 35.7337 94.068 35.4831 94.18C35.2324 94.2867 34.9551 94.34 34.6511 94.34C34.0964 94.34 33.6617 94.1613 33.3471 93.804C33.0324 93.4413 32.8751 92.94 32.8751 92.3C32.8751 91.66 33.0324 91.1613 33.3471 90.804C33.6617 90.4413 34.0964 90.26 34.6511 90.26C34.9551 90.26 35.2351 90.316 35.4911 90.428C35.7471 90.5347 35.9471 90.6813 36.0911 90.868H36.1071L36.1151 90.34H36.7151V94.1C36.7151 94.8307 36.5471 95.372 36.2111 95.724C35.8804 96.0813 35.3684 96.26 34.6751 96.26ZM34.7871 93.804C35.0377 93.804 35.2591 93.7587 35.4511 93.668C35.6484 93.572 35.8031 93.444 35.9151 93.284C36.0324 93.1187 36.0911 92.9293 36.0911 92.716V91.884C36.0911 91.676 36.0324 91.4893 35.9151 91.324C35.8031 91.1587 35.6484 91.0307 35.4511 90.94C35.2591 90.844 35.0377 90.796 34.7871 90.796C34.3817 90.796 34.0644 90.9267 33.8351 91.188C33.6111 91.4493 33.4991 91.82 33.4991 92.3C33.4991 92.78 33.6111 93.1507 33.8351 93.412C34.0644 93.6733 34.3817 93.804 34.7871 93.804ZM39.9184 94.58C39.4651 94.58 39.0758 94.4947 38.7504 94.324C38.4251 94.148 38.1744 93.9 37.9984 93.58C37.8278 93.2547 37.7424 92.868 37.7424 92.42C37.7424 91.972 37.8278 91.588 37.9984 91.268C38.1744 90.9427 38.4251 90.6947 38.7504 90.524C39.0758 90.348 39.4651 90.26 39.9184 90.26C40.1424 90.26 40.3558 90.284 40.5584 90.332C40.7611 90.3747 40.9584 90.4467 41.1504 90.548L41.0304 91.06C40.8491 90.9693 40.6704 90.9027 40.4944 90.86C40.3184 90.8173 40.1398 90.796 39.9584 90.796C39.4624 90.796 39.0758 90.94 38.7984 91.228C38.5211 91.5107 38.3824 91.908 38.3824 92.42C38.3824 92.9267 38.5211 93.324 38.7984 93.612C39.0758 93.9 39.4624 94.044 39.9584 94.044C40.1398 94.044 40.3184 94.0227 40.4944 93.98C40.6704 93.9373 40.8491 93.8707 41.0304 93.78L41.1504 94.292C40.9584 94.388 40.7611 94.46 40.5584 94.508C40.3558 94.556 40.1424 94.58 39.9184 94.58ZM42.3673 94.5V88.66H42.9993V90.9H43.0153C43.1753 90.692 43.3806 90.5347 43.6313 90.428C43.882 90.316 44.17 90.26 44.4953 90.26C45.0073 90.26 45.3806 90.396 45.6153 90.668C45.8553 90.94 45.9726 91.364 45.9673 91.94V94.5H45.3433V92.052C45.3486 91.62 45.2686 91.3027 45.1033 91.1C44.938 90.8973 44.682 90.796 44.3353 90.796C44.074 90.796 43.842 90.8493 43.6393 90.956C43.442 91.0573 43.2873 91.1987 43.1753 91.38C43.0633 91.556 43.0046 91.764 42.9993 92.004V94.5H42.3673ZM48.1478 94.58C47.7265 94.58 47.3931 94.468 47.1478 94.244C46.9025 94.0147 46.7798 93.708 46.7798 93.324C46.7798 92.844 46.9745 92.476 47.3638 92.22C47.7531 91.9587 48.3105 91.828 49.0358 91.828H49.6998C49.6998 91.4493 49.6118 91.1827 49.4358 91.028C49.2651 90.8733 48.9745 90.796 48.5638 90.796C48.2811 90.796 48.0171 90.8307 47.7718 90.9C47.5318 90.964 47.2891 91.068 47.0438 91.212L46.9398 90.676C47.1905 90.532 47.4545 90.428 47.7318 90.364C48.0091 90.2947 48.3105 90.26 48.6358 90.26C49.0411 90.26 49.3665 90.316 49.6118 90.428C49.8625 90.5347 50.0438 90.708 50.1558 90.948C50.2731 91.1827 50.3318 91.4947 50.3318 91.884V94.5H49.7238V93.932H49.6998C49.5611 94.124 49.3451 94.2813 49.0518 94.404C48.7638 94.5213 48.4625 94.58 48.1478 94.58ZM48.3478 94.06C48.5985 94.06 48.8251 94.012 49.0278 93.916C49.2358 93.82 49.3985 93.692 49.5158 93.532C49.6385 93.3667 49.6998 93.1853 49.6998 92.988V92.316H49.1158C48.5505 92.316 48.1238 92.3987 47.8358 92.564C47.5478 92.724 47.4038 92.9587 47.4038 93.268C47.4038 93.5133 47.4865 93.708 47.6518 93.852C47.8171 93.9907 48.0491 94.06 48.3478 94.06ZM51.771 94.5V90.34H52.411V94.5H51.771ZM52.091 89.548C51.9523 89.548 51.8377 89.5053 51.747 89.42C51.6617 89.3293 51.619 89.212 51.619 89.068C51.619 88.9293 51.6617 88.8173 51.747 88.732C51.8377 88.6413 51.9523 88.596 52.091 88.596C52.235 88.596 52.3497 88.6413 52.435 88.732C52.5257 88.8173 52.571 88.9293 52.571 89.068C52.571 89.212 52.5257 89.3293 52.435 89.42C52.3497 89.5053 52.235 89.548 52.091 89.548ZM53.9845 94.5V90.34H54.6005V90.956H54.6165C54.7818 90.7267 54.9898 90.5533 55.2405 90.436C55.4965 90.3187 55.7845 90.26 56.1045 90.26C56.6112 90.26 56.9845 90.412 57.2245 90.716C57.4645 91.0147 57.5845 91.476 57.5845 92.1V94.5H56.9525V92.212C56.9525 91.732 56.8698 91.3773 56.7045 91.148C56.5392 90.9133 56.2858 90.796 55.9445 90.796C55.6885 90.796 55.4592 90.8547 55.2565 90.972C55.0592 91.084 54.9018 91.2413 54.7845 91.444C54.6725 91.6413 54.6165 91.8707 54.6165 92.132V94.5H53.9845Z" fill="#9A9CBC"/>
</svg>
