<svg width="71" height="71" viewBox="0 0 71 71" fill="none" xmlns="http://www.w3.org/2000/svg">
<rect x="0.5" y="0.5" width="70" height="70" rx="4.5" fill="#101114"/>
<rect x="0.5" y="0.5" width="70" height="70" rx="4.5" stroke="#292A36"/>
<path d="M16.5579 33.12C15.9819 33.12 15.4139 33.06 14.8539 32.94C14.3019 32.812 13.8379 32.648 13.4619 32.448L13.8219 31.104C14.0939 31.24 14.3899 31.36 14.7099 31.464C15.0299 31.568 15.3579 31.648 15.6939 31.704C16.0299 31.76 16.3499 31.788 16.6539 31.788C17.2299 31.788 17.6699 31.688 17.9739 31.488C18.2859 31.28 18.4419 30.984 18.4419 30.6C18.4419 30.392 18.3939 30.216 18.2979 30.072C18.2019 29.928 18.0579 29.804 17.8659 29.7C17.6819 29.588 17.4499 29.488 17.1699 29.4C16.8899 29.304 16.5699 29.208 16.2099 29.112C15.7939 29 15.4179 28.872 15.0819 28.728C14.7539 28.576 14.4699 28.4 14.2299 28.2C13.9899 27.992 13.8059 27.752 13.6779 27.48C13.5499 27.2 13.4859 26.88 13.4859 26.52C13.4859 25.744 13.7779 25.152 14.3619 24.744C14.9459 24.328 15.7739 24.12 16.8459 24.12C17.3899 24.12 17.9259 24.172 18.4539 24.276C18.9899 24.372 19.4459 24.504 19.8219 24.672L19.4499 26.016C19.0819 25.84 18.6659 25.704 18.2019 25.608C17.7379 25.504 17.2819 25.452 16.8339 25.452C16.2499 25.452 15.8059 25.544 15.5019 25.728C15.1979 25.912 15.0459 26.18 15.0459 26.532C15.0459 26.732 15.0899 26.904 15.1779 27.048C15.2659 27.192 15.3979 27.316 15.5739 27.42C15.7499 27.524 15.9659 27.62 16.2219 27.708C16.4779 27.796 16.7819 27.888 17.1339 27.984C17.5739 28.112 17.9699 28.252 18.3219 28.404C18.6819 28.548 18.9859 28.72 19.2339 28.92C19.4819 29.12 19.6699 29.36 19.7979 29.64C19.9339 29.912 20.0019 30.236 20.0019 30.612C20.0019 31.404 19.7019 32.02 19.1019 32.46C18.5019 32.9 17.6539 33.12 16.5579 33.12ZM23.9658 33.12C23.1978 33.12 22.6378 32.96 22.2858 32.64C21.9418 32.312 21.7698 31.784 21.7698 31.056V27.936H20.3778V26.76H21.7698V24.72H23.2458V26.76H25.3578V27.936H23.2458V30.852C23.2458 31.22 23.3258 31.484 23.4858 31.644C23.6458 31.796 23.9098 31.872 24.2778 31.872C24.4298 31.872 24.5818 31.86 24.7338 31.836C24.8858 31.804 25.0378 31.76 25.1898 31.704L25.3578 32.892C25.1098 32.972 24.8778 33.028 24.6618 33.06C24.4458 33.1 24.2138 33.12 23.9658 33.12ZM29.3871 33.12C28.7471 33.12 28.1871 32.988 27.7071 32.724C27.2351 32.46 26.8711 32.084 26.6151 31.596C26.3591 31.108 26.2311 30.536 26.2311 29.88C26.2311 29.216 26.3591 28.644 26.6151 28.164C26.8711 27.676 27.2351 27.3 27.7071 27.036C28.1871 26.772 28.7471 26.64 29.3871 26.64C30.0351 26.64 30.5951 26.772 31.0671 27.036C31.5391 27.3 31.9031 27.676 32.1591 28.164C32.4231 28.644 32.5551 29.216 32.5551 29.88C32.5551 30.536 32.4231 31.108 32.1591 31.596C31.9031 32.084 31.5391 32.46 31.0671 32.724C30.5951 32.988 30.0351 33.12 29.3871 33.12ZM29.3871 31.944C29.9231 31.944 30.3391 31.764 30.6351 31.404C30.9311 31.044 31.0791 30.536 31.0791 29.88C31.0791 29.216 30.9311 28.708 30.6351 28.356C30.3391 27.996 29.9231 27.816 29.3871 27.816C28.8511 27.816 28.4351 27.996 28.1391 28.356C27.8431 28.708 27.6951 29.216 27.6951 29.88C27.6951 30.536 27.8431 31.044 28.1391 31.404C28.4351 31.764 28.8511 31.944 29.3871 31.944ZM33.8701 33V26.76H35.2861L35.2981 27.936H35.3221C35.5301 27.664 35.7741 27.432 36.0541 27.24C36.3421 27.04 36.6581 26.892 37.0021 26.796C37.3461 26.692 37.7061 26.64 38.0821 26.64V27.912C37.5781 27.912 37.1181 28.008 36.7021 28.2C36.2941 28.392 35.9661 28.652 35.7181 28.98C35.4781 29.3 35.3581 29.66 35.3581 30.06V33H33.8701ZM40.573 33.12C39.949 33.12 39.457 32.952 39.097 32.616C38.745 32.272 38.569 31.808 38.569 31.224C38.569 30.496 38.853 29.936 39.421 29.544C39.989 29.152 40.797 28.956 41.845 28.956H42.721C42.721 28.54 42.613 28.248 42.397 28.08C42.181 27.904 41.813 27.816 41.293 27.816C40.893 27.816 40.509 27.864 40.141 27.96C39.781 28.056 39.409 28.208 39.025 28.416L38.845 27.216C39.237 27.024 39.645 26.88 40.069 26.784C40.501 26.688 40.969 26.64 41.473 26.64C42.129 26.64 42.653 26.72 43.045 26.88C43.445 27.04 43.733 27.3 43.909 27.66C44.093 28.012 44.185 28.48 44.185 29.064V33H42.781L42.769 32.28H42.745C42.529 32.528 42.217 32.732 41.809 32.892C41.401 33.044 40.989 33.12 40.573 33.12ZM41.101 31.968C41.397 31.968 41.669 31.916 41.917 31.812C42.165 31.7 42.361 31.552 42.505 31.368C42.649 31.184 42.721 30.976 42.721 30.744V29.988H42.061C41.373 29.988 40.853 30.08 40.501 30.264C40.157 30.44 39.985 30.712 39.985 31.08C39.985 31.352 40.081 31.568 40.273 31.728C40.465 31.888 40.741 31.968 41.101 31.968ZM48.1287 35.64C47.6327 35.64 47.1807 35.584 46.7727 35.472C46.3647 35.36 46.0087 35.192 45.7047 34.968L45.9807 33.816C46.3007 34.04 46.6207 34.204 46.9407 34.308C47.2687 34.412 47.6247 34.464 48.0087 34.464C48.6887 34.464 49.1887 34.288 49.5087 33.936C49.8287 33.592 49.9887 33.052 49.9887 32.316V31.956H49.9647C49.7247 32.22 49.4327 32.42 49.0887 32.556C48.7527 32.692 48.3807 32.76 47.9727 32.76C47.1407 32.76 46.4927 32.492 46.0287 31.956C45.5647 31.42 45.3327 30.668 45.3327 29.7C45.3327 28.732 45.5647 27.98 46.0287 27.444C46.4927 26.908 47.1407 26.64 47.9727 26.64C48.3887 26.64 48.7727 26.712 49.1247 26.856C49.4847 26.992 49.7807 27.188 50.0127 27.444H50.0367L50.0487 26.76H51.4407V32.316C51.4407 33.42 51.1647 34.248 50.6127 34.8C50.0607 35.36 49.2327 35.64 48.1287 35.64ZM48.3567 31.56C48.6767 31.56 48.9567 31.504 49.1967 31.392C49.4367 31.28 49.6287 31.128 49.7727 30.936C49.9167 30.744 49.9887 30.52 49.9887 30.264V29.136C49.9887 28.888 49.9167 28.668 49.7727 28.476C49.6287 28.276 49.4367 28.12 49.1967 28.008C48.9567 27.896 48.6767 27.84 48.3567 27.84C47.8607 27.84 47.4727 28.004 47.1927 28.332C46.9127 28.652 46.7727 29.108 46.7727 29.7C46.7727 30.3 46.9127 30.76 47.1927 31.08C47.4727 31.4 47.8607 31.56 48.3567 31.56ZM56.0861 33.12C55.0221 33.12 54.2021 32.84 53.6261 32.28C53.0581 31.72 52.7741 30.92 52.7741 29.88C52.7741 28.872 53.0461 28.08 53.5901 27.504C54.1421 26.928 54.8941 26.64 55.8461 26.64C56.7661 26.64 57.4781 26.912 57.9821 27.456C58.4861 28 58.7381 28.772 58.7381 29.772C58.7381 29.884 58.7341 30.008 58.7261 30.144C58.7181 30.28 58.7101 30.38 58.7021 30.444H53.5901V29.376H57.5741L57.3581 29.7C57.3581 29.044 57.2301 28.56 56.9741 28.248C56.7261 27.928 56.3501 27.768 55.8461 27.768C55.3101 27.768 54.9021 27.936 54.6221 28.272C54.3501 28.6 54.2141 29.088 54.2141 29.736V30.156C54.2141 30.748 54.3701 31.196 54.6821 31.5C55.0021 31.796 55.4741 31.944 56.0981 31.944C56.4661 31.944 56.8341 31.896 57.2021 31.8C57.5701 31.704 57.9021 31.572 58.1981 31.404L58.4261 32.556C58.1221 32.732 57.7661 32.872 57.3581 32.976C56.9581 33.072 56.5341 33.12 56.0861 33.12ZM11.6335 47.12C10.9135 47.12 10.2975 46.992 9.78553 46.736C9.28153 46.48 8.89353 46.112 8.62153 45.632C8.34953 45.144 8.21353 44.56 8.21353 43.88C8.21353 43.2 8.34953 42.62 8.62153 42.14C8.89353 41.652 9.28153 41.28 9.78553 41.024C10.2975 40.768 10.9135 40.64 11.6335 40.64C11.9935 40.64 12.3295 40.676 12.6415 40.748C12.9615 40.812 13.2735 40.924 13.5775 41.084L13.3255 42.236C13.0455 42.092 12.7735 41.988 12.5095 41.924C12.2535 41.852 11.9935 41.816 11.7295 41.816C11.0895 41.816 10.5935 41.996 10.2415 42.356C9.88953 42.716 9.71353 43.224 9.71353 43.88C9.71353 44.536 9.88953 45.044 10.2415 45.404C10.5935 45.764 11.0895 45.944 11.7295 45.944C11.9935 45.944 12.2535 45.912 12.5095 45.848C12.7735 45.776 13.0455 45.668 13.3255 45.524L13.5775 46.676C13.2735 46.828 12.9615 46.94 12.6415 47.012C12.3295 47.084 11.9935 47.12 11.6335 47.12ZM17.7563 47.12C17.1163 47.12 16.5563 46.988 16.0763 46.724C15.6043 46.46 15.2403 46.084 14.9843 45.596C14.7283 45.108 14.6003 44.536 14.6003 43.88C14.6003 43.216 14.7283 42.644 14.9843 42.164C15.2403 41.676 15.6043 41.3 16.0763 41.036C16.5563 40.772 17.1163 40.64 17.7563 40.64C18.4043 40.64 18.9643 40.772 19.4363 41.036C19.9083 41.3 20.2723 41.676 20.5283 42.164C20.7923 42.644 20.9243 43.216 20.9243 43.88C20.9243 44.536 20.7923 45.108 20.5283 45.596C20.2723 46.084 19.9083 46.46 19.4363 46.724C18.9643 46.988 18.4043 47.12 17.7563 47.12ZM17.7563 45.944C18.2923 45.944 18.7083 45.764 19.0043 45.404C19.3003 45.044 19.4483 44.536 19.4483 43.88C19.4483 43.216 19.3003 42.708 19.0043 42.356C18.7083 41.996 18.2923 41.816 17.7563 41.816C17.2203 41.816 16.8043 41.996 16.5083 42.356C16.2123 42.708 16.0643 43.216 16.0643 43.88C16.0643 44.536 16.2123 45.044 16.5083 45.404C16.8043 45.764 17.2203 45.944 17.7563 45.944ZM22.2393 47V40.76H23.6433L23.6553 41.6H23.6793C23.9593 41.272 24.2713 41.032 24.6153 40.88C24.9673 40.72 25.3673 40.64 25.8153 40.64C26.5753 40.64 27.1273 40.86 27.4713 41.3C27.8233 41.74 27.9993 42.44 27.9993 43.4V47H26.5353V43.676C26.5353 43.06 26.4393 42.604 26.2473 42.308C26.0553 42.004 25.7593 41.852 25.3593 41.852C25.0553 41.852 24.7753 41.928 24.5193 42.08C24.2713 42.232 24.0753 42.436 23.9313 42.692C23.7873 42.94 23.7153 43.216 23.7153 43.52V47H22.2393ZM32.292 47.12C31.524 47.12 30.964 46.96 30.612 46.64C30.268 46.312 30.096 45.784 30.096 45.056V41.936H28.704V40.76H30.096V38.72H31.572V40.76H33.684V41.936H31.572V44.852C31.572 45.22 31.652 45.484 31.812 45.644C31.972 45.796 32.236 45.872 32.604 45.872C32.756 45.872 32.908 45.86 33.06 45.836C33.212 45.804 33.364 45.76 33.516 45.704L33.684 46.892C33.436 46.972 33.204 47.028 32.988 47.06C32.772 47.1 32.54 47.12 32.292 47.12ZM36.5945 47.12C35.9705 47.12 35.4785 46.952 35.1185 46.616C34.7665 46.272 34.5905 45.808 34.5905 45.224C34.5905 44.496 34.8745 43.936 35.4425 43.544C36.0105 43.152 36.8185 42.956 37.8665 42.956H38.7425C38.7425 42.54 38.6345 42.248 38.4185 42.08C38.2025 41.904 37.8345 41.816 37.3145 41.816C36.9145 41.816 36.5305 41.864 36.1625 41.96C35.8025 42.056 35.4305 42.208 35.0465 42.416L34.8665 41.216C35.2585 41.024 35.6665 40.88 36.0905 40.784C36.5225 40.688 36.9905 40.64 37.4945 40.64C38.1505 40.64 38.6745 40.72 39.0665 40.88C39.4665 41.04 39.7545 41.3 39.9305 41.66C40.1145 42.012 40.2065 42.48 40.2065 43.064V47H38.8025L38.7905 46.28H38.7665C38.5505 46.528 38.2385 46.732 37.8305 46.892C37.4225 47.044 37.0105 47.12 36.5945 47.12ZM37.1225 45.968C37.4185 45.968 37.6905 45.916 37.9385 45.812C38.1865 45.7 38.3825 45.552 38.5265 45.368C38.6705 45.184 38.7425 44.976 38.7425 44.744V43.988H38.0825C37.3945 43.988 36.8745 44.08 36.5225 44.264C36.1785 44.44 36.0065 44.712 36.0065 45.08C36.0065 45.352 36.1025 45.568 36.2945 45.728C36.4865 45.888 36.7625 45.968 37.1225 45.968ZM42.0742 47V40.82H43.5622V47H42.0742ZM42.8182 39.932C42.5302 39.932 42.3022 39.852 42.1342 39.692C41.9662 39.524 41.8822 39.3 41.8822 39.02C41.8822 38.74 41.9662 38.516 42.1342 38.348C42.3022 38.18 42.5302 38.096 42.8182 38.096C43.1062 38.096 43.3342 38.18 43.5022 38.348C43.6702 38.516 43.7542 38.74 43.7542 39.02C43.7542 39.3 43.6702 39.524 43.5022 39.692C43.3342 39.852 43.1062 39.932 42.8182 39.932ZM45.6065 47V40.76H47.0105L47.0225 41.6H47.0465C47.3265 41.272 47.6385 41.032 47.9825 40.88C48.3345 40.72 48.7345 40.64 49.1825 40.64C49.9425 40.64 50.4945 40.86 50.8385 41.3C51.1905 41.74 51.3665 42.44 51.3665 43.4V47H49.9025V43.676C49.9025 43.06 49.8065 42.604 49.6145 42.308C49.4225 42.004 49.1265 41.852 48.7265 41.852C48.4225 41.852 48.1425 41.928 47.8865 42.08C47.6385 42.232 47.4425 42.436 47.2985 42.692C47.1545 42.94 47.0825 43.216 47.0825 43.52V47H45.6065ZM55.8341 47.12C54.7701 47.12 53.9501 46.84 53.3741 46.28C52.8061 45.72 52.5221 44.92 52.5221 43.88C52.5221 42.872 52.7941 42.08 53.3381 41.504C53.8901 40.928 54.6421 40.64 55.5941 40.64C56.5141 40.64 57.2261 40.912 57.7301 41.456C58.2341 42 58.4861 42.772 58.4861 43.772C58.4861 43.884 58.4821 44.008 58.4741 44.144C58.4661 44.28 58.4581 44.38 58.4501 44.444H53.3381V43.376H57.3221L57.1061 43.7C57.1061 43.044 56.9781 42.56 56.7221 42.248C56.4741 41.928 56.0981 41.768 55.5941 41.768C55.0581 41.768 54.6501 41.936 54.3701 42.272C54.0981 42.6 53.9621 43.088 53.9621 43.736V44.156C53.9621 44.748 54.1181 45.196 54.4301 45.5C54.7501 45.796 55.2221 45.944 55.8461 45.944C56.2141 45.944 56.5821 45.896 56.9501 45.8C57.3181 45.704 57.6501 45.572 57.9461 45.404L58.1741 46.556C57.8701 46.732 57.5141 46.872 57.1061 46.976C56.7061 47.072 56.2821 47.12 55.8341 47.12ZM59.7862 47V40.76H61.2022L61.2142 41.936H61.2382C61.4462 41.664 61.6902 41.432 61.9702 41.24C62.2582 41.04 62.5742 40.892 62.9182 40.796C63.2622 40.692 63.6222 40.64 63.9982 40.64V41.912C63.4942 41.912 63.0342 42.008 62.6182 42.2C62.2102 42.392 61.8822 42.652 61.6342 42.98C61.3942 43.3 61.2742 43.66 61.2742 44.06V47H59.7862Z" fill="#76778C"/>
</svg>
