<svg width="234" height="14" viewBox="0 0 234 14" fill="none" xmlns="http://www.w3.org/2000/svg">
<path d="M0.311625 13V1.32H2.31163V6.392H2.34363L7.43163 1.32H9.91163L4.32763 6.904L10.0716 13H7.59163L2.34363 7.432H2.31163V13H0.311625ZM14.855 13V8.68L10.487 1.32H12.759L15.879 6.904H15.911L19.031 1.32H21.287L16.935 8.68V13H14.855ZM27.2368 13.16C25.9674 13.16 24.8741 12.92 23.9568 12.44C23.0394 11.96 22.3354 11.272 21.8448 10.376C21.3648 9.48 21.1248 8.408 21.1248 7.16C21.1248 5.90133 21.3648 4.82933 21.8448 3.944C22.3354 3.048 23.0394 2.36 23.9568 1.88C24.8741 1.4 25.9674 1.16 27.2368 1.16C28.6874 1.16 29.9728 1.47467 31.0928 2.104L30.6288 3.864C29.5408 3.24533 28.4314 2.936 27.3008 2.936C26.4581 2.936 25.7274 3.10667 25.1088 3.448C24.4901 3.77867 24.0154 4.25867 23.6848 4.888C23.3541 5.51733 23.1888 6.27467 23.1888 7.16C23.1888 8.03467 23.3541 8.792 23.6848 9.432C24.0154 10.0613 24.4901 10.5467 25.1088 10.888C25.7274 11.2187 26.4581 11.384 27.3008 11.384C28.3994 11.384 29.5088 11.0747 30.6288 10.456L31.0928 12.216C29.9728 12.8453 28.6874 13.16 27.2368 13.16ZM40.6005 13L36.5045 1.32H38.6965L41.8805 11H41.9125L45.1125 1.32H47.3045L43.2085 13H40.6005ZM51.258 13.16C49.8393 13.16 48.746 12.7867 47.978 12.04C47.2207 11.2933 46.842 10.2267 46.842 8.84C46.842 7.496 47.2047 6.44 47.93 5.672C48.666 4.904 49.6687 4.52 50.938 4.52C52.1647 4.52 53.114 4.88267 53.786 5.608C54.458 6.33333 54.794 7.36267 54.794 8.696C54.794 8.84533 54.7887 9.01067 54.778 9.192C54.7673 9.37333 54.7567 9.50667 54.746 9.592H47.93V8.168H53.242L52.954 8.6C52.954 7.72533 52.7833 7.08 52.442 6.664C52.1113 6.23733 51.61 6.024 50.938 6.024C50.2233 6.024 49.6793 6.248 49.306 6.696C48.9433 7.13333 48.762 7.784 48.762 8.648V9.208C48.762 9.99733 48.97 10.5947 49.386 11C49.8127 11.3947 50.442 11.592 51.274 11.592C51.7647 11.592 52.2553 11.528 52.746 11.4C53.2367 11.272 53.6793 11.096 54.074 10.872L54.378 12.408C53.9727 12.6427 53.498 12.8293 52.954 12.968C52.4207 13.096 51.8553 13.16 51.258 13.16ZM56.5274 13V4.68H58.4154L58.4314 6.248H58.4634C58.7407 5.88533 59.066 5.576 59.4394 5.32C59.8234 5.05333 60.2447 4.856 60.7034 4.728C61.162 4.58933 61.642 4.52 62.1434 4.52V6.216C61.4714 6.216 60.858 6.344 60.3034 6.6C59.7594 6.856 59.322 7.20267 58.9914 7.64C58.6714 8.06667 58.5114 8.54667 58.5114 9.08V13H56.5274ZM63.8489 13V4.76H65.8329V13H63.8489ZM64.8409 3.576C64.4569 3.576 64.1529 3.46933 63.9289 3.256C63.7049 3.032 63.5929 2.73333 63.5929 2.36C63.5929 1.98667 63.7049 1.688 63.9289 1.464C64.1529 1.24 64.4569 1.128 64.8409 1.128C65.2249 1.128 65.5289 1.24 65.7529 1.464C65.9769 1.688 66.0889 1.98667 66.0889 2.36C66.0889 2.73333 65.9769 3.032 65.7529 3.256C65.5289 3.46933 65.2249 3.576 64.8409 3.576ZM69.8706 13V6.568H67.7426V5H69.8706V3.736C69.8706 2.72267 70.1213 1.96 70.6226 1.448C71.1346 0.935999 71.8813 0.679999 72.8626 0.679999C73.1613 0.679999 73.4546 0.701333 73.7426 0.743999C74.0306 0.786666 74.2973 0.845333 74.5426 0.919999L74.3186 2.504C73.9346 2.376 73.556 2.312 73.1826 2.312C72.692 2.312 72.3453 2.42933 72.1426 2.664C71.9506 2.888 71.8546 3.27733 71.8546 3.832V5H74.4786V6.568H71.8546V13H69.8706ZM76.4466 13V4.76H78.4306V13H76.4466ZM77.4386 3.576C77.0546 3.576 76.7506 3.46933 76.5266 3.256C76.3026 3.032 76.1906 2.73333 76.1906 2.36C76.1906 1.98667 76.3026 1.688 76.5266 1.464C76.7506 1.24 77.0546 1.128 77.4386 1.128C77.8226 1.128 78.1266 1.24 78.3506 1.464C78.5746 1.688 78.6866 1.98667 78.6866 2.36C78.6866 2.73333 78.5746 3.032 78.3506 3.256C78.1266 3.46933 77.8226 3.576 77.4386 3.576ZM85.1208 13.16C84.1608 13.16 83.3394 12.9893 82.6568 12.648C81.9848 12.3067 81.4674 11.816 81.1048 11.176C80.7421 10.5253 80.5608 9.74667 80.5608 8.84C80.5608 7.93333 80.7421 7.16 81.1048 6.52C81.4674 5.86933 81.9848 5.37333 82.6568 5.032C83.3394 4.69067 84.1608 4.52 85.1208 4.52C85.6008 4.52 86.0488 4.568 86.4648 4.664C86.8914 4.74933 87.3074 4.89867 87.7128 5.112L87.3768 6.648C87.0034 6.456 86.6408 6.31733 86.2888 6.232C85.9474 6.136 85.6008 6.088 85.2488 6.088C84.3954 6.088 83.7341 6.328 83.2648 6.808C82.7954 7.288 82.5608 7.96533 82.5608 8.84C82.5608 9.71467 82.7954 10.392 83.2648 10.872C83.7341 11.352 84.3954 11.592 85.2488 11.592C85.6008 11.592 85.9474 11.5493 86.2888 11.464C86.6408 11.368 87.0034 11.224 87.3768 11.032L87.7128 12.568C87.3074 12.7707 86.8914 12.92 86.4648 13.016C86.0488 13.112 85.6008 13.16 85.1208 13.16ZM91.7301 13.16C90.8981 13.16 90.2421 12.936 89.7621 12.488C89.2928 12.0293 89.0581 11.4107 89.0581 10.632C89.0581 9.66133 89.4368 8.91467 90.1941 8.392C90.9515 7.86933 92.0288 7.608 93.4261 7.608H94.5941C94.5941 7.05333 94.4501 6.664 94.1621 6.44C93.8741 6.20533 93.3835 6.088 92.6901 6.088C92.1568 6.088 91.6448 6.152 91.1541 6.28C90.6741 6.408 90.1781 6.61067 89.6661 6.888L89.4261 5.288C89.9488 5.032 90.4928 4.84 91.0581 4.712C91.6341 4.584 92.2581 4.52 92.9301 4.52C93.8048 4.52 94.5035 4.62667 95.0261 4.84C95.5595 5.05333 95.9435 5.4 96.1781 5.88C96.4235 6.34933 96.5461 6.97333 96.5461 7.752V13H94.6741L94.6581 12.04H94.6261C94.3381 12.3707 93.9221 12.6427 93.3781 12.856C92.8341 13.0587 92.2848 13.16 91.7301 13.16ZM92.4341 11.624C92.8288 11.624 93.1915 11.5547 93.5221 11.416C93.8528 11.2667 94.1141 11.0693 94.3061 10.824C94.4981 10.5787 94.5941 10.3013 94.5941 9.992V8.984H93.7141C92.7968 8.984 92.1035 9.10667 91.6341 9.352C91.1755 9.58667 90.9461 9.94933 90.9461 10.44C90.9461 10.8027 91.0741 11.0907 91.3301 11.304C91.5861 11.5173 91.9541 11.624 92.4341 11.624ZM102.259 13.16C101.235 13.16 100.488 12.9467 100.019 12.52C99.5605 12.0827 99.3311 11.3787 99.3311 10.408V6.248H97.4751V4.68H99.3311V1.96H101.299V4.68H104.115V6.248H101.299V10.136C101.299 10.6267 101.406 10.9787 101.619 11.192C101.832 11.3947 102.184 11.496 102.675 11.496C102.878 11.496 103.08 11.48 103.283 11.448C103.486 11.4053 103.688 11.3467 103.891 11.272L104.115 12.856C103.784 12.9627 103.475 13.0373 103.187 13.08C102.899 13.1333 102.59 13.16 102.259 13.16ZM106.458 13V4.76H108.442V13H106.458ZM107.45 3.576C107.066 3.576 106.762 3.46933 106.538 3.256C106.314 3.032 106.202 2.73333 106.202 2.36C106.202 1.98667 106.314 1.688 106.538 1.464C106.762 1.24 107.066 1.128 107.45 1.128C107.834 1.128 108.138 1.24 108.362 1.464C108.586 1.688 108.698 1.98667 108.698 2.36C108.698 2.73333 108.586 3.032 108.362 3.256C108.138 3.46933 107.834 3.576 107.45 3.576ZM114.8 13.16C113.947 13.16 113.2 12.984 112.56 12.632C111.931 12.28 111.445 11.7787 111.104 11.128C110.763 10.4773 110.592 9.71467 110.592 8.84C110.592 7.95467 110.763 7.192 111.104 6.552C111.445 5.90133 111.931 5.4 112.56 5.048C113.2 4.696 113.947 4.52 114.8 4.52C115.664 4.52 116.411 4.696 117.04 5.048C117.669 5.4 118.155 5.90133 118.496 6.552C118.848 7.192 119.024 7.95467 119.024 8.84C119.024 9.71467 118.848 10.4773 118.496 11.128C118.155 11.7787 117.669 12.28 117.04 12.632C116.411 12.984 115.664 13.16 114.8 13.16ZM114.8 11.592C115.515 11.592 116.069 11.352 116.464 10.872C116.859 10.392 117.056 9.71467 117.056 8.84C117.056 7.95467 116.859 7.27733 116.464 6.808C116.069 6.328 115.515 6.088 114.8 6.088C114.085 6.088 113.531 6.328 113.136 6.808C112.741 7.27733 112.544 7.95467 112.544 8.84C112.544 9.71467 112.741 10.392 113.136 10.872C113.531 11.352 114.085 11.592 114.8 11.592ZM120.777 13V4.68H122.649L122.665 5.8H122.697C123.071 5.36267 123.487 5.04267 123.945 4.84C124.415 4.62667 124.948 4.52 125.545 4.52C126.559 4.52 127.295 4.81333 127.753 5.4C128.223 5.98667 128.457 6.92 128.457 8.2V13H126.505V8.568C126.505 7.74667 126.377 7.13867 126.121 6.744C125.865 6.33867 125.471 6.136 124.937 6.136C124.532 6.136 124.159 6.23733 123.817 6.44C123.487 6.64267 123.225 6.91467 123.033 7.256C122.841 7.58667 122.745 7.95467 122.745 8.36V13H120.777ZM135.396 13V4.76H137.38V13H135.396ZM136.388 3.576C136.004 3.576 135.7 3.46933 135.476 3.256C135.252 3.032 135.14 2.73333 135.14 2.36C135.14 1.98667 135.252 1.688 135.476 1.464C135.7 1.24 136.004 1.128 136.388 1.128C136.772 1.128 137.076 1.24 137.3 1.464C137.524 1.688 137.636 1.98667 137.636 2.36C137.636 2.73333 137.524 3.032 137.3 3.256C137.076 3.46933 136.772 3.576 136.388 3.576ZM142.81 13.16C142.223 13.16 141.647 13.1013 141.082 12.984C140.527 12.8667 140.02 12.7013 139.562 12.488L139.85 10.936C140.351 11.1493 140.847 11.3147 141.338 11.432C141.828 11.5387 142.308 11.592 142.778 11.592C143.322 11.592 143.727 11.5173 143.994 11.368C144.26 11.208 144.394 10.9733 144.394 10.664C144.394 10.472 144.346 10.312 144.25 10.184C144.154 10.056 143.983 9.944 143.738 9.848C143.503 9.74133 143.167 9.64 142.73 9.544C141.983 9.36267 141.375 9.15467 140.906 8.92C140.436 8.67467 140.09 8.38667 139.866 8.056C139.642 7.72533 139.53 7.336 139.53 6.888C139.53 6.12 139.823 5.53333 140.41 5.128C141.007 4.72267 141.866 4.52 142.986 4.52C143.54 4.52 144.079 4.57333 144.602 4.68C145.124 4.776 145.626 4.93067 146.106 5.144L145.834 6.68C145.375 6.47733 144.911 6.328 144.442 6.232C143.983 6.136 143.524 6.088 143.066 6.088C142.543 6.088 142.154 6.15733 141.898 6.296C141.652 6.424 141.53 6.632 141.53 6.92C141.53 7.08 141.578 7.224 141.674 7.352C141.78 7.48 141.951 7.592 142.186 7.688C142.42 7.784 142.735 7.88 143.13 7.976C143.695 8.104 144.18 8.25333 144.586 8.424C145.002 8.59467 145.338 8.792 145.594 9.016C145.86 9.24 146.058 9.49067 146.186 9.768C146.314 10.0347 146.378 10.3387 146.378 10.68C146.378 11.4693 146.063 12.0827 145.434 12.52C144.815 12.9467 143.94 13.16 142.81 13.16ZM156.366 13.16C155.598 13.16 154.841 13.08 154.094 12.92C153.358 12.7493 152.74 12.5307 152.238 12.264L152.718 10.472C153.081 10.6533 153.476 10.8133 153.902 10.952C154.329 11.0907 154.766 11.1973 155.214 11.272C155.662 11.3467 156.089 11.384 156.494 11.384C157.262 11.384 157.849 11.2507 158.254 10.984C158.67 10.7067 158.878 10.312 158.878 9.8C158.878 9.52267 158.814 9.288 158.686 9.096C158.558 8.904 158.366 8.73867 158.11 8.6C157.865 8.45067 157.556 8.31733 157.182 8.2C156.809 8.072 156.382 7.944 155.902 7.816C155.348 7.66667 154.846 7.496 154.398 7.304C153.961 7.10133 153.582 6.86667 153.262 6.6C152.942 6.32267 152.697 6.00267 152.526 5.64C152.356 5.26667 152.27 4.84 152.27 4.36C152.27 3.32533 152.66 2.536 153.438 1.992C154.217 1.43733 155.321 1.16 156.75 1.16C157.476 1.16 158.19 1.22933 158.894 1.368C159.609 1.496 160.217 1.672 160.718 1.896L160.222 3.688C159.732 3.45333 159.177 3.272 158.558 3.144C157.94 3.00533 157.332 2.936 156.734 2.936C155.956 2.936 155.364 3.05867 154.958 3.304C154.553 3.54933 154.35 3.90667 154.35 4.376C154.35 4.64267 154.409 4.872 154.526 5.064C154.644 5.256 154.82 5.42133 155.054 5.56C155.289 5.69867 155.577 5.82667 155.918 5.944C156.26 6.06133 156.665 6.184 157.134 6.312C157.721 6.48267 158.249 6.66933 158.718 6.872C159.198 7.064 159.604 7.29333 159.934 7.56C160.265 7.82667 160.516 8.14667 160.686 8.52C160.868 8.88267 160.958 9.31467 160.958 9.816C160.958 10.872 160.558 11.6933 159.758 12.28C158.958 12.8667 157.828 13.16 156.366 13.16ZM165.401 13.16C164.43 13.16 163.715 12.8613 163.257 12.264C162.809 11.6667 162.585 10.7387 162.585 9.48V4.68H164.553V9.112C164.553 9.944 164.67 10.5573 164.905 10.952C165.139 11.3467 165.513 11.544 166.025 11.544C166.409 11.544 166.761 11.4427 167.081 11.24C167.411 11.0373 167.667 10.7707 167.849 10.44C168.041 10.0987 168.137 9.72533 168.137 9.32V4.68H170.105V13H168.233L168.217 11.88H168.185C167.822 12.3067 167.417 12.6267 166.969 12.84C166.521 13.0533 165.998 13.16 165.401 13.16ZM176.418 13.16C175.458 13.16 174.636 12.9893 173.954 12.648C173.282 12.3067 172.764 11.816 172.402 11.176C172.039 10.5253 171.858 9.74667 171.858 8.84C171.858 7.93333 172.039 7.16 172.402 6.52C172.764 5.86933 173.282 5.37333 173.954 5.032C174.636 4.69067 175.458 4.52 176.418 4.52C176.898 4.52 177.346 4.568 177.762 4.664C178.188 4.74933 178.604 4.89867 179.01 5.112L178.674 6.648C178.3 6.456 177.938 6.31733 177.586 6.232C177.244 6.136 176.898 6.088 176.546 6.088C175.692 6.088 175.031 6.328 174.562 6.808C174.092 7.288 173.858 7.96533 173.858 8.84C173.858 9.71467 174.092 10.392 174.562 10.872C175.031 11.352 175.692 11.592 176.546 11.592C176.898 11.592 177.244 11.5493 177.586 11.464C177.938 11.368 178.3 11.224 178.674 11.032L179.01 12.568C178.604 12.7707 178.188 12.92 177.762 13.016C177.346 13.112 176.898 13.16 176.418 13.16ZM184.933 13.16C183.973 13.16 183.152 12.9893 182.469 12.648C181.797 12.3067 181.28 11.816 180.917 11.176C180.555 10.5253 180.373 9.74667 180.373 8.84C180.373 7.93333 180.555 7.16 180.917 6.52C181.28 5.86933 181.797 5.37333 182.469 5.032C183.152 4.69067 183.973 4.52 184.933 4.52C185.413 4.52 185.861 4.568 186.277 4.664C186.704 4.74933 187.12 4.89867 187.525 5.112L187.189 6.648C186.816 6.456 186.453 6.31733 186.101 6.232C185.76 6.136 185.413 6.088 185.061 6.088C184.208 6.088 183.547 6.328 183.077 6.808C182.608 7.288 182.373 7.96533 182.373 8.84C182.373 9.71467 182.608 10.392 183.077 10.872C183.547 11.352 184.208 11.592 185.061 11.592C185.413 11.592 185.76 11.5493 186.101 11.464C186.453 11.368 186.816 11.224 187.189 11.032L187.525 12.568C187.12 12.7707 186.704 12.92 186.277 13.016C185.861 13.112 185.413 13.16 184.933 13.16ZM193.305 13.16C191.886 13.16 190.793 12.7867 190.025 12.04C189.268 11.2933 188.889 10.2267 188.889 8.84C188.889 7.496 189.252 6.44 189.977 5.672C190.713 4.904 191.716 4.52 192.985 4.52C194.212 4.52 195.161 4.88267 195.833 5.608C196.505 6.33333 196.841 7.36267 196.841 8.696C196.841 8.84533 196.836 9.01067 196.825 9.192C196.814 9.37333 196.804 9.50667 196.793 9.592H189.977V8.168H195.289L195.001 8.6C195.001 7.72533 194.83 7.08 194.489 6.664C194.158 6.23733 193.657 6.024 192.985 6.024C192.27 6.024 191.726 6.248 191.353 6.696C190.99 7.13333 190.809 7.784 190.809 8.648V9.208C190.809 9.99733 191.017 10.5947 191.433 11C191.86 11.3947 192.489 11.592 193.321 11.592C193.812 11.592 194.302 11.528 194.793 11.4C195.284 11.272 195.726 11.096 196.121 10.872L196.425 12.408C196.02 12.6427 195.545 12.8293 195.001 12.968C194.468 13.096 193.902 13.16 193.305 13.16ZM201.278 13.16C200.692 13.16 200.116 13.1013 199.55 12.984C198.996 12.8667 198.489 12.7013 198.03 12.488L198.318 10.936C198.82 11.1493 199.316 11.3147 199.806 11.432C200.297 11.5387 200.777 11.592 201.246 11.592C201.79 11.592 202.196 11.5173 202.462 11.368C202.729 11.208 202.862 10.9733 202.862 10.664C202.862 10.472 202.814 10.312 202.718 10.184C202.622 10.056 202.452 9.944 202.206 9.848C201.972 9.74133 201.636 9.64 201.198 9.544C200.452 9.36267 199.844 9.15467 199.374 8.92C198.905 8.67467 198.558 8.38667 198.334 8.056C198.11 7.72533 197.998 7.336 197.998 6.888C197.998 6.12 198.292 5.53333 198.878 5.128C199.476 4.72267 200.334 4.52 201.454 4.52C202.009 4.52 202.548 4.57333 203.07 4.68C203.593 4.776 204.094 4.93067 204.574 5.144L204.302 6.68C203.844 6.47733 203.38 6.328 202.91 6.232C202.452 6.136 201.993 6.088 201.534 6.088C201.012 6.088 200.622 6.15733 200.366 6.296C200.121 6.424 199.998 6.632 199.998 6.92C199.998 7.08 200.046 7.224 200.142 7.352C200.249 7.48 200.42 7.592 200.654 7.688C200.889 7.784 201.204 7.88 201.598 7.976C202.164 8.104 202.649 8.25333 203.054 8.424C203.47 8.59467 203.806 8.792 204.062 9.016C204.329 9.24 204.526 9.49067 204.654 9.768C204.782 10.0347 204.846 10.3387 204.846 10.68C204.846 11.4693 204.532 12.0827 203.902 12.52C203.284 12.9467 202.409 13.16 201.278 13.16ZM209.185 13.16C208.598 13.16 208.022 13.1013 207.457 12.984C206.902 12.8667 206.395 12.7013 205.937 12.488L206.225 10.936C206.726 11.1493 207.222 11.3147 207.713 11.432C208.203 11.5387 208.683 11.592 209.153 11.592C209.697 11.592 210.102 11.5173 210.369 11.368C210.635 11.208 210.769 10.9733 210.769 10.664C210.769 10.472 210.721 10.312 210.625 10.184C210.529 10.056 210.358 9.944 210.113 9.848C209.878 9.74133 209.542 9.64 209.105 9.544C208.358 9.36267 207.75 9.15467 207.281 8.92C206.811 8.67467 206.465 8.38667 206.241 8.056C206.017 7.72533 205.905 7.336 205.905 6.888C205.905 6.12 206.198 5.53333 206.785 5.128C207.382 4.72267 208.241 4.52 209.361 4.52C209.915 4.52 210.454 4.57333 210.977 4.68C211.499 4.776 212.001 4.93067 212.481 5.144L212.209 6.68C211.75 6.47733 211.286 6.328 210.817 6.232C210.358 6.136 209.899 6.088 209.441 6.088C208.918 6.088 208.529 6.15733 208.273 6.296C208.027 6.424 207.905 6.632 207.905 6.92C207.905 7.08 207.953 7.224 208.049 7.352C208.155 7.48 208.326 7.592 208.561 7.688C208.795 7.784 209.11 7.88 209.505 7.976C210.07 8.104 210.555 8.25333 210.961 8.424C211.377 8.59467 211.713 8.792 211.969 9.016C212.235 9.24 212.433 9.49067 212.561 9.768C212.689 10.0347 212.753 10.3387 212.753 10.68C212.753 11.4693 212.438 12.0827 211.809 12.52C211.19 12.9467 210.315 13.16 209.185 13.16ZM215.761 13V6.568H213.633V5H215.761V3.736C215.761 2.72267 216.012 1.96 216.513 1.448C217.025 0.935999 217.772 0.679999 218.753 0.679999C219.052 0.679999 219.345 0.701333 219.633 0.743999C219.921 0.786666 220.188 0.845333 220.433 0.919999L220.209 2.504C219.825 2.376 219.447 2.312 219.073 2.312C218.583 2.312 218.236 2.42933 218.033 2.664C217.841 2.888 217.745 3.27733 217.745 3.832V5H220.369V6.568H217.745V13H215.761ZM224.541 13.16C223.571 13.16 222.856 12.8613 222.397 12.264C221.949 11.6667 221.725 10.7387 221.725 9.48V4.68H223.693V9.112C223.693 9.944 223.811 10.5573 224.045 10.952C224.28 11.3467 224.653 11.544 225.165 11.544C225.549 11.544 225.901 11.4427 226.221 11.24C226.552 11.0373 226.808 10.7707 226.989 10.44C227.181 10.0987 227.277 9.72533 227.277 9.32V4.68H229.245V13H227.373L227.357 11.88H227.325C226.963 12.3067 226.557 12.6267 226.109 12.84C225.661 13.0533 225.139 13.16 224.541 13.16ZM231.702 13V1.32H233.686V13H231.702Z" fill="#CFD1E0"/>
</svg>
