<svg width="254" height="14" viewBox="0 0 254 14" fill="none" xmlns="http://www.w3.org/2000/svg">
<path d="M0.686625 13V1.32H2.68663V6.392H2.71863L7.80663 1.32H10.2866L4.70263 6.904L10.4466 13H7.96663L2.71863 7.432H2.68663V13H0.686625ZM15.23 13V8.68L10.862 1.32H13.134L16.254 6.904H16.286L19.406 1.32H21.662L17.31 8.68V13H15.23ZM27.6118 13.16C26.3424 13.16 25.2491 12.92 24.3318 12.44C23.4144 11.96 22.7104 11.272 22.2198 10.376C21.7398 9.48 21.4998 8.408 21.4998 7.16C21.4998 5.90133 21.7398 4.82933 22.2198 3.944C22.7104 3.048 23.4144 2.36 24.3318 1.88C25.2491 1.4 26.3424 1.16 27.6118 1.16C29.0624 1.16 30.3478 1.47467 31.4678 2.104L31.0038 3.864C29.9158 3.24533 28.8064 2.936 27.6758 2.936C26.8331 2.936 26.1024 3.10667 25.4838 3.448C24.8651 3.77867 24.3904 4.25867 24.0598 4.888C23.7291 5.51733 23.5638 6.27467 23.5638 7.16C23.5638 8.03467 23.7291 8.792 24.0598 9.432C24.3904 10.0613 24.8651 10.5467 25.4838 10.888C26.1024 11.2187 26.8331 11.384 27.6758 11.384C28.7744 11.384 29.8838 11.0747 31.0038 10.456L31.4678 12.216C30.3478 12.8453 29.0624 13.16 27.6118 13.16ZM40.9755 13L36.8795 1.32H39.0715L42.2555 11H42.2875L45.4875 1.32H47.6795L43.5835 13H40.9755ZM51.633 13.16C50.2143 13.16 49.121 12.7867 48.353 12.04C47.5957 11.2933 47.217 10.2267 47.217 8.84C47.217 7.496 47.5797 6.44 48.305 5.672C49.041 4.904 50.0437 4.52 51.313 4.52C52.5397 4.52 53.489 4.88267 54.161 5.608C54.833 6.33333 55.169 7.36267 55.169 8.696C55.169 8.84533 55.1637 9.01067 55.153 9.192C55.1423 9.37333 55.1317 9.50667 55.121 9.592H48.305V8.168H53.617L53.329 8.6C53.329 7.72533 53.1583 7.08 52.817 6.664C52.4863 6.23733 51.985 6.024 51.313 6.024C50.5983 6.024 50.0543 6.248 49.681 6.696C49.3183 7.13333 49.137 7.784 49.137 8.648V9.208C49.137 9.99733 49.345 10.5947 49.761 11C50.1877 11.3947 50.817 11.592 51.649 11.592C52.1397 11.592 52.6303 11.528 53.121 11.4C53.6117 11.272 54.0543 11.096 54.449 10.872L54.753 12.408C54.3477 12.6427 53.873 12.8293 53.329 12.968C52.7957 13.096 52.2303 13.16 51.633 13.16ZM56.9024 13V4.68H58.7904L58.8064 6.248H58.8384C59.1157 5.88533 59.441 5.576 59.8144 5.32C60.1984 5.05333 60.6197 4.856 61.0784 4.728C61.537 4.58933 62.017 4.52 62.5184 4.52V6.216C61.8464 6.216 61.233 6.344 60.6784 6.6C60.1344 6.856 59.697 7.20267 59.3664 7.64C59.0464 8.06667 58.8864 8.54667 58.8864 9.08V13H56.9024ZM64.2239 13V4.76H66.2079V13H64.2239ZM65.2159 3.576C64.8319 3.576 64.5279 3.46933 64.3039 3.256C64.0799 3.032 63.9679 2.73333 63.9679 2.36C63.9679 1.98667 64.0799 1.688 64.3039 1.464C64.5279 1.24 64.8319 1.128 65.2159 1.128C65.5999 1.128 65.9039 1.24 66.1279 1.464C66.3519 1.688 66.4639 1.98667 66.4639 2.36C66.4639 2.73333 66.3519 3.032 66.1279 3.256C65.9039 3.46933 65.5999 3.576 65.2159 3.576ZM70.2456 13V6.568H68.1176V5H70.2456V3.736C70.2456 2.72267 70.4963 1.96 70.9976 1.448C71.5096 0.935999 72.2563 0.679999 73.2376 0.679999C73.5363 0.679999 73.8296 0.701333 74.1176 0.743999C74.4056 0.786666 74.6723 0.845333 74.9176 0.919999L74.6936 2.504C74.3096 2.376 73.931 2.312 73.5576 2.312C73.067 2.312 72.7203 2.42933 72.5176 2.664C72.3256 2.888 72.2296 3.27733 72.2296 3.832V5H74.8536V6.568H72.2296V13H70.2456ZM76.8216 13V4.76H78.8056V13H76.8216ZM77.8136 3.576C77.4296 3.576 77.1256 3.46933 76.9016 3.256C76.6776 3.032 76.5656 2.73333 76.5656 2.36C76.5656 1.98667 76.6776 1.688 76.9016 1.464C77.1256 1.24 77.4296 1.128 77.8136 1.128C78.1976 1.128 78.5016 1.24 78.7256 1.464C78.9496 1.688 79.0616 1.98667 79.0616 2.36C79.0616 2.73333 78.9496 3.032 78.7256 3.256C78.5016 3.46933 78.1976 3.576 77.8136 3.576ZM85.4958 13.16C84.5358 13.16 83.7144 12.9893 83.0318 12.648C82.3598 12.3067 81.8424 11.816 81.4798 11.176C81.1171 10.5253 80.9358 9.74667 80.9358 8.84C80.9358 7.93333 81.1171 7.16 81.4798 6.52C81.8424 5.86933 82.3598 5.37333 83.0318 5.032C83.7144 4.69067 84.5358 4.52 85.4958 4.52C85.9758 4.52 86.4238 4.568 86.8398 4.664C87.2664 4.74933 87.6824 4.89867 88.0878 5.112L87.7518 6.648C87.3784 6.456 87.0158 6.31733 86.6638 6.232C86.3224 6.136 85.9758 6.088 85.6238 6.088C84.7704 6.088 84.1091 6.328 83.6398 6.808C83.1704 7.288 82.9358 7.96533 82.9358 8.84C82.9358 9.71467 83.1704 10.392 83.6398 10.872C84.1091 11.352 84.7704 11.592 85.6238 11.592C85.9758 11.592 86.3224 11.5493 86.6638 11.464C87.0158 11.368 87.3784 11.224 87.7518 11.032L88.0878 12.568C87.6824 12.7707 87.2664 12.92 86.8398 13.016C86.4238 13.112 85.9758 13.16 85.4958 13.16ZM92.1051 13.16C91.2731 13.16 90.6171 12.936 90.1371 12.488C89.6678 12.0293 89.4331 11.4107 89.4331 10.632C89.4331 9.66133 89.8118 8.91467 90.5691 8.392C91.3265 7.86933 92.4038 7.608 93.8011 7.608H94.9691C94.9691 7.05333 94.8251 6.664 94.5371 6.44C94.2491 6.20533 93.7585 6.088 93.0651 6.088C92.5318 6.088 92.0198 6.152 91.5291 6.28C91.0491 6.408 90.5531 6.61067 90.0411 6.888L89.8011 5.288C90.3238 5.032 90.8678 4.84 91.4331 4.712C92.0091 4.584 92.6331 4.52 93.3051 4.52C94.1798 4.52 94.8785 4.62667 95.4011 4.84C95.9345 5.05333 96.3185 5.4 96.5531 5.88C96.7985 6.34933 96.9211 6.97333 96.9211 7.752V13H95.0491L95.0331 12.04H95.0011C94.7131 12.3707 94.2971 12.6427 93.7531 12.856C93.2091 13.0587 92.6598 13.16 92.1051 13.16ZM92.8091 11.624C93.2038 11.624 93.5665 11.5547 93.8971 11.416C94.2278 11.2667 94.4891 11.0693 94.6811 10.824C94.8731 10.5787 94.9691 10.3013 94.9691 9.992V8.984H94.0891C93.1718 8.984 92.4785 9.10667 92.0091 9.352C91.5505 9.58667 91.3211 9.94933 91.3211 10.44C91.3211 10.8027 91.4491 11.0907 91.7051 11.304C91.9611 11.5173 92.3291 11.624 92.8091 11.624ZM102.634 13.16C101.61 13.16 100.863 12.9467 100.394 12.52C99.9355 12.0827 99.7061 11.3787 99.7061 10.408V6.248H97.8501V4.68H99.7061V1.96H101.674V4.68H104.49V6.248H101.674V10.136C101.674 10.6267 101.781 10.9787 101.994 11.192C102.207 11.3947 102.559 11.496 103.05 11.496C103.253 11.496 103.455 11.48 103.658 11.448C103.861 11.4053 104.063 11.3467 104.266 11.272L104.49 12.856C104.159 12.9627 103.85 13.0373 103.562 13.08C103.274 13.1333 102.965 13.16 102.634 13.16ZM106.833 13V4.76H108.817V13H106.833ZM107.825 3.576C107.441 3.576 107.137 3.46933 106.913 3.256C106.689 3.032 106.577 2.73333 106.577 2.36C106.577 1.98667 106.689 1.688 106.913 1.464C107.137 1.24 107.441 1.128 107.825 1.128C108.209 1.128 108.513 1.24 108.737 1.464C108.961 1.688 109.073 1.98667 109.073 2.36C109.073 2.73333 108.961 3.032 108.737 3.256C108.513 3.46933 108.209 3.576 107.825 3.576ZM115.175 13.16C114.322 13.16 113.575 12.984 112.935 12.632C112.306 12.28 111.82 11.7787 111.479 11.128C111.138 10.4773 110.967 9.71467 110.967 8.84C110.967 7.95467 111.138 7.192 111.479 6.552C111.82 5.90133 112.306 5.4 112.935 5.048C113.575 4.696 114.322 4.52 115.175 4.52C116.039 4.52 116.786 4.696 117.415 5.048C118.044 5.4 118.53 5.90133 118.871 6.552C119.223 7.192 119.399 7.95467 119.399 8.84C119.399 9.71467 119.223 10.4773 118.871 11.128C118.53 11.7787 118.044 12.28 117.415 12.632C116.786 12.984 116.039 13.16 115.175 13.16ZM115.175 11.592C115.89 11.592 116.444 11.352 116.839 10.872C117.234 10.392 117.431 9.71467 117.431 8.84C117.431 7.95467 117.234 7.27733 116.839 6.808C116.444 6.328 115.89 6.088 115.175 6.088C114.46 6.088 113.906 6.328 113.511 6.808C113.116 7.27733 112.919 7.95467 112.919 8.84C112.919 9.71467 113.116 10.392 113.511 10.872C113.906 11.352 114.46 11.592 115.175 11.592ZM121.152 13V4.68H123.024L123.04 5.8H123.072C123.446 5.36267 123.862 5.04267 124.32 4.84C124.79 4.62667 125.323 4.52 125.92 4.52C126.934 4.52 127.67 4.81333 128.128 5.4C128.598 5.98667 128.832 6.92 128.832 8.2V13H126.88V8.568C126.88 7.74667 126.752 7.13867 126.496 6.744C126.24 6.33867 125.846 6.136 125.312 6.136C124.907 6.136 124.534 6.23733 124.192 6.44C123.862 6.64267 123.6 6.91467 123.408 7.256C123.216 7.58667 123.12 7.95467 123.12 8.36V13H121.152ZM135.771 13V4.76H137.755V13H135.771ZM136.763 3.576C136.379 3.576 136.075 3.46933 135.851 3.256C135.627 3.032 135.515 2.73333 135.515 2.36C135.515 1.98667 135.627 1.688 135.851 1.464C136.075 1.24 136.379 1.128 136.763 1.128C137.147 1.128 137.451 1.24 137.675 1.464C137.899 1.688 138.011 1.98667 138.011 2.36C138.011 2.73333 137.899 3.032 137.675 3.256C137.451 3.46933 137.147 3.576 136.763 3.576ZM143.185 13.16C142.598 13.16 142.022 13.1013 141.457 12.984C140.902 12.8667 140.395 12.7013 139.937 12.488L140.225 10.936C140.726 11.1493 141.222 11.3147 141.713 11.432C142.203 11.5387 142.683 11.592 143.153 11.592C143.697 11.592 144.102 11.5173 144.369 11.368C144.635 11.208 144.769 10.9733 144.769 10.664C144.769 10.472 144.721 10.312 144.625 10.184C144.529 10.056 144.358 9.944 144.113 9.848C143.878 9.74133 143.542 9.64 143.105 9.544C142.358 9.36267 141.75 9.15467 141.281 8.92C140.811 8.67467 140.465 8.38667 140.241 8.056C140.017 7.72533 139.905 7.336 139.905 6.888C139.905 6.12 140.198 5.53333 140.785 5.128C141.382 4.72267 142.241 4.52 143.361 4.52C143.915 4.52 144.454 4.57333 144.977 4.68C145.499 4.776 146.001 4.93067 146.481 5.144L146.209 6.68C145.75 6.47733 145.286 6.328 144.817 6.232C144.358 6.136 143.899 6.088 143.441 6.088C142.918 6.088 142.529 6.15733 142.273 6.296C142.027 6.424 141.905 6.632 141.905 6.92C141.905 7.08 141.953 7.224 142.049 7.352C142.155 7.48 142.326 7.592 142.561 7.688C142.795 7.784 143.11 7.88 143.505 7.976C144.07 8.104 144.555 8.25333 144.961 8.424C145.377 8.59467 145.713 8.792 145.969 9.016C146.235 9.24 146.433 9.49067 146.561 9.768C146.689 10.0347 146.753 10.3387 146.753 10.68C146.753 11.4693 146.438 12.0827 145.809 12.52C145.19 12.9467 144.315 13.16 143.185 13.16ZM157.653 13.16C156.053 13.16 154.869 12.7653 154.101 11.976C153.333 11.1867 152.949 9.97067 152.949 8.328V1.32H154.949V7.96C154.949 8.81333 155.035 9.49067 155.205 9.992C155.376 10.4827 155.659 10.84 156.053 11.064C156.448 11.2773 156.981 11.384 157.653 11.384C158.315 11.384 158.843 11.2773 159.237 11.064C159.632 10.84 159.915 10.4827 160.085 9.992C160.256 9.49067 160.341 8.81333 160.341 7.96V1.32H162.341V8.328C162.341 9.97067 161.957 11.1867 161.189 11.976C160.421 12.7653 159.243 13.16 157.653 13.16ZM164.606 13V4.68H166.478L166.494 5.8H166.526C166.899 5.36267 167.315 5.04267 167.774 4.84C168.243 4.62667 168.776 4.52 169.374 4.52C170.387 4.52 171.123 4.81333 171.582 5.4C172.051 5.98667 172.286 6.92 172.286 8.2V13H170.334V8.568C170.334 7.74667 170.206 7.13867 169.95 6.744C169.694 6.33867 169.299 6.136 168.766 6.136C168.36 6.136 167.987 6.23733 167.646 6.44C167.315 6.64267 167.054 6.91467 166.862 7.256C166.67 7.58667 166.574 7.95467 166.574 8.36V13H164.606ZM177.106 13.16C176.52 13.16 175.944 13.1013 175.378 12.984C174.824 12.8667 174.317 12.7013 173.858 12.488L174.146 10.936C174.648 11.1493 175.144 11.3147 175.634 11.432C176.125 11.5387 176.605 11.592 177.074 11.592C177.618 11.592 178.024 11.5173 178.29 11.368C178.557 11.208 178.69 10.9733 178.69 10.664C178.69 10.472 178.642 10.312 178.546 10.184C178.45 10.056 178.28 9.944 178.034 9.848C177.8 9.74133 177.464 9.64 177.026 9.544C176.28 9.36267 175.672 9.15467 175.202 8.92C174.733 8.67467 174.386 8.38667 174.162 8.056C173.938 7.72533 173.826 7.336 173.826 6.888C173.826 6.12 174.12 5.53333 174.706 5.128C175.304 4.72267 176.162 4.52 177.282 4.52C177.837 4.52 178.376 4.57333 178.898 4.68C179.421 4.776 179.922 4.93067 180.402 5.144L180.13 6.68C179.672 6.47733 179.208 6.328 178.738 6.232C178.28 6.136 177.821 6.088 177.362 6.088C176.84 6.088 176.45 6.15733 176.194 6.296C175.949 6.424 175.826 6.632 175.826 6.92C175.826 7.08 175.874 7.224 175.97 7.352C176.077 7.48 176.248 7.592 176.482 7.688C176.717 7.784 177.032 7.88 177.426 7.976C177.992 8.104 178.477 8.25333 178.882 8.424C179.298 8.59467 179.634 8.792 179.89 9.016C180.157 9.24 180.354 9.49067 180.482 9.768C180.61 10.0347 180.674 10.3387 180.674 10.68C180.674 11.4693 180.36 12.0827 179.73 12.52C179.112 12.9467 178.237 13.16 177.106 13.16ZM185.026 13.16C184.055 13.16 183.34 12.8613 182.882 12.264C182.434 11.6667 182.21 10.7387 182.21 9.48V4.68H184.178V9.112C184.178 9.944 184.295 10.5573 184.53 10.952C184.764 11.3467 185.138 11.544 185.65 11.544C186.034 11.544 186.386 11.4427 186.706 11.24C187.036 11.0373 187.292 10.7707 187.474 10.44C187.666 10.0987 187.762 9.72533 187.762 9.32V4.68H189.73V13H187.858L187.842 11.88H187.81C187.447 12.3067 187.042 12.6267 186.594 12.84C186.146 13.0533 185.623 13.16 185.026 13.16ZM196.043 13.16C195.083 13.16 194.261 12.9893 193.579 12.648C192.907 12.3067 192.389 11.816 192.027 11.176C191.664 10.5253 191.483 9.74667 191.483 8.84C191.483 7.93333 191.664 7.16 192.027 6.52C192.389 5.86933 192.907 5.37333 193.579 5.032C194.261 4.69067 195.083 4.52 196.043 4.52C196.523 4.52 196.971 4.568 197.387 4.664C197.813 4.74933 198.229 4.89867 198.635 5.112L198.299 6.648C197.925 6.456 197.563 6.31733 197.211 6.232C196.869 6.136 196.523 6.088 196.171 6.088C195.317 6.088 194.656 6.328 194.187 6.808C193.717 7.288 193.483 7.96533 193.483 8.84C193.483 9.71467 193.717 10.392 194.187 10.872C194.656 11.352 195.317 11.592 196.171 11.592C196.523 11.592 196.869 11.5493 197.211 11.464C197.563 11.368 197.925 11.224 198.299 11.032L198.635 12.568C198.229 12.7707 197.813 12.92 197.387 13.016C196.971 13.112 196.523 13.16 196.043 13.16ZM204.558 13.16C203.598 13.16 202.777 12.9893 202.094 12.648C201.422 12.3067 200.905 11.816 200.542 11.176C200.18 10.5253 199.998 9.74667 199.998 8.84C199.998 7.93333 200.18 7.16 200.542 6.52C200.905 5.86933 201.422 5.37333 202.094 5.032C202.777 4.69067 203.598 4.52 204.558 4.52C205.038 4.52 205.486 4.568 205.902 4.664C206.329 4.74933 206.745 4.89867 207.15 5.112L206.814 6.648C206.441 6.456 206.078 6.31733 205.726 6.232C205.385 6.136 205.038 6.088 204.686 6.088C203.833 6.088 203.172 6.328 202.702 6.808C202.233 7.288 201.998 7.96533 201.998 8.84C201.998 9.71467 202.233 10.392 202.702 10.872C203.172 11.352 203.833 11.592 204.686 11.592C205.038 11.592 205.385 11.5493 205.726 11.464C206.078 11.368 206.441 11.224 206.814 11.032L207.15 12.568C206.745 12.7707 206.329 12.92 205.902 13.016C205.486 13.112 205.038 13.16 204.558 13.16ZM212.93 13.16C211.511 13.16 210.418 12.7867 209.65 12.04C208.893 11.2933 208.514 10.2267 208.514 8.84C208.514 7.496 208.877 6.44 209.602 5.672C210.338 4.904 211.341 4.52 212.61 4.52C213.837 4.52 214.786 4.88267 215.458 5.608C216.13 6.33333 216.466 7.36267 216.466 8.696C216.466 8.84533 216.461 9.01067 216.45 9.192C216.439 9.37333 216.429 9.50667 216.418 9.592H209.602V8.168H214.914L214.626 8.6C214.626 7.72533 214.455 7.08 214.114 6.664C213.783 6.23733 213.282 6.024 212.61 6.024C211.895 6.024 211.351 6.248 210.978 6.696C210.615 7.13333 210.434 7.784 210.434 8.648V9.208C210.434 9.99733 210.642 10.5947 211.058 11C211.485 11.3947 212.114 11.592 212.946 11.592C213.437 11.592 213.927 11.528 214.418 11.4C214.909 11.272 215.351 11.096 215.746 10.872L216.05 12.408C215.645 12.6427 215.17 12.8293 214.626 12.968C214.093 13.096 213.527 13.16 212.93 13.16ZM220.903 13.16C220.317 13.16 219.741 13.1013 219.175 12.984C218.621 12.8667 218.114 12.7013 217.655 12.488L217.943 10.936C218.445 11.1493 218.941 11.3147 219.431 11.432C219.922 11.5387 220.402 11.592 220.871 11.592C221.415 11.592 221.821 11.5173 222.087 11.368C222.354 11.208 222.487 10.9733 222.487 10.664C222.487 10.472 222.439 10.312 222.343 10.184C222.247 10.056 222.077 9.944 221.831 9.848C221.597 9.74133 221.261 9.64 220.823 9.544C220.077 9.36267 219.469 9.15467 218.999 8.92C218.53 8.67467 218.183 8.38667 217.959 8.056C217.735 7.72533 217.623 7.336 217.623 6.888C217.623 6.12 217.917 5.53333 218.503 5.128C219.101 4.72267 219.959 4.52 221.079 4.52C221.634 4.52 222.173 4.57333 222.695 4.68C223.218 4.776 223.719 4.93067 224.199 5.144L223.927 6.68C223.469 6.47733 223.005 6.328 222.535 6.232C222.077 6.136 221.618 6.088 221.159 6.088C220.637 6.088 220.247 6.15733 219.991 6.296C219.746 6.424 219.623 6.632 219.623 6.92C219.623 7.08 219.671 7.224 219.767 7.352C219.874 7.48 220.045 7.592 220.279 7.688C220.514 7.784 220.829 7.88 221.223 7.976C221.789 8.104 222.274 8.25333 222.679 8.424C223.095 8.59467 223.431 8.792 223.687 9.016C223.954 9.24 224.151 9.49067 224.279 9.768C224.407 10.0347 224.471 10.3387 224.471 10.68C224.471 11.4693 224.157 12.0827 223.527 12.52C222.909 12.9467 222.034 13.16 220.903 13.16ZM228.81 13.16C228.223 13.16 227.647 13.1013 227.082 12.984C226.527 12.8667 226.02 12.7013 225.562 12.488L225.85 10.936C226.351 11.1493 226.847 11.3147 227.338 11.432C227.828 11.5387 228.308 11.592 228.778 11.592C229.322 11.592 229.727 11.5173 229.994 11.368C230.26 11.208 230.394 10.9733 230.394 10.664C230.394 10.472 230.346 10.312 230.25 10.184C230.154 10.056 229.983 9.944 229.738 9.848C229.503 9.74133 229.167 9.64 228.73 9.544C227.983 9.36267 227.375 9.15467 226.906 8.92C226.436 8.67467 226.09 8.38667 225.866 8.056C225.642 7.72533 225.53 7.336 225.53 6.888C225.53 6.12 225.823 5.53333 226.41 5.128C227.007 4.72267 227.866 4.52 228.986 4.52C229.54 4.52 230.079 4.57333 230.602 4.68C231.124 4.776 231.626 4.93067 232.106 5.144L231.834 6.68C231.375 6.47733 230.911 6.328 230.442 6.232C229.983 6.136 229.524 6.088 229.066 6.088C228.543 6.088 228.154 6.15733 227.898 6.296C227.652 6.424 227.53 6.632 227.53 6.92C227.53 7.08 227.578 7.224 227.674 7.352C227.78 7.48 227.951 7.592 228.186 7.688C228.42 7.784 228.735 7.88 229.13 7.976C229.695 8.104 230.18 8.25333 230.586 8.424C231.002 8.59467 231.338 8.792 231.594 9.016C231.86 9.24 232.058 9.49067 232.186 9.768C232.314 10.0347 232.378 10.3387 232.378 10.68C232.378 11.4693 232.063 12.0827 231.434 12.52C230.815 12.9467 229.94 13.16 228.81 13.16ZM235.386 13V6.568H233.258V5H235.386V3.736C235.386 2.72267 235.637 1.96 236.138 1.448C236.65 0.935999 237.397 0.679999 238.378 0.679999C238.677 0.679999 238.97 0.701333 239.258 0.743999C239.546 0.786666 239.813 0.845333 240.058 0.919999L239.834 2.504C239.45 2.376 239.072 2.312 238.698 2.312C238.208 2.312 237.861 2.42933 237.658 2.664C237.466 2.888 237.37 3.27733 237.37 3.832V5H239.994V6.568H237.37V13H235.386ZM244.166 13.16C243.196 13.16 242.481 12.8613 242.022 12.264C241.574 11.6667 241.35 10.7387 241.35 9.48V4.68H243.318V9.112C243.318 9.944 243.436 10.5573 243.67 10.952C243.905 11.3467 244.278 11.544 244.79 11.544C245.174 11.544 245.526 11.4427 245.846 11.24C246.177 11.0373 246.433 10.7707 246.614 10.44C246.806 10.0987 246.902 9.72533 246.902 9.32V4.68H248.87V13H246.998L246.982 11.88H246.95C246.588 12.3067 246.182 12.6267 245.734 12.84C245.286 13.0533 244.764 13.16 244.166 13.16ZM251.327 13V1.32H253.311V13H251.327Z" fill="#CFD1E0"/>
</svg>
