<svg width="344" height="334" viewBox="0 0 344 334" fill="none" xmlns="http://www.w3.org/2000/svg">
<circle cx="177" cy="167" r="166.5" stroke="url(#paint0_linear_1055_3114)"/>
<circle cx="167" cy="167" r="166.5" stroke="url(#paint1_linear_1055_3114)"/>
<g clip-path="url(#clip0_1055_3114)">
<rect x="56" y="41" width="233" height="233" rx="116.5" fill="#111114"/>
<g opacity="0.35">
<g clip-path="url(#clip1_1055_3114)">
<path d="M186.724 155.83C186.923 155.83 187.084 155.669 187.084 155.471C187.084 155.272 186.923 155.111 186.724 155.111C186.526 155.111 186.365 155.272 186.365 155.471C186.365 155.669 186.526 155.83 186.724 155.83Z" fill="#292A36"/>
<path d="M196.671 155.775C196.838 155.775 196.975 155.639 196.975 155.471C196.975 155.302 196.84 155.167 196.671 155.167C196.503 155.167 196.367 155.302 196.367 155.471C196.367 155.639 196.503 155.775 196.671 155.775Z" fill="#292A36"/>
<path d="M189.798 165.373C190.041 165.373 190.239 165.175 190.239 164.932C190.239 164.689 190.041 164.491 189.798 164.491C189.555 164.491 189.357 164.689 189.357 164.932C189.357 165.175 189.555 165.373 189.798 165.373Z" fill="#292A36"/>
<path d="M178.676 161.869C178.982 161.869 179.228 161.622 179.228 161.318C179.228 161.014 178.98 160.767 178.676 160.767C178.372 160.767 178.125 161.014 178.125 161.318C178.125 161.622 178.372 161.869 178.676 161.869Z" fill="#292A36"/>
<path d="M178.676 149.983C178.874 149.983 179.035 149.822 179.035 149.624C179.035 149.425 178.874 149.265 178.676 149.265C178.477 149.265 178.316 149.425 178.316 149.624C178.316 149.822 178.477 149.983 178.676 149.983Z" fill="#292A36"/>
<path d="M189.798 146.313C189.966 146.313 190.102 146.177 190.102 146.009C190.102 145.841 189.966 145.705 189.798 145.705C189.63 145.705 189.494 145.841 189.494 146.009C189.494 146.177 189.63 146.313 189.798 146.313Z" fill="#292A36"/>
<path d="M206.62 155.692C206.741 155.692 206.841 155.593 206.841 155.471C206.841 155.349 206.741 155.25 206.62 155.25C206.498 155.25 206.398 155.349 206.398 155.471C206.398 155.593 206.498 155.692 206.62 155.692Z" fill="#292A36"/>
<path d="M202.82 167.468C202.987 167.468 203.124 167.332 203.124 167.164C203.124 166.996 202.987 166.86 202.82 166.86C202.652 166.86 202.516 166.996 202.516 167.164C202.516 167.332 202.652 167.468 202.82 167.468Z" fill="#292A36"/>
<path d="M192.872 174.833C193.116 174.833 193.313 174.635 193.313 174.392C193.313 174.148 193.116 173.951 192.872 173.951C192.629 173.951 192.432 174.148 192.432 174.392C192.432 174.635 192.629 174.833 192.872 174.833Z" fill="#292A36"/>
<path d="M180.577 174.943C180.881 174.943 181.128 174.697 181.128 174.392C181.128 174.088 180.881 173.841 180.577 173.841C180.272 173.841 180.025 174.088 180.025 174.392C180.025 174.697 180.272 174.943 180.577 174.943Z" fill="#292A36"/>
<path d="M170.627 167.716C170.933 167.716 171.179 167.468 171.179 167.165C171.179 166.861 170.931 166.613 170.627 166.613C170.323 166.613 170.076 166.861 170.076 167.165C170.076 167.468 170.323 167.716 170.627 167.716Z" fill="#292A36"/>
<path d="M166.829 156.021C167.134 156.021 167.38 155.774 167.38 155.47C167.38 155.166 167.133 154.919 166.829 154.919C166.525 154.919 166.277 155.166 166.277 155.47C166.277 155.774 166.525 156.021 166.829 156.021Z" fill="#292A36"/>
<path d="M170.629 144.135C170.827 144.135 170.988 143.975 170.988 143.776C170.988 143.578 170.827 143.417 170.629 143.417C170.43 143.417 170.27 143.578 170.27 143.776C170.27 143.975 170.43 144.135 170.629 144.135Z" fill="#292A36"/>
<path d="M180.577 136.77C180.699 136.77 180.798 136.671 180.798 136.549C180.798 136.427 180.699 136.328 180.577 136.328C180.454 136.328 180.355 136.427 180.355 136.549C180.355 136.671 180.454 136.77 180.577 136.77Z" fill="#292A36"/>
<path d="M192.873 136.715C192.964 136.715 193.039 136.641 193.039 136.55C193.039 136.458 192.964 136.384 192.873 136.384C192.781 136.384 192.707 136.458 192.707 136.55C192.707 136.641 192.781 136.715 192.873 136.715Z" fill="#292A36"/>
<path d="M202.82 143.943C202.912 143.943 202.986 143.869 202.986 143.777C202.986 143.686 202.912 143.611 202.82 143.611C202.729 143.611 202.654 143.686 202.654 143.777C202.654 143.869 202.729 143.943 202.82 143.943Z" fill="#292A36"/>
<path d="M216.566 155.636C216.657 155.636 216.732 155.562 216.732 155.47C216.732 155.379 216.657 155.305 216.566 155.305C216.475 155.305 216.4 155.379 216.4 155.47C216.4 155.562 216.475 155.636 216.566 155.636Z" fill="#292A36"/>
<path d="M213.987 167.829C214.108 167.829 214.208 167.729 214.208 167.608C214.208 167.486 214.108 167.387 213.987 167.387C213.865 167.387 213.766 167.486 213.766 167.608C213.766 167.729 213.865 167.829 213.987 167.829Z" fill="#292A36"/>
<path d="M206.693 178.008C206.892 178.008 207.052 177.847 207.052 177.648C207.052 177.45 206.892 177.289 206.693 177.289C206.495 177.289 206.334 177.45 206.334 177.648C206.334 177.847 206.495 178.008 206.693 178.008Z" fill="#292A36"/>
<path d="M195.946 184.404C196.251 184.404 196.497 184.157 196.497 183.853C196.497 183.549 196.25 183.302 195.946 183.302C195.642 183.302 195.395 183.549 195.395 183.853C195.395 184.157 195.642 184.404 195.946 184.404Z" fill="#292A36"/>
<path d="M183.605 185.812C183.971 185.812 184.267 185.516 184.267 185.15C184.267 184.785 183.971 184.488 183.605 184.488C183.24 184.488 182.943 184.785 182.943 185.15C182.943 185.516 183.24 185.812 183.605 185.812Z" fill="#292A36"/>
<path d="M171.802 182.088C172.228 182.088 172.574 181.742 172.574 181.315C172.574 180.889 172.228 180.543 171.802 180.543C171.375 180.543 171.029 180.889 171.029 181.315C171.029 181.742 171.375 182.088 171.802 182.088Z" fill="#292A36"/>
<path d="M162.581 173.784C163.007 173.784 163.353 173.438 163.353 173.012C163.353 172.585 163.007 172.239 162.581 172.239C162.154 172.239 161.809 172.585 161.809 173.012C161.809 173.438 162.154 173.784 162.581 173.784Z" fill="#292A36"/>
<path d="M157.534 162.448C157.961 162.448 158.306 162.102 158.306 161.676C158.306 161.249 157.961 160.903 157.534 160.903C157.108 160.903 156.762 161.249 156.762 161.676C156.762 162.102 157.108 162.448 157.534 162.448Z" fill="#292A36"/>
<path d="M157.533 149.789C157.822 149.789 158.057 149.555 158.057 149.266C158.057 148.977 157.822 148.742 157.533 148.742C157.245 148.742 157.01 148.977 157.01 149.266C157.01 149.555 157.245 149.789 157.533 149.789Z" fill="#292A36"/>
<path d="M162.58 138.289C162.778 138.289 162.939 138.128 162.939 137.93C162.939 137.731 162.778 137.57 162.58 137.57C162.382 137.57 162.221 137.731 162.221 137.93C162.221 138.128 162.382 138.289 162.58 138.289Z" fill="#292A36"/>
<path d="M171.803 129.847C171.925 129.847 172.024 129.748 172.024 129.626C172.024 129.505 171.925 129.405 171.803 129.405C171.682 129.405 171.582 129.505 171.582 129.626C171.582 129.748 171.682 129.847 171.803 129.847Z" fill="#292A36"/>
<path d="M183.603 125.957C183.695 125.957 183.769 125.882 183.769 125.791C183.769 125.699 183.695 125.625 183.603 125.625C183.512 125.625 183.438 125.699 183.438 125.791C183.438 125.882 183.512 125.957 183.603 125.957Z" fill="#292A36"/>
<path d="M195.946 127.199C196.007 127.199 196.057 127.149 196.057 127.088C196.057 127.027 196.007 126.978 195.946 126.978C195.886 126.978 195.836 127.027 195.836 127.088C195.836 127.149 195.886 127.199 195.946 127.199Z" fill="#292A36"/>
<path d="M206.693 133.404C206.754 133.404 206.803 133.354 206.803 133.293C206.803 133.232 206.754 133.183 206.693 133.183C206.632 133.183 206.582 133.232 206.582 133.293C206.582 133.354 206.632 133.404 206.693 133.404Z" fill="#292A36"/>
<path d="M213.987 143.443C214.048 143.443 214.098 143.393 214.098 143.332C214.098 143.271 214.048 143.222 213.987 143.222C213.927 143.222 213.877 143.271 213.877 143.332C213.877 143.393 213.927 143.443 213.987 143.443Z" fill="#292A36"/>
<path d="M226.515 155.581C226.576 155.581 226.625 155.532 226.625 155.471C226.625 155.41 226.576 155.36 226.515 155.36C226.454 155.36 226.404 155.41 226.404 155.471C226.404 155.532 226.454 155.581 226.515 155.581Z" fill="#292A36"/>
<path d="M224.568 167.931C224.659 167.931 224.734 167.857 224.734 167.765C224.734 167.674 224.659 167.6 224.568 167.6C224.477 167.6 224.402 167.674 224.402 167.765C224.402 167.857 224.477 167.931 224.568 167.931Z" fill="#292A36"/>
<path d="M218.915 179.163C219.082 179.163 219.219 179.027 219.219 178.859C219.219 178.69 219.084 178.555 218.915 178.555C218.747 178.555 218.611 178.69 218.611 178.859C218.611 179.027 218.747 179.163 218.915 179.163Z" fill="#292A36"/>
<path d="M210.111 188.02C210.309 188.02 210.47 187.86 210.47 187.661C210.47 187.462 210.31 187.302 210.111 187.302C209.912 187.302 209.752 187.462 209.752 187.661C209.752 187.86 209.912 188.02 210.111 188.02Z" fill="#292A36"/>
<path d="M199.021 193.976C199.387 193.976 199.683 193.679 199.683 193.314C199.683 192.949 199.386 192.652 199.021 192.652C198.656 192.652 198.359 192.949 198.359 193.314C198.359 193.679 198.656 193.976 199.021 193.976Z" fill="#292A36"/>
<path d="M186.723 196.033C187.15 196.033 187.496 195.687 187.496 195.261C187.496 194.834 187.15 194.488 186.723 194.488C186.297 194.488 185.951 194.834 185.951 195.261C185.951 195.687 186.297 196.033 186.723 196.033Z" fill="#292A36"/>
<path d="M174.428 194.251C174.946 194.251 175.366 193.831 175.366 193.313C175.366 192.795 174.946 192.375 174.428 192.375C173.91 192.375 173.49 192.795 173.49 193.313C173.49 193.831 173.91 194.251 174.428 194.251Z" fill="#292A36"/>
<path d="M163.336 188.573C163.839 188.573 164.247 188.165 164.247 187.662C164.247 187.16 163.839 186.752 163.336 186.752C162.833 186.752 162.426 187.16 162.426 187.662C162.426 188.165 162.833 188.573 163.336 188.573Z" fill="#292A36"/>
<path d="M154.534 179.769C155.036 179.769 155.444 179.362 155.444 178.859C155.444 178.356 155.036 177.948 154.534 177.948C154.031 177.948 153.623 178.356 153.623 178.859C153.623 179.362 154.031 179.769 154.534 179.769Z" fill="#292A36"/>
<path d="M148.881 168.677C149.384 168.677 149.792 168.27 149.792 167.767C149.792 167.264 149.384 166.856 148.881 166.856C148.378 166.856 147.971 167.264 147.971 167.767C147.971 168.27 148.378 168.677 148.881 168.677Z" fill="#292A36"/>
<path d="M146.934 156.243C147.361 156.243 147.707 155.897 147.707 155.471C147.707 155.044 147.361 154.698 146.934 154.698C146.508 154.698 146.162 155.044 146.162 155.471C146.162 155.897 146.508 156.243 146.934 156.243Z" fill="#292A36"/>
<path d="M148.882 143.808C149.233 143.808 149.516 143.524 149.516 143.174C149.516 142.825 149.232 142.54 148.882 142.54C148.533 142.54 148.248 142.825 148.248 143.174C148.248 143.524 148.533 143.808 148.882 143.808Z" fill="#292A36"/>
<path d="M154.534 132.523C154.778 132.523 154.975 132.325 154.975 132.082C154.975 131.839 154.778 131.642 154.534 131.642C154.291 131.642 154.094 131.839 154.094 132.082C154.094 132.325 154.291 132.523 154.534 132.523Z" fill="#292A36"/>
<path d="M163.335 123.583C163.503 123.583 163.639 123.447 163.639 123.28C163.639 123.112 163.503 122.976 163.335 122.976C163.167 122.976 163.031 123.112 163.031 123.28C163.031 123.447 163.167 123.583 163.335 123.583Z" fill="#292A36"/>
<path d="M174.429 117.793C174.521 117.793 174.595 117.718 174.595 117.627C174.595 117.536 174.521 117.461 174.429 117.461C174.338 117.461 174.264 117.536 174.264 117.627C174.264 117.718 174.338 117.793 174.429 117.793Z" fill="#292A36"/>
<path d="M186.724 115.79C186.785 115.79 186.834 115.741 186.834 115.68C186.834 115.619 186.785 115.569 186.724 115.569C186.663 115.569 186.613 115.619 186.613 115.68C186.613 115.741 186.663 115.79 186.724 115.79Z" fill="#292A36"/>
<path d="M199.02 117.681C199.05 117.681 199.074 117.656 199.074 117.626C199.074 117.596 199.05 117.571 199.02 117.571C198.99 117.571 198.965 117.596 198.965 117.626C198.965 117.656 198.99 117.681 199.02 117.681Z" fill="#292A36"/>
<path d="M210.112 123.307C210.127 123.307 210.139 123.295 210.139 123.28C210.139 123.264 210.127 123.252 210.112 123.252C210.096 123.252 210.084 123.264 210.084 123.28C210.084 123.295 210.096 123.307 210.112 123.307Z" fill="#292A36"/>
<path d="M218.914 132.137C218.944 132.137 218.969 132.112 218.969 132.082C218.969 132.052 218.944 132.027 218.914 132.027C218.884 132.027 218.859 132.052 218.859 132.082C218.859 132.112 218.884 132.137 218.914 132.137Z" fill="#292A36"/>
<path d="M224.567 143.229C224.597 143.229 224.621 143.204 224.621 143.174C224.621 143.144 224.597 143.119 224.567 143.119C224.536 143.119 224.512 143.144 224.512 143.174C224.512 143.204 224.536 143.229 224.567 143.229Z" fill="#292A36"/>
<path d="M236.462 155.553C236.507 155.553 236.545 155.516 236.545 155.471C236.545 155.425 236.507 155.388 236.462 155.388C236.416 155.388 236.379 155.425 236.379 155.471C236.379 155.516 236.416 155.553 236.462 155.553Z" fill="#292A36"/>
<path d="M234.9 167.951C234.961 167.951 235.01 167.901 235.01 167.84C235.01 167.779 234.961 167.729 234.9 167.729C234.839 167.729 234.789 167.779 234.789 167.84C234.789 167.901 234.839 167.951 234.9 167.951Z" fill="#292A36"/>
<path d="M230.31 179.597C230.402 179.597 230.476 179.523 230.476 179.431C230.476 179.34 230.402 179.266 230.31 179.266C230.219 179.266 230.145 179.34 230.145 179.431C230.145 179.523 230.219 179.597 230.31 179.597Z" fill="#292A36"/>
<path d="M222.982 189.823C223.15 189.823 223.286 189.687 223.286 189.519C223.286 189.351 223.15 189.215 222.982 189.215C222.814 189.215 222.678 189.351 222.678 189.519C222.678 189.687 222.814 189.823 222.982 189.823Z" fill="#292A36"/>
<path d="M213.374 197.907C213.617 197.907 213.815 197.709 213.815 197.466C213.815 197.223 213.617 197.025 213.374 197.025C213.131 197.025 212.934 197.223 212.934 197.466C212.934 197.709 213.131 197.907 213.374 197.907Z" fill="#292A36"/>
<path d="M202.093 203.436C202.459 203.436 202.755 203.14 202.755 202.774C202.755 202.409 202.459 202.112 202.093 202.112C201.728 202.112 201.432 202.409 201.432 202.774C201.432 203.14 201.728 203.436 202.093 203.436Z" fill="#292A36"/>
<path d="M189.848 206.048C190.366 206.048 190.786 205.628 190.786 205.11C190.786 204.592 190.366 204.172 189.848 204.172C189.33 204.172 188.91 204.592 188.91 205.11C188.91 205.628 189.33 206.048 189.848 206.048Z" fill="#292A36"/>
<path d="M177.404 205.404C177.999 205.404 178.481 204.922 178.481 204.327C178.481 203.733 177.999 203.251 177.404 203.251C176.81 203.251 176.328 203.733 176.328 204.327C176.328 204.922 176.81 205.404 177.404 205.404Z" fill="#292A36"/>
<path d="M165.547 201.551C166.141 201.551 166.623 201.069 166.623 200.475C166.623 199.88 166.141 199.398 165.547 199.398C164.953 199.398 164.471 199.88 164.471 200.475C164.471 201.069 164.953 201.551 165.547 201.551Z" fill="#292A36"/>
<path d="M155.02 195.034C155.705 195.034 156.261 194.479 156.261 193.793C156.261 193.108 155.705 192.553 155.02 192.553C154.335 192.553 153.779 193.108 153.779 193.793C153.779 194.479 154.335 195.034 155.02 195.034Z" fill="#292A36"/>
<path d="M146.766 185.917C147.433 185.76 147.846 185.092 147.688 184.425C147.531 183.758 146.863 183.345 146.196 183.502C145.529 183.66 145.116 184.328 145.273 184.995C145.431 185.662 146.099 186.075 146.766 185.917Z" fill="#292A36"/>
<path d="M140.479 174.856C141.073 174.856 141.555 174.374 141.555 173.779C141.555 173.185 141.073 172.703 140.479 172.703C139.884 172.703 139.402 173.185 139.402 173.779C139.402 174.374 139.884 174.856 140.479 174.856Z" fill="#292A36"/>
<path d="M138.121 162.446C138.531 162.036 138.531 161.372 138.121 160.963C137.711 160.553 137.048 160.553 136.638 160.963C136.228 161.372 136.228 162.036 136.638 162.446C137.048 162.855 137.711 162.855 138.121 162.446Z" fill="#292A36"/>
<path d="M137.378 149.982C137.789 149.982 138.122 149.649 138.122 149.237C138.122 148.825 137.789 148.492 137.378 148.492C136.966 148.492 136.633 148.825 136.633 149.237C136.633 149.649 136.966 149.982 137.378 149.982Z" fill="#292A36"/>
<path d="M140.479 137.684C140.768 137.684 141.002 137.45 141.002 137.16C141.002 136.871 140.768 136.637 140.479 136.637C140.19 136.637 139.955 136.871 139.955 137.16C139.955 137.45 140.19 137.684 140.479 137.684Z" fill="#292A36"/>
<path d="M146.486 126.676C146.729 126.676 146.926 126.479 146.926 126.236C146.926 125.992 146.729 125.795 146.486 125.795C146.242 125.795 146.045 125.992 146.045 126.236C146.045 126.479 146.242 126.676 146.486 126.676Z" fill="#292A36"/>
<path d="M155.02 117.423C155.172 117.423 155.297 117.3 155.297 117.146C155.297 116.993 155.174 116.87 155.02 116.87C154.867 116.87 154.744 116.993 154.744 117.146C154.744 117.3 154.867 117.423 155.02 117.423Z" fill="#292A36"/>
<path d="M165.547 110.632C165.638 110.632 165.712 110.558 165.712 110.467C165.712 110.375 165.638 110.301 165.547 110.301C165.455 110.301 165.381 110.375 165.381 110.467C165.381 110.558 165.455 110.632 165.547 110.632Z" fill="#292A36"/>
<path d="M177.403 106.723C177.464 106.723 177.514 106.673 177.514 106.612C177.514 106.552 177.464 106.502 177.403 106.502C177.343 106.502 177.293 106.552 177.293 106.612C177.293 106.673 177.343 106.723 177.403 106.723Z" fill="#292A36"/>
<path d="M189.848 105.885C189.878 105.885 189.903 105.86 189.903 105.83C189.903 105.8 189.878 105.775 189.848 105.775C189.818 105.775 189.793 105.8 189.793 105.83C189.793 105.86 189.818 105.885 189.848 105.885Z" fill="#292A36"/>
<path d="M234.899 143.129C234.914 143.129 234.926 143.116 234.926 143.101C234.926 143.086 234.914 143.073 234.899 143.073C234.884 143.073 234.871 143.086 234.871 143.101C234.871 143.116 234.884 143.129 234.899 143.129Z" fill="#292A36"/>
<path d="M246.409 155.499C246.424 155.499 246.436 155.486 246.436 155.471C246.436 155.456 246.424 155.443 246.409 155.443C246.393 155.443 246.381 155.456 246.381 155.471C246.381 155.486 246.393 155.499 246.409 155.499Z" fill="#292A36"/>
<path d="M245.104 167.963C245.15 167.963 245.187 167.925 245.187 167.88C245.187 167.834 245.15 167.797 245.104 167.797C245.059 167.797 245.021 167.834 245.021 167.88C245.021 167.925 245.059 167.963 245.104 167.963Z" fill="#292A36"/>
<path d="M241.249 179.858C241.31 179.858 241.36 179.808 241.36 179.747C241.36 179.686 241.31 179.637 241.249 179.637C241.188 179.637 241.139 179.686 241.139 179.747C241.139 179.808 241.188 179.858 241.249 179.858Z" fill="#292A36"/>
<path d="M235.01 190.773C235.132 190.773 235.231 190.674 235.231 190.552C235.231 190.43 235.132 190.331 235.01 190.331C234.888 190.331 234.789 190.43 234.789 190.552C234.789 190.674 234.888 190.773 235.01 190.773Z" fill="#292A36"/>
<path d="M226.662 200.185C226.86 200.185 227.021 200.024 227.021 199.826C227.021 199.628 226.86 199.467 226.662 199.467C226.464 199.467 226.303 199.628 226.303 199.826C226.303 200.024 226.464 200.185 226.662 200.185Z" fill="#292A36"/>
<path d="M216.567 207.712C216.872 207.712 217.118 207.465 217.118 207.161C217.118 206.857 216.871 206.609 216.567 206.609C216.263 206.609 216.016 206.857 216.016 207.161C216.016 207.465 216.263 207.712 216.567 207.712Z" fill="#292A36"/>
<path d="M205.169 213.035C205.611 213.035 205.969 212.678 205.969 212.236C205.969 211.793 205.611 211.436 205.169 211.436C204.727 211.436 204.369 211.793 204.369 212.236C204.369 212.678 204.727 213.035 205.169 213.035Z" fill="#292A36"/>
<path d="M192.964 215.767C193.482 215.767 193.902 215.347 193.902 214.829C193.902 214.311 193.482 213.891 192.964 213.891C192.445 213.891 192.025 214.311 192.025 214.829C192.025 215.347 192.445 215.767 192.964 215.767Z" fill="#292A36"/>
<path d="M180.486 215.904C181.081 215.904 181.563 215.423 181.563 214.828C181.563 214.234 181.081 213.752 180.486 213.752C179.892 213.752 179.41 214.234 179.41 214.828C179.41 215.423 179.892 215.904 180.486 215.904Z" fill="#292A36"/>
<path d="M169.314 213.268C169.885 212.697 169.885 211.772 169.314 211.201C168.743 210.63 167.817 210.63 167.246 211.201C166.676 211.772 166.676 212.697 167.247 213.268C167.817 213.839 168.743 213.839 169.314 213.268Z" fill="#292A36"/>
<path d="M157.913 208.193C158.484 207.622 158.484 206.696 157.913 206.126C157.342 205.555 156.417 205.555 155.846 206.126C155.275 206.696 155.275 207.622 155.846 208.193C156.417 208.764 157.342 208.764 157.913 208.193Z" fill="#292A36"/>
<path d="M147.116 201.254C147.901 201.068 148.388 200.281 148.203 199.495C148.017 198.71 147.23 198.223 146.444 198.408C145.658 198.594 145.172 199.381 145.357 200.167C145.543 200.952 146.33 201.439 147.116 201.254Z" fill="#292A36"/>
<path d="M139.472 191.585C140.043 191.015 140.043 190.089 139.472 189.518C138.901 188.947 137.976 188.947 137.405 189.518C136.834 190.089 136.834 191.015 137.405 191.585C137.976 192.156 138.901 192.156 139.472 191.585Z" fill="#292A36"/>
<path d="M132.2 180.987C132.885 180.987 133.44 180.432 133.44 179.747C133.44 179.061 132.885 178.506 132.2 178.506C131.514 178.506 130.959 179.061 130.959 179.747C130.959 180.432 131.514 180.987 132.2 180.987Z" fill="#292A36"/>
<path d="M128.342 169.121C129.027 169.121 129.583 168.566 129.583 167.88C129.583 167.195 129.027 166.64 128.342 166.64C127.657 166.64 127.102 167.195 127.102 167.88C127.102 168.566 127.657 169.121 128.342 169.121Z" fill="#292A36"/>
<path d="M127.276 156.496C127.839 156.363 128.189 155.798 128.056 155.234C127.922 154.67 127.358 154.321 126.794 154.454C126.23 154.587 125.881 155.152 126.014 155.716C126.147 156.28 126.712 156.629 127.276 156.496Z" fill="#292A36"/>
<path d="M128.342 143.943C128.829 143.943 129.225 143.548 129.225 143.061C129.225 142.573 128.829 142.178 128.342 142.178C127.854 142.178 127.459 142.573 127.459 143.061C127.459 143.548 127.854 143.943 128.342 143.943Z" fill="#292A36"/>
<path d="M132.199 131.718C132.489 131.718 132.723 131.484 132.723 131.195C132.723 130.905 132.489 130.671 132.199 130.671C131.91 130.671 131.676 130.905 131.676 131.195C131.676 131.484 131.91 131.718 132.199 131.718Z" fill="#292A36"/>
<path d="M138.439 120.83C138.682 120.83 138.88 120.632 138.88 120.389C138.88 120.146 138.682 119.948 138.439 119.948C138.196 119.948 137.998 120.146 137.998 120.389C137.998 120.632 138.196 120.83 138.439 120.83Z" fill="#292A36"/>
<path d="M146.788 111.392C146.94 111.392 147.064 111.269 147.064 111.115C147.064 110.962 146.941 110.839 146.788 110.839C146.635 110.839 146.512 110.962 146.512 111.115C146.512 111.269 146.635 111.392 146.788 111.392Z" fill="#292A36"/>
<path d="M156.881 104.002C157.003 104.002 157.102 103.902 157.102 103.781C157.102 103.659 157.003 103.56 156.881 103.56C156.76 103.56 156.66 103.659 156.66 103.781C156.66 103.902 156.76 104.002 156.881 104.002Z" fill="#292A36"/>
<path d="M168.28 98.8168C168.341 98.8168 168.391 98.767 168.391 98.7062C168.391 98.6454 168.341 98.5957 168.28 98.5957C168.22 98.5957 168.17 98.6454 168.17 98.7062C168.17 98.767 168.22 98.8168 168.28 98.8168Z" fill="#292A36"/>
<path d="M180.487 96.1402C180.502 96.1402 180.514 96.1278 180.514 96.1126C180.514 96.0974 180.502 96.085 180.487 96.085C180.471 96.085 180.459 96.0974 180.459 96.1126C180.459 96.1278 180.471 96.1402 180.487 96.1402Z" fill="#292A36"/>
<path d="M255.239 167.931C255.254 167.931 255.266 167.919 255.266 167.904C255.266 167.888 255.254 167.876 255.239 167.876C255.223 167.876 255.211 167.888 255.211 167.904C255.211 167.919 255.223 167.931 255.239 167.931Z" fill="#292A36"/>
<path d="M251.917 180.02C251.962 180.02 252 179.983 252 179.937C252 179.892 251.962 179.854 251.917 179.854C251.871 179.854 251.834 179.892 251.834 179.937C251.834 179.983 251.871 180.02 251.917 180.02Z" fill="#292A36"/>
<path d="M246.5 191.406C246.622 191.406 246.721 191.307 246.721 191.185C246.721 191.063 246.622 190.964 246.5 190.964C246.379 190.964 246.279 191.063 246.279 191.185C246.279 191.307 246.379 191.406 246.5 191.406Z" fill="#292A36"/>
<path d="M239.162 201.671C239.375 201.671 239.549 201.498 239.549 201.284C239.549 201.07 239.376 200.897 239.162 200.897C238.948 200.897 238.775 201.07 238.775 201.284C238.775 201.498 238.948 201.671 239.162 201.671Z" fill="#292A36"/>
<path d="M230.139 210.298C230.352 210.298 230.526 210.125 230.526 209.911C230.526 209.697 230.353 209.524 230.139 209.524C229.925 209.524 229.752 209.697 229.752 209.911C229.752 210.125 229.925 210.298 230.139 210.298Z" fill="#292A36"/>
<path d="M219.72 217.451C220.086 217.451 220.382 217.154 220.382 216.789C220.382 216.423 220.086 216.127 219.72 216.127C219.355 216.127 219.059 216.423 219.059 216.789C219.059 217.154 219.355 217.451 219.72 217.451Z" fill="#292A36"/>
<path d="M208.243 222.633C208.761 222.633 209.181 222.213 209.181 221.695C209.181 221.177 208.761 220.757 208.243 220.757C207.725 220.757 207.305 221.177 207.305 221.695C207.305 222.213 207.725 222.633 208.243 222.633Z" fill="#292A36"/>
<path d="M196.072 225.55C196.667 225.55 197.149 225.068 197.149 224.474C197.149 223.879 196.667 223.397 196.072 223.397C195.478 223.397 194.996 223.879 194.996 224.474C194.996 225.068 195.478 225.55 196.072 225.55Z" fill="#292A36"/>
<path d="M183.6 226.301C184.301 226.301 184.869 225.733 184.869 225.033C184.869 224.333 184.301 223.765 183.6 223.765C182.9 223.765 182.332 224.333 182.332 225.033C182.332 225.733 182.9 226.301 183.6 226.301Z" fill="#292A36"/>
<path d="M171.557 224.787C172.343 224.601 172.829 223.814 172.644 223.028C172.459 222.243 171.671 221.756 170.886 221.942C170.1 222.127 169.613 222.914 169.799 223.7C169.984 224.486 170.771 224.972 171.557 224.787Z" fill="#292A36"/>
<path d="M160.566 220.708C161.234 220.041 161.234 218.958 160.566 218.29C159.898 217.622 158.815 217.622 158.147 218.29C157.479 218.958 157.479 220.041 158.147 220.708C158.815 221.376 159.898 221.376 160.566 220.708Z" fill="#292A36"/>
<path d="M148.363 215.543C149.445 215.543 150.323 214.666 150.323 213.584C150.323 212.502 149.445 211.625 148.363 211.625C147.281 211.625 146.404 212.502 146.404 213.584C146.404 214.666 147.281 215.543 148.363 215.543Z" fill="#292A36"/>
<path d="M138.604 207.76C139.686 207.76 140.563 206.883 140.563 205.801C140.563 204.719 139.686 203.842 138.604 203.842C137.522 203.842 136.645 204.719 136.645 205.801C136.645 206.883 137.522 207.76 138.604 207.76Z" fill="#292A36"/>
<path d="M130.39 198.082C131.319 198.082 132.073 197.329 132.073 196.4C132.073 195.47 131.319 194.717 130.39 194.717C129.46 194.717 128.707 195.47 128.707 196.4C128.707 197.329 129.46 198.082 130.39 198.082Z" fill="#292A36"/>
<path d="M125.177 186.874C125.834 186.216 125.834 185.151 125.177 184.494C124.52 183.836 123.455 183.837 122.797 184.494C122.14 185.151 122.14 186.216 122.797 186.874C123.455 187.531 124.52 187.531 125.177 186.874Z" fill="#292A36"/>
<path d="M120.789 175.185C121.446 174.528 121.446 173.462 120.789 172.805C120.131 172.148 119.066 172.148 118.409 172.805C117.751 173.462 117.751 174.528 118.409 175.185C119.066 175.842 120.131 175.842 120.789 175.185Z" fill="#292A36"/>
<path d="M117.372 163.147C118.164 163.147 118.806 162.504 118.806 161.712C118.806 160.92 118.164 160.278 117.372 160.278C116.58 160.278 115.938 160.92 115.938 161.712C115.938 162.504 116.58 163.147 117.372 163.147Z" fill="#292A36"/>
<path d="M117.608 150.252C118.171 150.119 118.521 149.555 118.388 148.991C118.255 148.427 117.69 148.078 117.126 148.211C116.562 148.344 116.213 148.909 116.346 149.473C116.479 150.036 117.044 150.385 117.608 150.252Z" fill="#292A36"/>
<path d="M119.6 137.829C120.087 137.829 120.482 137.434 120.482 136.946C120.482 136.459 120.087 136.063 119.6 136.063C119.112 136.063 118.717 136.459 118.717 136.946C118.717 137.434 119.112 137.829 119.6 137.829Z" fill="#292A36"/>
<path d="M123.986 125.891C124.337 125.891 124.62 125.607 124.62 125.257C124.62 124.908 124.335 124.623 123.986 124.623C123.636 124.623 123.352 124.908 123.352 125.257C123.352 125.607 123.636 125.891 123.986 125.891Z" fill="#292A36"/>
<path d="M130.39 114.983C130.633 114.983 130.831 114.785 130.831 114.542C130.831 114.299 130.633 114.102 130.39 114.102C130.147 114.102 129.949 114.299 129.949 114.542C129.949 114.785 130.147 114.983 130.39 114.983Z" fill="#292A36"/>
<path d="M138.603 105.5C138.802 105.5 138.963 105.339 138.963 105.14C138.963 104.942 138.802 104.781 138.603 104.781C138.405 104.781 138.244 104.942 138.244 105.14C138.244 105.339 138.405 105.5 138.603 105.5Z" fill="#292A36"/>
<path d="M148.364 97.5769C148.485 97.5769 148.585 97.4774 148.585 97.3558C148.585 97.2342 148.485 97.1348 148.364 97.1348C148.242 97.1348 148.143 97.2342 148.143 97.3558C148.143 97.4774 148.242 97.5769 148.364 97.5769Z" fill="#292A36"/>
<path d="M159.357 91.5521C159.417 91.5521 159.467 91.5024 159.467 91.4416C159.467 91.3808 159.417 91.3311 159.357 91.3311C159.296 91.3311 159.246 91.3808 159.246 91.4416C159.246 91.5024 159.296 91.5521 159.357 91.5521Z" fill="#292A36"/>
<path d="M171.229 87.6119C171.244 87.6119 171.256 87.5995 171.256 87.5843C171.256 87.5691 171.244 87.5566 171.229 87.5566C171.214 87.5566 171.201 87.5691 171.201 87.5843C171.201 87.5995 171.214 87.6119 171.229 87.6119Z" fill="#292A36"/>
<path d="M262.41 180.089C262.426 180.089 262.438 180.077 262.438 180.062C262.438 180.047 262.426 180.034 262.41 180.034C262.395 180.034 262.383 180.047 262.383 180.062C262.383 180.077 262.395 180.089 262.41 180.089Z" fill="#292A36"/>
<path d="M257.631 191.765C257.722 191.765 257.796 191.691 257.796 191.599C257.796 191.508 257.722 191.434 257.631 191.434C257.539 191.434 257.465 191.508 257.465 191.599C257.465 191.691 257.539 191.765 257.631 191.765Z" fill="#292A36"/>
<path d="M251.106 202.495C251.243 202.495 251.355 202.385 251.355 202.247C251.355 202.109 251.244 201.998 251.106 201.998C250.968 201.998 250.857 202.109 250.857 202.247C250.857 202.385 250.968 202.495 251.106 202.495Z" fill="#292A36"/>
<path d="M242.996 212.129C243.209 212.129 243.383 211.956 243.383 211.742C243.383 211.528 243.21 211.355 242.996 211.355C242.782 211.355 242.609 211.528 242.609 211.742C242.609 211.956 242.782 212.129 242.996 212.129Z" fill="#292A36"/>
<path d="M233.502 220.321C233.76 220.321 233.97 220.111 233.97 219.853C233.97 219.595 233.76 219.385 233.502 219.385C233.243 219.385 233.033 219.595 233.033 219.853C233.033 220.111 233.243 220.321 233.502 220.321Z" fill="#292A36"/>
<path d="M222.853 227.039C223.219 227.039 223.515 226.743 223.515 226.378C223.515 226.012 223.219 225.716 222.853 225.716C222.488 225.716 222.191 226.012 222.191 226.378C222.191 226.743 222.488 227.039 222.853 227.039Z" fill="#292A36"/>
<path d="M211.317 232.095C211.835 232.095 212.255 231.675 212.255 231.157C212.255 230.639 211.835 230.219 211.317 230.219C210.799 230.219 210.379 230.639 210.379 231.157C210.379 231.675 210.799 232.095 211.317 232.095Z" fill="#292A36"/>
<path d="M199.173 235.367C199.889 235.367 200.469 234.787 200.469 234.071C200.469 233.356 199.889 232.775 199.173 232.775C198.457 232.775 197.877 233.356 197.877 234.071C197.877 234.787 198.457 235.367 199.173 235.367Z" fill="#292A36"/>
<path d="M187.053 236.482C187.839 236.297 188.326 235.509 188.14 234.724C187.955 233.938 187.167 233.451 186.382 233.637C185.596 233.822 185.109 234.61 185.295 235.395C185.48 236.181 186.267 236.668 187.053 236.482Z" fill="#292A36"/>
<path d="M174.275 235.782C175.22 235.782 175.985 235.016 175.985 234.072C175.985 233.127 175.22 232.361 174.275 232.361C173.33 232.361 172.564 233.127 172.564 234.072C172.564 235.016 173.33 235.782 174.275 235.782Z" fill="#292A36"/>
<path d="M162.459 233.112C163.542 232.936 164.278 231.915 164.102 230.832C163.926 229.749 162.905 229.014 161.822 229.189C160.739 229.365 160.004 230.386 160.18 231.469C160.355 232.552 161.376 233.287 162.459 233.112Z" fill="#292A36"/>
<path d="M150.594 228.336C151.676 228.336 152.553 227.459 152.553 226.377C152.553 225.295 151.676 224.418 150.594 224.418C149.512 224.418 148.635 225.295 148.635 226.377C148.635 227.459 149.512 228.336 150.594 228.336Z" fill="#292A36"/>
<path d="M141.526 221.432C142.399 220.56 142.399 219.145 141.526 218.273C140.654 217.4 139.239 217.4 138.367 218.273C137.494 219.145 137.494 220.56 138.367 221.432C139.239 222.305 140.654 222.305 141.526 221.432Z" fill="#292A36"/>
<path d="M130.959 213.921C132.159 213.638 132.903 212.435 132.62 211.234C132.336 210.033 131.133 209.289 129.932 209.573C128.731 209.856 127.988 211.059 128.271 212.26C128.554 213.461 129.758 214.205 130.959 213.921Z" fill="#292A36"/>
<path d="M122.849 204.424C124.05 204.141 124.794 202.938 124.51 201.737C124.227 200.536 123.024 199.792 121.823 200.076C120.622 200.359 119.878 201.562 120.162 202.763C120.445 203.964 121.648 204.708 122.849 204.424Z" fill="#292A36"/>
<path d="M116.324 193.778C117.525 193.494 118.268 192.291 117.985 191.09C117.701 189.889 116.498 189.146 115.297 189.429C114.097 189.713 113.353 190.916 113.636 192.117C113.92 193.318 115.123 194.061 116.324 193.778Z" fill="#292A36"/>
<path d="M111.038 181.745C111.968 181.745 112.721 180.991 112.721 180.062C112.721 179.132 111.968 178.379 111.038 178.379C110.109 178.379 109.355 179.132 109.355 180.062C109.355 180.991 110.109 181.745 111.038 181.745Z" fill="#292A36"/>
<path d="M108.122 169.575C109.036 169.575 109.777 168.834 109.777 167.92C109.777 167.006 109.036 166.265 108.122 166.265C107.208 166.265 106.467 167.006 106.467 167.92C106.467 168.834 107.208 169.575 108.122 169.575Z" fill="#292A36"/>
<path d="M107.467 156.869C108.238 156.687 108.715 155.915 108.533 155.144C108.351 154.373 107.579 153.896 106.808 154.078C106.037 154.26 105.56 155.032 105.742 155.803C105.923 156.574 106.696 157.051 107.467 156.869Z" fill="#292A36"/>
<path d="M108.123 144.262C108.809 144.262 109.364 143.706 109.364 143.021C109.364 142.336 108.809 141.78 108.123 141.78C107.438 141.78 106.883 142.336 106.883 143.021C106.883 143.706 107.438 144.262 108.123 144.262Z" fill="#292A36"/>
<path d="M111.038 131.624C111.449 131.624 111.782 131.291 111.782 130.879C111.782 130.468 111.449 130.135 111.038 130.135C110.626 130.135 110.293 130.468 110.293 130.879C110.293 131.291 110.626 131.624 111.038 131.624Z" fill="#292A36"/>
<path d="M115.818 119.975C116.169 119.975 116.452 119.691 116.452 119.341C116.452 118.992 116.167 118.707 115.818 118.707C115.468 118.707 115.184 118.992 115.184 119.341C115.184 119.691 115.468 119.975 115.818 119.975Z" fill="#292A36"/>
<path d="M122.343 109.135C122.586 109.135 122.784 108.938 122.784 108.695C122.784 108.451 122.586 108.254 122.343 108.254C122.1 108.254 121.902 108.451 121.902 108.695C121.902 108.938 122.1 109.135 122.343 109.135Z" fill="#292A36"/>
<path d="M130.452 99.4745C130.604 99.4745 130.728 99.3516 130.728 99.1982C130.728 99.0448 130.605 98.9219 130.452 98.9219C130.299 98.9219 130.176 99.0448 130.176 99.1982C130.176 99.3516 130.299 99.4745 130.452 99.4745Z" fill="#292A36"/>
<path d="M139.948 91.3083C140.069 91.3083 140.169 91.2089 140.169 91.0873C140.169 90.9657 140.069 90.8662 139.948 90.8662C139.826 90.8662 139.727 90.9657 139.727 91.0873C139.727 91.2089 139.826 91.3083 139.948 91.3083Z" fill="#292A36"/>
<path d="M150.595 84.6742C150.656 84.6742 150.705 84.6247 150.705 84.5637C150.705 84.5026 150.656 84.4531 150.595 84.4531C150.534 84.4531 150.484 84.5026 150.484 84.5637C150.484 84.6247 150.534 84.6742 150.595 84.6742Z" fill="#292A36"/>
<path d="M162.133 79.8121C162.148 79.8121 162.161 79.7997 162.161 79.7845C162.161 79.7693 162.148 79.7568 162.133 79.7568C162.118 79.7568 162.105 79.7693 162.105 79.7845C162.105 79.7997 162.118 79.8121 162.133 79.8121Z" fill="#292A36"/>
<path d="M268.513 192.022C268.589 192.022 268.651 191.961 268.651 191.884C268.651 191.808 268.589 191.746 268.513 191.746C268.437 191.746 268.375 191.808 268.375 191.884C268.375 191.961 268.437 192.022 268.513 192.022Z" fill="#292A36"/>
<path d="M262.648 203.08C262.739 203.08 262.814 203.005 262.814 202.914C262.814 202.823 262.739 202.748 262.648 202.748C262.557 202.748 262.482 202.823 262.482 202.914C262.482 203.005 262.557 203.08 262.648 203.08Z" fill="#292A36"/>
<path d="M255.306 213.321C255.473 213.321 255.61 213.185 255.61 213.017C255.61 212.848 255.474 212.713 255.306 212.713C255.137 212.713 255.002 212.848 255.002 213.017C255.002 213.185 255.137 213.321 255.306 213.321Z" fill="#292A36"/>
<path d="M246.63 222.472C246.889 222.472 247.099 222.262 247.099 222.004C247.099 221.745 246.889 221.535 246.63 221.535C246.372 221.535 246.162 221.745 246.162 222.004C246.162 222.262 246.372 222.472 246.63 222.472Z" fill="#292A36"/>
<path d="M236.788 230.272C237.108 230.272 237.367 230.012 237.367 229.693C237.367 229.374 237.107 229.114 236.788 229.114C236.469 229.114 236.209 229.374 236.209 229.693C236.209 230.012 236.469 230.272 236.788 230.272Z" fill="#292A36"/>
<path d="M225.972 236.739C226.414 236.739 226.772 236.381 226.772 235.939C226.772 235.496 226.414 235.139 225.972 235.139C225.53 235.139 225.172 235.496 225.172 235.939C225.172 236.381 225.53 236.739 225.972 236.739Z" fill="#292A36"/>
<path d="M214.389 241.554C214.907 241.554 215.327 241.134 215.327 240.616C215.327 240.098 214.907 239.678 214.389 239.678C213.871 239.678 213.451 240.098 213.451 240.616C213.451 241.134 213.871 241.554 214.389 241.554Z" fill="#292A36"/>
<path d="M202.271 244.936C202.986 244.936 203.567 244.355 203.567 243.64C203.567 242.924 202.986 242.344 202.271 242.344C201.555 242.344 200.975 242.924 200.975 243.64C200.975 244.355 201.555 244.936 202.271 244.936Z" fill="#292A36"/>
<path d="M189.849 246.681C190.809 246.681 191.587 245.903 191.587 244.943C191.587 243.983 190.809 243.205 189.849 243.205C188.889 243.205 188.111 243.983 188.111 244.943C188.111 245.903 188.889 246.681 189.849 246.681Z" fill="#292A36"/>
<path d="M177.366 246.495C178.463 246.495 179.352 245.605 179.352 244.508C179.352 243.411 178.463 242.521 177.366 242.521C176.268 242.521 175.379 243.411 175.379 244.508C175.379 245.605 176.268 246.495 177.366 246.495Z" fill="#292A36"/>
<path d="M165.066 244.601C166.315 244.601 167.328 243.588 167.328 242.339C167.328 241.09 166.315 240.077 165.066 240.077C163.817 240.077 162.805 241.09 162.805 242.339C162.805 243.588 163.817 244.601 165.066 244.601Z" fill="#292A36"/>
<path d="M153.187 240.74C154.437 240.74 155.449 239.728 155.449 238.478C155.449 237.229 154.437 236.217 153.187 236.217C151.938 236.217 150.926 237.229 150.926 238.478C150.926 239.728 151.938 240.74 153.187 240.74Z" fill="#292A36"/>
<path d="M142.38 235.531C143.779 235.304 144.729 233.986 144.501 232.587C144.274 231.189 142.957 230.239 141.558 230.466C140.159 230.693 139.209 232.011 139.436 233.409C139.664 234.808 140.981 235.758 142.38 235.531Z" fill="#292A36"/>
<path d="M131.605 228.585C133.022 228.585 134.17 227.437 134.17 226.02C134.17 224.603 133.022 223.454 131.605 223.454C130.188 223.454 129.039 224.603 129.039 226.02C129.039 227.437 130.188 228.585 131.605 228.585Z" fill="#292A36"/>
<path d="M122.323 220.228C123.74 220.228 124.889 219.079 124.889 217.662C124.889 216.245 123.74 215.097 122.323 215.097C120.906 215.097 119.758 216.245 119.758 217.662C119.758 219.079 120.906 220.228 122.323 220.228Z" fill="#292A36"/>
<path d="M114.707 210.595C116.091 210.37 117.03 209.067 116.806 207.683C116.581 206.3 115.277 205.36 113.894 205.585C112.51 205.809 111.571 207.113 111.795 208.496C112.02 209.88 113.324 210.82 114.707 210.595Z" fill="#292A36"/>
<path d="M108.251 199.975C109.616 199.653 110.461 198.287 110.139 196.922C109.817 195.558 108.45 194.713 107.085 195.035C105.721 195.357 104.876 196.724 105.198 198.088C105.52 199.453 106.887 200.297 108.251 199.975Z" fill="#292A36"/>
<path d="M102.595 188.298C103.814 188.298 104.802 187.31 104.802 186.091C104.802 184.873 103.814 183.885 102.595 183.885C101.377 183.885 100.389 184.873 100.389 186.091C100.389 187.31 101.377 188.298 102.595 188.298Z" fill="#292A36"/>
<path d="M99.1517 176.292C100.37 176.292 101.358 175.304 101.358 174.085C101.358 172.867 100.37 171.879 99.1517 171.879C97.9332 171.879 96.9453 172.867 96.9453 174.085C96.9453 175.304 97.9332 176.292 99.1517 176.292Z" fill="#292A36"/>
<path d="M97.8468 163.571C98.8701 163.33 99.5039 162.304 99.2624 161.281C99.0208 160.258 97.9954 159.624 96.9721 159.865C95.9487 160.107 95.3149 161.132 95.5565 162.156C95.798 163.179 96.8234 163.813 97.8468 163.571Z" fill="#292A36"/>
<path d="M97.6486 150.639C98.4304 150.513 98.9613 149.776 98.8344 148.994C98.7075 148.212 97.9708 147.681 97.189 147.808C96.4072 147.935 95.8763 148.672 96.0032 149.454C96.1301 150.235 96.8668 150.766 97.6486 150.639Z" fill="#292A36"/>
<path d="M99.1525 138.07C99.8225 138.07 100.366 137.527 100.366 136.857C100.366 136.187 99.8225 135.644 99.1525 135.644C98.4826 135.644 97.9395 136.187 97.9395 136.857C97.9395 137.527 98.4826 138.07 99.1525 138.07Z" fill="#292A36"/>
<path d="M102.596 125.732C103.083 125.732 103.479 125.337 103.479 124.85C103.479 124.362 103.083 123.967 102.596 123.967C102.108 123.967 101.713 124.362 101.713 124.85C101.713 125.337 102.108 125.732 102.596 125.732Z" fill="#292A36"/>
<path d="M107.674 114.184C108.086 114.184 108.419 113.851 108.419 113.439C108.419 113.027 108.086 112.694 107.674 112.694C107.263 112.694 106.93 113.027 106.93 113.439C106.93 113.851 107.263 114.184 107.674 114.184Z" fill="#292A36"/>
<path d="M114.295 103.371C114.585 103.371 114.819 103.137 114.819 102.848C114.819 102.559 114.584 102.324 114.295 102.324C114.006 102.324 113.771 102.559 113.771 102.848C113.771 103.137 114.006 103.371 114.295 103.371Z" fill="#292A36"/>
<path d="M122.322 93.6384C122.52 93.6384 122.681 93.4775 122.681 93.2791C122.681 93.0808 122.52 92.9199 122.322 92.9199C122.124 92.9199 121.963 93.0808 121.963 93.2791C121.963 93.4775 122.124 93.6384 122.322 93.6384Z" fill="#292A36"/>
<path d="M131.604 85.1423C131.726 85.1423 131.825 85.0433 131.825 84.9213C131.825 84.7992 131.726 84.7002 131.604 84.7002C131.482 84.7002 131.383 84.7992 131.383 84.9213C131.383 85.0433 131.482 85.1423 131.604 85.1423Z" fill="#292A36"/>
<path d="M141.96 78.0463C142.021 78.0463 142.071 77.9965 142.071 77.9357C142.071 77.8749 142.021 77.8252 141.96 77.8252C141.899 77.8252 141.85 77.8749 141.85 77.9357C141.85 77.9965 141.899 78.0463 141.96 78.0463Z" fill="#292A36"/>
<path d="M153.186 72.5149C153.216 72.5149 153.241 72.4904 153.241 72.4601C153.241 72.4298 153.216 72.4053 153.186 72.4053C153.155 72.4053 153.131 72.4298 153.131 72.4601C153.131 72.4904 153.155 72.5149 153.186 72.5149Z" fill="#292A36"/>
<path d="M279.214 192.173C279.259 192.173 279.297 192.135 279.297 192.09C279.297 192.044 279.259 192.007 279.214 192.007C279.168 192.007 279.131 192.044 279.131 192.09C279.131 192.135 279.168 192.173 279.214 192.173Z" fill="#292A36"/>
<path d="M273.896 203.531C273.972 203.531 274.034 203.469 274.034 203.393C274.034 203.317 273.972 203.255 273.896 203.255C273.82 203.255 273.758 203.317 273.758 203.393C273.758 203.469 273.82 203.531 273.896 203.531Z" fill="#292A36"/>
<path d="M267.202 214.189C267.339 214.189 267.451 214.078 267.451 213.94C267.451 213.802 267.34 213.691 267.202 213.691C267.064 213.691 266.953 213.802 266.953 213.94C266.953 214.078 267.064 214.189 267.202 214.189Z" fill="#292A36"/>
<path d="M259.238 223.952C259.451 223.952 259.625 223.78 259.625 223.566C259.625 223.351 259.453 223.179 259.238 223.179C259.024 223.179 258.852 223.351 258.852 223.566C258.852 223.78 259.024 223.952 259.238 223.952Z" fill="#292A36"/>
<path d="M250.132 232.586C250.391 232.586 250.601 232.376 250.601 232.118C250.601 231.859 250.391 231.649 250.132 231.649C249.874 231.649 249.664 231.859 249.664 232.118C249.664 232.376 249.874 232.586 250.132 232.586Z" fill="#292A36"/>
<path d="M240.026 240.041C240.347 240.041 240.605 239.781 240.605 239.462C240.605 239.143 240.345 238.883 240.026 238.883C239.707 238.883 239.447 239.143 239.447 239.462C239.447 239.781 239.707 240.041 240.026 240.041Z" fill="#292A36"/>
<path d="M229.079 246.416C229.597 246.416 230.017 245.996 230.017 245.478C230.017 244.96 229.597 244.54 229.079 244.54C228.561 244.54 228.141 244.96 228.141 245.478C228.141 245.996 228.561 246.416 229.079 246.416Z" fill="#292A36"/>
<path d="M218.244 250.859C218.675 250.428 218.675 249.729 218.244 249.298C217.813 248.866 217.114 248.866 216.683 249.298C216.252 249.729 216.252 250.428 216.683 250.859C217.114 251.29 217.813 251.29 218.244 250.859Z" fill="#292A36"/>
<path d="M205.364 254.674C206.187 254.674 206.854 254.007 206.854 253.185C206.854 252.362 206.187 251.695 205.364 251.695C204.542 251.695 203.875 252.362 203.875 253.185C203.875 254.007 204.542 254.674 205.364 254.674Z" fill="#292A36"/>
<path d="M192.97 256.488C193.93 256.488 194.709 255.71 194.709 254.75C194.709 253.79 193.93 253.012 192.97 253.012C192.011 253.012 191.232 253.79 191.232 254.75C191.232 255.71 192.011 256.488 192.97 256.488Z" fill="#292A36"/>
<path d="M180.805 256.704C181.888 256.529 182.623 255.508 182.448 254.425C182.272 253.342 181.251 252.606 180.168 252.782C179.085 252.958 178.35 253.979 178.525 255.062C178.701 256.145 179.722 256.88 180.805 256.704Z" fill="#292A36"/>
<path d="M168.084 255.805C169.531 255.805 170.705 254.632 170.705 253.184C170.705 251.737 169.531 250.563 168.084 250.563C166.636 250.563 165.463 251.737 165.463 253.184C165.463 254.632 166.636 255.805 168.084 255.805Z" fill="#292A36"/>
<path d="M155.984 252.643C157.401 252.643 158.549 251.494 158.549 250.077C158.549 248.66 157.401 247.512 155.984 247.512C154.567 247.512 153.418 248.66 153.418 250.077C153.418 251.494 154.567 252.643 155.984 252.643Z" fill="#292A36"/>
<path d="M146.456 247.566C147.608 246.414 147.608 244.545 146.456 243.393C145.303 242.24 143.435 242.24 142.282 243.393C141.13 244.545 141.13 246.414 142.282 247.566C143.435 248.719 145.303 248.719 146.456 247.566Z" fill="#292A36"/>
<path d="M134.093 242.338C135.68 241.964 136.662 240.374 136.288 238.788C135.913 237.202 134.324 236.219 132.737 236.594C131.151 236.968 130.169 238.557 130.543 240.144C130.918 241.73 132.507 242.712 134.093 242.338Z" fill="#292A36"/>
<path d="M124.069 235.345C125.848 234.925 126.95 233.142 126.53 231.363C126.11 229.584 124.327 228.482 122.548 228.902C120.769 229.322 119.667 231.105 120.087 232.884C120.507 234.663 122.289 235.765 124.069 235.345Z" fill="#292A36"/>
<path d="M116.511 225.868C117.782 224.597 117.782 222.536 116.511 221.265C115.239 219.994 113.178 219.994 111.907 221.265C110.636 222.536 110.636 224.597 111.907 225.868C113.178 227.139 115.239 227.139 116.511 225.868Z" fill="#292A36"/>
<path d="M106.988 217.112C108.737 216.699 109.821 214.946 109.408 213.196C108.995 211.446 107.242 210.363 105.492 210.776C103.743 211.189 102.659 212.942 103.072 214.691C103.485 216.441 105.238 217.525 106.988 217.112Z" fill="#292A36"/>
<path d="M100.08 206.603C101.855 206.315 103.06 204.643 102.772 202.868C102.484 201.094 100.812 199.889 99.0372 200.177C97.2627 200.465 96.0577 202.137 96.3458 203.911C96.6338 205.686 98.3058 206.891 100.08 206.603Z" fill="#292A36"/>
<path d="M94.2335 194.958C95.8175 194.958 97.1017 193.674 97.1017 192.09C97.1017 190.506 95.8175 189.222 94.2335 189.222C92.6494 189.222 91.3652 190.506 91.3652 192.09C91.3652 193.674 92.6494 194.958 94.2335 194.958Z" fill="#292A36"/>
<path d="M90.3737 182.72C91.7601 182.72 92.884 181.596 92.884 180.21C92.884 178.823 91.7601 177.699 90.3737 177.699C88.9872 177.699 87.8633 178.823 87.8633 180.21C87.8633 181.596 88.9872 182.72 90.3737 182.72Z" fill="#292A36"/>
<path d="M88.0326 170.144C89.2512 170.144 90.239 169.156 90.239 167.938C90.239 166.719 89.2512 165.731 88.0326 165.731C86.814 165.731 85.8262 166.719 85.8262 167.938C85.8262 169.156 86.814 170.144 88.0326 170.144Z" fill="#292A36"/>
<path d="M87.2476 157.374C88.2991 157.374 89.1515 156.522 89.1515 155.47C89.1515 154.419 88.2991 153.566 87.2476 153.566C86.1961 153.566 85.3438 154.419 85.3438 155.47C85.3438 156.522 86.1961 157.374 87.2476 157.374Z" fill="#292A36"/>
<path d="M88.0321 144.658C88.9462 144.658 89.6873 143.917 89.6873 143.003C89.6873 142.089 88.9462 141.348 88.0321 141.348C87.118 141.348 86.377 142.089 86.377 143.003C86.377 143.917 87.118 144.658 88.0321 144.658Z" fill="#292A36"/>
<path d="M91.2315 131.589C91.7052 131.115 91.7052 130.347 91.2315 129.874C90.7577 129.4 89.9897 129.4 89.516 129.874C89.0422 130.347 89.0422 131.115 89.516 131.589C89.9897 132.063 90.7577 132.063 91.2315 131.589Z" fill="#292A36"/>
<path d="M94.2344 119.733C94.722 119.733 95.1173 119.338 95.1173 118.851C95.1173 118.363 94.722 117.968 94.2344 117.968C93.7468 117.968 93.3516 118.363 93.3516 118.851C93.3516 119.338 93.7468 119.733 94.2344 119.733Z" fill="#292A36"/>
<path d="M99.5533 108.293C99.965 108.293 100.298 107.96 100.298 107.548C100.298 107.137 99.965 106.804 99.5533 106.804C99.1416 106.804 98.8086 107.137 98.8086 107.548C98.8086 107.96 99.1416 108.293 99.5533 108.293Z" fill="#292A36"/>
<path d="M106.246 97.5228C106.535 97.5228 106.77 97.2884 106.77 96.9992C106.77 96.71 106.535 96.4756 106.246 96.4756C105.957 96.4756 105.723 96.71 105.723 96.9992C105.723 97.2884 105.957 97.5228 106.246 97.5228Z" fill="#292A36"/>
<path d="M114.209 87.7052C114.391 87.7052 114.54 87.5573 114.54 87.3736C114.54 87.1898 114.392 87.042 114.209 87.042C114.025 87.042 113.877 87.1898 113.877 87.3736C113.877 87.5573 114.025 87.7052 114.209 87.7052Z" fill="#292A36"/>
<path d="M123.317 79.0447C123.438 79.0447 123.538 78.9452 123.538 78.8236C123.538 78.702 123.438 78.6025 123.317 78.6025C123.195 78.6025 123.096 78.702 123.096 78.8236C123.096 78.9452 123.195 79.0447 123.317 79.0447Z" fill="#292A36"/>
<path d="M133.423 71.5902C133.484 71.5902 133.534 71.5405 133.534 71.4797C133.534 71.4189 133.484 71.3691 133.423 71.3691C133.362 71.3691 133.312 71.4189 133.312 71.4797C133.312 71.5405 133.362 71.5902 133.423 71.5902Z" fill="#292A36"/>
<path d="M144.369 65.5159C144.4 65.5159 144.424 65.4913 144.424 65.4611C144.424 65.4308 144.4 65.4062 144.369 65.4062C144.339 65.4062 144.314 65.4308 144.314 65.4611C144.314 65.4913 144.339 65.5159 144.369 65.5159Z" fill="#292A36"/>
<path d="M284.921 203.834C284.966 203.834 285.004 203.796 285.004 203.751C285.004 203.705 284.966 203.668 284.921 203.668C284.875 203.668 284.838 203.705 284.838 203.751C284.838 203.796 284.875 203.834 284.921 203.834Z" fill="#292A36"/>
<path d="M278.777 214.794C278.868 214.794 278.943 214.72 278.943 214.629C278.943 214.537 278.868 214.463 278.777 214.463C278.686 214.463 278.611 214.537 278.611 214.629C278.611 214.72 278.686 214.794 278.777 214.794Z" fill="#292A36"/>
<path d="M271.432 224.987C271.57 224.987 271.681 224.875 271.681 224.738C271.681 224.601 271.57 224.489 271.432 224.489C271.295 224.489 271.184 224.601 271.184 224.738C271.184 224.875 271.295 224.987 271.432 224.987Z" fill="#292A36"/>
<path d="M262.986 234.327C263.199 234.327 263.373 234.155 263.373 233.941C263.373 233.726 263.201 233.554 262.986 233.554C262.772 233.554 262.6 233.726 262.6 233.941C262.6 234.155 262.772 234.327 262.986 234.327Z" fill="#292A36"/>
<path d="M253.544 242.703C253.864 242.703 254.123 242.443 254.123 242.124C254.123 241.805 253.863 241.545 253.544 241.545C253.225 241.545 252.965 241.805 252.965 242.124C252.965 242.443 253.225 242.703 253.544 242.703Z" fill="#292A36"/>
<path d="M243.23 249.865C243.612 249.865 243.92 249.557 243.92 249.176C243.92 248.794 243.612 248.486 243.23 248.486C242.849 248.486 242.541 248.794 242.541 249.176C242.541 249.557 242.849 249.865 243.23 249.865Z" fill="#292A36"/>
<path d="M232.181 255.972C232.714 255.972 233.146 255.539 233.146 255.006C233.146 254.472 232.714 254.04 232.181 254.04C231.647 254.04 231.215 254.472 231.215 255.006C231.215 255.539 231.647 255.972 232.181 255.972Z" fill="#292A36"/>
<path d="M220.783 260.623C221.376 260.483 221.744 259.888 221.604 259.295C221.463 258.701 220.869 258.334 220.276 258.474C219.682 258.614 219.315 259.209 219.455 259.802C219.595 260.395 220.189 260.763 220.783 260.623Z" fill="#292A36"/>
<path d="M208.455 264.452C209.415 264.452 210.193 263.674 210.193 262.714C210.193 261.754 209.415 260.976 208.455 260.976C207.495 260.976 206.717 261.754 206.717 262.714C206.717 263.674 207.495 264.452 208.455 264.452Z" fill="#292A36"/>
<path d="M197.947 265.262C198.372 264.235 197.885 263.057 196.857 262.632C195.83 262.206 194.653 262.694 194.227 263.721C193.802 264.748 194.29 265.926 195.317 266.351C196.344 266.777 197.521 266.289 197.947 265.262Z" fill="#292A36"/>
<path d="M184.118 267.086C185.348 266.795 186.11 265.562 185.82 264.332C185.53 263.101 184.297 262.339 183.066 262.629C181.835 262.92 181.073 264.153 181.364 265.383C181.654 266.614 182.887 267.376 184.118 267.086Z" fill="#292A36"/>
<path d="M171.152 266.401C172.6 266.401 173.773 265.228 173.773 263.78C173.773 262.333 172.6 261.159 171.152 261.159C169.705 261.159 168.531 262.333 168.531 263.78C168.531 265.228 169.705 266.401 171.152 266.401Z" fill="#292A36"/>
<path d="M158.906 264.637C160.75 264.637 162.244 263.142 162.244 261.299C162.244 259.455 160.75 257.961 158.906 257.961C157.063 257.961 155.568 259.455 155.568 261.299C155.568 263.142 157.063 264.637 158.906 264.637Z" fill="#292A36"/>
<path d="M147.57 260.729C149.389 260.433 150.625 258.719 150.33 256.899C150.034 255.079 148.32 253.844 146.5 254.139C144.68 254.434 143.445 256.149 143.74 257.969C144.035 259.788 145.75 261.024 147.57 260.729Z" fill="#292A36"/>
<path d="M136.468 255.718C138.381 255.266 139.566 253.349 139.114 251.436C138.663 249.523 136.746 248.338 134.833 248.79C132.92 249.241 131.735 251.158 132.187 253.071C132.638 254.984 134.555 256.169 136.468 255.718Z" fill="#292A36"/>
<path d="M125.54 249.304C127.48 248.99 128.798 247.161 128.483 245.221C128.168 243.281 126.34 241.963 124.4 242.278C122.46 242.593 121.142 244.421 121.457 246.362C121.772 248.302 123.6 249.619 125.54 249.304Z" fill="#292A36"/>
<path d="M118.354 239.53C119.106 237.714 118.244 235.632 116.428 234.88C114.612 234.127 112.53 234.99 111.778 236.806C111.026 238.622 111.888 240.704 113.704 241.456C115.52 242.208 117.602 241.346 118.354 239.53Z" fill="#292A36"/>
<path d="M109.395 230.822C110.147 229.006 109.285 226.924 107.469 226.172C105.653 225.419 103.571 226.282 102.819 228.098C102.067 229.914 102.929 231.996 104.745 232.748C106.561 233.5 108.643 232.638 109.395 230.822Z" fill="#292A36"/>
<path d="M98.1996 223.348C100.165 223.348 101.759 221.754 101.759 219.788C101.759 217.823 100.165 216.229 98.1996 216.229C96.2341 216.229 94.6406 217.823 94.6406 219.788C94.6406 221.754 96.2341 223.348 98.1996 223.348Z" fill="#292A36"/>
<path d="M93.7449 211.58C95.0161 210.309 95.0161 208.248 93.7449 206.977C92.4737 205.705 90.4127 205.705 89.1415 206.977C87.8703 208.248 87.8703 210.309 89.1415 211.58C90.4127 212.851 92.4737 212.851 93.7449 211.58Z" fill="#292A36"/>
<path d="M88.2332 200.367C89.5043 199.096 89.5043 197.035 88.2332 195.764C86.962 194.493 84.901 194.493 83.6298 195.764C82.3586 197.035 82.3586 199.096 83.6298 200.367C84.901 201.638 86.962 201.638 88.2332 200.367Z" fill="#292A36"/>
<path d="M81.7335 189.167C83.3175 189.167 84.6017 187.883 84.6017 186.299C84.6017 184.715 83.3175 183.431 81.7335 183.431C80.1494 183.431 78.8652 184.715 78.8652 186.299C78.8652 187.883 80.1494 189.167 81.7335 189.167Z" fill="#292A36"/>
<path d="M78.9031 176.97C80.4719 176.97 81.7437 175.698 81.7437 174.13C81.7437 172.561 80.4719 171.289 78.9031 171.289C77.3343 171.289 76.0625 172.561 76.0625 174.13C76.0625 175.698 77.3343 176.97 78.9031 176.97Z" fill="#292A36"/>
<path d="M77.4791 164.227C78.8656 164.227 79.9895 163.103 79.9895 161.716C79.9895 160.33 78.8656 159.206 77.4791 159.206C76.0927 159.206 74.9688 160.33 74.9688 161.716C74.9688 163.103 76.0927 164.227 77.4791 164.227Z" fill="#292A36"/>
<path d="M77.4781 151.128C78.5295 151.128 79.3819 150.276 79.3819 149.224C79.3819 148.173 78.5295 147.32 77.4781 147.32C76.4266 147.32 75.5742 148.173 75.5742 149.224C75.5742 150.276 76.4266 151.128 77.4781 151.128Z" fill="#292A36"/>
<path d="M80.0541 137.963C80.6897 137.328 80.6897 136.297 80.0541 135.662C79.4185 135.026 78.388 135.026 77.7524 135.662C77.1168 136.297 77.1168 137.328 77.7524 137.963C78.388 138.599 79.4185 138.599 80.0541 137.963Z" fill="#292A36"/>
<path d="M82.5908 125.5C83.0646 125.027 83.0646 124.259 82.5908 123.785C82.1171 123.311 81.3491 123.311 80.8753 123.785C80.4016 124.259 80.4016 125.027 80.8753 125.5C81.3491 125.974 82.1171 125.974 82.5908 125.5Z" fill="#292A36"/>
<path d="M85.9312 113.897C86.4951 113.897 86.9522 113.439 86.9522 112.876C86.9522 112.312 86.4951 111.854 85.9312 111.854C85.3673 111.854 84.9102 112.312 84.9102 112.876C84.9102 113.439 85.3673 113.897 85.9312 113.897Z" fill="#292A36"/>
<path d="M91.4439 102.408C91.8556 102.408 92.1886 102.075 92.1886 101.664C92.1886 101.252 91.8556 100.919 91.4439 100.919C91.0322 100.919 90.6992 101.252 90.6992 101.664C90.6992 102.075 91.0322 102.408 91.4439 102.408Z" fill="#292A36"/>
<path d="M98.1994 91.6781C98.4895 91.6781 98.723 91.4432 98.723 91.1545C98.723 90.8657 98.4882 90.6309 98.1994 90.6309C97.9107 90.6309 97.6758 90.8657 97.6758 91.1545C97.6758 91.4432 97.9107 91.6781 98.1994 91.6781Z" fill="#292A36"/>
<path d="M106.107 81.8116C106.289 81.8116 106.439 81.6638 106.439 81.48C106.439 81.2963 106.291 81.1484 106.107 81.1484C105.923 81.1484 105.775 81.2963 105.775 81.48C105.775 81.6638 105.923 81.8116 106.107 81.8116Z" fill="#292A36"/>
<path d="M115.067 73.0497C115.219 73.0497 115.344 72.9268 115.344 72.7734C115.344 72.62 115.221 72.4971 115.067 72.4971C114.914 72.4971 114.791 72.62 114.791 72.7734C114.791 72.9268 114.914 73.0497 115.067 73.0497Z" fill="#292A36"/>
<path d="M124.961 65.3111C125.052 65.3111 125.127 65.2368 125.127 65.1453C125.127 65.0537 125.052 64.9795 124.961 64.9795C124.869 64.9795 124.795 65.0537 124.795 65.1453C124.795 65.2368 124.869 65.3111 124.961 65.3111Z" fill="#292A36"/>
<path d="M135.658 58.7473C135.689 58.7473 135.713 58.7228 135.713 58.6925C135.713 58.6622 135.689 58.6377 135.658 58.6377C135.628 58.6377 135.604 58.6622 135.604 58.6925C135.604 58.7228 135.628 58.7473 135.658 58.7473Z" fill="#292A36"/>
<path d="M283.297 225.827C283.403 225.827 283.49 225.74 283.49 225.634C283.49 225.527 283.403 225.44 283.297 225.44C283.191 225.44 283.104 225.527 283.104 225.634C283.104 225.74 283.191 225.827 283.297 225.827Z" fill="#292A36"/>
<path d="M275.435 235.65C275.603 235.65 275.739 235.514 275.739 235.346C275.739 235.178 275.603 235.042 275.435 235.042C275.267 235.042 275.131 235.178 275.131 235.346C275.131 235.514 275.267 235.65 275.435 235.65Z" fill="#292A36"/>
<path d="M266.599 244.65C266.858 244.65 267.068 244.44 267.068 244.181C267.068 243.923 266.858 243.713 266.599 243.713C266.341 243.713 266.131 243.923 266.131 244.181C266.131 244.44 266.341 244.65 266.599 244.65Z" fill="#292A36"/>
<path d="M256.889 252.733C257.27 252.733 257.578 252.425 257.578 252.044C257.578 251.663 257.27 251.354 256.889 251.354C256.507 251.354 256.199 251.663 256.199 252.044C256.199 252.425 256.507 252.733 256.889 252.733Z" fill="#292A36"/>
<path d="M246.409 259.65C246.851 259.65 247.209 259.292 247.209 258.85C247.209 258.408 246.851 258.05 246.409 258.05C245.967 258.05 245.609 258.408 245.609 258.85C245.609 259.292 245.967 259.65 246.409 259.65Z" fill="#292A36"/>
<path d="M235.521 265.605C236.114 265.465 236.482 264.871 236.342 264.277C236.202 263.684 235.607 263.316 235.014 263.456C234.42 263.596 234.053 264.191 234.193 264.784C234.333 265.378 234.928 265.745 235.521 265.605Z" fill="#292A36"/>
<path d="M223.829 270.269C224.536 270.154 225.015 269.488 224.901 268.782C224.786 268.075 224.12 267.596 223.414 267.71C222.707 267.825 222.228 268.491 222.342 269.197C222.457 269.904 223.123 270.383 223.829 270.269Z" fill="#292A36"/>
<path d="M153.124 270.361C153.876 268.545 153.014 266.463 151.198 265.711C149.382 264.958 147.3 265.821 146.548 267.637C145.795 269.453 146.658 271.535 148.474 272.287C150.29 273.039 152.372 272.177 153.124 270.361Z" fill="#292A36"/>
<path d="M138.172 268.08C140.138 268.08 141.731 266.487 141.731 264.521C141.731 262.555 140.138 260.962 138.172 260.962C136.207 260.962 134.613 262.555 134.613 264.521C134.613 266.487 136.207 268.08 138.172 268.08Z" fill="#292A36"/>
<path d="M130.327 260.211C131.079 258.395 130.217 256.313 128.401 255.561C126.585 254.809 124.503 255.671 123.751 257.487C122.998 259.303 123.861 261.385 125.677 262.137C127.493 262.89 129.575 262.027 130.327 260.211Z" fill="#292A36"/>
<path d="M116.561 255.602C118.527 255.602 120.12 254.009 120.12 252.043C120.12 250.078 118.527 248.484 116.561 248.484C114.595 248.484 113.002 250.078 113.002 252.043C113.002 254.009 114.595 255.602 116.561 255.602Z" fill="#292A36"/>
<path d="M106.848 247.74C108.814 247.74 110.407 246.147 110.407 244.181C110.407 242.215 108.814 240.622 106.848 240.622C104.882 240.622 103.289 242.215 103.289 244.181C103.289 246.147 104.882 247.74 106.848 247.74Z" fill="#292A36"/>
<path d="M98.591 238.855C100.531 238.54 101.849 236.712 101.534 234.772C101.219 232.832 99.3907 231.514 97.4505 231.829C95.5103 232.144 94.1928 233.972 94.5077 235.912C94.8227 237.853 96.6508 239.17 98.591 238.855Z" fill="#292A36"/>
<path d="M93.4401 226.997C94.1923 225.181 93.33 223.099 91.514 222.347C89.698 221.595 87.6161 222.457 86.8639 224.273C86.1117 226.089 86.9741 228.171 88.7901 228.924C90.606 229.676 92.6879 228.813 93.4401 226.997Z" fill="#292A36"/>
<path d="M83.3461 218.715C85.3117 218.715 86.9052 217.121 86.9052 215.156C86.9052 213.19 85.3117 211.597 83.3461 211.597C81.3805 211.597 79.7871 213.19 79.7871 215.156C79.7871 217.121 81.3805 218.715 83.3461 218.715Z" fill="#292A36"/>
<path d="M77.6743 207.582C79.6398 207.582 81.2333 205.988 81.2333 204.023C81.2333 202.057 79.6398 200.464 77.6743 200.464C75.7087 200.464 74.1152 202.057 74.1152 204.023C74.1152 205.988 75.7087 207.582 77.6743 207.582Z" fill="#292A36"/>
<path d="M74.0071 195.824C75.9202 195.373 77.105 193.456 76.6534 191.543C76.2019 189.63 74.2851 188.445 72.3721 188.896C70.459 189.348 69.2742 191.265 69.7257 193.178C70.1773 195.091 72.0941 196.276 74.0071 195.824Z" fill="#292A36"/>
<path d="M71.9711 182.298C73.0804 181.188 73.0804 179.39 71.9711 178.28C70.8618 177.171 69.0632 177.171 67.9539 178.28C66.8446 179.39 66.8446 181.188 67.9539 182.298C69.0632 183.407 70.8618 183.407 71.9711 182.298Z" fill="#292A36"/>
<path d="M68.579 170.393C69.9284 170.074 70.7641 168.722 70.4456 167.373C70.1271 166.024 68.775 165.188 67.4257 165.506C66.0763 165.825 65.2406 167.177 65.5591 168.526C65.8776 169.876 67.2296 170.711 68.579 170.393Z" fill="#292A36"/>
<path d="M67.8481 157.592C69.0192 157.316 69.7445 156.142 69.4681 154.971C69.1917 153.8 68.0182 153.075 66.8471 153.351C65.676 153.627 64.9506 154.801 65.2271 155.972C65.5035 157.143 66.6769 157.869 67.8481 157.592Z" fill="#292A36"/>
<path d="M68.0074 144.898C69.0588 144.898 69.9112 144.045 69.9112 142.994C69.9112 141.942 69.0588 141.09 68.0074 141.09C66.9559 141.09 66.1035 141.942 66.1035 142.994C66.1035 144.045 66.9559 144.898 68.0074 144.898Z" fill="#292A36"/>
<path d="M70.9562 131.647C71.5055 131.098 71.5055 130.207 70.9562 129.658C70.407 129.109 69.5164 129.109 68.9672 129.658C68.4179 130.207 68.4179 131.098 68.9672 131.647C69.5165 132.196 70.407 132.196 70.9562 131.647Z" fill="#292A36"/>
<path d="M74.0537 119.441C74.5275 118.967 74.5275 118.199 74.0537 117.725C73.58 117.252 72.812 117.252 72.3382 117.725C71.8645 118.199 71.8645 118.967 72.3382 119.441C72.8119 119.914 73.58 119.914 74.0537 119.441Z" fill="#292A36"/>
<path d="M77.6734 107.939C78.2372 107.939 78.6944 107.482 78.6944 106.918C78.6944 106.355 78.2372 105.897 77.6734 105.897C77.1095 105.897 76.6523 106.355 76.6523 106.918C76.6523 107.482 77.1095 107.939 77.6734 107.939Z" fill="#292A36"/>
<path d="M83.3462 96.5294C83.758 96.5294 84.0909 96.1964 84.0909 95.7847C84.0909 95.373 83.758 95.04 83.3462 95.04C82.9345 95.04 82.6016 95.373 82.6016 95.7847C82.6016 96.1964 82.9345 96.5294 83.3462 96.5294Z" fill="#292A36"/>
<path d="M90.1514 85.9123C90.4864 85.9123 90.758 85.6407 90.758 85.3057C90.758 84.9708 90.4864 84.6992 90.1514 84.6992C89.8165 84.6992 89.5449 84.9708 89.5449 85.3057C89.5449 85.6407 89.8165 85.9123 90.1514 85.9123Z" fill="#292A36"/>
<path d="M98.0127 76.0088C98.2409 76.0088 98.4258 75.8239 98.4258 75.5957C98.4258 75.3676 98.2409 75.1826 98.0127 75.1826C97.7846 75.1826 97.5996 75.3676 97.5996 75.5957C97.5996 75.8239 97.7846 76.0088 98.0127 76.0088Z" fill="#292A36"/>
<path d="M106.849 67.037C107.001 67.037 107.125 66.9141 107.125 66.7607C107.125 66.6073 107.002 66.4844 106.849 66.4844C106.695 66.4844 106.572 66.6073 106.572 66.7607C106.572 66.9141 106.695 67.037 106.849 67.037Z" fill="#292A36"/>
<path d="M116.56 59.0361C116.636 59.0361 116.698 58.9739 116.698 58.8979C116.698 58.8219 116.636 58.7598 116.56 58.7598C116.484 58.7598 116.422 58.8219 116.422 58.8979C116.422 58.9739 116.484 59.0361 116.56 59.0361Z" fill="#292A36"/>
<path d="M127.038 52.2025C127.099 52.2025 127.149 52.1528 127.149 52.092C127.149 52.0312 127.099 51.9814 127.038 51.9814C126.977 51.9814 126.928 52.0312 126.928 52.092C126.928 52.1528 126.977 52.2025 127.038 52.2025Z" fill="#292A36"/>
<path d="M287.551 236.697C287.688 236.697 287.8 236.586 287.8 236.448C287.8 236.31 287.69 236.199 287.551 236.199C287.413 236.199 287.303 236.31 287.303 236.448C287.303 236.586 287.413 236.697 287.551 236.697Z" fill="#292A36"/>
<path d="M279.264 246.187C279.477 246.187 279.651 246.014 279.651 245.8C279.651 245.586 279.478 245.413 279.264 245.413C279.05 245.413 278.877 245.586 278.877 245.8C278.877 246.014 279.05 246.187 279.264 246.187Z" fill="#292A36"/>
<path d="M270.113 254.779C270.372 254.779 270.581 254.57 270.581 254.311C270.581 254.052 270.372 253.843 270.113 253.843C269.854 253.843 269.645 254.052 269.645 254.311C269.645 254.57 269.854 254.779 270.113 254.779Z" fill="#292A36"/>
<path d="M260.186 262.587C260.567 262.587 260.875 262.279 260.875 261.897C260.875 261.516 260.567 261.208 260.186 261.208C259.804 261.208 259.496 261.516 259.496 261.897C259.496 262.279 259.804 262.587 260.186 262.587Z" fill="#292A36"/>
<path d="M249.571 269.456C250.105 269.456 250.537 269.023 250.537 268.49C250.537 267.957 250.105 267.524 249.571 267.524C249.038 267.524 248.605 267.957 248.605 268.49C248.605 269.023 249.038 269.456 249.571 269.456Z" fill="#292A36"/>
<path d="M118.491 268.882C120.456 268.882 122.05 267.288 122.05 265.323C122.05 263.357 120.456 261.764 118.491 261.764C116.525 261.764 114.932 263.357 114.932 265.323C114.932 267.288 116.525 268.882 118.491 268.882Z" fill="#292A36"/>
<path d="M110.724 260.74C112.114 259.35 112.114 257.097 110.724 255.707C109.334 254.317 107.08 254.317 105.69 255.707C104.301 257.097 104.301 259.35 105.69 260.74C107.08 262.13 109.334 262.13 110.724 260.74Z" fill="#292A36"/>
<path d="M98.6567 253.725C100.622 253.725 102.216 252.132 102.216 250.166C102.216 248.201 100.622 246.607 98.6567 246.607C96.6911 246.607 95.0977 248.201 95.0977 250.166C95.0977 252.132 96.6911 253.725 98.6567 253.725Z" fill="#292A36"/>
<path d="M89.9282 244.783C91.8938 244.783 93.4872 243.19 93.4872 241.224C93.4872 239.258 91.8938 237.665 89.9282 237.665C87.9626 237.665 86.3691 239.258 86.3691 241.224C86.3691 243.19 87.9626 244.783 89.9282 244.783Z" fill="#292A36"/>
<path d="M84.6201 233.999C86.01 232.609 86.01 230.356 84.6201 228.966C83.2303 227.576 80.9768 227.576 79.5869 228.966C78.197 230.356 78.197 232.609 79.5869 233.999C80.9768 235.389 83.2303 235.389 84.6201 233.999Z" fill="#292A36"/>
<path d="M75.8332 224.541C77.7734 224.226 79.091 222.398 78.776 220.458C78.4611 218.517 76.6329 217.2 74.6927 217.515C72.7525 217.83 71.435 219.658 71.7499 221.598C72.0649 223.538 73.893 224.856 75.8332 224.541Z" fill="#292A36"/>
<path d="M72.737 211.327C73.4892 209.511 72.6269 207.43 70.8109 206.677C68.9949 205.925 66.913 206.788 66.1608 208.603C65.4086 210.419 66.271 212.501 68.0869 213.254C69.9029 214.006 71.9848 213.143 72.737 211.327Z" fill="#292A36"/>
<path d="M64.7368 201.952C66.7023 201.952 68.2958 200.359 68.2958 198.393C68.2958 196.427 66.7023 194.834 64.7368 194.834C62.7712 194.834 61.1777 196.427 61.1777 198.393C61.1777 200.359 62.7712 201.952 64.7368 201.952Z" fill="#292A36"/>
<path d="M61.163 189.646C62.9454 189.646 64.3904 188.201 64.3904 186.419C64.3904 184.636 62.9454 183.191 61.163 183.191C59.3805 183.191 57.9355 184.636 57.9355 186.419C57.9355 188.201 59.3805 189.646 61.163 189.646Z" fill="#292A36"/>
<path d="M61.3937 125.91C62.1604 125.785 62.6811 125.063 62.5567 124.296C62.4322 123.529 61.7097 123.009 60.943 123.133C60.1763 123.258 59.6556 123.98 59.78 124.747C59.9045 125.513 60.627 126.034 61.3937 125.91Z" fill="#292A36"/>
<path d="M64.7365 113.761C65.4064 113.761 65.9495 113.218 65.9495 112.548C65.9495 111.878 65.4064 111.335 64.7365 111.335C64.0665 111.335 63.5234 111.878 63.5234 112.548C63.5234 113.218 64.0665 113.761 64.7365 113.761Z" fill="#292A36"/>
<path d="M69.449 101.832C69.9215 101.832 70.3042 101.449 70.3042 100.976C70.3042 100.504 69.9215 100.121 69.449 100.121C68.9765 100.121 68.5938 100.504 68.5938 100.976C68.5938 101.449 68.9765 101.832 69.449 101.832Z" fill="#292A36"/>
<path d="M75.2561 90.6294C75.6526 90.6294 75.9732 90.3089 75.9732 89.9124C75.9732 89.5158 75.6526 89.1953 75.2561 89.1953C74.8596 89.1953 74.5391 89.5158 74.5391 89.9124C74.5391 90.3089 74.8596 90.6294 75.2561 90.6294Z" fill="#292A36"/>
<path d="M82.1034 79.9559C82.377 79.9559 82.5994 79.7334 82.5994 79.4599C82.5994 79.1863 82.377 78.9639 82.1034 78.9639C81.8299 78.9639 81.6074 79.1863 81.6074 79.4599C81.6074 79.7334 81.8299 79.9559 82.1034 79.9559Z" fill="#292A36"/>
<path d="M89.9287 70.1299C90.1567 70.1299 90.3418 69.9448 90.3418 69.7168C90.3418 69.4888 90.1567 69.3037 89.9287 69.3037C89.7008 69.3037 89.5156 69.4888 89.5156 69.7168C89.5156 69.9448 89.7008 70.1299 89.9287 70.1299Z" fill="#292A36"/>
<path d="M98.6552 61.0497C98.8072 61.0497 98.9315 60.9268 98.9315 60.7734C98.9315 60.62 98.8086 60.4971 98.6552 60.4971C98.5019 60.4971 98.3789 60.62 98.3789 60.7734C98.3789 60.9268 98.5019 61.0497 98.6552 61.0497Z" fill="#292A36"/>
<path d="M108.207 52.9372C108.329 52.9372 108.428 52.8378 108.428 52.7162C108.428 52.5946 108.329 52.4951 108.207 52.4951C108.086 52.4951 107.986 52.5946 107.986 52.7162C107.986 52.8378 108.086 52.9372 108.207 52.9372Z" fill="#292A36"/>
<path d="M118.491 45.7298C118.552 45.7298 118.602 45.6804 118.602 45.6193C118.602 45.5583 118.552 45.5088 118.491 45.5088C118.43 45.5088 118.381 45.5583 118.381 45.6193C118.381 45.6804 118.43 45.7298 118.491 45.7298Z" fill="#292A36"/>
<path d="M282.965 256.517C283.178 256.517 283.352 256.344 283.352 256.13C283.352 255.916 283.179 255.743 282.965 255.743C282.751 255.743 282.578 255.916 282.578 256.13C282.578 256.344 282.751 256.517 282.965 256.517Z" fill="#292A36"/>
<path d="M273.555 264.932C273.876 264.932 274.134 264.672 274.134 264.353C274.134 264.034 273.875 263.774 273.555 263.774C273.236 263.774 272.977 264.034 272.977 264.353C272.977 264.672 273.236 264.932 273.555 264.932Z" fill="#292A36"/>
<path d="M100.474 267.863C102.414 267.548 103.732 265.72 103.417 263.78C103.102 261.84 101.274 260.522 99.3334 260.837C97.3932 261.152 96.0756 262.98 96.3906 264.92C96.7055 266.86 98.5336 268.178 100.474 267.863Z" fill="#292A36"/>
<path d="M90.4828 259.691C92.4484 259.691 94.0419 258.098 94.0419 256.132C94.0419 254.167 92.4484 252.573 90.4828 252.573C88.5173 252.573 86.9238 254.167 86.9238 256.132C86.9238 258.098 88.5173 259.691 90.4828 259.691Z" fill="#292A36"/>
<path d="M81.8481 250.658C83.8137 250.658 85.4071 249.065 85.4071 247.099C85.4071 245.133 83.8137 243.54 81.8481 243.54C79.8825 243.54 78.2891 245.133 78.2891 247.099C78.2891 249.065 79.8825 250.658 81.8481 250.658Z" fill="#292A36"/>
<path d="M74.634 240.841C76.5742 240.526 77.8917 238.698 77.5768 236.757C77.2619 234.817 75.4337 233.5 73.4935 233.815C71.5533 234.129 70.2358 235.958 70.5507 237.898C70.8657 239.838 72.6938 241.156 74.634 240.841Z" fill="#292A36"/>
<path d="M69.6885 229.417C71.0784 228.027 71.0784 225.774 69.6885 224.384C68.2986 222.994 66.0452 222.994 64.6553 224.384C63.2654 225.774 63.2654 228.027 64.6553 229.417C66.0452 230.807 68.2986 230.807 69.6885 229.417Z" fill="#292A36"/>
<path d="M63.7666 218.411C65.1565 217.021 65.1565 214.768 63.7666 213.378C62.3767 211.988 60.1233 211.988 58.7334 213.378C57.3435 214.768 57.3435 217.021 58.7334 218.411C60.1233 219.801 62.3767 219.801 63.7666 218.411Z" fill="#292A36"/>
<path d="M61.2497 95.8999C61.7223 95.8999 62.105 95.5172 62.105 95.0447C62.105 94.5722 61.7223 94.1895 61.2497 94.1895C60.7772 94.1895 60.3945 94.5722 60.3945 95.0447C60.3945 95.5172 60.7772 95.8999 61.2497 95.8999Z" fill="#292A36"/>
<path d="M67.1721 84.7583C67.5682 84.7583 67.8892 84.4373 67.8892 84.0413C67.8892 83.6453 67.5682 83.3242 67.1721 83.3242C66.7761 83.3242 66.4551 83.6453 66.4551 84.0413C66.4551 84.4373 66.7761 84.7583 67.1721 84.7583Z" fill="#292A36"/>
<path d="M74.0557 74.2179C74.3907 74.2179 74.6623 73.9464 74.6623 73.6114C74.6623 73.2764 74.3907 73.0049 74.0557 73.0049C73.7208 73.0049 73.4492 73.2764 73.4492 73.6114C73.4492 73.9464 73.7208 74.2179 74.0557 74.2179Z" fill="#292A36"/>
<path d="M81.8467 64.2559C82.0748 64.2559 82.2598 64.0709 82.2598 63.8428C82.2598 63.6146 82.0748 63.4297 81.8467 63.4297C81.6185 63.4297 81.4336 63.6146 81.4336 63.8428C81.4336 64.0709 81.6185 64.2559 81.8467 64.2559Z" fill="#292A36"/>
<path d="M90.482 55.1407C90.6643 55.1407 90.8136 54.9929 90.8136 54.8091C90.8136 54.6254 90.6657 54.4775 90.482 54.4775C90.2982 54.4775 90.1504 54.6254 90.1504 54.8091C90.1504 54.9929 90.2982 55.1407 90.482 55.1407Z" fill="#292A36"/>
<path d="M99.8926 46.7814C99.999 46.7814 100.086 46.6943 100.086 46.588C100.086 46.4816 99.999 46.3945 99.8926 46.3945C99.7863 46.3945 99.6992 46.4816 99.6992 46.588C99.6992 46.6943 99.7863 46.7814 99.8926 46.7814Z" fill="#292A36"/>
<path d="M286.566 266.854C286.84 266.854 287.062 266.632 287.062 266.358C287.062 266.085 286.84 265.862 286.566 265.862C286.293 265.862 286.07 266.085 286.07 266.358C286.07 266.632 286.293 266.854 286.566 266.854Z" fill="#292A36"/>
<path d="M94.1279 272.959C95.5178 271.569 95.5178 269.316 94.1279 267.926C92.7381 266.536 90.4846 266.536 89.0947 267.926C87.7048 269.316 87.7048 271.569 89.0947 272.959C90.4846 274.349 92.7381 274.349 94.1279 272.959Z" fill="#292A36"/>
<path d="M84.8428 264.596C86.2327 263.206 86.2327 260.952 84.8428 259.562C83.4529 258.173 81.1995 258.173 79.8096 259.562C78.4197 260.952 78.4197 263.206 79.8096 264.596C81.1995 265.986 83.4529 265.986 84.8428 264.596Z" fill="#292A36"/>
<path d="M73.77 256.528C75.7356 256.528 77.329 254.935 77.329 252.969C77.329 251.004 75.7356 249.41 73.77 249.41C71.8044 249.41 70.2109 251.004 70.2109 252.969C70.2109 254.935 71.8044 256.528 73.77 256.528Z" fill="#292A36"/>
<path d="M66.0082 246.735C67.9738 246.735 69.5673 245.142 69.5673 243.176C69.5673 241.211 67.9738 239.617 66.0082 239.617C64.0426 239.617 62.4492 241.211 62.4492 243.176C62.4492 245.142 64.0426 246.735 66.0082 246.735Z" fill="#292A36"/>
<path d="M66.0077 68.2605C66.2816 68.2605 66.5037 68.0385 66.5037 67.7646C66.5037 67.4906 66.2816 67.2686 66.0077 67.2686C65.7338 67.2686 65.5117 67.4906 65.5117 67.7646C65.5117 68.0385 65.7338 68.2605 66.0077 68.2605Z" fill="#292A36"/>
<path d="M73.7705 58.3848C73.9987 58.3848 74.1836 58.1998 74.1836 57.9717C74.1836 57.7435 73.9987 57.5586 73.7705 57.5586C73.5424 57.5586 73.3574 57.7435 73.3574 57.9717C73.3574 58.1998 73.5424 58.3848 73.7705 58.3848Z" fill="#292A36"/>
<path d="M82.3251 49.1376C82.4771 49.1376 82.6015 49.0146 82.6015 48.8613C82.6015 48.7079 82.4785 48.585 82.3251 48.585C82.1718 48.585 82.0488 48.7079 82.0488 48.8613C82.0488 49.0146 82.1718 49.1376 82.3251 49.1376Z" fill="#292A36"/>
<path d="M76.6963 270.532C78.0862 269.142 78.0862 266.889 76.6963 265.499C75.3064 264.109 73.053 264.109 71.6631 265.499C70.2732 266.889 70.2732 269.142 71.6631 270.532C73.053 271.922 75.3064 271.922 76.6963 270.532Z" fill="#292A36"/>
<path d="M65.6957 262.396C67.6613 262.396 69.2548 260.803 69.2548 258.837C69.2548 256.872 67.6613 255.278 65.6957 255.278C63.7301 255.278 62.1367 256.872 62.1367 258.837C62.1367 260.803 63.7301 262.396 65.6957 262.396Z" fill="#292A36"/>
<path d="M65.6963 52.5176C65.9245 52.5176 66.1094 52.3327 66.1094 52.1045C66.1094 51.8764 65.9245 51.6914 65.6963 51.6914C65.4682 51.6914 65.2832 51.8764 65.2832 52.1045C65.2832 52.3327 65.4682 52.5176 65.6963 52.5176Z" fill="#292A36"/>
<path d="M74.1792 43.2579C74.3616 43.2579 74.5108 43.1101 74.5108 42.9263C74.5108 42.7426 74.363 42.5947 74.1792 42.5947C73.9955 42.5947 73.8477 42.7426 73.8477 42.9263C73.8477 43.1101 73.9955 43.2579 74.1792 43.2579Z" fill="#292A36"/>
</g>
</g>
<mask id="mask0_1055_3114" style="mask-type:luminance" maskUnits="userSpaceOnUse" x="132" y="109" width="81" height="82">
<path d="M213 149.526C213 171.915 194.861 190.07 172.491 190.07C150.121 190.07 132 171.915 132 149.526C132 127.137 150.121 109 172.491 109C194.861 109 213 127.155 213 149.526Z" fill="white"/>
</mask>
<g mask="url(#mask0_1055_3114)">
<path d="M172.509 215C155.427 215 141.589 201.15 141.589 184.072C141.589 166.994 155.427 153.126 172.509 153.126C189.59 153.126 203.41 166.975 203.41 184.072C203.41 201.168 189.572 215 172.509 215V215Z" fill="url(#paint2_linear_1055_3114)"/>
</g>
<path d="M172.508 150.99C164.875 150.99 158.688 144.798 158.688 137.158C158.688 129.519 164.875 123.326 172.508 123.326C180.141 123.326 186.328 129.519 186.328 137.158C186.328 144.798 180.141 150.99 172.508 150.99Z" fill="url(#paint3_linear_1055_3114)"/>
<path d="M160.075 224.16C158.496 224.16 157.328 223.771 156.571 222.992C155.814 222.203 155.435 220.992 155.435 219.36V212.32H157.195V219.04C157.195 219.904 157.286 220.592 157.467 221.104C157.659 221.616 157.963 221.989 158.379 222.224C158.806 222.448 159.371 222.56 160.075 222.56C160.779 222.56 161.339 222.448 161.755 222.224C162.182 221.989 162.486 221.616 162.667 221.104C162.859 220.592 162.955 219.904 162.955 219.04V212.32H164.715V219.36C164.715 220.992 164.336 222.203 163.579 222.992C162.822 223.771 161.654 224.16 160.075 224.16ZM169.637 224.16C169.061 224.16 168.496 224.101 167.941 223.984C167.397 223.867 166.901 223.701 166.453 223.488L166.725 222.064C167.216 222.277 167.701 222.443 168.181 222.56C168.661 222.667 169.141 222.72 169.621 222.72C170.208 222.72 170.645 222.635 170.933 222.464C171.232 222.293 171.381 222.037 171.381 221.696C171.381 221.483 171.328 221.307 171.221 221.168C171.114 221.029 170.928 220.907 170.661 220.8C170.405 220.683 170.042 220.571 169.573 220.464C168.837 220.283 168.234 220.075 167.765 219.84C167.306 219.605 166.965 219.328 166.741 219.008C166.528 218.677 166.421 218.293 166.421 217.856C166.421 217.099 166.709 216.523 167.285 216.128C167.872 215.723 168.709 215.52 169.797 215.52C170.341 215.52 170.874 215.573 171.397 215.68C171.92 215.776 172.41 215.931 172.869 216.144L172.597 217.552C172.16 217.349 171.712 217.2 171.253 217.104C170.794 217.008 170.33 216.96 169.861 216.96C169.296 216.96 168.874 217.035 168.597 217.184C168.32 217.333 168.181 217.563 168.181 217.872C168.181 218.053 168.234 218.213 168.341 218.352C168.458 218.491 168.645 218.613 168.901 218.72C169.157 218.827 169.498 218.928 169.925 219.024C170.49 219.152 170.976 219.301 171.381 219.472C171.786 219.643 172.117 219.84 172.373 220.064C172.629 220.277 172.821 220.523 172.949 220.8C173.077 221.067 173.141 221.371 173.141 221.712C173.141 222.491 172.832 223.093 172.213 223.52C171.605 223.947 170.746 224.16 169.637 224.16ZM178.726 224.16C177.339 224.16 176.267 223.787 175.51 223.04C174.763 222.293 174.39 221.227 174.39 219.84C174.39 218.496 174.747 217.44 175.462 216.672C176.187 215.904 177.179 215.52 178.438 215.52C179.654 215.52 180.587 215.883 181.238 216.608C181.899 217.333 182.23 218.363 182.23 219.696C182.23 219.835 182.224 219.989 182.214 220.16C182.214 220.331 182.208 220.464 182.198 220.56H175.35V219.2H180.886L180.614 219.616C180.614 218.709 180.432 218.037 180.07 217.6C179.707 217.152 179.163 216.928 178.438 216.928C177.67 216.928 177.083 217.163 176.678 217.632C176.283 218.101 176.086 218.784 176.086 219.68V220.16C176.086 221.003 176.31 221.643 176.758 222.08C177.206 222.507 177.867 222.72 178.742 222.72C179.243 222.72 179.734 222.656 180.214 222.528C180.694 222.4 181.131 222.219 181.526 221.984L181.83 223.376C181.424 223.621 180.955 223.813 180.422 223.952C179.888 224.091 179.323 224.16 178.726 224.16ZM184.06 224V215.68H185.724L185.74 217.28H185.772C186.039 216.907 186.359 216.592 186.732 216.336C187.116 216.069 187.543 215.867 188.012 215.728C188.492 215.589 188.988 215.52 189.5 215.52V217.04C188.817 217.04 188.193 217.173 187.628 217.44C187.073 217.707 186.631 218.064 186.3 218.512C185.969 218.96 185.804 219.456 185.804 220V224H184.06Z" fill="white"/>
</g>
<rect x="56.5" y="41.5" width="232" height="232" rx="116" stroke="#292A36"/>
<defs>
<linearGradient id="paint0_linear_1055_3114" x1="244.234" y1="345.386" x2="143.383" y2="-11.9286" gradientUnits="userSpaceOnUse">
<stop stop-color="#09090C"/>
<stop offset="1" stop-color="#212129"/>
</linearGradient>
<linearGradient id="paint1_linear_1055_3114" x1="234.234" y1="345.386" x2="133.383" y2="-11.9286" gradientUnits="userSpaceOnUse">
<stop stop-color="#09090C"/>
<stop offset="1" stop-color="#212129"/>
</linearGradient>
<linearGradient id="paint2_linear_1055_3114" x1="172.5" y1="172.513" x2="172.5" y2="215" gradientUnits="userSpaceOnUse">
<stop stop-color="#EED9DD"/>
<stop offset="1" stop-color="#5992C0"/>
</linearGradient>
<linearGradient id="paint3_linear_1055_3114" x1="172.508" y1="131.994" x2="172.508" y2="150.99" gradientUnits="userSpaceOnUse">
<stop stop-color="#EED9DD"/>
<stop offset="1" stop-color="#5992C0"/>
</linearGradient>
<clipPath id="clip0_1055_3114">
<rect x="56" y="41" width="233" height="233" rx="116.5" fill="white"/>
</clipPath>
<clipPath id="clip1_1055_3114">
<rect width="250.309" height="241.222" fill="white" transform="translate(57.6914 32.7783)"/>
</clipPath>
</defs>
</svg>
