<svg width="171" height="111" viewBox="0 0 171 111" fill="none" xmlns="http://www.w3.org/2000/svg">
<rect x="0.5" y="0.5" width="170" height="110" rx="3.5" fill="#101114"/>
<rect x="0.5" y="0.5" width="170" height="110" rx="3.5" stroke="#292A36"/>
<rect x="1" y="1" width="170" height="27" fill="#1A1C23"/>
<path d="M13.67 18.1C12.67 18.1 11.93 17.8533 11.45 17.36C10.97 16.8667 10.73 16.1067 10.73 15.08V10.7H11.98V14.85C11.98 15.3833 12.0333 15.8067 12.14 16.12C12.2467 16.4267 12.4233 16.65 12.67 16.79C12.9167 16.9233 13.25 16.99 13.67 16.99C14.0833 16.99 14.4133 16.9233 14.66 16.79C14.9067 16.65 15.0833 16.4267 15.19 16.12C15.2967 15.8067 15.35 15.3833 15.35 14.85V10.7H16.6V15.08C16.6 16.1067 16.36 16.8667 15.88 17.36C15.4 17.8533 14.6633 18.1 13.67 18.1ZM19.6563 18.1C19.2897 18.1 18.9297 18.0633 18.5763 17.99C18.2297 17.9167 17.913 17.8133 17.6263 17.68L17.8063 16.71C18.1197 16.8433 18.4297 16.9467 18.7363 17.02C19.043 17.0867 19.343 17.12 19.6363 17.12C19.9763 17.12 20.2297 17.0733 20.3963 16.98C20.563 16.88 20.6463 16.7333 20.6463 16.54C20.6463 16.42 20.6163 16.32 20.5563 16.24C20.4963 16.16 20.3897 16.09 20.2363 16.03C20.0897 15.9633 19.8797 15.9 19.6063 15.84C19.1397 15.7267 18.7597 15.5967 18.4663 15.45C18.173 15.2967 17.9563 15.1167 17.8163 14.91C17.6763 14.7033 17.6063 14.46 17.6063 14.18C17.6063 13.7 17.7897 13.3333 18.1563 13.08C18.5297 12.8267 19.0663 12.7 19.7663 12.7C20.113 12.7 20.4497 12.7333 20.7763 12.8C21.103 12.86 21.4163 12.9567 21.7163 13.09L21.5463 14.05C21.2597 13.9233 20.9697 13.83 20.6763 13.77C20.3897 13.71 20.103 13.68 19.8163 13.68C19.4897 13.68 19.2463 13.7233 19.0863 13.81C18.933 13.89 18.8563 14.02 18.8563 14.2C18.8563 14.3 18.8863 14.39 18.9463 14.47C19.013 14.55 19.1197 14.62 19.2663 14.68C19.413 14.74 19.6097 14.8 19.8563 14.86C20.2097 14.94 20.513 15.0333 20.7663 15.14C21.0263 15.2467 21.2363 15.37 21.3963 15.51C21.563 15.65 21.6863 15.8067 21.7663 15.98C21.8463 16.1467 21.8863 16.3367 21.8863 16.55C21.8863 17.0433 21.6897 17.4267 21.2963 17.7C20.9097 17.9667 20.363 18.1 19.6563 18.1ZM25.3859 18.1C24.4992 18.1 23.8159 17.8667 23.3359 17.4C22.8625 16.9333 22.6259 16.2667 22.6259 15.4C22.6259 14.56 22.8525 13.9 23.3059 13.42C23.7659 12.94 24.3925 12.7 25.1859 12.7C25.9525 12.7 26.5459 12.9267 26.9659 13.38C27.3859 13.8333 27.5959 14.4767 27.5959 15.31C27.5959 15.4033 27.5925 15.5067 27.5859 15.62C27.5792 15.7333 27.5725 15.8167 27.5659 15.87H23.3059V14.98H26.6259L26.4459 15.25C26.4459 14.7033 26.3392 14.3 26.1259 14.04C25.9192 13.7733 25.6059 13.64 25.1859 13.64C24.7392 13.64 24.3992 13.78 24.1659 14.06C23.9392 14.3333 23.8259 14.74 23.8259 15.28V15.63C23.8259 16.1233 23.9559 16.4967 24.2159 16.75C24.4825 16.9967 24.8759 17.12 25.3959 17.12C25.7025 17.12 26.0092 17.08 26.3159 17C26.6225 16.92 26.8992 16.81 27.1459 16.67L27.3359 17.63C27.0825 17.7767 26.7859 17.8933 26.4459 17.98C26.1125 18.06 25.7592 18.1 25.3859 18.1ZM28.6792 18V12.8H29.8592L29.8692 13.78H29.8892C30.0626 13.5533 30.2659 13.36 30.4992 13.2C30.7392 13.0333 31.0026 12.91 31.2892 12.83C31.5759 12.7433 31.8759 12.7 32.1892 12.7V13.76C31.7692 13.76 31.3859 13.84 31.0392 14C30.6992 14.16 30.4259 14.3767 30.2192 14.65C30.0192 14.9167 29.9192 15.2167 29.9192 15.55V18H28.6792ZM36.0463 18V10.7H37.3463V18H36.0463ZM38.9624 18V12.8H40.1324L40.1424 13.5H40.1624C40.3958 13.2267 40.6558 13.0267 40.9424 12.9C41.2358 12.7667 41.5691 12.7 41.9424 12.7C42.5758 12.7 43.0358 12.8833 43.3224 13.25C43.6158 13.6167 43.7624 14.2 43.7624 15V18H42.5424V15.23C42.5424 14.7167 42.4624 14.3367 42.3024 14.09C42.1424 13.8367 41.8958 13.71 41.5624 13.71C41.3091 13.71 41.0758 13.7733 40.8624 13.9C40.6558 14.0267 40.4924 14.1967 40.3724 14.41C40.2524 14.6167 40.1924 14.8467 40.1924 15.1V18H38.9624ZM45.7297 18V13.98H44.3997V13H45.7297V12.21C45.7297 11.5767 45.8864 11.1 46.1997 10.78C46.5197 10.46 46.9864 10.3 47.5997 10.3C47.7864 10.3 47.9697 10.3133 48.1497 10.34C48.3297 10.3667 48.4964 10.4033 48.6497 10.45L48.5097 11.44C48.2697 11.36 48.033 11.32 47.7997 11.32C47.493 11.32 47.2764 11.3933 47.1497 11.54C47.0297 11.68 46.9697 11.9233 46.9697 12.27V13H48.6097V13.98H46.9697V18H45.7297ZM51.5449 18.1C51.0116 18.1 50.5449 17.99 50.1449 17.77C49.7516 17.55 49.4483 17.2367 49.2349 16.83C49.0216 16.4233 48.9149 15.9467 48.9149 15.4C48.9149 14.8467 49.0216 14.37 49.2349 13.97C49.4483 13.5633 49.7516 13.25 50.1449 13.03C50.5449 12.81 51.0116 12.7 51.5449 12.7C52.0849 12.7 52.5516 12.81 52.9449 13.03C53.3383 13.25 53.6416 13.5633 53.8549 13.97C54.0749 14.37 54.1849 14.8467 54.1849 15.4C54.1849 15.9467 54.0749 16.4233 53.8549 16.83C53.6416 17.2367 53.3383 17.55 52.9449 17.77C52.5516 17.99 52.0849 18.1 51.5449 18.1ZM51.5449 17.12C51.9916 17.12 52.3383 16.97 52.5849 16.67C52.8316 16.37 52.9549 15.9467 52.9549 15.4C52.9549 14.8467 52.8316 14.4233 52.5849 14.13C52.3383 13.83 51.9916 13.68 51.5449 13.68C51.0983 13.68 50.7516 13.83 50.5049 14.13C50.2583 14.4233 50.1349 14.8467 50.1349 15.4C50.1349 15.9467 50.2583 16.37 50.5049 16.67C50.7516 16.97 51.0983 17.12 51.5449 17.12ZM55.2808 18V12.8H56.4608L56.4708 13.78H56.4908C56.6641 13.5533 56.8674 13.36 57.1008 13.2C57.3408 13.0333 57.6041 12.91 57.8908 12.83C58.1774 12.7433 58.4774 12.7 58.7908 12.7V13.76C58.3708 13.76 57.9874 13.84 57.6408 14C57.3008 14.16 57.0274 14.3767 56.8208 14.65C56.6208 14.9167 56.5208 15.2167 56.5208 15.55V18H55.2808ZM59.7144 18V12.8H60.8644L60.8744 13.5H60.8944C61.0677 13.2333 61.2844 13.0333 61.5444 12.9C61.811 12.7667 62.1077 12.7 62.4344 12.7C62.7677 12.7 63.0577 12.77 63.3044 12.91C63.551 13.0433 63.7277 13.24 63.8344 13.5H63.8544C64.0344 13.22 64.2577 13.0167 64.5244 12.89C64.7977 12.7633 65.121 12.7 65.4944 12.7C66.061 12.7 66.4677 12.86 66.7144 13.18C66.961 13.5 67.0844 14.0367 67.0844 14.79V18H65.8844V14.96C65.8844 14.5133 65.821 14.1933 65.6944 14C65.5744 13.8067 65.3744 13.71 65.0944 13.71C64.7477 13.71 64.4777 13.84 64.2844 14.1C64.091 14.36 63.9944 14.72 63.9944 15.18V18H62.8044V14.75C62.8044 14.4167 62.7344 14.16 62.5944 13.98C62.4544 13.8 62.2577 13.71 62.0044 13.71C61.691 13.71 61.431 13.8467 61.2244 14.12C61.0177 14.3933 60.9144 14.7467 60.9144 15.18V18H59.7144ZM69.6458 18.1C69.1258 18.1 68.7158 17.96 68.4158 17.68C68.1224 17.3933 67.9758 17.0067 67.9758 16.52C67.9758 15.9133 68.2124 15.4467 68.6858 15.12C69.1591 14.7933 69.8324 14.63 70.7058 14.63H71.4358C71.4358 14.2833 71.3458 14.04 71.1658 13.9C70.9858 13.7533 70.6791 13.68 70.2458 13.68C69.9124 13.68 69.5924 13.72 69.2858 13.8C68.9858 13.88 68.6758 14.0067 68.3558 14.18L68.2058 13.18C68.5324 13.02 68.8724 12.9 69.2258 12.82C69.5858 12.74 69.9758 12.7 70.3958 12.7C70.9424 12.7 71.3791 12.7667 71.7058 12.9C72.0391 13.0333 72.2791 13.25 72.4258 13.55C72.5791 13.8433 72.6558 14.2333 72.6558 14.72V18H71.4858L71.4758 17.4H71.4558C71.2758 17.6067 71.0158 17.7767 70.6758 17.91C70.3358 18.0367 69.9924 18.1 69.6458 18.1ZM70.0858 17.14C70.3324 17.14 70.5591 17.0967 70.7658 17.01C70.9724 16.9167 71.1358 16.7933 71.2558 16.64C71.3758 16.4867 71.4358 16.3133 71.4358 16.12V15.49H70.8858C70.3124 15.49 69.8791 15.5667 69.5858 15.72C69.2991 15.8667 69.1558 16.0933 69.1558 16.4C69.1558 16.6267 69.2358 16.8067 69.3958 16.94C69.5558 17.0733 69.7858 17.14 70.0858 17.14ZM76.2264 18.1C75.5864 18.1 75.1197 17.9667 74.8264 17.7C74.5397 17.4267 74.3964 16.9867 74.3964 16.38V13.78H73.2364V12.8H74.3964V11.1H75.6264V12.8H77.3864V13.78H75.6264V16.21C75.6264 16.5167 75.6931 16.7367 75.8264 16.87C75.9597 16.9967 76.1797 17.06 76.4864 17.06C76.6131 17.06 76.7397 17.05 76.8664 17.03C76.9931 17.0033 77.1197 16.9667 77.2464 16.92L77.3864 17.91C77.1797 17.9767 76.9864 18.0233 76.8064 18.05C76.6264 18.0833 76.4331 18.1 76.2264 18.1ZM78.8509 18V12.85H80.0909V18H78.8509ZM79.4709 12.11C79.2309 12.11 79.0409 12.0433 78.9009 11.91C78.7609 11.77 78.6909 11.5833 78.6909 11.35C78.6909 11.1167 78.7609 10.93 78.9009 10.79C79.0409 10.65 79.2309 10.58 79.4709 10.58C79.7109 10.58 79.9009 10.65 80.0409 10.79C80.1809 10.93 80.2509 11.1167 80.2509 11.35C80.2509 11.5833 80.1809 11.77 80.0409 11.91C79.9009 12.0433 79.7109 12.11 79.4709 12.11ZM84.0645 18.1C83.5311 18.1 83.0645 17.99 82.6645 17.77C82.2711 17.55 81.9678 17.2367 81.7545 16.83C81.5411 16.4233 81.4345 15.9467 81.4345 15.4C81.4345 14.8467 81.5411 14.37 81.7545 13.97C81.9678 13.5633 82.2711 13.25 82.6645 13.03C83.0645 12.81 83.5311 12.7 84.0645 12.7C84.6045 12.7 85.0711 12.81 85.4645 13.03C85.8578 13.25 86.1611 13.5633 86.3745 13.97C86.5945 14.37 86.7045 14.8467 86.7045 15.4C86.7045 15.9467 86.5945 16.4233 86.3745 16.83C86.1611 17.2367 85.8578 17.55 85.4645 17.77C85.0711 17.99 84.6045 18.1 84.0645 18.1ZM84.0645 17.12C84.5111 17.12 84.8578 16.97 85.1045 16.67C85.3511 16.37 85.4745 15.9467 85.4745 15.4C85.4745 14.8467 85.3511 14.4233 85.1045 14.13C84.8578 13.83 84.5111 13.68 84.0645 13.68C83.6178 13.68 83.2711 13.83 83.0245 14.13C82.7778 14.4233 82.6545 14.8467 82.6545 15.4C82.6545 15.9467 82.7778 16.37 83.0245 16.67C83.2711 16.97 83.6178 17.12 84.0645 17.12ZM87.8003 18V12.8H88.9703L88.9803 13.5H89.0003C89.2336 13.2267 89.4936 13.0267 89.7803 12.9C90.0736 12.7667 90.407 12.7 90.7803 12.7C91.4136 12.7 91.8736 12.8833 92.1603 13.25C92.4536 13.6167 92.6003 14.2 92.6003 15V18H91.3803V15.23C91.3803 14.7167 91.3003 14.3367 91.1403 14.09C90.9803 13.8367 90.7336 13.71 90.4003 13.71C90.147 13.71 89.9136 13.7733 89.7003 13.9C89.4936 14.0267 89.3303 14.1967 89.2103 14.41C89.0903 14.6167 89.0303 14.8467 89.0303 15.1V18H87.8003ZM98.6668 18V11.81H96.2568V10.7H102.377V11.81H99.9568V18H98.6668ZM104.191 18.1C103.658 18.1 103.191 17.99 102.791 17.77C102.398 17.55 102.095 17.2367 101.881 16.83C101.668 16.4233 101.561 15.9467 101.561 15.4C101.561 14.8467 101.668 14.37 101.881 13.97C102.095 13.5633 102.398 13.25 102.791 13.03C103.191 12.81 103.658 12.7 104.191 12.7C104.731 12.7 105.198 12.81 105.591 13.03C105.985 13.25 106.288 13.5633 106.501 13.97C106.721 14.37 106.831 14.8467 106.831 15.4C106.831 15.9467 106.721 16.4233 106.501 16.83C106.288 17.2367 105.985 17.55 105.591 17.77C105.198 17.99 104.731 18.1 104.191 18.1ZM104.191 17.12C104.638 17.12 104.985 16.97 105.231 16.67C105.478 16.37 105.601 15.9467 105.601 15.4C105.601 14.8467 105.478 14.4233 105.231 14.13C104.985 13.83 104.638 13.68 104.191 13.68C103.745 13.68 103.398 13.83 103.151 14.13C102.905 14.4233 102.781 14.8467 102.781 15.4C102.781 15.9467 102.905 16.37 103.151 16.67C103.398 16.97 103.745 17.12 104.191 17.12ZM110.246 18.1C109.713 18.1 109.246 17.99 108.846 17.77C108.453 17.55 108.149 17.2367 107.936 16.83C107.723 16.4233 107.616 15.9467 107.616 15.4C107.616 14.8467 107.723 14.37 107.936 13.97C108.149 13.5633 108.453 13.25 108.846 13.03C109.246 12.81 109.713 12.7 110.246 12.7C110.786 12.7 111.253 12.81 111.646 13.03C112.039 13.25 112.343 13.5633 112.556 13.97C112.776 14.37 112.886 14.8467 112.886 15.4C112.886 15.9467 112.776 16.4233 112.556 16.83C112.343 17.2367 112.039 17.55 111.646 17.77C111.253 17.99 110.786 18.1 110.246 18.1ZM110.246 17.12C110.693 17.12 111.039 16.97 111.286 16.67C111.533 16.37 111.656 15.9467 111.656 15.4C111.656 14.8467 111.533 14.4233 111.286 14.13C111.039 13.83 110.693 13.68 110.246 13.68C109.799 13.68 109.453 13.83 109.206 14.13C108.959 14.4233 108.836 14.8467 108.836 15.4C108.836 15.9467 108.959 16.37 109.206 16.67C109.453 16.97 109.799 17.12 110.246 17.12ZM114.062 18V10.7H115.302V18H114.062Z" fill="#9A9CBC"/>
<path d="M13.68 46.1C12.7133 46.1 11.9967 45.86 11.53 45.38C11.07 44.8933 10.84 44.1433 10.84 43.13V38.7H11.64V43C11.64 43.5667 11.7067 44.0233 11.84 44.37C11.98 44.7167 12.2 44.97 12.5 45.13C12.8 45.29 13.1933 45.37 13.68 45.37C14.1667 45.37 14.5567 45.29 14.85 45.13C15.15 44.97 15.3667 44.7167 15.5 44.37C15.64 44.0233 15.71 43.5667 15.71 43V38.7H16.51V43.13C16.51 44.1433 16.28 44.8933 15.82 45.38C15.36 45.86 14.6467 46.1 13.68 46.1ZM19.6259 46.1C19.2725 46.1 18.9292 46.0633 18.5959 45.99C18.2625 45.9167 17.9625 45.8133 17.6959 45.68L17.8459 45.02C18.1259 45.1533 18.4125 45.2567 18.7059 45.33C19.0059 45.3967 19.3092 45.43 19.6159 45.43C20.0425 45.43 20.3659 45.36 20.5859 45.22C20.8059 45.08 20.9159 44.8733 20.9159 44.6C20.9159 44.4133 20.8659 44.2633 20.7659 44.15C20.6659 44.0367 20.5192 43.9433 20.3259 43.87C20.1325 43.7967 19.8859 43.7267 19.5859 43.66C19.1859 43.56 18.8425 43.4467 18.5559 43.32C18.2759 43.1933 18.0592 43.0333 17.9059 42.84C17.7592 42.64 17.6859 42.3967 17.6859 42.11C17.6859 41.6567 17.8592 41.31 18.2059 41.07C18.5592 40.8233 19.0525 40.7 19.6859 40.7C20.0192 40.7 20.3492 40.7333 20.6759 40.8C21.0025 40.8667 21.2925 40.9633 21.5459 41.09L21.4059 41.74C21.1592 41.62 20.8892 41.53 20.5959 41.47C20.3025 41.4033 20.0092 41.37 19.7159 41.37C19.3092 41.37 19.0025 41.4333 18.7959 41.56C18.5892 41.6867 18.4859 41.8733 18.4859 42.12C18.4859 42.28 18.5325 42.4133 18.6259 42.52C18.7259 42.6267 18.8692 42.7167 19.0559 42.79C19.2492 42.8633 19.4825 42.93 19.7559 42.99C20.0625 43.0633 20.3359 43.1467 20.5759 43.24C20.8225 43.3267 21.0292 43.4333 21.1959 43.56C21.3625 43.6867 21.4892 43.8367 21.5759 44.01C21.6692 44.1767 21.7159 44.3767 21.7159 44.61C21.7159 45.0833 21.5325 45.45 21.1659 45.71C20.7992 45.97 20.2859 46.1 19.6259 46.1ZM25.1884 46.1C24.3551 46.1 23.7118 45.8667 23.2584 45.4C22.8051 44.9333 22.5784 44.2667 22.5784 43.4C22.5784 42.56 22.7951 41.9 23.2284 41.42C23.6684 40.94 24.2751 40.7 25.0484 40.7C25.7884 40.7 26.3551 40.9267 26.7484 41.38C27.1418 41.8267 27.3384 42.47 27.3384 43.31C27.3384 43.3767 27.3384 43.4467 27.3384 43.52C27.3384 43.5933 27.3351 43.6567 27.3284 43.71H23.0084V43.07H26.7484L26.5984 43.28C26.5984 42.6333 26.4684 42.15 26.2084 41.83C25.9484 41.51 25.5618 41.35 25.0484 41.35C24.5018 41.35 24.0818 41.5233 23.7884 41.87C23.4951 42.21 23.3484 42.6967 23.3484 43.33V43.53C23.3484 44.1567 23.5051 44.63 23.8184 44.95C24.1318 45.27 24.5918 45.43 25.1984 45.43C25.5184 45.43 25.8284 45.39 26.1284 45.31C26.4284 45.2233 26.6984 45.1 26.9384 44.94L27.1084 45.57C26.8551 45.7367 26.5618 45.8667 26.2284 45.96C25.9018 46.0533 25.5551 46.1 25.1884 46.1ZM28.5841 46V40.8H29.3441L29.3541 41.89H29.3741C29.5275 41.6433 29.7241 41.4333 29.9641 41.26C30.2041 41.08 30.4775 40.9433 30.7841 40.85C31.0908 40.75 31.4141 40.7 31.7541 40.7V41.4C31.3141 41.4 30.9141 41.49 30.5541 41.67C30.1941 41.85 29.9075 42.09 29.6941 42.39C29.4875 42.69 29.3841 43.0267 29.3841 43.4V46H28.5841ZM35.8445 46V38.7H36.6745V46H35.8445ZM38.5451 46V40.8H39.3151V41.57H39.3351C39.5417 41.2833 39.8017 41.0667 40.1151 40.92C40.4351 40.7733 40.7951 40.7 41.1951 40.7C41.8284 40.7 42.2951 40.89 42.5951 41.27C42.8951 41.6433 43.0451 42.22 43.0451 43V46H42.2551V43.14C42.2551 42.54 42.1517 42.0967 41.9451 41.81C41.7384 41.5167 41.4217 41.37 40.9951 41.37C40.6751 41.37 40.3884 41.4433 40.1351 41.59C39.8884 41.73 39.6917 41.9267 39.5451 42.18C39.4051 42.4267 39.3351 42.7133 39.3351 43.04V46H38.5451ZM45.1868 46V41.67H43.7168V41H45.1868V40.03C45.1868 39.45 45.3268 39.0167 45.6068 38.73C45.8868 38.4433 46.3101 38.3 46.8768 38.3C47.0435 38.3 47.2068 38.3133 47.3668 38.34C47.5268 38.3667 47.6768 38.4033 47.8168 38.45L47.7068 39.11C47.4668 39.03 47.2268 38.99 46.9868 38.99C46.6268 38.99 46.3668 39.0733 46.2068 39.24C46.0535 39.4067 45.9768 39.69 45.9768 40.09V41H47.7968V41.67H45.9768V46H45.1868ZM50.6358 46.1C50.1224 46.1 49.6724 45.99 49.2858 45.77C48.9058 45.55 48.6124 45.2367 48.4058 44.83C48.2058 44.4233 48.1058 43.9467 48.1058 43.4C48.1058 42.8467 48.2058 42.37 48.4058 41.97C48.6124 41.5633 48.9058 41.25 49.2858 41.03C49.6724 40.81 50.1224 40.7 50.6358 40.7C51.1558 40.7 51.6024 40.81 51.9758 41.03C52.3558 41.25 52.6491 41.5633 52.8558 41.97C53.0624 42.37 53.1658 42.8467 53.1658 43.4C53.1658 43.9467 53.0624 44.4233 52.8558 44.83C52.6491 45.2367 52.3558 45.55 51.9758 45.77C51.6024 45.99 51.1558 46.1 50.6358 46.1ZM50.6358 45.43C51.1824 45.43 51.6091 45.25 51.9158 44.89C52.2291 44.53 52.3858 44.0333 52.3858 43.4C52.3858 42.76 52.2291 42.2633 51.9158 41.91C51.6091 41.55 51.1824 41.37 50.6358 41.37C50.0891 41.37 49.6591 41.55 49.3458 41.91C49.0391 42.2633 48.8858 42.76 48.8858 43.4C48.8858 44.0333 49.0391 44.53 49.3458 44.89C49.6591 45.25 50.0891 45.43 50.6358 45.43ZM54.4338 46V40.8H55.1938L55.2038 41.89H55.2238C55.3771 41.6433 55.5738 41.4333 55.8138 41.26C56.0538 41.08 56.3271 40.9433 56.6338 40.85C56.9404 40.75 57.2638 40.7 57.6038 40.7V41.4C57.1638 41.4 56.7638 41.49 56.4038 41.67C56.0438 41.85 55.7571 42.09 55.5438 42.39C55.3371 42.69 55.2338 43.0267 55.2338 43.4V46H54.4338ZM58.633 46V40.8H59.373L59.383 41.57H59.403C59.5696 41.29 59.7896 41.0767 60.063 40.93C60.343 40.7767 60.663 40.7 61.023 40.7C61.383 40.7 61.6896 40.7767 61.943 40.93C62.203 41.0767 62.383 41.29 62.483 41.57H62.503C62.663 41.2767 62.883 41.06 63.163 40.92C63.4496 40.7733 63.793 40.7 64.193 40.7C64.7663 40.7 65.1763 40.8633 65.423 41.19C65.6763 41.5167 65.803 42.0667 65.803 42.84V46H65.023V42.94C65.023 42.3733 64.943 41.97 64.783 41.73C64.623 41.49 64.353 41.37 63.973 41.37C63.5263 41.37 63.1863 41.5233 62.953 41.83C62.7196 42.13 62.603 42.5733 62.603 43.16V46H61.833V42.6C61.833 42.2133 61.7396 41.9133 61.553 41.7C61.3663 41.48 61.1096 41.37 60.783 41.37C60.3763 41.37 60.043 41.5367 59.783 41.87C59.5296 42.1967 59.403 42.6267 59.403 43.16V46H58.633ZM68.5344 46.1C68.0077 46.1 67.591 45.96 67.2844 45.68C66.9777 45.3933 66.8244 45.01 66.8244 44.53C66.8244 43.93 67.0677 43.47 67.5544 43.15C68.041 42.8233 68.7377 42.66 69.6444 42.66H70.4744C70.4744 42.1867 70.3644 41.8533 70.1444 41.66C69.931 41.4667 69.5677 41.37 69.0544 41.37C68.701 41.37 68.371 41.4133 68.0644 41.5C67.7644 41.58 67.461 41.71 67.1544 41.89L67.0244 41.22C67.3377 41.04 67.6677 40.91 68.0144 40.83C68.361 40.7433 68.7377 40.7 69.1444 40.7C69.651 40.7 70.0577 40.77 70.3644 40.91C70.6777 41.0433 70.9044 41.26 71.0444 41.56C71.191 41.8533 71.2644 42.2433 71.2644 42.73V46H70.5044V45.29H70.4744C70.301 45.53 70.031 45.7267 69.6644 45.88C69.3044 46.0267 68.9277 46.1 68.5344 46.1ZM68.7844 45.45C69.0977 45.45 69.381 45.39 69.6344 45.27C69.8944 45.15 70.0977 44.99 70.2444 44.79C70.3977 44.5833 70.4744 44.3567 70.4744 44.11V43.27H69.7444C69.0377 43.27 68.5044 43.3733 68.1444 43.58C67.7844 43.78 67.6044 44.0733 67.6044 44.46C67.6044 44.7667 67.7077 45.01 67.9144 45.19C68.121 45.3633 68.411 45.45 68.7844 45.45ZM74.9195 46.1C74.3195 46.1 73.8828 45.97 73.6095 45.71C73.3428 45.45 73.2095 45.0233 73.2095 44.43V41.47H71.9495V40.8H73.2095V39.1H74.0095V40.8H75.9395V41.47H74.0095V44.33C74.0095 44.7167 74.0895 44.9933 74.2495 45.16C74.4095 45.32 74.6795 45.4 75.0595 45.4C75.2061 45.4 75.3395 45.39 75.4595 45.37C75.5795 45.3433 75.7061 45.3067 75.8395 45.26L75.9495 45.92C75.7761 45.98 75.6061 46.0233 75.4395 46.05C75.2795 46.0833 75.1061 46.1 74.9195 46.1ZM77.5555 46V40.8H78.3555V46H77.5555ZM77.9555 39.81C77.7822 39.81 77.6389 39.7567 77.5255 39.65C77.4189 39.5367 77.3655 39.39 77.3655 39.21C77.3655 39.0367 77.4189 38.8967 77.5255 38.79C77.6389 38.6767 77.7822 38.62 77.9555 38.62C78.1355 38.62 78.2789 38.6767 78.3855 38.79C78.4989 38.8967 78.5555 39.0367 78.5555 39.21C78.5555 39.39 78.4989 39.5367 78.3855 39.65C78.2789 39.7567 78.1355 39.81 77.9555 39.81ZM82.4424 46.1C81.9291 46.1 81.4791 45.99 81.0924 45.77C80.7124 45.55 80.4191 45.2367 80.2124 44.83C80.0124 44.4233 79.9124 43.9467 79.9124 43.4C79.9124 42.8467 80.0124 42.37 80.2124 41.97C80.4191 41.5633 80.7124 41.25 81.0924 41.03C81.4791 40.81 81.9291 40.7 82.4424 40.7C82.9624 40.7 83.4091 40.81 83.7824 41.03C84.1624 41.25 84.4558 41.5633 84.6624 41.97C84.8691 42.37 84.9724 42.8467 84.9724 43.4C84.9724 43.9467 84.8691 44.4233 84.6624 44.83C84.4558 45.2367 84.1624 45.55 83.7824 45.77C83.4091 45.99 82.9624 46.1 82.4424 46.1ZM82.4424 45.43C82.9891 45.43 83.4158 45.25 83.7224 44.89C84.0358 44.53 84.1924 44.0333 84.1924 43.4C84.1924 42.76 84.0358 42.2633 83.7224 41.91C83.4158 41.55 82.9891 41.37 82.4424 41.37C81.8958 41.37 81.4658 41.55 81.1524 41.91C80.8458 42.2633 80.6924 42.76 80.6924 43.4C80.6924 44.0333 80.8458 44.53 81.1524 44.89C81.4658 45.25 81.8958 45.43 82.4424 45.43ZM86.2404 46V40.8H87.0104V41.57H87.0304C87.2371 41.2833 87.4971 41.0667 87.8104 40.92C88.1304 40.7733 88.4904 40.7 88.8904 40.7C89.5237 40.7 89.9904 40.89 90.2904 41.27C90.5904 41.6433 90.7404 42.22 90.7404 43V46H89.9504V43.14C89.9504 42.54 89.8471 42.0967 89.6404 41.81C89.4337 41.5167 89.1171 41.37 88.6904 41.37C88.3704 41.37 88.0837 41.4433 87.8304 41.59C87.5837 41.73 87.3871 41.9267 87.2404 42.18C87.1004 42.4267 87.0304 42.7133 87.0304 43.04V46H86.2404ZM10.93 61V53.7H15.57V54.42H11.73V56.8H15.37V57.51H11.73V60.28H15.57V61H10.93ZM16.5023 61L18.3323 58.38L16.5323 55.8H17.4423L18.8523 57.94H18.8723L20.2923 55.8H21.2023L19.4023 58.38L21.2323 61H20.3223L18.8723 58.82H18.8523L17.4123 61H16.5023ZM24.812 61.1C24.212 61.1 23.7754 60.97 23.502 60.71C23.2354 60.45 23.102 60.0233 23.102 59.43V56.47H21.842V55.8H23.102V54.1H23.902V55.8H25.832V56.47H23.902V59.33C23.902 59.7167 23.982 59.9933 24.142 60.16C24.302 60.32 24.572 60.4 24.952 60.4C25.0987 60.4 25.232 60.39 25.352 60.37C25.472 60.3433 25.5987 60.3067 25.732 60.26L25.842 60.92C25.6687 60.98 25.4987 61.0233 25.332 61.05C25.172 61.0833 24.9987 61.1 24.812 61.1ZM27.1681 61V55.8H27.9281L27.9381 56.89H27.9581C28.1115 56.6433 28.3081 56.4333 28.5481 56.26C28.7881 56.08 29.0615 55.9433 29.3681 55.85C29.6748 55.75 29.9981 55.7 30.3381 55.7V56.4C29.8981 56.4 29.4981 56.49 29.1381 56.67C28.7781 56.85 28.4915 57.09 28.2781 57.39C28.0715 57.69 27.9681 58.0267 27.9681 58.4V61H27.1681ZM32.4602 61.1C31.9335 61.1 31.5168 60.96 31.2102 60.68C30.9035 60.3933 30.7502 60.01 30.7502 59.53C30.7502 58.93 30.9935 58.47 31.4802 58.15C31.9668 57.8233 32.6635 57.66 33.5702 57.66H34.4002C34.4002 57.1867 34.2902 56.8533 34.0702 56.66C33.8568 56.4667 33.4935 56.37 32.9802 56.37C32.6268 56.37 32.2968 56.4133 31.9902 56.5C31.6902 56.58 31.3868 56.71 31.0802 56.89L30.9502 56.22C31.2635 56.04 31.5935 55.91 31.9402 55.83C32.2868 55.7433 32.6635 55.7 33.0702 55.7C33.5768 55.7 33.9835 55.77 34.2902 55.91C34.6035 56.0433 34.8302 56.26 34.9702 56.56C35.1168 56.8533 35.1902 57.2433 35.1902 57.73V61H34.4302V60.29H34.4002C34.2268 60.53 33.9568 60.7267 33.5902 60.88C33.2302 61.0267 32.8535 61.1 32.4602 61.1ZM32.7102 60.45C33.0235 60.45 33.3068 60.39 33.5602 60.27C33.8202 60.15 34.0235 59.99 34.1702 59.79C34.3235 59.5833 34.4002 59.3567 34.4002 59.11V58.27H33.6702C32.9635 58.27 32.4302 58.3733 32.0702 58.58C31.7102 58.78 31.5302 59.0733 31.5302 59.46C31.5302 59.7667 31.6335 60.01 31.8402 60.19C32.0468 60.3633 32.3368 60.45 32.7102 60.45ZM39.0191 61.1C38.4525 61.1 37.9658 60.9933 37.5591 60.78C37.1525 60.56 36.8391 60.25 36.6191 59.85C36.4058 59.4433 36.2991 58.96 36.2991 58.4C36.2991 57.84 36.4058 57.36 36.6191 56.96C36.8391 56.5533 37.1525 56.2433 37.5591 56.03C37.9658 55.81 38.4525 55.7 39.0191 55.7C39.2991 55.7 39.5658 55.73 39.8191 55.79C40.0725 55.8433 40.3191 55.9333 40.5591 56.06L40.4091 56.7C40.1825 56.5867 39.9591 56.5033 39.7391 56.45C39.5191 56.3967 39.2958 56.37 39.0691 56.37C38.4491 56.37 37.9658 56.55 37.6191 56.91C37.2725 57.2633 37.0991 57.76 37.0991 58.4C37.0991 59.0333 37.2725 59.53 37.6191 59.89C37.9658 60.25 38.4491 60.43 39.0691 60.43C39.2958 60.43 39.5191 60.4033 39.7391 60.35C39.9591 60.2967 40.1825 60.2133 40.4091 60.1L40.5591 60.74C40.3191 60.86 40.0725 60.95 39.8191 61.01C39.5658 61.07 39.2991 61.1 39.0191 61.1ZM44.3433 61.1C43.7433 61.1 43.3066 60.97 43.0333 60.71C42.7666 60.45 42.6333 60.0233 42.6333 59.43V56.47H41.3733V55.8H42.6333V54.1H43.4333V55.8H45.3633V56.47H43.4333V59.33C43.4333 59.7167 43.5133 59.9933 43.6733 60.16C43.8333 60.32 44.1033 60.4 44.4833 60.4C44.6299 60.4 44.7633 60.39 44.8833 60.37C45.0033 60.3433 45.1299 60.3067 45.2633 60.26L45.3733 60.92C45.1999 60.98 45.0299 61.0233 44.8633 61.05C44.7033 61.0833 44.5299 61.1 44.3433 61.1ZM48.6534 61.1C48.14 61.1 47.69 60.99 47.3034 60.77C46.9234 60.55 46.63 60.2367 46.4234 59.83C46.2234 59.4233 46.1234 58.9467 46.1234 58.4C46.1234 57.8467 46.2234 57.37 46.4234 56.97C46.63 56.5633 46.9234 56.25 47.3034 56.03C47.69 55.81 48.14 55.7 48.6534 55.7C49.1734 55.7 49.62 55.81 49.9934 56.03C50.3734 56.25 50.6667 56.5633 50.8734 56.97C51.08 57.37 51.1834 57.8467 51.1834 58.4C51.1834 58.9467 51.08 59.4233 50.8734 59.83C50.6667 60.2367 50.3734 60.55 49.9934 60.77C49.62 60.99 49.1734 61.1 48.6534 61.1ZM48.6534 60.43C49.2 60.43 49.6267 60.25 49.9334 59.89C50.2467 59.53 50.4034 59.0333 50.4034 58.4C50.4034 57.76 50.2467 57.2633 49.9334 56.91C49.6267 56.55 49.2 56.37 48.6534 56.37C48.1067 56.37 47.6767 56.55 47.3634 56.91C47.0567 57.2633 46.9034 57.76 46.9034 58.4C46.9034 59.0333 47.0567 59.53 47.3634 59.89C47.6767 60.25 48.1067 60.43 48.6534 60.43ZM52.4513 61V55.8H53.2113L53.2213 56.89H53.2413C53.3947 56.6433 53.5913 56.4333 53.8313 56.26C54.0713 56.08 54.3447 55.9433 54.6513 55.85C54.958 55.75 55.2813 55.7 55.6213 55.7V56.4C55.1813 56.4 54.7813 56.49 54.4213 56.67C54.0613 56.85 53.7747 57.09 53.5613 57.39C53.3547 57.69 53.2513 58.0267 53.2513 58.4V61H52.4513Z" fill="#9A9CBC"/>
<rect x="10.5" y="81.5" width="56" height="19" rx="5.5" fill="#1E2027"/>
<rect x="10.5" y="81.5" width="56" height="19" rx="5.5" stroke="#292A36"/>
<path d="M19.244 94.5V88.66H19.9V93.916H23.22V94.5H19.244ZM24.9994 94.58C24.578 94.58 24.2447 94.468 23.9994 94.244C23.754 94.0147 23.6314 93.708 23.6314 93.324C23.6314 92.844 23.826 92.476 24.2154 92.22C24.6047 91.9587 25.162 91.828 25.8874 91.828H26.5514C26.5514 91.4493 26.4634 91.1827 26.2874 91.028C26.1167 90.8733 25.826 90.796 25.4154 90.796C25.1327 90.796 24.8687 90.8307 24.6234 90.9C24.3834 90.964 24.1407 91.068 23.8954 91.212L23.7914 90.676C24.042 90.532 24.306 90.428 24.5834 90.364C24.8607 90.2947 25.162 90.26 25.4874 90.26C25.8927 90.26 26.218 90.316 26.4634 90.428C26.714 90.5347 26.8954 90.708 27.0074 90.948C27.1247 91.1827 27.1834 91.4947 27.1834 91.884V94.5H26.5754V93.932H26.5514C26.4127 94.124 26.1967 94.2813 25.9034 94.404C25.6154 94.5213 25.314 94.58 24.9994 94.58ZM25.1994 94.06C25.45 94.06 25.6767 94.012 25.8794 93.916C26.0874 93.82 26.25 93.692 26.3674 93.532C26.49 93.3667 26.5514 93.1853 26.5514 92.988V92.316H25.9674C25.402 92.316 24.9754 92.3987 24.6874 92.564C24.3994 92.724 24.2554 92.9587 24.2554 93.268C24.2554 93.5133 24.338 93.708 24.5034 93.852C24.6687 93.9907 24.9007 94.06 25.1994 94.06ZM28.3986 94.5V90.34H29.0146V90.956H29.0306C29.1959 90.7267 29.4039 90.5533 29.6546 90.436C29.9106 90.3187 30.1986 90.26 30.5186 90.26C31.0252 90.26 31.3986 90.412 31.6386 90.716C31.8786 91.0147 31.9986 91.476 31.9986 92.1V94.5H31.3666V92.212C31.3666 91.732 31.2839 91.3773 31.1186 91.148C30.9532 90.9133 30.6999 90.796 30.3586 90.796C30.1026 90.796 29.8732 90.8547 29.6706 90.972C29.4732 91.084 29.3159 91.2413 29.1986 91.444C29.0866 91.6413 29.0306 91.8707 29.0306 92.132V94.5H28.3986ZM34.6751 96.26C34.3551 96.26 34.0671 96.2227 33.8111 96.148C33.5551 96.0733 33.3231 95.9587 33.1151 95.804L33.2751 95.292C33.4831 95.4413 33.6937 95.5507 33.9071 95.62C34.1204 95.6893 34.3604 95.724 34.6271 95.724C35.1391 95.724 35.5097 95.5933 35.7391 95.332C35.9737 95.076 36.0911 94.6653 36.0911 94.1V93.732H36.0751C35.9311 93.9187 35.7337 94.068 35.4831 94.18C35.2324 94.2867 34.9551 94.34 34.6511 94.34C34.0964 94.34 33.6617 94.1613 33.3471 93.804C33.0324 93.4413 32.8751 92.94 32.8751 92.3C32.8751 91.66 33.0324 91.1613 33.3471 90.804C33.6617 90.4413 34.0964 90.26 34.6511 90.26C34.9551 90.26 35.2351 90.316 35.4911 90.428C35.7471 90.5347 35.9471 90.6813 36.0911 90.868H36.1071L36.1151 90.34H36.7151V94.1C36.7151 94.8307 36.5471 95.372 36.2111 95.724C35.8804 96.0813 35.3684 96.26 34.6751 96.26ZM34.7871 93.804C35.0377 93.804 35.2591 93.7587 35.4511 93.668C35.6484 93.572 35.8031 93.444 35.9151 93.284C36.0324 93.1187 36.0911 92.9293 36.0911 92.716V91.884C36.0911 91.676 36.0324 91.4893 35.9151 91.324C35.8031 91.1587 35.6484 91.0307 35.4511 90.94C35.2591 90.844 35.0377 90.796 34.7871 90.796C34.3817 90.796 34.0644 90.9267 33.8351 91.188C33.6111 91.4493 33.4991 91.82 33.4991 92.3C33.4991 92.78 33.6111 93.1507 33.8351 93.412C34.0644 93.6733 34.3817 93.804 34.7871 93.804ZM39.9184 94.58C39.4651 94.58 39.0758 94.4947 38.7504 94.324C38.4251 94.148 38.1744 93.9 37.9984 93.58C37.8278 93.2547 37.7424 92.868 37.7424 92.42C37.7424 91.972 37.8278 91.588 37.9984 91.268C38.1744 90.9427 38.4251 90.6947 38.7504 90.524C39.0758 90.348 39.4651 90.26 39.9184 90.26C40.1424 90.26 40.3558 90.284 40.5584 90.332C40.7611 90.3747 40.9584 90.4467 41.1504 90.548L41.0304 91.06C40.8491 90.9693 40.6704 90.9027 40.4944 90.86C40.3184 90.8173 40.1398 90.796 39.9584 90.796C39.4624 90.796 39.0758 90.94 38.7984 91.228C38.5211 91.5107 38.3824 91.908 38.3824 92.42C38.3824 92.9267 38.5211 93.324 38.7984 93.612C39.0758 93.9 39.4624 94.044 39.9584 94.044C40.1398 94.044 40.3184 94.0227 40.4944 93.98C40.6704 93.9373 40.8491 93.8707 41.0304 93.78L41.1504 94.292C40.9584 94.388 40.7611 94.46 40.5584 94.508C40.3558 94.556 40.1424 94.58 39.9184 94.58ZM42.3673 94.5V88.66H42.9993V90.9H43.0153C43.1753 90.692 43.3806 90.5347 43.6313 90.428C43.882 90.316 44.17 90.26 44.4953 90.26C45.0073 90.26 45.3806 90.396 45.6153 90.668C45.8553 90.94 45.9726 91.364 45.9673 91.94V94.5H45.3433V92.052C45.3486 91.62 45.2686 91.3027 45.1033 91.1C44.938 90.8973 44.682 90.796 44.3353 90.796C44.074 90.796 43.842 90.8493 43.6393 90.956C43.442 91.0573 43.2873 91.1987 43.1753 91.38C43.0633 91.556 43.0046 91.764 42.9993 92.004V94.5H42.3673ZM48.1478 94.58C47.7265 94.58 47.3931 94.468 47.1478 94.244C46.9025 94.0147 46.7798 93.708 46.7798 93.324C46.7798 92.844 46.9745 92.476 47.3638 92.22C47.7531 91.9587 48.3105 91.828 49.0358 91.828H49.6998C49.6998 91.4493 49.6118 91.1827 49.4358 91.028C49.2651 90.8733 48.9745 90.796 48.5638 90.796C48.2811 90.796 48.0171 90.8307 47.7718 90.9C47.5318 90.964 47.2891 91.068 47.0438 91.212L46.9398 90.676C47.1905 90.532 47.4545 90.428 47.7318 90.364C48.0091 90.2947 48.3105 90.26 48.6358 90.26C49.0411 90.26 49.3665 90.316 49.6118 90.428C49.8625 90.5347 50.0438 90.708 50.1558 90.948C50.2731 91.1827 50.3318 91.4947 50.3318 91.884V94.5H49.7238V93.932H49.6998C49.5611 94.124 49.3451 94.2813 49.0518 94.404C48.7638 94.5213 48.4625 94.58 48.1478 94.58ZM48.3478 94.06C48.5985 94.06 48.8251 94.012 49.0278 93.916C49.2358 93.82 49.3985 93.692 49.5158 93.532C49.6385 93.3667 49.6998 93.1853 49.6998 92.988V92.316H49.1158C48.5505 92.316 48.1238 92.3987 47.8358 92.564C47.5478 92.724 47.4038 92.9587 47.4038 93.268C47.4038 93.5133 47.4865 93.708 47.6518 93.852C47.8171 93.9907 48.0491 94.06 48.3478 94.06ZM51.771 94.5V90.34H52.411V94.5H51.771ZM52.091 89.548C51.9523 89.548 51.8377 89.5053 51.747 89.42C51.6617 89.3293 51.619 89.212 51.619 89.068C51.619 88.9293 51.6617 88.8173 51.747 88.732C51.8377 88.6413 51.9523 88.596 52.091 88.596C52.235 88.596 52.3497 88.6413 52.435 88.732C52.5257 88.8173 52.571 88.9293 52.571 89.068C52.571 89.212 52.5257 89.3293 52.435 89.42C52.3497 89.5053 52.235 89.548 52.091 89.548ZM53.9845 94.5V90.34H54.6005V90.956H54.6165C54.7818 90.7267 54.9898 90.5533 55.2405 90.436C55.4965 90.3187 55.7845 90.26 56.1045 90.26C56.6112 90.26 56.9845 90.412 57.2245 90.716C57.4645 91.0147 57.5845 91.476 57.5845 92.1V94.5H56.9525V92.212C56.9525 91.732 56.8698 91.3773 56.7045 91.148C56.5392 90.9133 56.2858 90.796 55.9445 90.796C55.6885 90.796 55.4592 90.8547 55.2565 90.972C55.0592 91.084 54.9018 91.2413 54.7845 91.444C54.6725 91.6413 54.6165 91.8707 54.6165 92.132V94.5H53.9845Z" fill="#9A9CBC"/>
</svg>
